<?xml version="1.0" encoding="utf-8"?>
<!-- Generator: Adobe Illustrator 16.0.4, SVG Export Plug-In . SVG Version: 6.00 Build 0)  -->
<!DOCTYPE svg PUBLIC "-//W3C//DTD SVG 1.1//EN" "http://www.w3.org/Graphics/SVG/1.1/DTD/svg11.dtd">
<svg version="1.1" id="Calque_1" xmlns:sketch="http://www.bohemiancoding.com/sketch/ns"
	 xmlns="http://www.w3.org/2000/svg" xmlns:xlink="http://www.w3.org/1999/xlink" x="0px" y="0px" width="50px" height="50px"
	 viewBox="0 0 50 50" enable-background="new 0 0 50 50" xml:space="preserve">
<title></title>
<path fill="#FFFFFF" d="M45.728,25.146h-5.922V9.749H13.748v5.678l-0.75-0.413l-8.726-4.97v9.941v9.943l8.705-4.972l0.771-0.424
	v6.537h13.029v-0.379l-9.093,7.4c-0.356,0.295-0.466,0.826-0.172,1.184c0.167,0.201,0.379,0.307,0.623,0.307
	c0.188,0,0.478-0.064,0.634-0.193l8.009-6.518v6.543c0,0.463,0.128,0.84,0.592,0.84c0.465,0,0.592-0.377,0.592-0.84v-6.629
	l8.146,6.604c0.156,0.129,0.412,0.193,0.602,0.193c0.241,0,0.515-0.105,0.682-0.307c0.295-0.357,0.26-0.689-0.099-0.984
	l-8.982-7.221h11.497v-3.553h5.922V25.146z"/>
</svg>
