<?xml version="1.0" encoding="utf-8"?>
<!-- Generator: Adobe Illustrator 16.0.4, SVG Export Plug-In . SVG Version: 6.00 Build 0)  -->
<!DOCTYPE svg PUBLIC "-//W3C//DTD SVG 1.1//EN" "http://www.w3.org/Graphics/SVG/1.1/DTD/svg11.dtd">
<svg version="1.1" id="Calque_1" xmlns:sketch="http://www.bohemiancoding.com/sketch/ns"
	 xmlns="http://www.w3.org/2000/svg" xmlns:xlink="http://www.w3.org/1999/xlink" x="0px" y="0px" width="50px" height="50px"
	 viewBox="0 0 50 50" enable-background="new 0 0 50 50" xml:space="preserve">
<title></title>
<circle fill="none" stroke="#EB005E" stroke-width="2" stroke-miterlimit="10" cx="25" cy="25" r="23"/>
<rect x="14.88" y="20.509" fill="#EB005E" width="4.333" height="13.377"/>
<path fill="#EB005E" d="M17.332,13.96c-1.483,0-2.452,0.999-2.452,2.311c0,1.285,0.94,2.312,2.396,2.312h0.027
	c1.511,0,2.452-1.027,2.452-2.312C19.727,14.959,18.814,13.96,17.332,13.96z"/>
<path fill="#EB005E" d="M30.131,20.509c-2.301,0-3.33,1.298-3.905,2.208v-1.895h-4.334c0.057,1.255,0,13.377,0,13.377h4.334v-7.472
	c0-0.399,0.026-0.798,0.142-1.084c0.313-0.799,1.026-1.626,2.223-1.626c1.569,0,2.197,1.227,2.197,3.023V34.2h4.333v-7.671
	C35.12,22.421,32.981,20.509,30.131,20.509z"/>
</svg>
