<?xml version="1.0" encoding="iso-8859-1"?>
<!-- Generator: Adobe Illustrator 16.0.4, SVG Export Plug-In . SVG Version: 6.00 Build 0)  -->
<!DOCTYPE svg PUBLIC "-//W3C//DTD SVG 1.1//EN" "http://www.w3.org/Graphics/SVG/1.1/DTD/svg11.dtd">
<svg version="1.1" id="Calque_1" xmlns="http://www.w3.org/2000/svg" xmlns:xlink="http://www.w3.org/1999/xlink" x="0px" y="0px"
	 width="300px" height="230px" viewBox="0 0 300 230" style="enable-background:new 0 0 300 230;" xml:space="preserve">
<path d="M213.194,138.188c0,0-10.979,23.95-18.391,32.36c0,0,2.381,0.024,5.529-3.422c0,0-3.377,7.193,9.785,8.979
	c0,0,4.891-11.755,9.035-15.959s9.059-11.879,5.781-3.088c0,0-10.812,20.802-2.811,23.376c8,2.575,14.125-5.757,20.193-15.359
	c6.068-9.604-3.471-0.769-5.701,2.505c0,0-6.178,6.012-3.393-1.354c2.787-7.368,15.723-25.871,6.203-25.97
	c-9.52-0.1-16.039,10.633-20.967,16.222c0,0,7.025-10.069,5.666-13.233C222.766,140.083,218.508,134.142,213.194,138.188z"/>
<path d="M202.485,144.824c0,0,2.908-9.827-8.98-9.354c-11.891,0.472-23.066,13.448-25.629,22.71
	c-2.564,9.262,1.193,20.839,10.322,14.504s8.664-10.565,9.822-11.017c2.479-0.962-5.406,7.836,1.186,10.47
	c6.59,2.633,10.225-4.468,12.797-8.987c2.57-4.521-1.852,2.214-5.238,3.704c0,0-5.568,2.785-1.34-5.15s9.793-12.205,8.461-13.205
	c-1.33-1.002-7.029-3.669-11.943,1.894c-4.918,5.562-9.34,12.297-11.156,12.734c-1.812,0.439-4.316,2.004-0.801-4.511
	s15.203-18.559,18.852-16.176C202.485,144.824,200.571,146.438,202.485,144.824z"/>
<path d="M141.117,141.746c0,0,0.562-10.23-10.898-7.03c-11.46,3.203-19.339,18.406-19.697,28.012
	c-0.357,9.604,5.97,20.002,13.391,11.731c7.421-8.271,5.995-12.28,7.016-12.986c2.188-1.509-3.452,8.872,3.569,9.913
	c7.021,1.043,8.917-6.706,10.376-11.697c1.46-4.991-1.29,2.582-4.241,4.813c0,0-4.775,3.995-2.492-4.703
	c2.284-8.697,6.711-14.133,5.187-14.802c-1.526-0.667-7.686-1.946-11.187,4.599c-3.5,6.547-6.25,14.121-7.915,14.967
	c-1.665,0.845-3.739,2.945-1.821-4.206c1.918-7.15,10.512-21.565,14.612-20.087C141.117,141.746,139.627,143.759,141.117,141.746z"
	/>
<path d="M150.759,135.948c0,0-8.761,22.951-7.912,27.091c0.851,4.141,2.55,12.384,11.724,9.678c0,0,1.529-6.021,3.363-13.089
	c1.832-7.069,5.791-20.893,8.102-15.124c2.312,5.768,4.076,6.374,7.34,4.63c3.262-1.741-5.582-3-1.705-7.395
	c3.873-4.395,7.453-8.496-1.377-11.525c-8.83-3.028-5.371,6.636-5.982,9.045c-0.611,2.411-3.59,5.199-3.59,5.199
	s3.004-5.794,0.359-7.239C158.436,135.774,154.325,133.323,150.759,135.948z"/>
<path d="M108.443,148.229c0,0,1.131-11.642-12.11-10.569c0,0-1.632,16.421-4.781,21.415c-3.15,4.993-6.309,13.543-4.987,4.253
	c0,0,6.096-20.039-2.27-20.843c-3.868-0.371-5.235-0.429-5.754,0.205c-0.008,0.001-0.013,0.001-0.021,0.005
	c-5.528,2.311-5.771,12.203-13.656,22.485c5.224-2.731,9.385-7.342,11.87-10.572c-0.07,0.479-0.145,0.984-0.227,1.539
	c-1.146,7.791-9.824,28.635-0.503,26.694c9.32-1.939,13.393-13.817,17.012-20.331c0,0-4.708,11.339-2.706,14.138
	c1.863,2.604,6.689,7.005,10.836,3.521v0.006c0,0,8.569-6.124,11.447-9.88c0,0-6.994,4.493-9.96,5.168
	c0.577-3.029,1.729-7.82,4.017-14.227C106.649,161.235,108.251,154.069,108.443,148.229z"/>
<path d="M252.944,182.049c-3.309-1.104-4.418-3.113-1.871-8.141l6.184-18.484c1.84-3.131,7.227-21.074,13.312-41.266
	c7.412-0.298,17.582-1.529,17.582-1.529c-0.949,0.202-8.744-1.635-15.229-3.31c1.973-6.688,5.256-10.64,4.906-10.652
	c-1.379-0.05-8.484-5.034-10.479-4.318c-0.502,0.18-2.438,4.912-5.088,12.053c-4.967-1.366-8.654-2.416-8.654-2.416
	c-2.668,2.95-2.83,7.485,2.43,9.054c0.783,0.233,2.051,0.388,3.631,0.481c-8.072,22.492-19.682,57.578-21.037,64.312
	c-1.363,6.769,2.682,7.47,8.029,9.095c0.275,0.072,15.5,3.077,21.775-3.135C268.436,183.793,256.694,183.301,252.944,182.049z"/>
<path d="M60.544,185.16c0.543-1.186,1.041-2.518,1.481-4.014c5.609-19.04,4.133-59.188-11.513-77.49
	c-15.645-18.302-28.338-26.272-39.261,5.314c-10.922,31.586,5.313,61.991,11.808,64.353c6.494,2.361,14.464,2.657,16.236-2.951
	c1.771-5.61,1.675-4.28-1.181-4.375c0,0-12.398,2.013-15.35-16.88s-4.133-63.763,10.922-51.069
	c15.055,12.693,18.598,60.515,17.122,71.733c-0.459,3.487-1.46,6.795-2.772,9.624c-0.805-0.436-1.617-0.88-2.44-1.347
	c-14.396-8.159-19.833,8.947-16.138,12.432c2.953,2.785,8.875,3.634,9.251,3.671c1.714,0.172,7.405,1.082,12.977-0.528
	c2.138-0.618,4.256-1.859,6.126-4.073c4.297,1.687,8.711,3.181,12.188,3.49c8.856,0.786,12.594-3.641,12.594-3.641
	C75.545,189.349,68.43,188.101,60.544,185.16z M38.117,184.586c-2.619-3.199,0.983-3.345,4.526-3.543
	c0.53-0.028,1.342,0.152,2.326,0.457C43.342,183.527,39.494,186.269,38.117,184.586z"/>
<path d="M269.944,176.062c2.953-1.328,30.701-7.525,20.074-22.286c-10.627-14.76-28.338,4.724-32.471,22.286
	c-2.947,12.521,4.609,20.618,14.75,22.046c0,0,3.582,0.901,6.799-1.667c3.115-2.489,5.24-5.196,6.383-6.853
	c-2.865,3.509-9.039,4.229-9.039,4.229C263.393,194.594,266.993,177.392,269.944,176.062z M286.772,158.794
	c5.312,1.181-3.838,7.085-5.314,8.266s-9.447,3.838-9.447,3.838S281.458,157.613,286.772,158.794z"/>
<path d="M105.427,203.18c4.033-2.264,8.342-4.005,12.694-5.589c4.374-1.533,8.835-2.841,13.366-3.868
	c4.523-1.071,9.122-1.807,13.74-2.383c4.624-0.539,9.281-0.803,13.939-0.869c9.318-0.072,18.654,0.937,27.721,3.035
	c9.064,2.089,17.865,5.291,25.992,9.674c-8.736-2.973-17.582-5.33-26.559-6.855c-8.973-1.533-18.053-2.219-27.131-2.171
	c-4.539-0.006-9.079,0.239-13.605,0.647c-4.533,0.366-9.039,1.011-13.539,1.73c-4.491,0.77-8.97,1.672-13.407,2.783
	C114.193,200.401,109.783,201.663,105.427,203.18z"/>
<g>
	<path d="M64.55,41.5c0.041,4.474,0.22,46.189-7.414,68.375c2.108-1.232,5.028-3.691,6.387-8.276
		c0.181-0.612,0.774-0.98,1.368-0.857c0.595,0.124,1.001,0.705,0.941,1.343c-0.002,0.026-0.249,3.067,1.464,5.151
		c2.799,3.411,9.58,2.578,19.256-2.376c1.674-0.855,2.137-6.686,2.628-12.858c0.527-6.628,1.184-14.879,3.529-22.552l3.69-9.329
		c0.222-0.562,0.793-0.876,1.355-0.743c0.562,0.132,0.949,0.671,0.92,1.279l-0.777,16.102c-0.504,13.086-0.785,20.366,0.282,26.451
		c0.088,0.152,0.172,0.312,0.258,0.472c0.604,1.142,1.041,1.968,3.032,2.069c0.571,0.03,1.242-0.009,1.993-0.111
		c5.903-0.817,11.413-1.893,13.991-5.969c0.741-4.987,1.306-18.483,1.366-20.335c-0.003-0.042-0.004-0.083-0.002-0.126
		c0.131-3.028,0.792-7.233,2.021-12.859c1.033-3.287,1.659-6.33,2.075-8.343c0.57-2.768,0.761-3.7,1.945-3.639
		c1.324,0.067,1.324,0.067,2.011,9.466c0.007,0.208,0.389,14.742,0.894,20.838c1.061,7.585,3.525,16.774,9.196,17.067h0
		c0.376,0.02,0.77,0.001,1.17-0.054c13.887-1.925,17.354-19.31,19.936-38.502c0.418-3.119,0.504-4.902,0.482-5.907
		c-1.686,2.743-4.686,10.375-5.4,14.576c-0.016,0.085-0.037,0.167-0.066,0.249c-1.059,2.749-3.19,7.341-5.584,7.218
		c-2.299-0.118-2.851-3.677-3.09-7.142c-0.24-3.536,0.039-8.712,0.334-14.193c0.614-11.392,1.379-25.567-2.335-29.929
		c-1.271-1.489-3.014-1.606-5.423-0.485c-11.959,5.559-15.925,21.338-18.548,31.78c-0.156,0.617-0.724,1.011-1.322,0.922
		c-0.597-0.092-1.03-0.644-1.007-1.279c0.491-13.319,0.254-26.974-5.246-27.256c-0.847-0.044-1.845,0.211-2.969,0.755
		c-4.698,2.277-8.472,6.323-11.538,12.369c-0.057,0.114-0.131,0.217-0.217,0.307l0,0c0.001,0-0.555,0.638-0.925,2.077
		c-0.017,0.067-0.039,0.133-0.066,0.195c-2.8,6.432-4.489,13.732-5.979,20.172c-0.39,1.682-0.764,3.304-1.144,4.838
		c-0.153,0.628-0.735,1.037-1.341,0.926c-0.603-0.103-1.032-0.677-0.987-1.323c0.912-12.751,0.675-27.611-1.992-30.109
		c-2.575-2.407-7.054-5.292-11.211-5.506C69.065,36.26,66.395,37.963,64.55,41.5z"/>
</g>
<path style="stroke:#FFFFFF;stroke-width:2;stroke-linecap:round;stroke-linejoin:round;stroke-miterlimit:10;" d="M215.458,88.405
	c0.008-0.03,0.02-0.063,0.027-0.094C215.487,88.304,215.481,88.326,215.458,88.405z"/>
<g>
	<path d="M229.805,58.784c0.344-0.013,0.721,0.155,0.955,0.423c0.576,0.656,0.564,1.005-0.33,9.326
		c-0.031,0.206-2.254,14.55-2.848,20.636c-0.342,8.304,0.611,18.389,7.127,18.857c0.619,0.045,1.234,0.057,1.83,0.035
		c0.002,0,0.002,0,0.002,0c12.748-0.47,18.912-16.19,24.607-33.661c0.971-2.974,1.373-4.706,1.533-5.696
		c-2.148,2.34-6.455,9.206-7.906,13.177c-0.029,0.081-0.066,0.158-0.111,0.231c-1.094,1.771-3.883,5.901-6.164,5.986l0,0
		c-0.627,0.022-1.205-0.234-1.631-0.722c-0.928-1.061-1.148-3.219-0.725-6.997c0.395-3.521,1.594-8.542,2.865-13.857
		c2.75-11.522,6.174-25.86,2.725-30.362c-0.986-1.288-2.6-1.637-4.9-1.104c-12.725,2.962-19.438,17.621-23.879,27.321
		c-0.262,0.573-0.893,0.845-1.461,0.629c-0.568-0.214-0.896-0.845-0.76-1.465c1.596-7.222,4.914-22.25,1.449-26.691
		c-0.982-1.26-2.553-1.584-4.77-1.028c-5.016,1.254-9.441,4.438-13.529,9.733c-0.078,0.098-0.168,0.184-0.268,0.253l0,0
		c0,0-0.658,0.512-1.281,1.848c-0.027,0.062-0.062,0.121-0.098,0.177c-3.898,5.729-6.861,12.543-9.475,18.553
		c-0.682,1.568-1.34,3.081-1.984,4.506c-0.262,0.583-0.904,0.857-1.48,0.629c-0.574-0.228-0.893-0.879-0.732-1.502
		c3.174-12.323,5.6-26.956,3.428-29.964c-2.221-3.073-7.346-8.225-12.469-8.036c-2.316,0.085-4.416,1.3-6.242,3.608
		c-0.758,4.397-8.039,45.374-19.496,65.552c2.287-0.769,5.592-2.573,7.746-6.79c0.287-0.564,0.934-0.803,1.494-0.557
		c0.562,0.246,0.857,0.9,0.682,1.516c-0.006,0.029-0.928,3.486,0.91,5.977c2.488,3.367,9.076,3.762,18.924,1.066
		c1.795-0.492,3.291-6.115,4.875-12.069c1.703-6.396,3.822-14.357,7.494-21.396l5.289-8.386c0.318-0.505,0.938-0.693,1.463-0.447
		c0.527,0.247,0.812,0.856,0.674,1.446l-3.643,15.647c-2.832,12.733-4.408,19.815-4.449,26.007c0.057,0.17,0.111,0.345,0.166,0.521
		c0.473,1.507,0.844,2.696,4.582,2.967c1.941,0.14,4.006,0.271,6.01,0.197c4.111-0.151,6.912-1.15,8.781-3.139
		c1.613-4.727,4.598-17.922,4.975-19.674c0.006-0.043,0.016-0.086,0.025-0.13c0.006-0.022,0.01-0.044,0.018-0.067c0,0,0,0,0-0.001
		l0,0c0.002-0.009,0.006-0.019,0.008-0.029l-0.002,0c0.68-2.941,2.07-6.896,4.254-12.091c1.602-3.011,2.762-5.866,3.527-7.756
		C228.629,59.427,228.877,58.818,229.805,58.784z"/>
</g>
<g>
</g>
<g>
</g>
<g>
</g>
<g>
</g>
<g>
</g>
<g>
</g>
</svg>
