<?xml version="1.0" encoding="utf-8"?>
<!-- Generator: Adobe Illustrator 16.0.4, SVG Export Plug-In . SVG Version: 6.00 Build 0)  -->
<!DOCTYPE svg PUBLIC "-//W3C//DTD SVG 1.1//EN" "http://www.w3.org/Graphics/SVG/1.1/DTD/svg11.dtd">
<svg version="1.1" id="Calque_1" xmlns:sketch="http://www.bohemiancoding.com/sketch/ns"
	 xmlns="http://www.w3.org/2000/svg" xmlns:xlink="http://www.w3.org/1999/xlink" x="0px" y="0px" width="50px" height="50px"
	 viewBox="0 0 50 50" enable-background="new 0 0 50 50" xml:space="preserve">
<title></title>
<g>
	<path fill="#FFFFFF" d="M27.742,25.96c0-2.141-1.438-3.227-2.953-3.227c-1.271,0-2.047,0.785-3.047,1.075v-3.322
		c1,0.333,2.518,0.502,3.316,0.502c1.467,0,2.311-0.566,2.344-0.602c0.012-0.015,0.402-0.387,0.26-0.729
		c-0.095-0.228-0.264-0.379-0.642-0.45c-0.07-0.014-0.105-0.02-0.18-0.02c-0.47,0-0.875,0.273-1.283,0.54
		c-0.373,0.24-0.714,0.468-1.062,0.468c-0.127,0-0.239-0.031-0.356-0.092c-0.244-0.128-0.487-0.315-0.703-0.481
		c-0.312-0.241-1.298-0.45-1.523-0.45c-0.402,0-1.17,0.602-1.17,1.19c0,2.056,0,4.643,0,4.643c0,0.033,0.734,0.063,0.764,0.079
		c0.027,0.016,0.422,0.016,0.451-0.002c1.463-0.924,2.493-1.118,2.948-1.118c0.372,0,0.593,0.129,0.603,0.139
		c0.916,0.76,0.568,4.085,0.46,4.424c-0.066,0.518-0.556,0.755-1.073,0.755c-0.484,0-0.979-0.166-1.378-0.344
		c0.238-0.074,0.445-0.239,0.555-0.463c0.098-0.197,0.202-0.606-0.2-1.127c-0.4-0.52-0.814-0.78-1.233-0.78
		c-0.797,0-1.293,0.948-1.312,0.989c-0.006,0.01-0.01,0.031-0.011,0.043c-0.101,0.964,0.086,1.783,0.553,2.303
		c0.463,0.512,1.194,0.873,2.117,0.873c0.001,0,0.001,0,0.001,0c1.341,0,2.235-0.655,2.79-1.203
		c1.297-1.272,0.967-3.479,0.967-3.568C27.742,25.997,27.742,25.967,27.742,25.96z"/>
	<path fill="#FFFFFF" d="M24.999,11.091c-7.669,0-13.908,6.239-13.908,13.908c0,7.67,6.239,13.909,13.908,13.909
		c7.671,0,13.909-6.238,13.909-13.909C38.908,17.33,32.67,11.091,24.999,11.091z M14.882,33.438c0.116-0.03,0.229-0.079,0.331-0.152
		c0.434-0.317,0.529-0.925,0.213-1.359c-0.045-0.061-0.089-0.122-0.132-0.184c-0.308-0.44-0.914-0.547-1.354-0.24
		c-0.103,0.072-0.186,0.16-0.252,0.258c-0.21-0.352-0.405-0.715-0.583-1.086c0.116-0.001,0.233-0.023,0.351-0.068
		c0.497-0.199,0.742-0.764,0.543-1.263c-0.028-0.069-0.055-0.141-0.081-0.212c-0.188-0.503-0.748-0.758-1.252-0.568
		c-0.114,0.043-0.216,0.107-0.304,0.184c-0.116-0.392-0.215-0.791-0.295-1.197c0.075,0.02,0.153,0.029,0.231,0.029
		c0.042,0,0.081-0.002,0.123-0.008c0.532-0.066,0.91-0.553,0.844-1.086c-0.01-0.075-0.02-0.15-0.027-0.226
		c-0.057-0.534-0.537-0.919-1.068-0.864c-0.122,0.013-0.237,0.05-0.341,0.103C11.823,25.332,11.82,25.167,11.82,25
		c0-0.246,0.007-0.49,0.021-0.732c0.102,0.055,0.215,0.092,0.336,0.107c0.041,0.006,0.081,0.008,0.121,0.008
		c0.483,0,0.902-0.361,0.964-0.853c0.01-0.076,0.019-0.152,0.029-0.227c0.076-0.531-0.293-1.024-0.823-1.1
		c-0.121-0.018-0.24-0.01-0.353,0.014c0.088-0.403,0.193-0.801,0.317-1.189c0.084,0.078,0.183,0.143,0.297,0.187
		c0.118,0.047,0.238,0.069,0.356,0.069c0.388,0,0.754-0.233,0.904-0.615c0.028-0.071,0.058-0.141,0.086-0.211
		c0.207-0.495-0.026-1.064-0.521-1.272c-0.113-0.046-0.229-0.07-0.345-0.073c0.185-0.368,0.386-0.726,0.604-1.073
		c0.062,0.097,0.144,0.184,0.242,0.256c0.172,0.125,0.372,0.186,0.569,0.186c0.301,0,0.597-0.139,0.787-0.4
		c0.045-0.062,0.091-0.124,0.137-0.185c0.323-0.428,0.238-1.037-0.19-1.361c-0.098-0.075-0.206-0.125-0.319-0.158
		c0.271-0.311,0.555-0.609,0.853-0.894c0.036,0.111,0.094,0.218,0.174,0.314c0.19,0.23,0.469,0.351,0.747,0.351
		c0.219,0,0.439-0.073,0.62-0.224c0.059-0.049,0.118-0.097,0.177-0.144c0.42-0.335,0.488-0.947,0.153-1.366
		c-0.079-0.098-0.174-0.177-0.277-0.236c0.341-0.237,0.691-0.458,1.052-0.661c0.008,0.12,0.037,0.242,0.091,0.356
		c0.166,0.351,0.516,0.557,0.879,0.557c0.141,0,0.281-0.03,0.416-0.094c0.067-0.032,0.138-0.064,0.205-0.095
		c0.49-0.221,0.709-0.796,0.487-1.286c-0.053-0.119-0.128-0.221-0.218-0.306c0.391-0.146,0.79-0.274,1.195-0.383
		c-0.025,0.123-0.027,0.251-0.003,0.382c0.089,0.466,0.496,0.79,0.953,0.79c0.061,0,0.122-0.005,0.185-0.018
		c0.074-0.014,0.149-0.027,0.224-0.04c0.529-0.091,0.885-0.592,0.794-1.121c-0.023-0.135-0.073-0.258-0.143-0.366
		c0.417-0.044,0.839-0.067,1.267-0.072c-0.059,0.116-0.096,0.245-0.104,0.382c-0.032,0.537,0.376,0.997,0.911,1.029
		c0.075,0.004,0.152,0.009,0.228,0.016c0.025,0.003,0.052,0.003,0.079,0.003c0.501,0,0.926-0.386,0.967-0.894
		c0.012-0.141-0.009-0.276-0.053-0.4c0.427,0.061,0.846,0.144,1.258,0.246c-0.089,0.098-0.16,0.217-0.204,0.352
		c-0.164,0.51,0.115,1.058,0.626,1.224c0.073,0.023,0.146,0.047,0.218,0.072c0.104,0.037,0.212,0.053,0.316,0.053
		c0.402,0,0.78-0.253,0.919-0.656c0.047-0.136,0.061-0.275,0.047-0.411c0.4,0.167,0.79,0.354,1.169,0.559
		c-0.115,0.074-0.218,0.173-0.296,0.296c-0.287,0.454-0.151,1.054,0.303,1.34c0.063,0.042,0.126,0.083,0.189,0.123
		c0.165,0.109,0.351,0.162,0.535,0.162c0.315,0,0.624-0.153,0.812-0.435c0.081-0.123,0.13-0.259,0.15-0.396
		c0.347,0.263,0.679,0.542,0.998,0.837c-0.134,0.042-0.258,0.114-0.367,0.216c-0.391,0.368-0.408,0.983-0.04,1.374
		c0.052,0.056,0.104,0.111,0.153,0.167c0.192,0.211,0.457,0.319,0.721,0.319c0.234,0,0.467-0.084,0.653-0.252
		c0.111-0.103,0.193-0.224,0.245-0.356c0.274,0.342,0.531,0.698,0.769,1.066c-0.144,0.007-0.286,0.046-0.42,0.12
		c-0.471,0.26-0.64,0.851-0.38,1.32c0.036,0.067,0.073,0.133,0.108,0.199c0.174,0.33,0.512,0.519,0.859,0.519
		c0.153,0,0.309-0.037,0.453-0.114c0.138-0.072,0.25-0.173,0.334-0.292c0.182,0.402,0.342,0.814,0.481,1.236
		c-0.143-0.031-0.295-0.031-0.445,0.008c-0.521,0.134-0.833,0.665-0.698,1.184c0.019,0.073,0.038,0.147,0.055,0.221
		c0.105,0.446,0.504,0.747,0.944,0.747c0.074,0,0.15-0.009,0.226-0.026c0.154-0.037,0.29-0.109,0.401-0.204
		c0.075,0.437,0.129,0.882,0.158,1.333c-0.137-0.073-0.781-0.116-0.949-0.116c-0.533,0-1.457,0.436-1.457,0.973v0.026
		c0,0.077,0.498,0.162,0.496,0.238c-0.01,0.536,0.913,0.999,1.451,0.999c0.006,0,0.012,0,0.019,0c0.153,0,0.298-0.062,0.427-0.125
		c-0.037,0.459-0.099,0.898-0.182,1.344c-0.112-0.098-0.246-0.18-0.4-0.219c-0.521-0.133-1.05,0.178-1.183,0.697
		c-0.019,0.074-0.039,0.146-0.059,0.219c-0.144,0.518,0.16,1.052,0.678,1.195c0.087,0.023,0.174,0.035,0.259,0.035
		c0.065,0,0.128-0.009,0.191-0.021c-0.147,0.42-0.316,0.832-0.505,1.232c-0.083-0.121-0.193-0.225-0.331-0.301
		c-0.471-0.259-1.061-0.088-1.32,0.383c-0.036,0.066-0.074,0.133-0.112,0.197c-0.268,0.466-0.107,1.061,0.356,1.328
		c0.136,0.078,0.28,0.117,0.427,0.126c-0.246,0.367-0.511,0.722-0.791,1.062c-0.051-0.135-0.132-0.262-0.245-0.367
		c-0.391-0.367-1.005-0.348-1.373,0.043c-0.052,0.055-0.104,0.111-0.157,0.166c-0.375,0.383-0.367,0.999,0.017,1.373
		c0.109,0.106,0.236,0.182,0.371,0.225c-0.325,0.293-0.665,0.568-1.019,0.826c-0.018-0.141-0.063-0.279-0.145-0.406
		c-0.288-0.454-0.889-0.588-1.343-0.299c-0.063,0.041-0.127,0.08-0.191,0.12c-0.459,0.279-0.604,0.878-0.325,1.336
		c0.079,0.128,0.183,0.229,0.3,0.306c-0.386,0.201-0.782,0.382-1.188,0.545c0.018-0.139,0.007-0.283-0.039-0.424
		c-0.166-0.511-0.715-0.79-1.225-0.623c-0.072,0.023-0.144,0.046-0.217,0.067c-0.513,0.155-0.804,0.698-0.648,1.212
		c0.044,0.141,0.116,0.264,0.209,0.365c-0.419,0.097-0.846,0.172-1.278,0.227c0.049-0.127,0.074-0.266,0.064-0.411
		c-0.033-0.535-0.494-0.943-1.029-0.909c-0.077,0.005-0.153,0.01-0.229,0.013c-0.536,0.022-0.952,0.477-0.93,1.013
		c0.007,0.143,0.044,0.275,0.104,0.396c-0.431-0.012-0.857-0.045-1.277-0.097c0.074-0.108,0.13-0.233,0.155-0.372
		c0.1-0.527-0.247-1.035-0.774-1.135c-0.074-0.015-0.149-0.028-0.224-0.045c-0.523-0.109-1.04,0.227-1.15,0.752
		c-0.028,0.135-0.026,0.268,0,0.395c-0.409-0.117-0.811-0.253-1.202-0.408c0.095-0.085,0.176-0.188,0.233-0.311
		c0.229-0.485,0.021-1.064-0.466-1.293c-0.069-0.033-0.138-0.065-0.206-0.1c-0.48-0.237-1.064-0.04-1.301,0.441
		c-0.059,0.117-0.09,0.24-0.099,0.363c-0.36-0.211-0.71-0.439-1.049-0.684c0.108-0.059,0.207-0.137,0.29-0.236
		c0.342-0.413,0.284-1.026-0.129-1.368c-0.059-0.05-0.117-0.099-0.174-0.147c-0.408-0.35-1.021-0.305-1.372,0.104
		c-0.082,0.097-0.143,0.204-0.182,0.318C15.429,34.062,15.149,33.756,14.882,33.438z"/>
</g>
</svg>
