<?xml version="1.0" encoding="utf-8"?>
<!-- Generator: Adobe Illustrator 16.0.4, SVG Export Plug-In . SVG Version: 6.00 Build 0)  -->
<!DOCTYPE svg PUBLIC "-//W3C//DTD SVG 1.1//EN" "http://www.w3.org/Graphics/SVG/1.1/DTD/svg11.dtd">
<svg version="1.1" id="Calque_1" xmlns:sketch="http://www.bohemiancoding.com/sketch/ns"
	 xmlns="http://www.w3.org/2000/svg" xmlns:xlink="http://www.w3.org/1999/xlink" x="0px" y="0px" width="50px" height="50px"
	 viewBox="0 0 50 50" enable-background="new 0 0 50 50" xml:space="preserve">
<title></title>
<g>
	<path fill="#EB005E" d="M25,3.84c11.669,0,21.16,9.493,21.16,21.16c0,11.669-9.491,21.16-21.16,21.16
		C13.333,46.16,3.84,36.67,3.84,25C3.84,13.333,13.333,3.84,25,3.84 M25,2C12.297,2,2,12.298,2,25s10.297,23,23,23
		c12.702,0,23-10.297,23-23S37.702,2,25,2L25,2z"/>
</g>
<g>
	<g>
		<path fill="#EB005E" d="M34.9,21h-19.8C14,21,14,22.112,14,22.112v5.777C14,29,15.101,29,15.101,29H17v-2h16v2h1.9
			c0,0,1.1,0,1.1-1.111v-5.777C36,22.112,36,21,34.9,21z M32.49,25H17.511c0,0-0.51,0-0.51-0.5s0.51-0.5,0.51-0.5H32.49
			c0,0,0.51,0,0.51,0.5S32.49,25,32.49,25z"/>
	</g>
	<rect x="18" y="14" fill="#EB005E" width="14" height="6"/>
	<g>
		<path fill="#EB005E" d="M18,28v8h14v-8H18z M30,33H20v-1h10V33z M30,31H20v-1h10V31z"/>
	</g>
</g>
</svg>
