<?xml version="1.0" encoding="utf-8"?>
<!-- Generator: Adobe Illustrator 16.0.4, SVG Export Plug-In . SVG Version: 6.00 Build 0)  -->
<!DOCTYPE svg PUBLIC "-//W3C//DTD SVG 1.1//EN" "http://www.w3.org/Graphics/SVG/1.1/DTD/svg11.dtd">
<svg version="1.1" id="Calque_1" xmlns:sketch="http://www.bohemiancoding.com/sketch/ns"
	 xmlns="http://www.w3.org/2000/svg" xmlns:xlink="http://www.w3.org/1999/xlink" x="0px" y="0px" width="50px" height="50px"
	 viewBox="0 0 50 50" enable-background="new 0 0 50 50" xml:space="preserve">
<title></title>
<path fill="#FFFFFF" d="M5.013,13.967c-1.38,1.294-2.119,3.002-2.276,4.509c-0.157,1.508-0.313,4.267,0,6.6
	c0.313,2.331,1.828,5.214,3.215,6.341c2.518,2.048,4.537,2.727,6.955,3.158c3.054,0.546,7.096,0.672,11.301,0.237
	c0.251,0.168,1.096,1.086,2.504,1.739c1.527,0.71,4.224,1.152,4.95,0.726c0.174-0.102,0.768-0.67,0.567-1.267
	c-0.128-0.383-1.749-1.08-2.631-2.019c0.59-0.132,1.163-0.326,1.743-0.484c2.519-0.684,4.771-2.651,5.718-4.182
	c0.74-1.195,0.726-1.963,1.408-2.858c0.59-0.772,2.675-1.876,4.864-1.321c1.472,0.373,2.135,0.312,2.476-0.257
	c0.342-0.569,1.793-1.834,1.621-2.175c-0.052-0.104-0.479,0.075-1.021,0.254c-0.595,0.197-1.323,0.393-1.837,0.215
	c-0.58-0.202-1.235-1.278-2.135-1.878c-0.438-0.291-0.792-0.113-1.069,0.065c-0.209,0.135-0.375,0.271-0.498,0.202
	c-0.37-0.205,0.757-0.865,0.074-1.547c-0.683-0.683-2.006-0.981-2.247-2.005c-0.157-0.665,0.917-2.657,0.568-2.731
	c-0.198-0.043-0.699,1.058-1.682,1.741c-0.881,0.613-0.992,1.289-0.708,2.583c0.154,0.703,0.569,1.564,0.398,2.418
	c-0.272,1.357-0.896,2.176-1.494,2.517c-1.091,0.624-1.947,0.755-2.858,0.341c-0.607-0.274-1.252-0.981-1.28-2.545
	c-0.025-1.422-0.143-2.702-1.224-3.812c-3.334-3.423-6.43-4.637-9.958-5.291c-3.484-0.646-5.675-0.64-9.871-0.683
	c-0.144-0.001-0.285-0.002-0.424-0.002C8.039,12.556,6.308,12.752,5.013,13.967"/>
</svg>
