<?xml version="1.0" encoding="utf-8"?>
<!-- Generator: Adobe Illustrator 16.0.4, SVG Export Plug-In . SVG Version: 6.00 Build 0)  -->
<!DOCTYPE svg PUBLIC "-//W3C//DTD SVG 1.1//EN" "http://www.w3.org/Graphics/SVG/1.1/DTD/svg11.dtd">
<svg version="1.1" id="Calque_1" xmlns:sketch="http://www.bohemiancoding.com/sketch/ns"
	 xmlns="http://www.w3.org/2000/svg" xmlns:xlink="http://www.w3.org/1999/xlink" x="0px" y="0px" width="50px" height="50px"
	 viewBox="0 0 50 50" enable-background="new 0 0 50 50" xml:space="preserve">
<title></title>
<path fill="none" stroke="#EB005E" stroke-width="2" stroke-miterlimit="10" d="M25,2C12.297,2,2,12.297,2,25
	c0,12.702,10.297,23,23,23c12.702,0,23-10.298,23-23C48,12.297,37.702,2,25,2z M35.828,30.305c-0.275,1.192-1.252,2.073-2.427,2.204
	c-2.782,0.312-5.599,0.313-8.402,0.312c-2.804,0.002-5.62,0-8.402-0.312c-1.175-0.131-2.15-1.012-2.425-2.204
	c-0.391-1.7-0.391-3.555-0.391-5.304c0-1.75,0.004-3.604,0.396-5.305c0.274-1.193,1.25-2.074,2.425-2.205
	c2.782-0.311,5.598-0.312,8.402-0.311c2.803,0,5.621,0,8.403,0.311c1.175,0.132,2.15,1.012,2.426,2.205
	c0.391,1.7,0.388,3.555,0.388,5.305C36.22,26.75,36.218,28.604,35.828,30.305z"/>
<path fill="#EB005E" d="M33.406,17.491c-2.782-0.311-5.6-0.312-8.403-0.311c-2.804-0.001-5.62,0-8.402,0.311
	c-1.175,0.132-2.15,1.012-2.425,2.205c-0.391,1.7-0.396,3.555-0.396,5.305c0,1.75,0,3.604,0.391,5.305
	c0.274,1.192,1.25,2.073,2.425,2.203c2.782,0.312,5.599,0.313,8.402,0.312c2.804,0.002,5.62,0,8.402-0.312
	c1.174-0.132,2.151-1.012,2.427-2.203c0.39-1.701,0.392-3.555,0.392-5.305c0-1.75,0.003-3.604-0.388-5.305
	C35.557,18.503,34.581,17.622,33.406,17.491z M22.981,28.031V20.86l6.209,3.585L22.981,28.031z"/>
</svg>
