<?xml version="1.0" encoding="utf-8"?>
<!-- Generator: Adobe Illustrator 14.0.0, SVG Export Plug-In  -->
<!DOCTYPE svg PUBLIC "-//W3C//DTD SVG 1.1//EN" "http://www.w3.org/Graphics/SVG/1.1/DTD/svg11.dtd" [
	<!ENTITY ns_flows "http://ns.adobe.com/Flows/1.0/">
]>
<svg version="1.1"
	 xmlns="http://www.w3.org/2000/svg" xmlns:xlink="http://www.w3.org/1999/xlink" xmlns:a="http://ns.adobe.com/AdobeSVGViewerExtensions/3.0/"
	 x="0px" y="0px" width="800px" height="600px" viewBox="-146.733 -46.733 800 600"
	 enable-background="new -146.733 -46.733 800 600" xml:space="preserve">
<defs>
</defs>
<circle fill-rule="evenodd" clip-rule="evenodd" fill="#FFFFFF" stroke="#1A171B" stroke-width="6.5328" cx="253.267" cy="253.267" r="249.998"/>
<g>
	<g>
		<g enable-background="new    ">
			<g enable-background="new    ">
				<defs>
					<path id="SVGID_79_" enable-background="new    " d="M409.365,150.164c12.988-6.985,26.027-13.893,38.638-20.896h9.448
						c-12.61,7.003-25.649,13.911-38.638,20.896c-0.28-0.071-0.466-0.119-1.54-0.178c-0.109-0.006-1.116-0.06-2.74-0.06
						C411.187,149.926,409.815,150.105,409.365,150.164z"/>
				</defs>
				<clipPath id="SVGID_80_">
					<use xlink:href="#SVGID_79_"  overflow="visible"/>
				</clipPath>
				<g clip-path="url(#SVGID_80_)" enable-background="new    ">
					<path d="M416.469,151.426h-9.448c13.762-7.416,27.612-14.733,40.981-22.158h9.448
						C444.082,136.692,430.231,144.01,416.469,151.426"/>
				</g>
			</g>
			<g enable-background="new    ">
				<defs>
					<path id="SVGID_78_" enable-background="new    " d="M409.365,150.164c0.15-0.048,1.895-0.238,5.168-0.238
						c3.346,0,4.049,0.179,4.28,0.238c-0.781,0.42-1.563,0.841-2.344,1.262h-9.448C407.802,151.005,408.583,150.584,409.365,150.164
						z"/>
				</defs>
				<clipPath id="SVGID_81_">
					<use xlink:href="#SVGID_78_"  overflow="visible"/>
				</clipPath>
				<g clip-path="url(#SVGID_81_)" enable-background="new    ">
					<path d="M416.469,151.426h-9.448c13.762-7.416,27.612-14.733,40.981-22.158h9.448
						C444.082,136.692,430.231,144.01,416.469,151.426"/>
				</g>
			</g>
			<g enable-background="new    ">
				<defs>
					<path id="SVGID_77_" enable-background="new    " d="M404.194,152.839c0.004,0,0.008,0,0.012,0c0.331,0,0.773,0,1.104,0
						c0.351,0,0.819,0,1.17,0c0.364,0,0.851,0,1.215,0c0.371,0,0.866,0,1.236,0c0.371,0,0.866,0,1.237,0c0.364,0,0.85,0,1.214,0
						c0.351,0,0.818,0,1.169,0c0.331,0,0.772,0,1.104,0c-0.002,0-0.003,0-0.004,0c-0.329,0-0.769,0-1.098,0c-0.35,0-0.815,0-1.164,0
						c-0.363,0-0.846,0-1.209,0c-0.369,0-0.86,0-1.229,0s-0.861,0-1.23,0c-0.362,0-0.846,0-1.208,0c-0.35,0-0.815,0-1.164,0
						c-0.33,0-0.769,0-1.099,0c0.33,0,0.769,0,1.099,0c0.349,0,0.814,0,1.164,0c0.362,0,0.846,0,1.208,0c0.369,0,0.861,0,1.23,0
						s0.86,0,1.229,0c0.363,0,0.846,0,1.209,0c0.349,0,0.814,0,1.164,0c0.329,0,0.769,0,1.098,0c-0.003,0-0.006,0-0.008,0
						C410.808,152.839,407.029,152.839,404.194,152.839z"/>
				</defs>
				<clipPath id="SVGID_82_">
					<use xlink:href="#SVGID_77_"  overflow="visible"/>
				</clipPath>
				<g clip-path="url(#SVGID_82_)" enable-background="new    ">
					<path d="M413.643,152.839h-9.449c0.028-0.001,0.059-0.005,0.091-0.01h9.448C413.702,152.834,413.671,152.838,413.643,152.839"
						/>
				</g>
			</g>
			<g enable-background="new    ">
				<defs>
					<path id="SVGID_76_" enable-background="new    " d="M381.408,84.627h-9.448c-0.615-0.99-1.668-1.557-2.585-2.277
						c-6.668-5.229-13.129-10.899-19.787-15.966h9.448c6.659,5.067,13.12,10.737,19.787,15.966
						C379.741,83.071,380.792,83.638,381.408,84.627z"/>
				</defs>
				<clipPath id="SVGID_83_">
					<use xlink:href="#SVGID_76_"  overflow="visible"/>
				</clipPath>
				<g clip-path="url(#SVGID_83_)" enable-background="new    ">
					<path d="M381.408,84.627h-9.448c-0.615-0.99-1.668-1.557-2.585-2.277c-6.668-5.229-13.129-10.899-19.787-15.966h9.448
						c6.659,5.067,13.12,10.737,19.787,15.966C379.741,83.071,380.792,83.638,381.408,84.627"/>
				</g>
			</g>
			<g enable-background="new    ">
				<defs>
					<path id="SVGID_75_" enable-background="new    " d="M304.401,336.159h-9.448c0-12.563,0-25.118,0-37.683h9.448
						C304.401,311.041,304.401,323.596,304.401,336.159z"/>
				</defs>
				<clipPath id="SVGID_84_">
					<use xlink:href="#SVGID_75_"  overflow="visible"/>
				</clipPath>
				<g clip-path="url(#SVGID_84_)" enable-background="new    ">
					<path d="M304.401,336.159h-9.448c0-12.563,0-25.118,0-37.683h9.448C304.401,311.041,304.401,323.596,304.401,336.159"/>
				</g>
			</g>
			<g enable-background="new    ">
				<defs>
					<path id="SVGID_74_" enable-background="new    " d="M304.401,297.604h-9.448c0-12.375,0-24.759,0-37.143h9.448
						C304.401,272.845,304.401,285.229,304.401,297.604z"/>
				</defs>
				<clipPath id="SVGID_85_">
					<use xlink:href="#SVGID_74_"  overflow="visible"/>
				</clipPath>
				<g clip-path="url(#SVGID_85_)" enable-background="new    ">
					<path d="M304.401,297.604h-9.448c0-12.375,0-24.759,0-37.143h9.448C304.401,272.845,304.401,285.229,304.401,297.604"/>
				</g>
			</g>
			<g enable-background="new    ">
				<defs>
					<path id="SVGID_73_" enable-background="new    " d="M304.401,224.947h-9.448c0-8.793,0-17.595,0-26.389h9.448
						C304.401,207.352,304.401,216.154,304.401,224.947z"/>
				</defs>
				<clipPath id="SVGID_86_">
					<use xlink:href="#SVGID_73_"  overflow="visible"/>
				</clipPath>
				<g clip-path="url(#SVGID_86_)" enable-background="new    ">
					<path d="M304.401,224.947h-9.448c0-8.793,0-17.595,0-26.389h9.448C304.401,207.352,304.401,216.154,304.401,224.947"/>
				</g>
			</g>
			<g enable-background="new    ">
				<defs>
					<path id="SVGID_72_" enable-background="new    " d="M304.349,193.154H294.9c0.001-4.469,0.134-9.051,0.141-13.507
						c0.003-1.98-0.019-3.937-0.088-5.847h9.448c0.07,1.91,0.091,3.866,0.088,5.847C304.482,184.103,304.35,188.685,304.349,193.154
						z"/>
				</defs>
				<clipPath id="SVGID_87_">
					<use xlink:href="#SVGID_72_"  overflow="visible"/>
				</clipPath>
				<g clip-path="url(#SVGID_87_)" enable-background="new    ">
					<path d="M304.349,193.154H294.9c0.001-4.469,0.134-9.051,0.141-13.507c0.003-1.98-0.019-3.937-0.088-5.847h9.448
						c0.07,1.91,0.091,3.866,0.088,5.847C304.482,184.103,304.35,188.685,304.349,193.154"/>
				</g>
			</g>
			<g enable-background="new    ">
				<defs>
					<path id="SVGID_71_" enable-background="new    " d="M304.401,197.578h-9.448c-0.038-1.457-0.053-2.934-0.053-4.424h9.449
						C304.349,194.644,304.364,196.121,304.401,197.578z"/>
				</defs>
				<clipPath id="SVGID_88_">
					<use xlink:href="#SVGID_71_"  overflow="visible"/>
				</clipPath>
				<g clip-path="url(#SVGID_88_)" enable-background="new    ">
					<path d="M304.401,197.578h-9.448c-0.038-1.457-0.053-2.934-0.053-4.424h9.449C304.349,194.644,304.364,196.121,304.401,197.578
						"/>
				</g>
			</g>
			<g enable-background="new    ">
				<defs>
					<path id="SVGID_70_" enable-background="new    " d="M304.401,385.795h-9.448c-0.011-2.523-0.015-5.053-0.016-7.587
						c0-7.095,0.032-14.223,0.034-21.319c0.001-6.591-0.023-13.154-0.125-19.64h9.448c0.102,6.485,0.126,13.049,0.125,19.64
						c-0.002,7.097-0.034,14.225-0.034,21.319C304.386,380.742,304.39,383.271,304.401,385.795z"/>
				</defs>
				<clipPath id="SVGID_89_">
					<use xlink:href="#SVGID_70_"  overflow="visible"/>
				</clipPath>
				<g clip-path="url(#SVGID_89_)" enable-background="new    ">
					<path d="M304.401,385.795h-9.448c-0.011-2.523-0.015-5.053-0.016-7.587c0-7.095,0.032-14.223,0.034-21.319
						c0.001-6.591-0.023-13.154-0.125-19.64h9.448c0.102,6.485,0.126,13.049,0.125,19.64c-0.002,7.097-0.034,14.225-0.034,21.319
						C304.386,380.742,304.39,383.271,304.401,385.795"/>
				</g>
			</g>
			<g enable-background="new    ">
				<defs>
					<path id="SVGID_69_" enable-background="new    " d="M304.401,259.705h-9.448c-0.011-1.771-0.015-3.549-0.016-5.33
						c0-4.989,0.032-10.01,0.034-15c0.001-4.633-0.023-9.241-0.125-13.771h9.448c0.102,4.531,0.126,9.138,0.125,13.771
						c-0.002,4.99-0.034,10.011-0.034,15C304.386,256.156,304.39,257.935,304.401,259.705z"/>
				</defs>
				<clipPath id="SVGID_90_">
					<use xlink:href="#SVGID_69_"  overflow="visible"/>
				</clipPath>
				<g clip-path="url(#SVGID_90_)" enable-background="new    ">
					<path d="M304.401,259.705h-9.448c-0.011-1.771-0.015-3.549-0.016-5.33c0-4.989,0.032-10.01,0.034-15
						c0.001-4.633-0.023-9.241-0.125-13.771h9.448c0.102,4.531,0.126,9.138,0.125,13.771c-0.002,4.99-0.034,10.011-0.034,15
						C304.386,256.156,304.39,257.935,304.401,259.705"/>
				</g>
			</g>
			<g enable-background="new    ">
				<defs>
					<path id="SVGID_68_" enable-background="new    " d="M304.401,450.198h-9.448c-0.022-3.315-0.03-6.644-0.03-9.979
						c-0.001-9.339,0.063-18.733,0.065-28.062c0.003-8.661-0.046-17.265-0.249-25.715h9.448c0.203,8.45,0.253,17.054,0.25,25.715
						c-0.003,9.328-0.067,18.723-0.066,28.062C304.371,443.555,304.378,446.883,304.401,450.198z"/>
				</defs>
				<clipPath id="SVGID_91_">
					<use xlink:href="#SVGID_68_"  overflow="visible"/>
				</clipPath>
				<g clip-path="url(#SVGID_91_)" enable-background="new    ">
					<path d="M304.401,450.198h-9.448c-0.022-3.315-0.03-6.644-0.03-9.979c-0.001-9.339,0.063-18.733,0.065-28.062
						c0.003-8.661-0.046-17.265-0.249-25.715h9.448c0.203,8.45,0.253,17.054,0.25,25.715c-0.003,9.328-0.067,18.723-0.066,28.062
						C304.371,443.555,304.378,446.883,304.401,450.198"/>
				</g>
			</g>
			<g enable-background="new    ">
				<defs>
					<path id="SVGID_67_" enable-background="new    " d="M303.331,450.204h-9.448c0.357,0,0.713-0.002,1.07-0.006h9.448
						C304.044,450.202,303.688,450.204,303.331,450.204z"/>
				</defs>
				<clipPath id="SVGID_92_">
					<use xlink:href="#SVGID_67_"  overflow="visible"/>
				</clipPath>
				<g clip-path="url(#SVGID_92_)" enable-background="new    ">
					<path d="M303.331,450.204h-9.448c0.357,0,0.713-0.002,1.07-0.006h9.448C304.044,450.202,303.688,450.204,303.331,450.204"/>
				</g>
			</g>
			<g enable-background="new    ">
				<defs>
					<path id="SVGID_66_" enable-background="new    " d="M287.528,108.739c3.567,0.008,6.04,0.008,9.449,0
						c53.378,6.525,106.917,13.815,160.474,20.529h-9.448C394.446,122.554,340.907,115.264,287.528,108.739z"/>
				</defs>
				<clipPath id="SVGID_93_">
					<use xlink:href="#SVGID_66_"  overflow="visible"/>
				</clipPath>
				<g clip-path="url(#SVGID_93_)" enable-background="new    ">
					<path d="M457.451,129.268h-9.448c-53.557-6.714-107.096-14.004-160.475-20.529h9.449
						C350.355,115.264,403.894,122.554,457.451,129.268"/>
				</g>
			</g>
			<g enable-background="new    ">
				<defs>
					<path id="SVGID_65_" enable-background="new    " d="M413.671,152.839h-9.448c-0.734,0-2.449-0.96-3.654-1.413
						c-32.79-12.357-65.446-24.993-98.191-37.143c-5-1.854-9.831-3.789-14.849-5.544h9.448c5.019,1.755,9.849,3.69,14.849,5.544
						c32.746,12.15,65.401,24.786,98.191,37.143C411.222,151.878,412.938,152.839,413.671,152.839z"/>
				</defs>
				<clipPath id="SVGID_94_">
					<use xlink:href="#SVGID_65_"  overflow="visible"/>
				</clipPath>
				<g clip-path="url(#SVGID_94_)" enable-background="new    ">
					<path fill="#333333" d="M413.671,152.839h-9.448c-0.734,0-2.449-0.96-3.654-1.413c-32.79-12.357-65.446-24.993-98.191-37.143
						c-5-1.854-9.831-3.789-14.849-5.544h9.448c5.019,1.755,9.849,3.69,14.849,5.544c32.746,12.15,65.401,24.786,98.191,37.143
						C411.222,151.878,412.938,152.839,413.671,152.839"/>
				</g>
			</g>
			<g>
				<path fill="#595959" d="M296.977,108.739c53.378,6.525,106.917,13.815,160.474,20.529c-13.369,7.425-27.22,14.742-40.981,22.158
					c-0.909,0.486-2.254,1.386-2.798,1.413c-0.733,0-2.449-0.96-3.654-1.413c-32.79-12.357-65.445-24.993-98.191-37.143
					C306.826,112.429,301.996,110.494,296.977,108.739z"/>
			</g>
			<g enable-background="new    ">
				<defs>
					<path id="SVGID_64_" enable-background="new    " d="M294.081,107.875h-9.448c0.219-0.007,0.438-0.01,0.658-0.01h9.448
						C294.519,107.864,294.3,107.868,294.081,107.875z"/>
				</defs>
				<clipPath id="SVGID_95_">
					<use xlink:href="#SVGID_64_"  overflow="visible"/>
				</clipPath>
				<g clip-path="url(#SVGID_95_)" enable-background="new    ">
					<path d="M294.081,107.875h-9.448c0.219-0.007,0.438-0.01,0.658-0.01h9.448C294.519,107.864,294.3,107.868,294.081,107.875"/>
				</g>
			</g>
			<g enable-background="new    ">
				<defs>
					<path id="SVGID_63_" enable-background="new    " d="M413.682,153.379h-9.448c-0.911-0.018-2.355-0.693-3.665-1.197
						c-38.2-14.607-76.543-28.872-114.438-43.443c-0.455-0.171-1.444-0.09-1.498-0.864h9.448c0.054,0.774,1.043,0.693,1.498,0.864
						c37.896,14.571,76.238,28.836,114.438,43.443C411.328,152.686,412.771,153.361,413.682,153.379z"/>
				</defs>
				<clipPath id="SVGID_96_">
					<use xlink:href="#SVGID_63_"  overflow="visible"/>
				</clipPath>
				<g clip-path="url(#SVGID_96_)" enable-background="new    ">
					<path d="M413.682,153.379h-9.448c-0.911-0.018-2.355-0.693-3.665-1.197c-38.2-14.607-76.543-28.872-114.438-43.443
						c-0.455-0.171-1.444-0.09-1.498-0.864h9.448c0.054,0.774,1.043,0.693,1.498,0.864c37.896,14.571,76.238,28.836,114.438,43.443
						C411.328,152.686,412.771,153.361,413.682,153.379"/>
				</g>
			</g>
			<g>
				<path d="M456.969,128.646c0.659,0,1.391,0,1.765,0.621c-12.771,6.921-26.354,14.319-39.252,21.285
					c-1.322,0.717-4.897,2.826-5.8,2.826c-0.911-0.018-2.354-0.693-3.665-1.197c-38.2-14.607-76.542-28.872-114.438-43.443
					c-0.455-0.171-1.444-0.09-1.498-0.864c0.22-0.007,0.438-0.01,0.658-0.01c3.167,0,6.323,0.695,9.449,1.09
					c10.428,1.332,20.695,2.628,31.078,3.915c40.197,4.977,81.017,10.629,121.105,15.75
					C456.55,128.646,456.755,128.646,456.969,128.646z M416.469,151.426c13.762-7.416,27.612-14.733,40.981-22.158
					c-53.557-6.714-107.096-14.004-160.474-20.529c5.019,1.755,9.849,3.69,14.849,5.544c32.746,12.15,65.401,24.786,98.191,37.143
					c1.204,0.453,2.921,1.414,3.626,1.414C414.215,152.812,415.56,151.912,416.469,151.426"/>
			</g>
			<g enable-background="new    ">
				<defs>
					<path id="SVGID_62_" enable-background="new    " d="M303.333,450.204h-9.448c-0.217,0-0.431,0-0.646-0.002
						c-5.934-0.038-11.85-0.589-17.783-1.043c-0.708-0.055-1.416-0.107-2.125-0.157h9.448c0.709,0.05,1.417,0.103,2.125,0.157
						c5.934,0.454,11.85,1.005,17.784,1.043C302.902,450.204,303.116,450.204,303.333,450.204z"/>
				</defs>
				<clipPath id="SVGID_97_">
					<use xlink:href="#SVGID_62_"  overflow="visible"/>
				</clipPath>
				<g clip-path="url(#SVGID_97_)" enable-background="new    ">
					<path fill="#030303" d="M303.333,450.204h-9.448c-0.217,0-0.431,0-0.646-0.002c-5.934-0.038-11.85-0.589-17.783-1.043
						c-0.708-0.055-1.416-0.107-2.125-0.157h9.448c0.709,0.05,1.417,0.103,2.125,0.157c5.934,0.454,11.85,1.005,17.784,1.043
						C302.902,450.204,303.116,450.204,303.333,450.204"/>
				</g>
			</g>
			<g enable-background="new    ">
				<defs>
					<path id="SVGID_61_" enable-background="new    " d="M248.902,100.054h-9.449c44.225-5.076,88.298-10.323,132.506-15.426h9.448
						C337.2,89.73,293.126,94.978,248.902,100.054z"/>
				</defs>
				<clipPath id="SVGID_98_">
					<use xlink:href="#SVGID_61_"  overflow="visible"/>
				</clipPath>
				<g clip-path="url(#SVGID_98_)" enable-background="new    ">
					<path d="M248.902,100.054h-9.449c44.225-5.076,88.298-10.323,132.506-15.426h9.448C337.2,89.73,293.126,94.978,248.902,100.054
						"/>
				</g>
			</g>
			<g>
				<path fill="#CECECE" d="M358.929,66.276c6.766,5.175,13.227,10.845,19.894,16.074c0.918,0.72,1.97,1.287,2.585,2.277
					c-44.208,5.103-88.281,10.35-132.505,15.426C285.48,88.696,322.298,77.581,358.929,66.276z"/>
			</g>
			<g>
				<path d="M381.408,83.548c0.437,0.351,1.283,0.738,1.078,1.521c-45,5.301-90.651,10.638-135.518,15.849
					c-0.398,0.048-0.932,0.208-1.344,0.208c-0.28,0-0.504-0.074-0.59-0.307c0.25-0.603,1.016-0.612,1.506-0.765
					c37.291-11.655,75.134-22.788,112.281-34.425C366.309,71.299,374.134,77.662,381.408,83.548z M248.902,100.054
					c44.224-5.076,88.297-10.323,132.505-15.426c-0.615-0.99-1.667-1.557-2.585-2.277c-6.667-5.229-13.128-10.899-19.787-15.966
					C322.298,77.581,285.48,88.696,248.902,100.054"/>
			</g>
			<g enable-background="new    ">
				<defs>
					<path id="SVGID_60_" enable-background="new    " d="M245.625,101.125h-9.449c-0.28,0-0.504-0.074-0.59-0.307h9.449
						C245.121,101.052,245.344,101.125,245.625,101.125z"/>
				</defs>
				<clipPath id="SVGID_99_">
					<use xlink:href="#SVGID_60_"  overflow="visible"/>
				</clipPath>
				<g clip-path="url(#SVGID_99_)" enable-background="new    ">
					<path d="M245.625,101.125h-9.449c-0.28,0-0.504-0.074-0.59-0.307h9.449C245.121,101.052,245.344,101.125,245.625,101.125"/>
				</g>
			</g>
			<g enable-background="new    ">
				<defs>
					<path id="SVGID_59_" enable-background="new    " d="M245.034,100.818h-9.449c0.25-0.603,1.016-0.612,1.506-0.765
						c37.291-11.655,75.134-22.788,112.282-34.425h9.448c-37.147,11.637-74.99,22.77-112.281,34.425
						C246.05,100.207,245.284,100.216,245.034,100.818z"/>
				</defs>
				<clipPath id="SVGID_100_">
					<use xlink:href="#SVGID_59_"  overflow="visible"/>
				</clipPath>
				<g clip-path="url(#SVGID_100_)" enable-background="new    ">
					<path d="M245.034,100.818h-9.449c0.105-0.253,0.301-0.401,0.529-0.5h9.449C245.335,100.417,245.139,100.565,245.034,100.818"/>
					<path d="M245.563,100.318h-9.449c0.315-0.136,0.692-0.176,0.977-0.265c37.291-11.655,75.134-22.788,112.282-34.425h9.448
						c-37.147,11.637-74.99,22.77-112.281,34.425C246.256,100.143,245.879,100.183,245.563,100.318"/>
				</g>
			</g>
			<g enable-background="new    ">
				<defs>
					<path id="SVGID_58_" enable-background="new    " d="M239.009,95.707h-9.448c1.854-6.2,3.761-12.348,5.597-18.567h9.449
						C242.771,83.358,240.863,89.506,239.009,95.707z"/>
				</defs>
				<clipPath id="SVGID_101_">
					<use xlink:href="#SVGID_58_"  overflow="visible"/>
				</clipPath>
				<g clip-path="url(#SVGID_101_)" enable-background="new    ">
					<path d="M239.009,95.707h-9.448c1.854-6.2,3.761-12.348,5.597-18.567h9.449C242.771,83.358,240.863,89.506,239.009,95.707"/>
				</g>
			</g>
			<g enable-background="new    ">
				<defs>
					<path id="SVGID_57_" enable-background="new    " d="M236.103,105.48h-9.449c0.812-3.131,1.828-6.039,2.692-9.116h9.449
						C237.93,99.441,236.915,102.349,236.103,105.48z"/>
				</defs>
				<clipPath id="SVGID_102_">
					<use xlink:href="#SVGID_57_"  overflow="visible"/>
				</clipPath>
				<g clip-path="url(#SVGID_102_)" enable-background="new    ">
					<path d="M236.103,105.48h-9.449c0.812-3.131,1.828-6.039,2.692-9.116h9.449C237.93,99.441,236.915,102.349,236.103,105.48"/>
				</g>
			</g>
			<g enable-background="new    ">
				<defs>
					<path id="SVGID_56_" enable-background="new    " d="M222.573,101.683c-1.381-1.314-2.78-2.691-3.876-3.906h9.449
						c1.096,1.215,2.495,2.592,3.876,3.906c1.399,1.323,2.665,2.88,4.082,3.798h-9.449
						C225.238,104.563,223.972,103.006,222.573,101.683z"/>
				</defs>
				<clipPath id="SVGID_103_">
					<use xlink:href="#SVGID_56_"  overflow="visible"/>
				</clipPath>
				<g clip-path="url(#SVGID_103_)" enable-background="new    ">
					<path fill="#333333" d="M236.104,105.48h-9.449c-1.417-0.918-2.683-2.475-4.082-3.798c-1.381-1.314-2.78-2.691-3.876-3.906
						h9.449c1.096,1.215,2.495,2.592,3.876,3.906C233.421,103.006,234.687,104.563,236.104,105.48"/>
				</g>
			</g>
			<g>
				<path fill="#595959" d="M238.795,96.364c-0.865,3.078-1.88,5.985-2.692,9.117c-1.417-0.918-2.683-2.475-4.082-3.798
					c-1.381-1.314-2.781-2.691-3.876-3.906C231.674,97.272,235.15,96.732,238.795,96.364z"/>
			</g>
			<g enable-background="new    ">
				<defs>
					<path id="SVGID_55_" enable-background="new    " d="M228.145,97.776h-9.449c3.529-0.504,7.005-1.044,10.65-1.413h9.449
						C235.15,96.732,231.674,97.272,228.145,97.776z"/>
				</defs>
				<clipPath id="SVGID_104_">
					<use xlink:href="#SVGID_55_"  overflow="visible"/>
				</clipPath>
				<g clip-path="url(#SVGID_104_)" enable-background="new    ">
					<path fill="#373737" d="M228.145,97.776h-9.449c3.529-0.504,7.005-1.044,10.65-1.413h9.449
						C235.15,96.732,231.674,97.272,228.145,97.776"/>
				</g>
			</g>
			<g enable-background="new    ">
				<defs>
					<path id="SVGID_54_" enable-background="new    " d="M227.289,97.335h-9.449c3.761-0.684,7.746-1.152,11.721-1.629h9.448
						C235.034,96.184,231.049,96.651,227.289,97.335z"/>
				</defs>
				<clipPath id="SVGID_105_">
					<use xlink:href="#SVGID_54_"  overflow="visible"/>
				</clipPath>
				<g clip-path="url(#SVGID_105_)" enable-background="new    ">
					<path d="M227.289,97.335h-9.449c0.303-0.055,0.606-0.108,0.912-0.161h9.449C227.895,97.227,227.591,97.28,227.289,97.335"/>
					<path d="M228.2,97.175h-9.449c3.49-0.599,7.154-1.029,10.809-1.468h9.448C235.354,96.146,231.69,96.576,228.2,97.175"/>
				</g>
			</g>
			<g enable-background="new    ">
				<defs>
					<path id="SVGID_53_" enable-background="new    " d="M235.783,106.57h-9.449c-2.032-2.313-4.341-4.807-6.56-6.84
						c-0.74-0.675-1.943-1.224-1.935-2.395h9.449c-0.009,1.171,1.194,1.719,1.935,2.395
						C231.442,101.764,233.75,104.257,235.783,106.57z"/>
				</defs>
				<clipPath id="SVGID_106_">
					<use xlink:href="#SVGID_53_"  overflow="visible"/>
				</clipPath>
				<g clip-path="url(#SVGID_106_)" enable-background="new    ">
					<path d="M235.783,106.57h-9.449c-2.032-2.313-4.341-4.807-6.56-6.84c-0.74-0.675-1.943-1.224-1.935-2.395h9.449
						c-0.009,1.171,1.194,1.719,1.935,2.395C231.442,101.764,233.75,104.257,235.783,106.57"/>
				</g>
			</g>
			<g enable-background="new    ">
				<defs>
					<path id="SVGID_52_" enable-background="new    " d="M221.157,154.792h-9.448c4.866-16.083,9.661-32.237,14.625-48.221h9.449
						C230.818,122.554,226.023,138.709,221.157,154.792z"/>
				</defs>
				<clipPath id="SVGID_107_">
					<use xlink:href="#SVGID_52_"  overflow="visible"/>
				</clipPath>
				<g clip-path="url(#SVGID_107_)" enable-background="new    ">
					<path d="M221.157,154.792h-9.448c4.866-16.083,9.661-32.237,14.625-48.221h9.449
						C230.818,122.554,226.023,138.709,221.157,154.792"/>
				</g>
			</g>
			<g enable-background="new    ">
				<defs>
					<path id="SVGID_51_" enable-background="new    " d="M210.924,155.145c-11.678-2.391-23.628-4.567-35.356-6.978h9.449
						c11.728,2.41,23.679,4.586,35.356,6.978c-0.331,0-0.772,0-1.103,0c-0.351,0-0.819,0-1.169,0c-0.364,0-0.85,0-1.214,0
						c-0.371,0-0.866,0-1.237,0s-0.866,0-1.237,0c-0.364,0-0.85,0-1.214,0c-0.351,0-0.819,0-1.17,0
						C211.697,155.145,211.253,155.178,210.924,155.145z"/>
				</defs>
				<clipPath id="SVGID_108_">
					<use xlink:href="#SVGID_51_"  overflow="visible"/>
				</clipPath>
				<g clip-path="url(#SVGID_108_)" enable-background="new    ">
					<path fill="#787878" d="M220.402,155.151h-9.449c-11.687-2.393-23.648-4.571-35.386-6.983h9.449
						C196.754,150.58,208.715,152.758,220.402,155.151"/>
				</g>
			</g>
			<g enable-background="new    ">
				<defs>
					<path id="SVGID_50_" enable-background="new    " d="M221.157,154.792h-9.449c-13.833-23.067-27.691-46.107-41.408-69.291
						h9.448C193.465,108.685,207.324,131.725,221.157,154.792z"/>
				</defs>
				<clipPath id="SVGID_109_">
					<use xlink:href="#SVGID_50_"  overflow="visible"/>
				</clipPath>
				<g clip-path="url(#SVGID_109_)" enable-background="new    ">
					<path fill="#030303" d="M221.157,154.792h-9.449c-13.833-23.067-27.691-46.107-41.408-69.291h9.448
						C193.465,108.685,207.324,131.725,221.157,154.792"/>
				</g>
			</g>
			<g enable-background="new    ">
				<defs>
					<path id="SVGID_49_" enable-background="new    " d="M179.749,85.5H170.3c21.542-2.79,43.155-5.517,64.635-8.361h9.449
						C222.904,79.983,201.291,82.71,179.749,85.5z"/>
				</defs>
				<clipPath id="SVGID_110_">
					<use xlink:href="#SVGID_49_"  overflow="visible"/>
				</clipPath>
				<g clip-path="url(#SVGID_110_)" enable-background="new    ">
					<path fill="#030303" d="M179.749,85.5H170.3c21.542-2.79,43.155-5.517,64.635-8.361h9.449
						C222.904,79.983,201.291,82.71,179.749,85.5"/>
				</g>
			</g>
			<g>
				<path fill="#050505" d="M244.384,77.14c-1.613,6.219-3.521,12.366-5.375,18.567c-3.975,0.477-7.959,0.945-11.72,1.629
					c-0.009,1.17,1.194,1.719,1.934,2.394c2.219,2.034,4.527,4.527,6.56,6.84c-4.964,15.984-9.759,32.139-14.625,48.222
					c-13.833-23.067-27.692-46.107-41.409-69.291C201.291,82.71,222.904,79.983,244.384,77.14z"/>
			</g>
			<g enable-background="new    ">
				<defs>
					<path id="SVGID_48_" enable-background="new    " d="M220.399,155.224h-9.449c0.004-0.819-0.617-1.377-0.962-1.953
						c-13.218-22.176-26.516-44.406-39.688-66.465h9.449c13.173,22.059,26.471,44.29,39.688,66.465
						C219.782,153.846,220.403,154.405,220.399,155.224z"/>
				</defs>
				<clipPath id="SVGID_111_">
					<use xlink:href="#SVGID_48_"  overflow="visible"/>
				</clipPath>
				<g clip-path="url(#SVGID_111_)" enable-background="new    ">
					<path d="M220.399,155.224h-9.449c0.004-0.819-0.617-1.377-0.962-1.953c-13.218-22.176-26.516-44.406-39.688-66.465h9.449
						c13.173,22.059,26.471,44.29,39.688,66.465C219.782,153.846,220.403,154.405,220.399,155.224"/>
				</g>
			</g>
			<g>
				<path fill="#CECECE" d="M179.642,86.698c13.279,22.167,26.577,44.397,39.795,66.573c0.345,0.576,0.967,1.134,0.965,1.88
					c-11.687-2.393-23.648-4.571-35.386-6.983C183.305,127.603,181.353,107.271,179.642,86.698z"/>
			</g>
			<g enable-background="new    ">
				<defs>
					<path id="SVGID_47_" enable-background="new    " d="M175.567,148.167c-1.711-20.565-3.663-40.896-5.374-61.47h9.449
						c1.708,20.531,3.654,40.819,5.363,61.34c-0.331,0-0.771,0-1.101,0c-0.35,0-0.817,0-1.167,0c-0.363,0-0.848,0-1.211,0
						c-0.37,0-0.863,0-1.233,0c-0.37,0-0.863,0-1.233,0c-0.363,0-0.848,0-1.211,0c-0.35,0-0.817,0-1.167,0c-0.33,0-0.771,0-1.101,0
						c0.33,0,0.771,0,1.101,0c0.35,0,0.817,0,1.167,0c0.363,0,0.848,0,1.211,0c0.37,0,0.863,0,1.233,0c0.37,0,0.863,0,1.233,0
						c0.363,0,0.848,0,1.211,0c0.35,0,0.817,0,1.167,0c0.33,0,0.771,0,1.101,0c0.003,0.043,0.007,0.086,0.011,0.129
						C182.181,148.167,178.402,148.167,175.567,148.167z"/>
				</defs>
				<clipPath id="SVGID_112_">
					<use xlink:href="#SVGID_47_"  overflow="visible"/>
				</clipPath>
				<g clip-path="url(#SVGID_112_)" enable-background="new    ">
					<path fill="#787878" d="M185.016,148.167h-9.449c-1.711-20.565-3.663-40.896-5.374-61.47h9.449
						C181.353,107.271,183.305,127.603,185.016,148.167"/>
				</g>
			</g>
			<g enable-background="new    ">
				<defs>
					<path id="SVGID_46_" enable-background="new    " d="M179.107,85.068h-9.449c21.043-3.023,42.772-5.435,64.314-8.361
						c0.519-0.071,0.878-0.159,1.151-0.159h9.448c-0.273,0-0.632,0.088-1.151,0.159C221.879,79.633,200.149,82.045,179.107,85.068z"
						/>
				</defs>
				<clipPath id="SVGID_113_">
					<use xlink:href="#SVGID_46_"  overflow="visible"/>
				</clipPath>
				<g clip-path="url(#SVGID_113_)" enable-background="new    ">
					<path d="M179.107,85.068h-9.449c21.043-3.023,42.772-5.435,64.314-8.361c0.519-0.071,0.878-0.159,1.151-0.159h9.448
						c-0.273,0-0.632,0.088-1.151,0.159C221.879,79.633,200.149,82.045,179.107,85.068"/>
				</g>
			</g>
			<g enable-background="new    ">
				<defs>
					<path id="SVGID_45_" enable-background="new    " d="M184.481,147.952h-9.449c-1.738-19.169-3.609-39.249-5.267-58.869
						c-0.125-1.477-0.472-3.24-0.107-4.015h9.449c-0.366,0.774-0.018,2.538,0.107,4.015
						C180.872,108.703,182.743,128.782,184.481,147.952z"/>
				</defs>
				<clipPath id="SVGID_114_">
					<use xlink:href="#SVGID_45_"  overflow="visible"/>
				</clipPath>
				<g clip-path="url(#SVGID_114_)" enable-background="new    ">
					<path d="M184.481,147.952h-9.449c-1.738-19.169-3.609-39.249-5.267-58.869c-0.125-1.477-0.472-3.24-0.107-4.015h9.449
						c-0.366,0.774-0.018,2.538,0.107,4.015C180.872,108.703,182.743,128.782,184.481,147.952"/>
				</g>
			</g>
			<g enable-background="new    ">
				<defs>
					<path id="SVGID_44_" enable-background="new    " d="M133.411,372.214c53.734-24.318,107.959-49.653,161.542-73.737h9.448
						c-53.582,24.084-107.808,49.419-161.542,73.737c-0.001,0.001-0.003,0.001-0.004,0.002c-0.331,0-0.773,0-1.104,0
						c-0.351,0-0.819,0-1.17,0c-0.364,0-0.85,0-1.214,0c-0.371,0-0.865,0-1.236,0c-0.371,0-0.866,0-1.236,0c-0.364,0-0.85,0-1.214,0
						c-0.351,0-0.819,0-1.17,0c-0.331,0-0.773,0-1.104,0C133.407,372.215,133.409,372.215,133.411,372.214z"/>
				</defs>
				<clipPath id="SVGID_115_">
					<use xlink:href="#SVGID_44_"  overflow="visible"/>
				</clipPath>
				<g clip-path="url(#SVGID_115_)" enable-background="new    ">
					<path fill="#787878" d="M141.274,372.913h-9.448c0.531-0.229,1.06-0.461,1.585-0.699
						c53.734-24.318,107.959-49.653,161.542-73.737h9.448c-53.582,24.084-107.808,49.419-161.542,73.737
						C142.334,372.452,141.805,372.685,141.274,372.913"/>
				</g>
			</g>
			<g enable-background="new    ">
				<defs>
					<path id="SVGID_43_" enable-background="new    " d="M125.131,377.209c41.479-9.64,83.119-19.629,124.652-29.646
						c0.331,0,0.773,0,1.104,0c0.351,0,0.819,0,1.17,0c0.364,0,0.85,0,1.214,0c0.371,0,0.865,0,1.236,0c0.371,0,0.865,0,1.236,0
						c0.364,0,0.85,0,1.215,0c0.351,0,0.818,0,1.17,0c0.331,0,0.772,0,1.104,0c-41.533,10.018-83.173,20.007-124.652,29.646
						c-0.094,0.022-0.188,0.044-0.281,0.065c-3.136-0.003-6.271-0.01-9.406-0.01C124.972,377.246,125.051,377.228,125.131,377.209z"
						/>
				</defs>
				<clipPath id="SVGID_116_">
					<use xlink:href="#SVGID_43_"  overflow="visible"/>
				</clipPath>
				<g clip-path="url(#SVGID_116_)" enable-background="new    ">
					<path fill="#030303" d="M129.447,378.679h-9.448c1.522-0.656,3.314-1.042,5.132-1.47c41.479-9.64,83.119-19.629,124.652-29.646
						c14.465-3.492,29.038-6.651,43.342-10.313h9.449c-14.306,3.662-28.878,6.821-43.343,10.313
						c-41.533,10.018-83.173,20.007-124.652,29.646C132.762,377.637,130.97,378.022,129.447,378.679"/>
				</g>
			</g>
			<g enable-background="new    ">
				<defs>
					<path id="SVGID_42_" enable-background="new    " d="M123.273,376.84c3.263-1.835,6.777-3.101,10.133-4.624
						c0.331,0,0.773,0,1.104,0c0.351,0,0.819,0,1.17,0c0.364,0,0.85,0,1.214,0c0.371,0,0.865,0,1.236,0c0.371,0,0.865,0,1.236,0
						c0.364,0,0.85,0,1.214,0c0.351,0,0.819,0,1.17,0c0.331,0,0.773,0,1.104,0l0,0c-3.356,1.523-6.871,2.789-10.133,4.624
						c-0.329,0-0.769,0-1.098,0c-0.35,0-0.815,0-1.165,0c-0.362,0-0.846,0-1.208,0c-0.369,0-0.861,0-1.23,0c-0.37,0-0.862,0-1.231,0
						c-0.363,0-0.846,0-1.209,0c-0.35,0-0.815,0-1.165,0c-0.33,0-0.77,0-1.099,0c-0.001,0-0.003,0-0.005,0s-0.004,0-0.005,0
						s-0.004,0-0.006,0c-0.001,0-0.004,0-0.006,0c-0.001,0-0.004,0-0.006,0c-0.001,0-0.004,0-0.006,0c-0.001,0-0.003,0-0.005,0
						C123.276,376.84,123.274,376.84,123.273,376.84z"/>
				</defs>
				<clipPath id="SVGID_117_">
					<use xlink:href="#SVGID_42_"  overflow="visible"/>
				</clipPath>
				<g clip-path="url(#SVGID_117_)" enable-background="new    ">
					<path fill="#787878" d="M131.887,377.325h-9.448c1.903-1.146,3.907-2.07,5.926-2.94h9.449
						C135.794,375.255,133.791,376.179,131.887,377.325"/>
					<path fill="#7C7C7C" d="M137.813,374.385h-9.449c1.154-0.497,2.313-0.977,3.461-1.472h9.448
						C140.126,373.408,138.967,373.888,137.813,374.385"/>
					<path fill="#787878" d="M141.274,372.913h-9.448c0.531-0.229,1.06-0.461,1.585-0.699
						c53.734-24.318,107.959-49.653,161.542-73.737h9.448c-53.582,24.084-107.808,49.419-161.542,73.737
						C142.334,372.452,141.805,372.685,141.274,372.913"/>
				</g>
			</g>
			<g enable-background="new    ">
				<defs>
					<path id="SVGID_41_" enable-background="new    " d="M123.273,376.84c0.015-0.004,0.029,0,0.044,0c0.33,0,0.77,0,1.099,0
						c0.35,0,0.815,0,1.165,0c0.363,0,0.846,0,1.209,0c0.369,0,0.861,0,1.231,0c0.369,0,0.861,0,1.23,0c0.362,0,0.846,0,1.208,0
						c0.35,0,0.815,0,1.165,0c0.329,0,0.769,0,1.098,0l0,0c-0.28,0.157-0.558,0.319-0.834,0.485h-9.448
						C122.715,377.159,122.993,376.997,123.273,376.84z"/>
				</defs>
				<clipPath id="SVGID_118_">
					<use xlink:href="#SVGID_41_"  overflow="visible"/>
				</clipPath>
				<g clip-path="url(#SVGID_118_)" enable-background="new    ">
					<path fill="#787878" d="M131.887,377.325h-9.448c1.903-1.146,3.907-2.07,5.926-2.94h9.449
						C135.794,375.255,133.791,376.179,131.887,377.325"/>
				</g>
			</g>
			<g enable-background="new    ">
				<defs>
					<path id="SVGID_40_" enable-background="new    " d="M131.032,438.688h-9.449c57.487-17.648,115.473-34.785,173.155-52.245
						h9.449C246.504,403.902,188.519,421.039,131.032,438.688z"/>
				</defs>
				<clipPath id="SVGID_119_">
					<use xlink:href="#SVGID_40_"  overflow="visible"/>
				</clipPath>
				<g clip-path="url(#SVGID_119_)" enable-background="new    ">
					<path fill="#030303" d="M131.032,438.688h-9.449c57.487-17.648,115.473-34.785,173.155-52.245h9.449
						C246.504,403.902,188.519,421.039,131.032,438.688"/>
				</g>
			</g>
			<g enable-background="new    ">
				<defs>
					<path id="SVGID_39_" enable-background="new    " d="M132.06,437.492h-9.449c57.43-17.21,114.819-34.517,172.341-51.697h9.448
						C246.879,402.976,189.49,420.282,132.06,437.492z"/>
				</defs>
				<clipPath id="SVGID_120_">
					<use xlink:href="#SVGID_39_"  overflow="visible"/>
				</clipPath>
				<g clip-path="url(#SVGID_120_)" enable-background="new    ">
					<path d="M132.06,437.492h-9.449c57.43-17.21,114.819-34.517,172.341-51.697h9.448
						C246.879,402.976,189.49,420.282,132.06,437.492"/>
				</g>
			</g>
			<g enable-background="new    ">
				<defs>
					<path id="SVGID_38_" enable-background="new    " d="M251.397,362.439c14.509-8.396,29.047-16.785,43.449-25.19h9.448
						c-14.402,8.405-28.939,16.794-43.449,25.19c-26.156,15.14-52.339,30.407-78.479,45.657c-0.885-0.21-1.77-0.418-2.655-0.627
						c0.885,0.209,1.771,0.417,2.655,0.627l0,0c-16.454,9.599-32.891,19.19-49.293,28.737c-0.263,0.153-0.698,0.311-0.884,0.526
						c-0.331,0-0.771,0-1.101,0c-0.351,0-0.817,0-1.167,0c-0.364,0-0.849,0-1.212,0c-0.37,0-0.864,0-1.234,0
						c-0.371,0-0.864,0-1.235,0c-0.363,0-0.849,0-1.212,0c-0.351,0-0.818,0-1.168,0c-0.331,0-0.771,0-1.103,0h-0.001
						c0,0-0.001,0-0.001,0c-0.001,0-0.002,0-0.002,0c-0.001,0-0.002,0-0.003,0h-0.002c-0.001,0-0.001,0-0.002,0c0,0-0.001,0-0.002,0
						h-0.001l0,0c0.186-0.216,0.622-0.373,0.884-0.526c15.885-9.246,31.802-18.533,47.735-27.829
						c2.276-0.593,4.551-1.191,6.827-1.786c-2.276,0.595-4.55,1.193-6.827,1.786C198.017,393.454,224.721,377.88,251.397,362.439z
						 M177.609,407.532l0.144-0.019l0.15-0.02l0.156-0.021l0.16-0.021l0.163-0.022l0.166-0.022l0.168-0.023l0.168-0.023l0.168-0.023
						l0.168-0.023l0.166-0.023l0.163-0.021l0.16-0.022l0.155-0.021l0.15-0.02l0.144-0.019l-0.144,0.019l-0.15,0.02l-0.155,0.021
						l-0.16,0.022l-0.163,0.021l-0.166,0.023l-0.168,0.023l-0.168,0.023l-0.168,0.023l-0.168,0.023l-0.166,0.022l-0.163,0.022
						l-0.16,0.021l-0.156,0.021l-0.15,0.02L177.609,407.532"/>
				</defs>
				<clipPath id="SVGID_121_">
					<use xlink:href="#SVGID_38_"  overflow="visible"/>
				</clipPath>
				<g clip-path="url(#SVGID_121_)" enable-background="new    ">
					<path fill="#787878" d="M132.101,437.599h-9.449c-0.037-0.349,0.621-0.561,0.972-0.765
						c42.46-24.715,85.152-49.726,127.773-74.395c14.509-8.396,29.047-16.785,43.449-25.19h9.448
						c-14.402,8.405-28.939,16.794-43.449,25.19c-42.62,24.669-85.313,49.68-127.772,74.395
						C132.722,437.038,132.064,437.25,132.101,437.599"/>
				</g>
			</g>
			<g enable-background="new    ">
				<defs>
					<path id="SVGID_37_" enable-background="new    " d="M122.74,437.36h0.001c0.001,0,0.001,0,0.001,0c0.001,0,0.002,0,0.003,0
						h0.002c0.001,0,0.001,0,0.002,0c0,0,0.001,0,0.002,0c0,0,0.001,0,0.002,0h0.001c0.331,0,0.772,0,1.103,0
						c0.351,0,0.818,0,1.168,0c0.364,0,0.849,0,1.212,0c0.371,0,0.864,0,1.235,0c0.37,0,0.864,0,1.234,0c0.364,0,0.849,0,1.212,0
						c0.35,0,0.817,0,1.167,0c0.33,0,0.771,0,1.101,0l0,0c-0.063,0.072-0.097,0.151-0.087,0.238h-9.449
						C122.643,437.512,122.678,437.433,122.74,437.36z"/>
				</defs>
				<clipPath id="SVGID_122_">
					<use xlink:href="#SVGID_37_"  overflow="visible"/>
				</clipPath>
				<g clip-path="url(#SVGID_122_)" enable-background="new    ">
					<path fill="#787878" d="M132.101,437.599h-9.449c-0.037-0.349,0.621-0.561,0.972-0.765
						c42.46-24.715,85.152-49.726,127.773-74.395c14.509-8.396,29.047-16.785,43.449-25.19h9.448
						c-14.402,8.405-28.939,16.794-43.449,25.19c-42.62,24.669-85.313,49.68-127.772,74.395
						C132.722,437.038,132.064,437.25,132.101,437.599"/>
				</g>
			</g>
			<g enable-background="new    ">
				<defs>
					<path id="SVGID_36_" enable-background="new    " d="M129.312,438.139h-9.449c57.505-32.751,115.063-67.32,172.611-100.242
						c0.352-0.196,1.004-0.428,1.011-0.657h9.449c-0.008,0.229-0.659,0.461-1.011,0.657
						C244.375,370.818,186.816,405.388,129.312,438.139z"/>
				</defs>
				<clipPath id="SVGID_123_">
					<use xlink:href="#SVGID_36_"  overflow="visible"/>
				</clipPath>
				<g clip-path="url(#SVGID_123_)" enable-background="new    ">
					<path d="M129.312,438.139h-9.449c57.505-32.751,115.063-67.32,172.611-100.242c0.352-0.196,1.004-0.428,1.011-0.657h9.449
						c-0.008,0.229-0.659,0.461-1.011,0.657C244.375,370.818,186.816,405.388,129.312,438.139"/>
				</g>
			</g>
			<g enable-background="new    ">
				<defs>
					<path id="SVGID_35_" enable-background="new    " d="M131.994,377.101h-9.449c57.318-13.59,114.93-27.189,172.407-40.941h9.448
						C246.923,349.911,189.312,363.511,131.994,377.101z"/>
				</defs>
				<clipPath id="SVGID_124_">
					<use xlink:href="#SVGID_35_"  overflow="visible"/>
				</clipPath>
				<g clip-path="url(#SVGID_124_)" enable-background="new    ">
					<path d="M131.994,377.101h-9.449c57.318-13.59,114.93-27.189,172.407-40.941h9.448
						C246.923,349.911,189.312,363.511,131.994,377.101"/>
				</g>
			</g>
			<g enable-background="new    ">
				<defs>
					<path id="SVGID_34_" enable-background="new    " d="M119.863,378.738c1.485-0.663,3.24-1.055,5.03-1.474
						c3.135,0,6.271,0.007,9.406,0.01l0,0c-1.775,0.415-3.514,0.807-4.987,1.464C126.477,378.738,122.698,378.738,119.863,378.738z"
						/>
				</defs>
				<clipPath id="SVGID_125_">
					<use xlink:href="#SVGID_34_"  overflow="visible"/>
				</clipPath>
				<g clip-path="url(#SVGID_125_)" enable-background="new    ">
					<path fill="#030303" d="M129.312,378.738h-9.449c0.045-0.021,0.09-0.04,0.136-0.06h9.448
						C129.402,378.698,129.356,378.718,129.312,378.738"/>
					<path fill="#030303" d="M129.447,378.679h-9.448c1.522-0.656,3.314-1.042,5.132-1.47c41.479-9.64,83.119-19.629,124.652-29.646
						c14.465-3.492,29.038-6.651,43.342-10.313h9.449c-14.306,3.662-28.878,6.821-43.343,10.313
						c-41.533,10.018-83.173,20.007-124.652,29.646C132.762,377.637,130.97,378.022,129.447,378.679"/>
				</g>
			</g>
			<g enable-background="new    ">
				<defs>
					<path id="SVGID_33_" enable-background="new    " d="M129.312,377.542h-9.449c57.237-25.911,115.312-52.471,172.185-78.634
						h9.448C244.624,325.071,186.548,351.631,129.312,377.542z"/>
				</defs>
				<clipPath id="SVGID_126_">
					<use xlink:href="#SVGID_33_"  overflow="visible"/>
				</clipPath>
				<g clip-path="url(#SVGID_126_)" enable-background="new    ">
					<path d="M129.312,377.542h-9.449c57.237-25.911,115.312-52.471,172.185-78.634h9.448
						C244.624,325.071,186.548,351.631,129.312,377.542"/>
				</g>
			</g>
			<g enable-background="new    ">
				<defs>
					<path id="SVGID_32_" enable-background="new    " d="M129.312,337.572h-9.449c57.282-13.005,114.85-25.713,172.185-38.664
						h9.449C244.161,311.859,186.594,324.567,129.312,337.572z"/>
				</defs>
				<clipPath id="SVGID_127_">
					<use xlink:href="#SVGID_32_"  overflow="visible"/>
				</clipPath>
				<g clip-path="url(#SVGID_127_)" enable-background="new    ">
					<path fill="#030303" d="M129.312,337.572h-9.449c57.282-13.005,114.85-25.713,172.185-38.664h9.449
						C244.161,311.859,186.594,324.567,129.312,337.572"/>
				</g>
			</g>
			<g enable-background="new    ">
				<defs>
					<path id="SVGID_31_" enable-background="new    " d="M131.352,336.376h-9.448c57.728-12.879,115.419-25.785,173.049-38.772
						h9.448C246.772,310.591,189.08,323.497,131.352,336.376z"/>
				</defs>
				<clipPath id="SVGID_128_">
					<use xlink:href="#SVGID_31_"  overflow="visible"/>
				</clipPath>
				<g clip-path="url(#SVGID_128_)" enable-background="new    ">
					<path d="M131.352,336.376h-9.448c57.728-12.879,115.419-25.785,173.049-38.772h9.448
						C246.772,310.591,189.08,323.497,131.352,336.376"/>
				</g>
			</g>
			<g enable-background="new    ">
				<defs>
					<path id="SVGID_30_" enable-background="new    " d="M131.353,336.376h-9.449c57.567-25.354,115.536-50.859,173.049-75.915
						h9.448C246.888,285.517,188.919,311.022,131.353,336.376z"/>
				</defs>
				<clipPath id="SVGID_129_">
					<use xlink:href="#SVGID_30_"  overflow="visible"/>
				</clipPath>
				<g clip-path="url(#SVGID_129_)" enable-background="new    ">
					<path fill="#787878" d="M131.353,336.376h-9.449c57.567-25.354,115.536-50.859,173.049-75.915h9.448
						C246.888,285.517,188.919,311.022,131.353,336.376"/>
				</g>
			</g>
			<g enable-background="new    ">
				<defs>
					<path id="SVGID_29_" enable-background="new    " d="M129.312,336.483h-9.449c57.14-25.064,114.832-50.22,171.542-75.366h9.449
						C244.143,286.264,186.451,311.419,129.312,336.483z"/>
				</defs>
				<clipPath id="SVGID_130_">
					<use xlink:href="#SVGID_29_"  overflow="visible"/>
				</clipPath>
				<g clip-path="url(#SVGID_130_)" enable-background="new    ">
					<path d="M129.312,336.483h-9.449c57.14-25.064,114.832-50.22,171.542-75.366h9.449
						C244.143,286.264,186.451,311.419,129.312,336.483"/>
				</g>
			</g>
			<g enable-background="new    ">
				<defs>
					<path id="SVGID_28_" enable-background="new    " d="M129.312,296.848h-9.449c57.05-12.042,114.421-23.76,171.543-35.73h9.448
						C243.733,273.088,186.362,284.806,129.312,296.848z"/>
				</defs>
				<clipPath id="SVGID_131_">
					<use xlink:href="#SVGID_28_"  overflow="visible"/>
				</clipPath>
				<g clip-path="url(#SVGID_131_)" enable-background="new    ">
					<path fill="#030303" d="M129.312,296.848h-9.449c57.05-12.042,114.421-23.76,171.543-35.73h9.448
						C243.733,273.088,186.362,284.806,129.312,296.848"/>
				</g>
			</g>
			<g enable-background="new    ">
				<defs>
					<path id="SVGID_27_" enable-background="new    " d="M132.101,295.543h-9.449c57.443-11.943,114.974-23.778,172.3-35.838h9.448
						C247.075,271.765,189.543,283.6,132.101,295.543z"/>
				</defs>
				<clipPath id="SVGID_132_">
					<use xlink:href="#SVGID_27_"  overflow="visible"/>
				</clipPath>
				<g clip-path="url(#SVGID_132_)" enable-background="new    ">
					<path d="M132.101,295.543h-9.449c57.443-11.943,114.974-23.778,172.3-35.838h9.448
						C247.075,271.765,189.543,283.6,132.101,295.543"/>
				</g>
			</g>
			<g enable-background="new    ">
				<defs>
					<path id="SVGID_26_" enable-background="new    " d="M132.101,295.543h-9.449c57.327-23.392,114.76-46.674,172.194-69.939
						h9.448C246.861,248.869,189.428,272.151,132.101,295.543z"/>
				</defs>
				<clipPath id="SVGID_133_">
					<use xlink:href="#SVGID_26_"  overflow="visible"/>
				</clipPath>
				<g clip-path="url(#SVGID_133_)" enable-background="new    ">
					<path fill="#7C7C7C" d="M132.101,295.543h-9.449c57.327-23.392,114.76-46.674,172.194-69.939h9.448
						C246.861,248.869,189.428,272.151,132.101,295.543"/>
				</g>
			</g>
			<g enable-background="new    ">
				<defs>
					<path id="SVGID_25_" enable-background="new    " d="M129.312,295.866h-9.449c56.605-23.049,113.851-45.873,170.25-69.075
						c0.39-0.157,1.04-0.246,1.022-0.447h9.449c0.017,0.201-0.633,0.29-1.022,0.447
						C243.162,249.994,185.916,272.817,129.312,295.866z"/>
				</defs>
				<clipPath id="SVGID_134_">
					<use xlink:href="#SVGID_25_"  overflow="visible"/>
				</clipPath>
				<g clip-path="url(#SVGID_134_)" enable-background="new    ">
					<path d="M129.312,295.866h-9.449c56.605-23.049,113.851-45.873,170.25-69.075c0.254-0.102,0.618-0.175,0.836-0.27h9.449
						c-0.219,0.094-0.583,0.167-0.836,0.27C243.162,249.994,185.916,272.817,129.312,295.866"/>
					<path d="M300.398,226.522h-9.449c0.117-0.051,0.192-0.107,0.187-0.177h9.449C300.59,226.415,300.515,226.471,300.398,226.522"
						/>
				</g>
			</g>
			<g enable-background="new    ">
				<defs>
					<path id="SVGID_24_" enable-background="new    " d="M129.312,250.579h-9.449c56.836-8.343,114.226-16.128,171.223-24.327
						h9.448C243.537,234.451,186.148,242.236,129.312,250.579z"/>
				</defs>
				<clipPath id="SVGID_135_">
					<use xlink:href="#SVGID_24_"  overflow="visible"/>
				</clipPath>
				<g clip-path="url(#SVGID_135_)" enable-background="new    ">
					<path fill="#030303" d="M129.312,250.579h-9.449c56.836-8.343,114.226-16.128,171.223-24.327h9.448
						C243.537,234.451,186.148,242.236,129.312,250.579"/>
				</g>
			</g>
			<g enable-background="new    ">
				<defs>
					<path id="SVGID_23_" enable-background="new    " d="M134.472,249.058h-9.449c56.712-8.019,113.61-15.804,169.93-24.11h9.448
						C248.082,233.253,191.183,241.039,134.472,249.058z"/>
				</defs>
				<clipPath id="SVGID_136_">
					<use xlink:href="#SVGID_23_"  overflow="visible"/>
				</clipPath>
				<g clip-path="url(#SVGID_136_)" enable-background="new    ">
					<path d="M134.472,249.058h-9.449c56.712-8.019,113.61-15.804,169.93-24.11h9.448
						C248.082,233.253,191.183,241.039,134.472,249.058"/>
				</g>
			</g>
			<g enable-background="new    ">
				<defs>
					<path id="SVGID_22_" enable-background="new    " d="M134.472,249.058h-9.449c56.426-16.947,113.129-33.615,169.609-50.499
						h9.449C247.601,215.442,190.898,232.111,134.472,249.058z"/>
				</defs>
				<clipPath id="SVGID_137_">
					<use xlink:href="#SVGID_22_"  overflow="visible"/>
				</clipPath>
				<g clip-path="url(#SVGID_137_)" enable-background="new    ">
					<path fill="#7C7C7C" d="M134.472,249.058h-9.449c56.426-16.947,113.129-33.615,169.609-50.499h9.449
						C247.601,215.442,190.898,232.111,134.472,249.058"/>
				</g>
			</g>
			<g>
				<path fill="#CECECE" d="M304.082,198.559c0.319,8.793,0.319,17.595,0.319,26.388c-56.318,8.307-113.217,16.092-169.929,24.111
					C190.898,232.111,247.601,215.442,304.082,198.559z"/>
			</g>
			<g enable-background="new    ">
				<defs>
					<path id="SVGID_21_" enable-background="new    " d="M133.072,200.62h-9.449c57.14-0.98,114.234-2.007,171.329-3.042h9.448
						C247.307,198.613,190.212,199.639,133.072,200.62z"/>
				</defs>
				<clipPath id="SVGID_138_">
					<use xlink:href="#SVGID_21_"  overflow="visible"/>
				</clipPath>
				<g clip-path="url(#SVGID_138_)" enable-background="new    ">
					<path d="M133.072,200.62h-9.449c57.14-0.98,114.234-2.007,171.329-3.042h9.448C247.307,198.613,190.212,199.639,133.072,200.62
						"/>
				</g>
			</g>
			<g>
				<path fill="#CECECE" d="M304.082,172.495c0.298,0.067,0.376,0.311,0.381,0.578c0.004,0.251-0.058,0.524-0.062,0.694
					c0.07,1.943,0.091,3.898,0.089,5.879c-0.007,4.456-0.14,9.038-0.141,13.507c0,1.49,0.015,2.967,0.052,4.424
					c-57.094,1.035-114.188,2.061-171.328,3.042C189.989,191.161,247.111,181.899,304.082,172.495z"/>
			</g>
			<g enable-background="new    ">
				<defs>
					<path id="SVGID_20_" enable-background="new    " d="M133.073,200.62h-9.449c56.917-9.459,114.038-18.72,171.008-28.125h9.449
						C247.111,181.899,189.989,191.161,133.073,200.62z"/>
				</defs>
				<clipPath id="SVGID_139_">
					<use xlink:href="#SVGID_20_"  overflow="visible"/>
				</clipPath>
				<g clip-path="url(#SVGID_139_)" enable-background="new    ">
					<path fill="#818181" d="M133.073,200.62h-9.449c56.917-9.459,114.038-18.72,171.008-28.125h9.449
						C247.111,181.899,189.989,191.161,133.073,200.62"/>
				</g>
			</g>
			<g>
				<path fill="#CECECE" d="M304.294,225.604c0.102,4.53,0.126,9.138,0.125,13.771c-0.002,4.99-0.033,10.011-0.033,15
					c0.001,1.781,0.004,3.56,0.015,5.33c-57.326,12.06-114.857,23.895-172.3,35.838
					C189.428,272.151,246.861,248.869,304.294,225.604z"/>
			</g>
			<g>
				<path fill="#CECECE" d="M304.401,260.461c0,12.384,0,24.768,0,37.143c-57.628,12.987-115.321,25.894-173.048,38.772
					C188.919,311.022,246.888,285.517,304.401,260.461z"/>
			</g>
			<g enable-background="new    ">
				<defs>
					<path id="SVGID_19_" enable-background="new    " d="M282.779,449.002h-9.448c-50.437-3.564-101.114-6.841-151.747-10.314
						h9.449C181.665,442.161,232.342,445.438,282.779,449.002z"/>
				</defs>
				<clipPath id="SVGID_140_">
					<use xlink:href="#SVGID_19_"  overflow="visible"/>
				</clipPath>
				<g clip-path="url(#SVGID_140_)" enable-background="new    ">
					<path fill="#030303" d="M282.779,449.002h-9.448c-50.437-3.564-101.114-6.841-151.747-10.314h9.449
						C181.665,442.161,232.342,445.438,282.779,449.002"/>
				</g>
			</g>
			<g>
				<path fill="#050505" d="M304.188,386.442c0.202,8.45,0.252,17.054,0.249,25.715c-0.003,9.328-0.066,18.723-0.065,28.062
					c0,3.336,0.008,6.664,0.029,9.979c-0.355,0.004-0.712,0.006-1.068,0.006c-0.217,0-0.431,0-0.645-0.002
					c-5.935-0.038-11.851-0.589-17.784-1.043c-0.708-0.055-1.416-0.107-2.125-0.157c-50.437-3.564-101.114-6.841-151.747-10.314
					C188.519,421.039,246.504,403.902,304.188,386.442z"/>
			</g>
			<g enable-background="new    ">
				<defs>
					<path id="SVGID_18_" enable-background="new    " d="M302.681,172.171h-9.448c-28.788-5.849-57.648-11.568-86.528-17.244
						c-28.887-5.677-57.791-11.309-86.628-16.974h9.449c28.837,5.665,57.741,11.297,86.628,16.974
						C245.033,160.603,273.893,166.322,302.681,172.171z"/>
				</defs>
				<clipPath id="SVGID_141_">
					<use xlink:href="#SVGID_18_"  overflow="visible"/>
				</clipPath>
				<g clip-path="url(#SVGID_141_)" enable-background="new    ">
					<path d="M302.681,172.171h-9.448c-28.788-5.849-57.648-11.568-86.528-17.244c-28.887-5.677-57.791-11.309-86.628-16.974h9.449
						c28.837,5.665,57.741,11.297,86.628,16.974C245.033,160.603,273.893,166.322,302.681,172.171"/>
				</g>
			</g>
			<g enable-background="new    ">
				<defs>
					<path id="SVGID_17_" enable-background="new    " d="M129.312,249.823h-9.449c57.603-17.038,115.829-34.353,173.584-51.589
						h9.448C245.141,215.47,186.914,232.786,129.312,249.823z"/>
				</defs>
				<clipPath id="SVGID_142_">
					<use xlink:href="#SVGID_17_"  overflow="visible"/>
				</clipPath>
				<g clip-path="url(#SVGID_142_)" enable-background="new    ">
					<path d="M129.312,249.823h-9.449c57.603-17.038,115.829-34.353,173.584-51.589h9.448
						C245.141,215.47,186.914,232.786,129.312,249.823"/>
				</g>
			</g>
			<g>
				<path fill="#050505" d="M302.896,198.234c-57.755,17.235-115.981,34.551-173.584,51.588c0-16.146,0-32.292,0-48.438
					C187.021,200.188,245.034,199.279,302.896,198.234z"/>
			</g>
			<g enable-background="new    ">
				<defs>
					<path id="SVGID_16_" enable-background="new    " d="M129.312,249.823h-9.449c0-16.146,0-32.292,0-48.438h9.449
						C129.312,217.531,129.312,233.677,129.312,249.823z"/>
				</defs>
				<clipPath id="SVGID_143_">
					<use xlink:href="#SVGID_16_"  overflow="visible"/>
				</clipPath>
				<g clip-path="url(#SVGID_143_)" enable-background="new    ">
					<path fill="#030303" d="M129.312,249.823h-9.449c0-16.146,0-32.292,0-48.438h9.449
						C129.312,217.531,129.312,233.677,129.312,249.823"/>
				</g>
			</g>
			<g>
				<path fill="#050505" d="M300.854,261.117c-56.711,25.146-114.403,50.302-171.542,75.366c0-13.212,0-26.424,0-39.636
					C186.362,284.806,243.733,273.088,300.854,261.117z"/>
			</g>
			<g enable-background="new    ">
				<defs>
					<path id="SVGID_15_" enable-background="new    " d="M129.312,201.385h-9.449c57.71-1.197,115.723-2.106,173.584-3.15h9.449
						C245.034,199.279,187.021,200.188,129.312,201.385z"/>
				</defs>
				<clipPath id="SVGID_144_">
					<use xlink:href="#SVGID_15_"  overflow="visible"/>
				</clipPath>
				<g clip-path="url(#SVGID_144_)" enable-background="new    ">
					<path fill="#030303" d="M129.312,201.385h-9.449c57.71-1.197,115.723-2.106,173.584-3.15h9.449
						C245.034,199.279,187.021,200.188,129.312,201.385"/>
				</g>
			</g>
			<g enable-background="new    ">
				<defs>
					<path id="SVGID_14_" enable-background="new    " d="M129.312,438.139h-9.449c0-19.8,0-39.6,0-59.4h9.449
						C129.312,398.539,129.312,418.339,129.312,438.139z"/>
				</defs>
				<clipPath id="SVGID_145_">
					<use xlink:href="#SVGID_14_"  overflow="visible"/>
				</clipPath>
				<g clip-path="url(#SVGID_145_)" enable-background="new    ">
					<path fill="#030303" d="M129.312,438.139h-9.449c0-19.8,0-39.6,0-59.4h9.449C129.312,398.539,129.312,418.339,129.312,438.139"
						/>
				</g>
			</g>
			<g>
				<path fill="#050505" d="M301.497,298.908c-56.873,26.163-114.948,52.723-172.185,78.634c0-13.329,0-26.649,0-39.97
					C186.594,324.567,244.161,311.859,301.497,298.908z"/>
			</g>
			<g enable-background="new    ">
				<defs>
					<path id="SVGID_13_" enable-background="new    " d="M129.312,200.512h-9.449c57.888-9.333,115.473-19.008,173.37-28.341h9.448
						C244.784,181.504,187.2,191.179,129.312,200.512z"/>
				</defs>
				<clipPath id="SVGID_146_">
					<use xlink:href="#SVGID_13_"  overflow="visible"/>
				</clipPath>
				<g clip-path="url(#SVGID_146_)" enable-background="new    ">
					<path d="M129.312,200.512h-9.449c57.888-9.333,115.473-19.008,173.37-28.341h9.448
						C244.784,181.504,187.2,191.179,129.312,200.512"/>
				</g>
			</g>
			<g>
				<path fill="#050505" d="M302.575,337.249c0.352,0.22-0.3,0.451-0.651,0.647c-57.549,32.922-115.107,67.491-172.612,100.242
					c0-19.8,0-39.6,0-59.4c1.551-0.692,3.396-1.089,5.268-1.529c41.479-9.64,83.119-19.629,124.652-29.646
					C273.697,344.07,288.269,340.911,302.575,337.249z"/>
			</g>
			<g enable-background="new    ">
				<defs>
					<path id="SVGID_12_" enable-background="new    " d="M129.312,377.542h-9.449c0-13.329,0-26.649,0-39.97h9.449
						C129.312,350.893,129.312,364.213,129.312,377.542z"/>
				</defs>
				<clipPath id="SVGID_147_">
					<use xlink:href="#SVGID_12_"  overflow="visible"/>
				</clipPath>
				<g clip-path="url(#SVGID_147_)" enable-background="new    ">
					<path fill="#030303" d="M129.312,377.542h-9.449c0-13.329,0-26.649,0-39.97h9.449
						C129.312,350.893,129.312,364.213,129.312,377.542"/>
				</g>
			</g>
			<g>
				<path fill="#050505" d="M300.534,226.251c0.067,0.294-0.582,0.383-0.972,0.54c-56.4,23.202-113.646,46.026-170.25,69.075
					c0-15.093,0-30.186,0-45.288C186.148,242.236,243.537,234.451,300.534,226.251z"/>
			</g>
			<g>
				<path fill="#050505" d="M129.312,138.178c29.051,5.445,57.955,11.074,86.842,16.749c28.88,5.675,57.739,11.395,86.503,17.239
					c-57.89,9.341-115.464,19.005-173.345,28.346C129.312,179.73,129.312,158.95,129.312,138.178z"/>
			</g>
			<g enable-background="new    ">
				<defs>
					<path id="SVGID_11_" enable-background="new    " d="M119.863,200.512c0-20.781,0-41.562,0-62.334h9.449
						c0,20.754,0,41.518,0,62.282c-0.331,0-0.771,0-1.101,0c-0.351,0-0.818,0-1.168,0c-0.364,0-0.849,0-1.213,0
						c-0.37,0-0.864,0-1.235,0s-0.865,0-1.235,0c-0.364,0-0.849,0-1.213,0c-0.351,0-0.818,0-1.169,0c-0.331,0-0.772,0-1.103,0
						c0.331,0,0.771,0,1.103,0c0.351,0,0.818,0,1.169,0c0.364,0,0.849,0,1.213,0c0.371,0,0.865,0,1.235,0s0.865,0,1.235,0
						c0.364,0,0.849,0,1.213,0c0.35,0,0.817,0,1.168,0c0.33,0,0.771,0,1.101,0c0,0.017,0,0.035,0,0.052
						C126.477,200.512,122.698,200.512,119.863,200.512z"/>
				</defs>
				<clipPath id="SVGID_148_">
					<use xlink:href="#SVGID_11_"  overflow="visible"/>
				</clipPath>
				<g clip-path="url(#SVGID_148_)" enable-background="new    ">
					<path fill="#030303" d="M129.312,200.512h-9.449c0-20.781,0-41.562,0-62.334h9.449
						C129.312,158.95,129.312,179.73,129.312,200.512"/>
				</g>
			</g>
			<g>
				<path d="M305.48,336.376c-0.73,0.927-0.437,2.195-0.437,3.258c0,36.729,0,74.286,0,111.104
					c-0.474,0.136-1.159,0.055-1.507,0.324c-51.177-3.672-102.522-6.867-153.146-10.53c-6.284-0.459-12.665-0.846-19.038-1.305
					c-1.422-0.007-2.018-0.055-2.478-0.432c-0.195-18.666-0.107-38.124-0.107-57.132c0-1.08,0.286-2.422-0.428-3.366
					c0.642-0.531,0.428-1.458,0.428-2.169c0-12.501,0.178-26.208-0.214-38.448c0.705-0.909,0.214-2.835,0.214-4.239
					c0-11.448,0-23.157,0-34.749c0-0.378,0.188-1.232,0-1.629c0-1.197-0.027-1.539,0-1.845c0.286-2.799,0-5.77,0-8.694
					c0-27.27,0-55.008,0-82.538c0-0.721,0.071-1.494,0-2.17c-0.053-0.53-0.49-1.025,0-1.521c0-19.512,0-39.294,0-59.193
					c0-1.341-0.151-3.32,0.214-3.689c2.056-0.114,6.015,0.906,6.89,1.088c16.007,3.25,32.746,6.516,48.61,9.45
					c-1.738-19.169-3.609-39.249-5.267-58.869c-0.125-1.477-0.473-3.24-0.107-4.015c21.042-3.023,42.772-5.435,64.313-8.361
					c0.52-0.071,0.878-0.159,1.151-0.159c0.89,0.672-0.215,3.804-0.616,5.155c-7.273,24.453-15.125,49.293-22.371,73.737
					c25.499,4.842,52.406,10.395,78.405,15.426c1.613,0.306,4.51,0.647,4.84,1.196c0.668,1.098,0.214,4.59,0.214,6.399
					c0,5.976,0,10.656,0,16.515c0,0.981-0.196,2.088,0.329,2.935c-0.552,1.197-0.329,2.574-0.329,3.905
					c0.009,43.416,0,87.265,0,130.869C305.043,333.945,304.722,335.341,305.48,336.376z M129.312,438.139
					c57.504-32.751,115.063-67.32,172.612-100.242c0.352-0.196,1.003-0.428,1.011-0.657c-14.665,3.672-29.237,6.831-43.702,10.323
					c-41.533,10.018-83.173,20.007-124.653,29.646c-1.872,0.44-3.717,0.837-5.268,1.529
					C129.312,398.539,129.312,418.339,129.312,438.139 M304.401,385.795c-0.011-2.523-0.015-5.053-0.016-7.587
					c0-7.095,0.032-14.223,0.034-21.319c0.001-6.591-0.023-13.154-0.125-19.64c-14.402,8.405-28.939,16.794-43.449,25.19
					c-42.621,24.669-85.313,49.68-127.773,74.395c-0.351,0.204-1.009,0.416-1.012,0.658
					C189.49,420.282,246.879,402.976,304.401,385.795 M131.994,377.101c57.317-13.59,114.929-27.189,172.407-40.941
					c0-12.563,0-25.118,0-37.683c-53.583,24.084-107.808,49.419-161.542,73.737C139.213,373.869,135.381,375.22,131.994,377.101
					 M301.496,298.908c-57.335,12.951-114.902,25.659-172.184,38.664c0,13.32,0,26.641,0,39.97
					C186.548,351.631,244.624,325.071,301.496,298.908 M304.401,260.461c-57.513,25.056-115.481,50.562-173.049,75.915
					c57.728-12.879,115.42-25.785,173.049-38.772C304.401,285.229,304.401,272.845,304.401,260.461 M129.312,336.483
					c57.14-25.064,114.832-50.22,171.542-75.366c-57.121,11.971-114.492,23.688-171.542,35.73
					C129.312,310.06,129.312,323.271,129.312,336.483 M304.401,259.705c-0.011-1.771-0.015-3.549-0.016-5.33
					c0-4.989,0.032-10.01,0.034-15c0.001-4.633-0.023-9.241-0.125-13.771c-57.434,23.266-114.867,46.548-172.193,69.939
					C189.543,283.6,247.075,271.765,304.401,259.705 M129.312,295.866c56.604-23.049,113.851-45.873,170.25-69.075
					c0.39-0.157,1.039-0.246,1.022-0.447c-57.048,8.106-114.437,15.891-171.273,24.234
					C129.312,265.681,129.312,280.773,129.312,295.866 M304.401,450.198c-0.022-3.315-0.03-6.644-0.03-9.979
					c-0.001-9.339,0.063-18.733,0.066-28.062c0.003-8.661-0.047-17.265-0.25-25.715c-57.683,17.46-115.668,34.597-173.155,52.245
					c50.633,3.474,101.311,6.75,151.747,10.314c0.709,0.05,1.417,0.103,2.125,0.157c5.934,0.454,11.85,1.005,17.783,1.043
					c0.215,0.002,0.429,0.002,0.644,0.002C303.688,450.204,304.044,450.202,304.401,450.198 M129.525,137.953
					c-0.214,20.997-0.214,41.777-0.214,62.559c57.888-9.333,115.473-19.008,173.37-28.341
					c-28.788-5.849-57.648-11.568-86.528-17.244C187.266,149.25,158.362,143.618,129.525,137.953 M129.312,249.823
					c57.603-17.038,115.829-34.353,173.583-51.589c-57.861,1.045-115.874,1.953-173.583,3.151
					C129.312,217.531,129.312,233.677,129.312,249.823 M304.401,224.947c0-8.793,0-17.595,0-26.389
					c-56.8,16.884-113.503,33.553-169.929,50.499C191.183,241.039,248.082,233.253,304.401,224.947 M244.606,77.14
					c-21.702,2.844-43.315,5.571-64.857,8.361c13.717,23.184,27.575,46.224,41.408,69.291c4.866-16.083,9.661-32.237,14.626-48.221
					c-2.032-2.313-4.341-4.807-6.56-6.84c-0.74-0.675-1.943-1.224-1.935-2.395c3.761-0.684,7.746-1.152,11.72-1.629
					C240.863,89.506,242.771,83.358,244.606,77.14 M304.349,193.154c0.001-4.469,0.133-9.051,0.14-13.507
					c0.003-1.98-0.018-3.937-0.088-5.847c0.004-0.203,0.065-0.476,0.062-0.727c-0.006-0.267-0.084-0.511-0.381-0.578
					c-56.971,9.404-114.093,18.666-171.009,28.125c57.14-0.98,114.234-2.007,171.329-3.042
					C304.364,196.121,304.349,194.644,304.349,193.154 M179.749,86.806c1.604,20.466,3.556,40.797,5.267,61.362
					c11.738,2.412,23.699,4.59,35.384,7.056c0.004-0.819-0.617-1.377-0.962-1.953C206.219,131.095,192.921,108.865,179.749,86.806
					 M236.103,105.48c0.812-3.131,1.827-6.039,2.692-9.116c-3.645,0.369-7.121,0.908-10.65,1.412
					c1.096,1.216,2.496,2.592,3.876,3.906C233.42,103.006,234.687,104.563,236.103,105.48"/>
			</g>
			<g>
				<path fill="#CECECE" d="M304.294,337.249c0.102,6.485,0.126,13.049,0.125,19.64c-0.002,7.097-0.033,14.225-0.033,21.319
					c0.001,2.534,0.004,5.063,0.015,7.587c-57.521,17.181-114.911,34.487-172.3,51.804c-0.037-0.349,0.621-0.561,0.972-0.765
					c42.46-24.715,85.152-49.726,127.772-74.395C275.355,354.043,289.892,345.654,304.294,337.249z"/>
			</g>
			<g>
				<path fill="#CECECE" d="M304.401,298.477c0,12.564,0,25.119,0,37.683c-57.477,13.752-115.089,27.352-172.514,41.166
					c3.494-2.105,7.326-3.456,10.972-5.111C196.593,347.896,250.819,322.561,304.401,298.477z"/>
			</g>
			<g enable-background="new    ">
				<defs>
					<path id="SVGID_10_" enable-background="new    " d="M303.537,451.063h-9.448c-51.177-3.672-102.523-6.867-153.146-10.53
						c-6.284-0.459-12.666-0.846-19.038-1.305h9.448c6.373,0.459,12.754,0.846,19.038,1.305
						C201.014,444.195,252.36,447.391,303.537,451.063z"/>
				</defs>
				<clipPath id="SVGID_149_">
					<use xlink:href="#SVGID_10_"  overflow="visible"/>
				</clipPath>
				<g clip-path="url(#SVGID_149_)" enable-background="new    ">
					<path d="M303.537,451.063h-9.448c-51.177-3.672-102.523-6.867-153.146-10.53c-6.284-0.459-12.666-0.846-19.038-1.305h9.448
						c6.373,0.459,12.754,0.846,19.038,1.305C201.014,444.195,252.36,447.391,303.537,451.063"/>
				</g>
			</g>
			<g enable-background="new    ">
				<defs>
					<path id="SVGID_9_" enable-background="new    " d="M129.312,336.483h-9.449c0-13.212,0-26.424,0-39.636h9.449
						C129.312,310.06,129.312,323.271,129.312,336.483z"/>
				</defs>
				<clipPath id="SVGID_150_">
					<use xlink:href="#SVGID_9_"  overflow="visible"/>
				</clipPath>
				<g clip-path="url(#SVGID_150_)" enable-background="new    ">
					<path fill="#030303" d="M129.312,336.483h-9.449c0-13.212,0-26.424,0-39.636h9.449
						C129.312,310.06,129.312,323.271,129.312,336.483"/>
				</g>
			</g>
			<g enable-background="new    ">
				<defs>
					<path id="SVGID_8_" enable-background="new    " d="M129.312,295.866h-9.449c0-15.093,0-30.186,0-45.288h9.449
						C129.312,265.681,129.312,280.773,129.312,295.866z"/>
				</defs>
				<clipPath id="SVGID_151_">
					<use xlink:href="#SVGID_8_"  overflow="visible"/>
				</clipPath>
				<g clip-path="url(#SVGID_151_)" enable-background="new    ">
					<path fill="#030303" d="M129.312,295.866h-9.449c0-15.093,0-30.186,0-45.288h9.449
						C129.312,265.681,129.312,280.773,129.312,295.866"/>
				</g>
			</g>
			<g enable-background="new    ">
				<defs>
					<path id="SVGID_7_" enable-background="new    " d="M119.872,137.404h9.449c-0.118,0-0.231,0.003-0.339,0.009h-9.448
						C119.641,137.407,119.754,137.404,119.872,137.404z"/>
				</defs>
				<clipPath id="SVGID_152_">
					<use xlink:href="#SVGID_7_"  overflow="visible"/>
				</clipPath>
				<g clip-path="url(#SVGID_152_)" enable-background="new    ">
					<path d="M128.981,137.413h-9.448c0.108-0.006,0.221-0.009,0.338-0.009h9.449C129.203,137.404,129.089,137.407,128.981,137.413"
						/>
				</g>
			</g>
			<g enable-background="new    ">
				<defs>
					<path id="SVGID_6_" enable-background="new    " d="M131.352,439.228h-9.448c-1.422-0.007-2.018-0.055-2.478-0.432h9.448
						C129.334,439.173,129.93,439.221,131.352,439.228z"/>
				</defs>
				<clipPath id="SVGID_153_">
					<use xlink:href="#SVGID_6_"  overflow="visible"/>
				</clipPath>
				<g clip-path="url(#SVGID_153_)" enable-background="new    ">
					<path d="M131.352,439.228h-9.448c-1.422-0.007-2.018-0.055-2.478-0.432h9.448C129.334,439.173,129.93,439.221,131.352,439.228"
						/>
				</g>
			</g>
			<g enable-background="new    ">
				<defs>
					<path id="SVGID_5_" enable-background="new    " d="M128.768,200.296l-9.449,0c0-19.511,0-39.293,0-59.193
						c0-1.341-0.151-3.321,0.214-3.689h9.448c-0.365,0.369-0.214,2.349-0.214,3.689
						C128.768,161.002,128.768,180.784,128.768,200.296z"/>
				</defs>
				<clipPath id="SVGID_154_">
					<use xlink:href="#SVGID_5_"  overflow="visible"/>
				</clipPath>
				<g clip-path="url(#SVGID_154_)" enable-background="new    ">
					<path d="M128.768,200.296l-9.449,0c0-19.511,0-39.293,0-59.193c0-1.341-0.151-3.321,0.214-3.689h9.448
						c-0.365,0.369-0.214,2.349-0.214,3.689C128.768,161.002,128.768,180.784,128.768,200.296"/>
				</g>
			</g>
			<g enable-background="new    ">
				<defs>
					<path id="SVGID_4_" enable-background="new    " d="M128.554,337.681h-9.449c0.705-0.909,0.214-2.835,0.214-4.239
						c0-11.448,0-23.157,0-34.749c0-0.378,0.188-1.232,0-1.629h9.449c0.188,0.396,0,1.251,0,1.629c0,11.592,0,23.301,0,34.749
						C128.768,334.846,129.258,336.771,128.554,337.681z"/>
				</defs>
				<clipPath id="SVGID_155_">
					<use xlink:href="#SVGID_4_"  overflow="visible"/>
				</clipPath>
				<g clip-path="url(#SVGID_155_)" enable-background="new    ">
					<path d="M128.554,337.681h-9.449c0.705-0.909,0.214-2.835,0.214-4.239c0-11.448,0-23.157,0-34.749c0-0.378,0.188-1.232,0-1.629
						h9.449c0.188,0.396,0,1.251,0,1.629c0,11.592,0,23.301,0,34.749C128.768,334.846,129.258,336.771,128.554,337.681"/>
				</g>
			</g>
			<g enable-background="new    ">
				<defs>
					<path id="SVGID_3_" enable-background="new    " d="M128.34,378.298h-9.449c0.642-0.531,0.428-1.458,0.428-2.169
						c0-12.501,0.178-26.208-0.214-38.448h9.449c0.392,12.24,0.214,25.947,0.214,38.448
						C128.768,376.84,128.981,377.767,128.34,378.298z"/>
				</defs>
				<clipPath id="SVGID_156_">
					<use xlink:href="#SVGID_3_"  overflow="visible"/>
				</clipPath>
				<g clip-path="url(#SVGID_156_)" enable-background="new    ">
					<path d="M128.34,378.298h-9.449c0.642-0.531,0.428-1.458,0.428-2.169c0-12.501,0.178-26.208-0.214-38.448h9.449
						c0.392,12.24,0.214,25.947,0.214,38.448C128.768,376.84,128.981,377.767,128.34,378.298"/>
				</g>
			</g>
			<g enable-background="new    ">
				<defs>
					<path id="SVGID_2_" enable-background="new    " d="M128.875,438.796h-9.448c-0.196-18.666-0.107-38.124-0.107-57.132
						c0-1.08,0.286-2.422-0.428-3.366h9.449c0.713,0.944,0.428,2.286,0.428,3.366C128.768,400.672,128.679,420.13,128.875,438.796z"
						/>
				</defs>
				<clipPath id="SVGID_157_">
					<use xlink:href="#SVGID_2_"  overflow="visible"/>
				</clipPath>
				<g clip-path="url(#SVGID_157_)" enable-background="new    ">
					<path d="M128.875,438.796h-9.448c-0.196-18.666-0.107-38.124-0.107-57.132c0-1.08,0.286-2.422-0.428-3.366h9.449
						c0.713,0.944,0.428,2.286,0.428,3.366C128.768,400.672,128.679,420.13,128.875,438.796"/>
				</g>
			</g>
			<g enable-background="new    ">
				<defs>
					<path id="SVGID_1_" enable-background="new    " d="M128.768,297.063h-9.449c0-1.197-0.027-1.539,0-1.845
						c0.286-2.799,0-5.77,0-8.694c0-27.27,0-55.008,0-82.538c0-0.721,0.071-1.495,0-2.17c-0.053-0.53-0.49-1.025,0-1.521l9.449,0
						c-0.49,0.495-0.053,0.99,0,1.521c0.071,0.676,0,1.449,0,2.17c0,27.53,0,55.269,0,82.538c0,2.925,0.286,5.896,0,8.694
						C128.741,295.524,128.768,295.866,128.768,297.063z"/>
				</defs>
				<clipPath id="SVGID_158_">
					<use xlink:href="#SVGID_1_"  overflow="visible"/>
				</clipPath>
				<g clip-path="url(#SVGID_158_)" enable-background="new    ">
					<path d="M128.768,297.063h-9.449c0-1.197-0.027-1.539,0-1.845c0.286-2.799,0-5.77,0-8.694c0-27.27,0-55.008,0-82.538
						c0-0.721,0.071-1.495,0-2.17c-0.053-0.53-0.49-1.025,0-1.521l9.449,0c-0.49,0.495-0.053,0.99,0,1.521
						c0.071,0.676,0,1.449,0,2.17c0,27.53,0,55.269,0,82.538c0,2.925,0.286,5.896,0,8.694
						C128.741,295.524,128.768,295.866,128.768,297.063"/>
				</g>
			</g>
		</g>
	</g>
</g>
</svg>
