<?xml version="1.0" encoding="utf-8"?>
<!-- Generator: Adobe Illustrator 14.0.0, SVG Export Plug-In  -->
<!DOCTYPE svg PUBLIC "-//W3C//DTD SVG 1.1//EN" "http://www.w3.org/Graphics/SVG/1.1/DTD/svg11.dtd" [
	<!ENTITY ns_flows "http://ns.adobe.com/Flows/1.0/">
]>
<svg version="1.1"
	 xmlns="http://www.w3.org/2000/svg" xmlns:xlink="http://www.w3.org/1999/xlink" xmlns:a="http://ns.adobe.com/AdobeSVGViewerExtensions/3.0/"
	 x="0px" y="0px" width="800px" height="600px" viewBox="-146.733 -46.734 800 600"
	 enable-background="new -146.733 -46.734 800 600" xml:space="preserve">
<defs>
</defs>
<circle fill-rule="evenodd" clip-rule="evenodd" fill="#FFFFFF" stroke="#1A171B" stroke-width="6.5329" cx="253.267" cy="253.267" r="249.998"/>
<g>
	<g>
		<g enable-background="new    ">
			<g enable-background="new    ">
				<defs>
					<path id="SVGID_100_" enable-background="new    " d="M414.659,339.237h-11.295c0-23.976,0-47.96,0-71.937h11.295
						C414.659,291.277,414.659,315.261,414.659,339.237z"/>
				</defs>
				<clipPath id="SVGID_101_">
					<use xlink:href="#SVGID_100_"  overflow="visible"/>
				</clipPath>
				<g clip-path="url(#SVGID_101_)" enable-background="new    ">
					<path d="M414.659,339.237h-11.295c0-23.976,0-47.96,0-71.937h11.295C414.659,291.277,414.659,315.261,414.659,339.237"/>
				</g>
			</g>
			<g enable-background="new    ">
				<defs>
					<path id="SVGID_99_" enable-background="new    " d="M413.697,341.038h-11.295c0.239-0.373,0.46-0.574,0.457-0.732h11.296
						C414.157,340.463,413.937,340.665,413.697,341.038z"/>
				</defs>
				<clipPath id="SVGID_102_">
					<use xlink:href="#SVGID_99_"  overflow="visible"/>
				</clipPath>
				<g clip-path="url(#SVGID_102_)" enable-background="new    ">
					<path d="M413.697,341.038h-11.295c0.239-0.373,0.46-0.574,0.457-0.732h11.296C414.157,340.463,413.937,340.665,413.697,341.038
						"/>
				</g>
			</g>
			<g enable-background="new    ">
				<defs>
					<path id="SVGID_98_" enable-background="new    " d="M414.054,266.607h-11.296c0.021-0.738-0.754-1.308-1.203-1.942h11.296
						C413.299,265.299,414.074,265.869,414.054,266.607z"/>
				</defs>
				<clipPath id="SVGID_103_">
					<use xlink:href="#SVGID_98_"  overflow="visible"/>
				</clipPath>
				<g clip-path="url(#SVGID_103_)" enable-background="new    ">
					<path d="M414.054,266.607h-11.296c0.021-0.738-0.754-1.308-1.203-1.942h11.296
						C413.299,265.299,414.074,265.869,414.054,266.607"/>
				</g>
			</g>
			<g enable-background="new    ">
				<defs>
					<path id="SVGID_97_" enable-background="new    " d="M414.155,340.305h-11.296c-0.511-0.381-1.035-0.431-1.667-0.431h11.296
						C413.119,339.875,413.644,339.924,414.155,340.305z"/>
				</defs>
				<clipPath id="SVGID_104_">
					<use xlink:href="#SVGID_97_"  overflow="visible"/>
				</clipPath>
				<g clip-path="url(#SVGID_104_)" enable-background="new    ">
					<path d="M414.155,340.305h-11.296c-0.511-0.381-1.035-0.431-1.667-0.431h11.296
						C413.119,339.875,413.644,339.924,414.155,340.305"/>
				</g>
			</g>
			<g enable-background="new    ">
				<defs>
					<path id="SVGID_96_" enable-background="new    " d="M397.403,340.062c1.517-0.063,2.787-0.188,3.789-0.188h11.296
						c-1.003,0-2.273,0.125-3.789,0.188c-0.39,0-0.909,0-1.3,0c-0.413,0-0.964,0-1.377,0c-0.429,0-1.001,0-1.43,0
						c-0.438,0-1.02,0-1.456,0c-0.438,0-1.02,0-1.456,0c-0.429,0-1.001,0-1.43,0c-0.414,0-0.965,0-1.378,0c-0.391,0-0.91,0-1.3,0
						c-0.006,0-0.014,0-0.02,0c-0.007,0-0.015,0-0.021,0s-0.015,0-0.021,0s-0.016,0-0.022,0s-0.016,0-0.022,0
						c-0.006,0-0.015,0-0.021,0c-0.006,0-0.015,0-0.021,0S397.409,340.062,397.403,340.062z"/>
				</defs>
				<clipPath id="SVGID_105_">
					<use xlink:href="#SVGID_96_"  overflow="visible"/>
				</clipPath>
				<g clip-path="url(#SVGID_105_)" enable-background="new    ">
					<path fill="#818181" d="M408.404,340.074h-11.296c1.647-0.058,3.018-0.199,4.084-0.199h11.296
						C411.421,339.875,410.05,340.016,408.404,340.074"/>
				</g>
			</g>
			<g enable-background="new    ">
				<defs>
					<path id="SVGID_95_" enable-background="new    " d="M397.403,340.062c0.27-0.005,0.539,0,0.809,0c0.402,0,0.939,0,1.342,0
						c0.422,0,0.985,0,1.407,0c0.434,0,1.012,0,1.446,0c0.438,0,1.021,0,1.459,0c0.434,0,1.012,0,1.446,0c0.422,0,0.984,0,1.406,0
						c0.403,0,0.939,0,1.342,0c0.191,0,0.447,0,0.639,0c-0.098,0.005-0.195,0.008-0.295,0.012h-11.296
						C397.208,340.07,397.306,340.067,397.403,340.062z"/>
				</defs>
				<clipPath id="SVGID_106_">
					<use xlink:href="#SVGID_95_"  overflow="visible"/>
				</clipPath>
				<g clip-path="url(#SVGID_106_)" enable-background="new    ">
					<path fill="#818181" d="M408.404,340.074h-11.296c1.647-0.058,3.018-0.199,4.084-0.199h11.296
						C411.421,339.875,410.05,340.016,408.404,340.074"/>
				</g>
			</g>
			<g enable-background="new    ">
				<defs>
					<path id="SVGID_94_" enable-background="new    " d="M405.757,151.038h-11.296c14.063-9.882,28.581-20.088,41.719-29.808
						h11.296C434.338,130.95,419.82,141.156,405.757,151.038z"/>
				</defs>
				<clipPath id="SVGID_107_">
					<use xlink:href="#SVGID_94_"  overflow="visible"/>
				</clipPath>
				<g clip-path="url(#SVGID_107_)" enable-background="new    ">
					<path d="M405.757,151.038h-11.296c14.063-9.882,28.581-20.088,41.719-29.808h11.296
						C434.338,130.95,419.82,141.156,405.757,151.038"/>
				</g>
			</g>
			<g>
				<polygon points="400.257,154.908 388.961,154.908 394.461,151.038 405.757,151.038 				"/>
			</g>
			<g enable-background="new    ">
				<defs>
					<path id="SVGID_93_" enable-background="new    " d="M391.985,340.07h-11.296c-1.459,0-2.91,0-4.361,0h11.296
						C389.074,340.07,390.526,340.07,391.985,340.07z"/>
				</defs>
				<clipPath id="SVGID_108_">
					<use xlink:href="#SVGID_93_"  overflow="visible"/>
				</clipPath>
				<g clip-path="url(#SVGID_108_)" enable-background="new    ">
					<path d="M391.985,340.07h-11.296c-1.459,0-2.91,0-4.361,0h11.296C389.074,340.07,390.526,340.07,391.985,340.07"/>
				</g>
			</g>
			<g enable-background="new    ">
				<defs>
					<path id="SVGID_92_" enable-background="new    " d="M387.914,161.109h-11.295c-0.624,0-1.267-0.009-1.907-0.018
						c-0.671-0.008-1.347-0.016-2.021-0.016h11.296c0.674,0,1.35,0.008,2.02,0.016C386.648,161.1,387.29,161.109,387.914,161.109z"
						/>
				</defs>
				<clipPath id="SVGID_109_">
					<use xlink:href="#SVGID_92_"  overflow="visible"/>
				</clipPath>
				<g clip-path="url(#SVGID_109_)" enable-background="new    ">
					<path d="M387.914,161.109h-11.295c-0.624,0-1.267-0.009-1.907-0.018c-0.671-0.008-1.347-0.016-2.021-0.016h11.296
						c0.674,0,1.35,0.008,2.02,0.016C386.648,161.1,387.29,161.109,387.914,161.109"/>
				</g>
			</g>
			<g enable-background="new    ">
				<defs>
					<path id="SVGID_91_" enable-background="new    " d="M372.667,160.13L372.667,160.13h11.296l0,0c-0.396,0-0.924,0-1.319,0
						c-0.42,0-0.979,0-1.398,0c-0.436,0-1.016,0-1.451,0c-0.443,0-1.035,0-1.479,0s-1.035,0-1.479,0c-0.436,0-1.016,0-1.451,0
						c-0.42,0-0.979,0-1.398,0C373.591,160.13,373.064,160.13,372.667,160.13z"/>
				</defs>
				<clipPath id="SVGID_110_">
					<use xlink:href="#SVGID_91_"  overflow="visible"/>
				</clipPath>
				<g clip-path="url(#SVGID_110_)" enable-background="new    ">
					<path fill="#030303" d="M387.914,160.155h-11.295c-0.615,0-1.257,0-1.898-0.009c-0.683-0.008-1.369-0.016-2.053-0.016h11.296
						c0.684,0,1.37,0.008,2.052,0.016C386.658,160.155,387.298,160.155,387.914,160.155"/>
				</g>
			</g>
			<g enable-background="new    ">
				<defs>
					<path id="SVGID_90_" enable-background="new    " d="M374.72,160.146c-0.682-0.008-1.369-0.016-2.053-0.016
						c0.396,0,0.924,0,1.32,0c0.419,0,0.979,0,1.398,0c0.436,0,1.016,0,1.451,0c0.443,0,1.035,0,1.479,0s1.035,0,1.479,0
						c0.436,0,1.016,0,1.451,0c0.42,0,0.979,0,1.398,0c0.396,0,0.924,0,1.319,0c0.684,0,1.37,0.008,2.052,0.016
						c0.643,0.009,1.283,0.009,1.898,0.009h-11.295C376.003,160.155,375.362,160.155,374.72,160.146z"/>
				</defs>
				<clipPath id="SVGID_111_">
					<use xlink:href="#SVGID_90_"  overflow="visible"/>
				</clipPath>
				<g clip-path="url(#SVGID_111_)" enable-background="new    ">
					<path fill="#030303" d="M387.914,160.155h-11.295c-0.615,0-1.257,0-1.898-0.009c-0.683-0.008-1.369-0.016-2.053-0.016h11.296
						c0.684,0,1.37,0.008,2.052,0.016C386.658,160.155,387.298,160.155,387.914,160.155"/>
				</g>
			</g>
			<g enable-background="new    ">
				<defs>
					<path id="SVGID_89_" enable-background="new    " d="M365.596,409.086H354.3c14.189-19.422,28.494-40.555,42.691-60.543
						c1.443-2.034,3.762-4.905,5.41-7.506h11.295c-1.648,2.601-3.966,5.472-5.409,7.506
						C394.089,368.532,379.785,389.665,365.596,409.086z"/>
				</defs>
				<clipPath id="SVGID_112_">
					<use xlink:href="#SVGID_89_"  overflow="visible"/>
				</clipPath>
				<g clip-path="url(#SVGID_112_)" enable-background="new    ">
					<path d="M365.596,409.086H354.3c14.189-19.422,28.494-40.555,42.691-60.543c1.443-2.034,3.762-4.905,5.41-7.506h11.295
						c-1.648,2.601-3.966,5.472-5.409,7.506C394.089,368.532,379.785,389.665,365.596,409.086"/>
				</g>
			</g>
			<g enable-background="new    ">
				<defs>
					<path id="SVGID_88_" enable-background="new    " d="M412.851,264.665h-11.296c-15.749-22.339-31.417-45.091-47.255-67.078
						h11.296C381.434,219.574,397.102,242.326,412.851,264.665z"/>
				</defs>
				<clipPath id="SVGID_113_">
					<use xlink:href="#SVGID_88_"  overflow="visible"/>
				</clipPath>
				<g clip-path="url(#SVGID_113_)" enable-background="new    ">
					<path d="M412.851,264.665h-11.296c-15.749-22.339-31.417-45.091-47.255-67.078h11.296
						C381.434,219.574,397.102,242.326,412.851,264.665"/>
				</g>
			</g>
			<g enable-background="new    ">
				<defs>
					<path id="SVGID_87_" enable-background="new    " d="M414.659,267.3h-11.295c-22.429-0.112-45.064-0.169-67.703-0.169h11.296
						C369.594,267.131,392.231,267.188,414.659,267.3z"/>
				</defs>
				<clipPath id="SVGID_114_">
					<use xlink:href="#SVGID_87_"  overflow="visible"/>
				</clipPath>
				<g clip-path="url(#SVGID_114_)" enable-background="new    ">
					<path d="M414.659,267.3h-11.295c-22.429-0.112-45.064-0.169-67.703-0.169h11.296
						C369.594,267.131,392.231,267.188,414.659,267.3"/>
				</g>
			</g>
			<g enable-background="new    ">
				<defs>
					<path id="SVGID_86_" enable-background="new    " d="M346.48,340.074h-11.296c13.726,0,27.371-0.004,41.144-0.004h11.296
						C373.851,340.07,360.206,340.074,346.48,340.074z"/>
				</defs>
				<clipPath id="SVGID_115_">
					<use xlink:href="#SVGID_86_"  overflow="visible"/>
				</clipPath>
				<g clip-path="url(#SVGID_115_)" enable-background="new    ">
					<path fill="#818181" d="M346.48,340.074h-11.296c13.726,0,27.371-0.004,41.144-0.004h11.296
						C373.851,340.07,360.206,340.074,346.48,340.074"/>
				</g>
			</g>
			<g enable-background="new    ">
				<defs>
					<path id="SVGID_85_" enable-background="new    " d="M344.836,409.152h-11.296c6.239-0.019,12.478-0.04,18.711-0.065h11.296
						C357.314,409.112,351.075,409.133,344.836,409.152z"/>
				</defs>
				<clipPath id="SVGID_116_">
					<use xlink:href="#SVGID_85_"  overflow="visible"/>
				</clipPath>
				<g clip-path="url(#SVGID_116_)" enable-background="new    ">
					<path d="M344.836,409.152h-11.296c6.239-0.019,12.478-0.04,18.711-0.065h11.296
						C357.314,409.112,351.075,409.133,344.836,409.152"/>
				</g>
			</g>
			<g enable-background="new    ">
				<defs>
					<path id="SVGID_84_" enable-background="new    " d="M364.037,196.759h-11.295c-9.67-3.745-19.233-7.605-28.742-11.53h11.295
						C344.804,189.153,354.367,193.014,364.037,196.759z"/>
				</defs>
				<clipPath id="SVGID_117_">
					<use xlink:href="#SVGID_84_"  overflow="visible"/>
				</clipPath>
				<g clip-path="url(#SVGID_117_)" enable-background="new    ">
					<path d="M364.037,196.759h-11.295c-9.67-3.745-19.233-7.605-28.742-11.53h11.295
						C344.804,189.153,354.367,193.014,364.037,196.759"/>
				</g>
			</g>
			<g enable-background="new    ">
				<defs>
					<path id="SVGID_83_" enable-background="new    " d="M346.48,340.074h-11.296c-2.163-0.003-4.361-0.05-6.562-0.097
						c-2.062-0.044-4.125-0.086-6.162-0.092h11.295c2.038,0.006,4.102,0.048,6.162,0.092
						C342.119,340.024,344.316,340.071,346.48,340.074z"/>
				</defs>
				<clipPath id="SVGID_118_">
					<use xlink:href="#SVGID_83_"  overflow="visible"/>
				</clipPath>
				<g clip-path="url(#SVGID_118_)" enable-background="new    ">
					<path d="M346.48,340.074h-11.296c-2.163-0.003-4.361-0.05-6.562-0.097c-2.062-0.044-4.125-0.086-6.162-0.092h11.295
						c2.038,0.006,4.102,0.048,6.162,0.092C342.119,340.024,344.316,340.071,346.48,340.074"/>
				</g>
			</g>
			<g enable-background="new    ">
				<defs>
					<path id="SVGID_82_" enable-background="new    " d="M318.396,266.603c-0.879,0-1.757,0-2.635,0h11.295
						c0.879,0,1.757,0,2.635,0C326.302,266.603,321.785,266.603,318.396,266.603z"/>
				</defs>
				<clipPath id="SVGID_119_">
					<use xlink:href="#SVGID_82_"  overflow="visible"/>
				</clipPath>
				<g clip-path="url(#SVGID_119_)" enable-background="new    ">
					<path fill="#787878" d="M329.69,266.603h-11.296c-0.877,0-1.755,0-2.633,0h11.295
						C327.934,266.603,328.812,266.603,329.69,266.603"/>
				</g>
			</g>
			<g enable-background="new    ">
				<defs>
					<path id="SVGID_81_" enable-background="new    " d="M318.778,339.925c1.012-0.027,2.037-0.039,3.069-0.041h11.295
						c-1.031,0.002-2.057,0.014-3.069,0.041c-1.081,0.03-2.148,0.077-3.2,0.148h-11.295
						C316.628,340.002,317.696,339.956,318.778,339.925z"/>
				</defs>
				<clipPath id="SVGID_120_">
					<use xlink:href="#SVGID_81_"  overflow="visible"/>
				</clipPath>
				<g clip-path="url(#SVGID_120_)" enable-background="new    ">
					<path fill="#818181" d="M326.873,340.074h-11.295c1.051-0.071,2.118-0.118,3.2-0.148c1.012-0.027,2.037-0.039,3.069-0.041
						h11.295c-1.031,0.002-2.057,0.014-3.069,0.041C328.992,339.956,327.924,340.002,326.873,340.074"/>
				</g>
			</g>
			<g enable-background="new    ">
				<defs>
					<path id="SVGID_80_" enable-background="new    " d="M325.834,340.166H314.54c0.513,0,0.783-0.075,1.038-0.092h11.295
						C326.618,340.09,326.348,340.166,325.834,340.166z"/>
				</defs>
				<clipPath id="SVGID_121_">
					<use xlink:href="#SVGID_80_"  overflow="visible"/>
				</clipPath>
				<g clip-path="url(#SVGID_121_)" enable-background="new    ">
					<path fill="#818181" d="M325.834,340.166H314.54c0.513,0,0.783-0.075,1.038-0.092h11.295
						C326.618,340.09,326.348,340.166,325.834,340.166"/>
				</g>
			</g>
			<g enable-background="new    ">
				<defs>
					<path id="SVGID_79_" enable-background="new    " d="M335.294,185.229H324c-0.24-0.044-0.472-0.096-0.7-0.157
						c-0.868-0.23-1.662-0.571-2.431-0.945c-0.211-0.103-0.422-0.208-0.631-0.316c-1.657-0.845-3.264-1.746-5.346-1.901
						c-0.205-0.016-0.415-0.024-0.63-0.024h11.295c0.216,0,0.426,0.008,0.631,0.024c2.082,0.155,3.688,1.056,5.346,1.901
						c0.209,0.107,0.419,0.213,0.631,0.316c0.769,0.374,1.562,0.714,2.431,0.945C334.823,185.133,335.055,185.185,335.294,185.229z"
						/>
				</defs>
				<clipPath id="SVGID_122_">
					<use xlink:href="#SVGID_79_"  overflow="visible"/>
				</clipPath>
				<g clip-path="url(#SVGID_122_)" enable-background="new    ">
					<path d="M335.294,185.229H324c-0.24-0.044-0.472-0.096-0.7-0.157c-0.868-0.23-1.662-0.571-2.431-0.945
						c-0.211-0.103-0.422-0.208-0.631-0.316c-1.657-0.845-3.264-1.746-5.346-1.901c-0.205-0.016-0.415-0.024-0.63-0.024h11.295
						c0.216,0,0.426,0.008,0.631,0.024c2.082,0.155,3.688,1.056,5.346,1.901c0.209,0.107,0.419,0.213,0.631,0.316
						c0.769,0.374,1.562,0.714,2.431,0.945C334.823,185.133,335.055,185.185,335.294,185.229"/>
				</g>
			</g>
			<g enable-background="new    ">
				<defs>
					<path id="SVGID_78_" enable-background="new    " d="M313.777,181.899c0.242-0.004,0.427-0.007,0.571-0.007h11.296
						c-0.044,0-0.091,0-0.143,0.001c-0.395,0-0.92,0-1.313,0c-0.418,0-0.976,0-1.393,0c-0.435,0-1.013,0-1.446,0
						c-0.441,0-1.03,0-1.472,0s-1.03,0-1.473,0c-0.434,0-1.012,0-1.445,0c-0.418,0-0.976,0-1.394,0c-0.394,0-0.919,0-1.313,0
						c0.395,0,0.92,0,1.313,0c0.418,0,0.976,0,1.394,0c0.434,0,1.012,0,1.445,0c0.442,0,1.031,0,1.473,0s1.03,0,1.472,0
						c0.434,0,1.012,0,1.446,0c0.417,0,0.975,0,1.393,0c0.394,0,0.919,0,1.313,0c-0.119,0.001-0.26,0.003-0.43,0.006
						C321.683,181.899,317.166,181.899,313.777,181.899z"/>
				</defs>
				<clipPath id="SVGID_123_">
					<use xlink:href="#SVGID_78_"  overflow="visible"/>
				</clipPath>
				<g clip-path="url(#SVGID_123_)" enable-background="new    ">
					<path fill="#373737" d="M325.072,181.899h-11.295c0.242-0.004,0.427-0.007,0.572-0.007h11.295
						C325.499,181.893,325.315,181.895,325.072,181.899"/>
				</g>
			</g>
			<g enable-background="new    ">
				<defs>
					<path id="SVGID_77_" enable-background="new    " d="M152.876,266.607h-11.295c70.809-23.112,141.806-46.008,212.721-69.021
						h11.296C294.681,220.599,223.685,243.495,152.876,266.607z"/>
				</defs>
				<clipPath id="SVGID_124_">
					<use xlink:href="#SVGID_77_"  overflow="visible"/>
				</clipPath>
				<g clip-path="url(#SVGID_124_)" enable-background="new    ">
					<path fill="#7C7C7C" d="M152.876,266.607h-11.295c70.809-23.112,141.806-46.008,212.721-69.021h11.296
						C294.681,220.599,223.685,243.495,152.876,266.607"/>
				</g>
			</g>
			<g enable-background="new    ">
				<defs>
					<path id="SVGID_76_" enable-background="new    " d="M238.372,238.141h-11.295c41.835-13.536,83.688-27.036,125.415-40.689
						h11.295C322.06,211.104,280.207,224.604,238.372,238.141z"/>
				</defs>
				<clipPath id="SVGID_125_">
					<use xlink:href="#SVGID_76_"  overflow="visible"/>
				</clipPath>
				<g clip-path="url(#SVGID_125_)" enable-background="new    ">
					<path d="M238.372,238.141h-11.295c41.835-13.536,83.688-27.036,125.415-40.689h11.295
						C322.06,211.104,280.207,224.604,238.372,238.141"/>
				</g>
			</g>
			<g enable-background="new    ">
				<defs>
					<path id="SVGID_75_" enable-background="new    " d="M324.208,197.472h-11.295c6.264,0,12.525-0.001,18.787-0.004
						c6.932-0.003,13.864-0.008,20.791-0.016h11.296c-6.927,0.008-13.86,0.013-20.791,0.016
						C336.734,197.47,330.473,197.472,324.208,197.472z"/>
				</defs>
				<clipPath id="SVGID_126_">
					<use xlink:href="#SVGID_75_"  overflow="visible"/>
				</clipPath>
				<g clip-path="url(#SVGID_126_)" enable-background="new    ">
					<path fill="#8F8F8F" d="M324.208,197.472h-11.295c6.264,0,12.525-0.001,18.787-0.004c6.932-0.003,13.864-0.008,20.791-0.016
						h11.296c-6.927,0.008-13.86,0.013-20.791,0.016C336.734,197.47,330.473,197.472,324.208,197.472"/>
				</g>
			</g>
			<g enable-background="new    ">
				<defs>
					<path id="SVGID_74_" enable-background="new    " d="M318.816,181.207H307.52c1.806,0,3.668-0.188,5.419-0.188h11.296
						C322.484,181.018,320.622,181.207,318.816,181.207z"/>
				</defs>
				<clipPath id="SVGID_127_">
					<use xlink:href="#SVGID_74_"  overflow="visible"/>
				</clipPath>
				<g clip-path="url(#SVGID_127_)" enable-background="new    ">
					<path d="M318.816,181.207H307.52c1.806,0,3.668-0.188,5.419-0.188h11.296C322.484,181.018,320.622,181.207,318.816,181.207"/>
				</g>
			</g>
			<g enable-background="new    ">
				<defs>
					<path id="SVGID_73_" enable-background="new    " d="M279.254,267.3h-11.296c22.428-0.112,45.064-0.169,67.703-0.169h11.295
						C324.319,267.131,301.682,267.188,279.254,267.3z"/>
				</defs>
				<clipPath id="SVGID_128_">
					<use xlink:href="#SVGID_73_"  overflow="visible"/>
				</clipPath>
				<g clip-path="url(#SVGID_128_)" enable-background="new    ">
					<path fill="#030303" d="M279.254,267.3h-11.296c22.428-0.112,45.064-0.169,67.703-0.169h11.295
						C324.319,267.131,301.682,267.188,279.254,267.3"/>
				</g>
			</g>
			<g enable-background="new    ">
				<defs>
					<path id="SVGID_72_" enable-background="new    " d="M414.66,339.237h-11.296c-45.274-23.822-90.229-48.006-135.405-71.937
						h11.296C324.431,291.231,369.384,315.415,414.66,339.237z"/>
				</defs>
				<clipPath id="SVGID_129_">
					<use xlink:href="#SVGID_72_"  overflow="visible"/>
				</clipPath>
				<g clip-path="url(#SVGID_129_)" enable-background="new    ">
					<path fill="#030303" d="M414.66,339.237h-11.296c-45.274-23.822-90.229-48.006-135.405-71.937h11.296
						C324.431,291.231,369.384,315.415,414.66,339.237"/>
				</g>
			</g>
			<g>
				<path fill="#050505" d="M346.957,267.131c22.638,0,45.275,0.057,67.703,0.169c0,23.976,0,47.961,0,71.937
					c-45.275-23.822-90.229-48.006-135.405-71.937C301.682,267.188,324.319,267.131,346.957,267.131z"/>
			</g>
			<g enable-background="new    ">
				<defs>
					<path id="SVGID_71_" enable-background="new    " d="M363.18,410.004h-11.295c-1.755,0-3.745-0.215-5.641-0.215
						c-26.48-0.004-52.964-0.006-79.453-0.006h11.296c26.488,0,52.973,0.002,79.453,0.006
						C359.435,409.79,361.425,410.004,363.18,410.004z"/>
				</defs>
				<clipPath id="SVGID_130_">
					<use xlink:href="#SVGID_71_"  overflow="visible"/>
				</clipPath>
				<g clip-path="url(#SVGID_130_)" enable-background="new    ">
					<path d="M363.18,410.004h-11.295c-1.755,0-3.745-0.215-5.641-0.215c-26.48-0.004-52.964-0.006-79.453-0.006h11.296
						c26.488,0,52.973,0.002,79.453,0.006C359.435,409.79,361.425,410.004,363.18,410.004"/>
				</g>
			</g>
			<g enable-background="new    ">
				<defs>
					<path id="SVGID_70_" enable-background="new    " d="M412.378,338.958h-11.296c-44.454-23.932-89.846-47.988-134.8-71.793
						h11.295C322.532,290.97,367.923,315.027,412.378,338.958z"/>
				</defs>
				<clipPath id="SVGID_131_">
					<use xlink:href="#SVGID_70_"  overflow="visible"/>
				</clipPath>
				<g clip-path="url(#SVGID_131_)" enable-background="new    ">
					<path d="M412.378,338.958h-11.296c-44.454-23.932-89.846-47.988-134.8-71.793h11.295
						C322.532,290.97,367.923,315.027,412.378,338.958"/>
				</g>
			</g>
			<g enable-background="new    ">
				<defs>
					<path id="SVGID_69_" enable-background="new    " d="M262.267,339.541c-0.261,0-0.522,0-0.783,0c0.396,0,0.924,0,1.319,0
						c0.42,0,0.979,0,1.399,0c0.436,0,1.016,0,1.451,0c0.443,0,1.035,0,1.479,0s1.035,0,1.479,0c0.436,0,1.016,0,1.451,0
						c0.42,0,0.979,0,1.398,0c0.396,0,0.924,0,1.319,0c0.261,0,0.521,0,0.783,0C270.174,339.541,265.656,339.541,262.267,339.541z"
						/>
				</defs>
				<clipPath id="SVGID_132_">
					<use xlink:href="#SVGID_69_"  overflow="visible"/>
				</clipPath>
				<g clip-path="url(#SVGID_132_)" enable-background="new    ">
					<path fill="#030303" d="M273.563,339.541h-11.296c-14.028,0-26.973-0.003-39.916-0.007
						c-13.125-0.005-26.256-0.011-39.382-0.018h11.296c13.125,0.007,26.257,0.013,39.381,0.018
						C246.589,339.538,259.535,339.541,273.563,339.541"/>
				</g>
			</g>
			<g enable-background="new    ">
				<defs>
					<path id="SVGID_68_" enable-background="new    " d="M272.474,339.541h-11.296c24.038,0,46.977-0.009,69.905-0.033
						c23.11-0.027,46.2-0.069,69.277-0.135h11.295c-23.076,0.065-46.167,0.107-69.276,0.135
						C319.451,339.532,296.511,339.541,272.474,339.541z"/>
				</defs>
				<clipPath id="SVGID_133_">
					<use xlink:href="#SVGID_68_"  overflow="visible"/>
				</clipPath>
				<g clip-path="url(#SVGID_133_)" enable-background="new    ">
					<path d="M272.474,339.541h-11.296c24.038,0,46.977-0.009,69.905-0.033c23.11-0.027,46.2-0.069,69.277-0.135h11.295
						c-23.076,0.065-46.167,0.107-69.276,0.135C319.451,339.532,296.511,339.541,272.474,339.541"/>
				</g>
			</g>
			<g enable-background="new    ">
				<defs>
					<path id="SVGID_67_" enable-background="new    " d="M266.282,196.923h-11.296c27.051,0,53.097-0.022,79.111-0.1
						c6.218-0.018,12.434-0.04,18.645-0.064h11.295c-6.211,0.024-12.427,0.046-18.644,0.064
						C319.378,196.901,293.333,196.923,266.282,196.923z"/>
				</defs>
				<clipPath id="SVGID_134_">
					<use xlink:href="#SVGID_67_"  overflow="visible"/>
				</clipPath>
				<g clip-path="url(#SVGID_134_)" enable-background="new    ">
					<path d="M266.282,196.923h-11.296c27.051,0,53.097-0.022,79.111-0.1c6.218-0.018,12.434-0.04,18.645-0.064h11.295
						c-6.211,0.024-12.427,0.046-18.644,0.064C319.378,196.901,293.333,196.923,266.282,196.923"/>
				</g>
			</g>
			<g enable-background="new    ">
				<defs>
					<path id="SVGID_66_" enable-background="new    " d="M255.046,409.25c-0.291,0-0.581,0-0.871,0c0.396,0,0.924,0,1.319,0
						c0.42,0,0.979,0,1.399,0c0.436,0,1.016,0,1.451,0c0.443,0,1.035,0,1.479,0s1.034,0,1.478,0c0.436,0,1.017,0,1.452,0
						c0.42,0,0.979,0,1.398,0c0.396,0,0.924,0,1.319,0c0.289,0,0.579,0,0.87,0C262.953,409.25,258.435,409.25,255.046,409.25z"/>
				</defs>
				<clipPath id="SVGID_135_">
					<use xlink:href="#SVGID_66_"  overflow="visible"/>
				</clipPath>
				<g clip-path="url(#SVGID_135_)" enable-background="new    ">
					<path fill="#030303" d="M266.341,409.25h-11.295c-10.212,0-19.405-0.002-28.588-0.006c-9.374-0.004-18.749-0.01-28.124-0.015
						h11.295c9.375,0.005,18.75,0.011,28.124,0.015C246.937,409.249,256.129,409.25,266.341,409.25"/>
				</g>
			</g>
			<g enable-background="new    ">
				<defs>
					<path id="SVGID_65_" enable-background="new    " d="M265.309,409.25h-11.296c27.229,0,53.398-0.021,79.527-0.099h11.296
						C318.707,409.229,292.539,409.25,265.309,409.25z"/>
				</defs>
				<clipPath id="SVGID_136_">
					<use xlink:href="#SVGID_65_"  overflow="visible"/>
				</clipPath>
				<g clip-path="url(#SVGID_136_)" enable-background="new    ">
					<path d="M265.309,409.25h-11.296c27.229,0,53.398-0.021,79.527-0.099h11.296C318.707,409.229,292.539,409.25,265.309,409.25"/>
				</g>
			</g>
			<g enable-background="new    ">
				<defs>
					<path id="SVGID_64_" enable-background="new    " d="M212.847,170.091h-11.296c26.229-1.368,53.466-3.078,79.873-4.725
						c29.296-1.836,59.598-3.726,88.741-5.184c0.817-0.04,1.658-0.052,2.502-0.052h11.296c-0.845,0-1.685,0.012-2.502,0.052
						c-29.145,1.458-59.446,3.348-88.741,5.184C266.313,167.013,239.077,168.723,212.847,170.091z"/>
				</defs>
				<clipPath id="SVGID_137_">
					<use xlink:href="#SVGID_64_"  overflow="visible"/>
				</clipPath>
				<g clip-path="url(#SVGID_137_)" enable-background="new    ">
					<path d="M212.847,170.091h-11.296c26.229-1.368,53.466-3.078,79.873-4.725c29.296-1.836,59.598-3.726,88.741-5.184
						c0.817-0.04,1.658-0.052,2.502-0.052h11.296c-0.845,0-1.685,0.012-2.502,0.052c-29.145,1.458-59.446,3.348-88.741,5.184
						C266.313,167.013,239.077,168.723,212.847,170.091"/>
				</g>
			</g>
			<g enable-background="new    ">
				<defs>
					<path id="SVGID_63_" enable-background="new    " d="M212.847,170.091h-11.296c41.123-8.685,82.948-17.343,123.464-25.731
						c36.47-7.542,74.16-15.345,111.165-23.13h11.296c-37.005,7.785-74.696,15.588-111.166,23.13
						C295.795,152.748,253.969,161.406,212.847,170.091z"/>
				</defs>
				<clipPath id="SVGID_138_">
					<use xlink:href="#SVGID_63_"  overflow="visible"/>
				</clipPath>
				<g clip-path="url(#SVGID_138_)" enable-background="new    ">
					<path fill="#030303" d="M212.847,170.091h-11.296c41.123-8.685,82.948-17.343,123.464-25.731
						c36.47-7.542,74.16-15.345,111.165-23.13h11.296c-37.005,7.785-74.696,15.588-111.166,23.13
						C295.795,152.748,253.969,161.406,212.847,170.091"/>
				</g>
			</g>
			<g enable-background="new    ">
				<defs>
					<path id="SVGID_62_" enable-background="new    " d="M206.76,170.406h-11.295c43.011-9.099,86.914-18.18,129.364-26.973
						c37.165-7.686,75.586-15.642,113.268-23.571h11.295c-37.681,7.929-76.103,15.885-113.268,23.571
						C293.673,152.226,249.771,161.307,206.76,170.406z"/>
				</defs>
				<clipPath id="SVGID_139_">
					<use xlink:href="#SVGID_62_"  overflow="visible"/>
				</clipPath>
				<g clip-path="url(#SVGID_139_)" enable-background="new    ">
					<path d="M206.76,170.406h-11.295c43.011-9.099,86.914-18.18,129.364-26.973c37.165-7.686,75.586-15.642,113.268-23.571h11.295
						c-37.681,7.929-76.103,15.885-113.268,23.571C293.673,152.226,249.771,161.307,206.76,170.406"/>
				</g>
			</g>
			<g enable-background="new    ">
				<defs>
					<path id="SVGID_61_" enable-background="new    " d="M258.417,158.391h-11.296c61.291-12.681,124.614-25.785,186.796-38.871
						h11.295C383.03,132.606,319.707,145.71,258.417,158.391z"/>
				</defs>
				<clipPath id="SVGID_140_">
					<use xlink:href="#SVGID_61_"  overflow="visible"/>
				</clipPath>
				<g clip-path="url(#SVGID_140_)" enable-background="new    ">
					<path d="M258.417,158.391h-11.296c61.291-12.681,124.614-25.785,186.796-38.871h11.295
						C383.03,132.606,319.707,145.71,258.417,158.391"/>
				</g>
			</g>
			<g enable-background="new    ">
				<defs>
					<path id="SVGID_60_" enable-background="new    " d="M243.457,267.186h-11.296c5.908,0,11.159-0.002,16.408-0.005
						c5.906-0.003,11.811-0.008,17.713-0.016h11.295c-5.901,0.008-11.808,0.013-17.713,0.016
						C254.615,267.184,249.365,267.186,243.457,267.186z"/>
				</defs>
				<clipPath id="SVGID_141_">
					<use xlink:href="#SVGID_60_"  overflow="visible"/>
				</clipPath>
				<g clip-path="url(#SVGID_141_)" enable-background="new    ">
					<path fill="#373737" d="M243.457,267.186h-11.296c5.908,0,11.159-0.002,16.408-0.005c5.906-0.003,11.811-0.008,17.713-0.016
						h11.295c-5.901,0.008-11.808,0.013-17.713,0.016C254.615,267.184,249.365,267.186,243.457,267.186"/>
				</g>
			</g>
			<g enable-background="new    ">
				<defs>
					<path id="SVGID_59_" enable-background="new    " d="M354.301,409.086c-71.05-22.843-141.805-46.018-212.846-68.877h11.295
						c70.805,22.783,141.327,45.881,212.139,68.649c-0.395,0-0.92,0-1.314,0c-0.419,0-0.976,0-1.395,0c-0.434,0-1.013,0-1.446,0
						c-0.442,0-1.031,0-1.474,0c-0.441,0-1.03,0-1.473,0c-0.434,0-1.013,0-1.447,0c-0.418,0-0.976,0-1.394,0
						c-0.395,0-0.921,0-1.315,0c0.395,0,0.921,0,1.315,0c0.207,0,0.482,0,0.688,0c0.428,0,0.997,0,1.424,0c0.439,0,1.024,0,1.464,0
						c0.442,0,1.033,0,1.476,0c0.439,0,1.024,0,1.464,0c0.427,0,0.996,0,1.423,0c0.408,0,0.951,0,1.358,0c0.193,0,0.452,0,0.646,0
						c0.235,0.076,0.471,0.151,0.707,0.228C362.208,409.086,357.69,409.086,354.301,409.086z"/>
				</defs>
				<clipPath id="SVGID_142_">
					<use xlink:href="#SVGID_59_"  overflow="visible"/>
				</clipPath>
				<g clip-path="url(#SVGID_142_)" enable-background="new    ">
					<path fill="#787878" d="M365.597,409.086h-11.296c-71.05-22.843-141.805-46.018-212.846-68.877h11.295
						C223.792,363.069,294.547,386.244,365.597,409.086"/>
				</g>
			</g>
			<g enable-background="new    ">
				<defs>
					<path id="SVGID_58_" enable-background="new    " d="M363.547,409.086h-11.296c-41.845-13.428-83.492-27.072-125.291-40.545
						h11.296C280.055,382.014,321.703,395.659,363.547,409.086z"/>
				</defs>
				<clipPath id="SVGID_143_">
					<use xlink:href="#SVGID_58_"  overflow="visible"/>
				</clipPath>
				<g clip-path="url(#SVGID_143_)" enable-background="new    ">
					<path d="M363.547,409.086h-11.296c-41.845-13.428-83.492-27.072-125.291-40.545h11.296
						C280.055,382.014,321.703,395.659,363.547,409.086"/>
				</g>
			</g>
			<g enable-background="new    ">
				<defs>
					<path id="SVGID_57_" enable-background="new    " d="M204.869,340.108c36.202-0.034,72.373-0.034,108.551-0.034h11.296
						c-36.178,0-72.349,0-108.551,0.034c-0.25,0-0.583,0-0.833,0c-0.265,0-0.618,0-0.883,0c-0.275,0-0.642,0-0.917,0
						c-0.28,0-0.653,0-0.933,0s-0.653,0-0.933,0c-0.275,0-0.642,0-0.917,0c-0.265,0-0.618,0-0.883,0c-0.25,0-0.583,0-0.833,0
						c-0.146,0-0.34,0-0.486,0c-0.154,0-0.361,0-0.516,0c-0.16,0-0.375,0-0.535,0c-0.163,0-0.381,0-0.545,0
						c-0.163,0-0.381,0-0.544,0c-0.161,0-0.375,0-0.535,0c-0.155,0-0.361,0-0.516,0
						C205.209,340.108,205.015,340.108,204.869,340.108z"/>
				</defs>
				<clipPath id="SVGID_144_">
					<use xlink:href="#SVGID_57_"  overflow="visible"/>
				</clipPath>
				<g clip-path="url(#SVGID_144_)" enable-background="new    ">
					<path fill="#818181" d="M152.751,340.209h-11.295c57.405-0.136,114.676-0.136,171.964-0.136h11.296
						C267.427,340.074,210.156,340.074,152.751,340.209"/>
				</g>
			</g>
			<g enable-background="new    ">
				<defs>
					<path id="SVGID_56_" enable-background="new    " d="M325.625,340.307h-11.296c-58.197-0.233-115.469-0.233-172.748-0.233
						h11.295C210.156,340.074,267.426,340.074,325.625,340.307z"/>
				</defs>
				<clipPath id="SVGID_145_">
					<use xlink:href="#SVGID_56_"  overflow="visible"/>
				</clipPath>
				<g clip-path="url(#SVGID_145_)" enable-background="new    ">
					<path d="M325.625,340.307h-11.296c-58.197-0.233-115.469-0.233-172.748-0.233h11.295
						C210.156,340.074,267.426,340.074,325.625,340.307"/>
				</g>
			</g>
			<g enable-background="new    ">
				<defs>
					<path id="SVGID_55_" enable-background="new    " d="M204.869,340.108c3.766-0.002,7.53,0,11.296,0c-0.095,0-0.19,0-0.285,0
						c-0.396,0-0.924,0-1.319,0c-0.419,0-0.979,0-1.398,0c-0.436,0-1.016,0-1.452,0c-0.443,0-1.035,0-1.478,0s-1.035,0-1.479,0
						c-0.436,0-1.016,0-1.452,0c-0.419,0-0.979,0-1.398,0c-0.396,0-0.924,0-1.32,0C204.679,340.108,204.774,340.108,204.869,340.108
						z"/>
				</defs>
				<clipPath id="SVGID_146_">
					<use xlink:href="#SVGID_55_"  overflow="visible"/>
				</clipPath>
				<g clip-path="url(#SVGID_146_)" enable-background="new    ">
					<path fill="#818181" d="M152.751,340.209h-11.295c57.405-0.136,114.676-0.136,171.964-0.136h11.296
						C267.427,340.074,210.156,340.074,152.751,340.209"/>
				</g>
			</g>
			<g>
				<path d="M449.391,119.862l0.375,0.846c-13.592,10.107-28.778,20.781-43.476,31.113l-5.499,3.861
					c-0.641,0.459-1.363,1.035-2.12,1.638c-1.792,1.422-3.637,2.889-5.099,3.285c-1.639,0.441-3.689,0.504-5.659,0.504
					c-0.624,0-1.266-0.009-1.907-0.018c-0.67-0.008-1.346-0.016-2.02-0.016c-0.834,0-1.664,0.012-2.473,0.052
					c-29.143,1.458-59.436,3.348-88.741,5.184c-28.43,1.773-57.823,3.618-85.888,5.031l-0.125-0.936
					c43.011-9.099,86.914-18.18,129.364-26.973C373.289,135.747,411.71,127.791,449.391,119.862z M405.757,151.038
					c14.063-9.882,28.581-20.088,41.719-29.808c-37.005,7.785-74.696,15.588-111.166,23.13
					c-40.515,8.388-82.341,17.046-123.463,25.731c26.229-1.368,53.466-3.078,79.873-4.725c29.295-1.836,59.597-3.726,88.741-5.184
					c0.817-0.04,1.657-0.052,2.502-0.052c0.684,0,1.37,0.008,2.052,0.016c0.643,0.009,1.283,0.009,1.898,0.009
					c1.818,0,3.877-0.054,5.418-0.468c1.275-0.342,3.129-1.809,4.761-3.114c0.766-0.612,1.497-1.188,2.165-1.665L405.757,151.038"/>
			</g>
			<g>
				<path fill="#050505" d="M447.476,121.23c-13.138,9.72-27.656,19.926-41.719,29.808l-5.5,3.87
					c-0.668,0.477-1.399,1.053-2.165,1.665c-1.632,1.305-3.485,2.772-4.761,3.114c-1.541,0.414-3.6,0.468-5.418,0.468
					c-0.615,0-1.256,0-1.898-0.009c-0.682-0.008-1.368-0.016-2.052-0.016c-0.845,0-1.685,0.012-2.502,0.052
					c-29.145,1.458-59.446,3.348-88.741,5.184c-26.407,1.647-53.644,3.357-79.873,4.725c41.122-8.685,82.948-17.343,123.463-25.731
					C372.78,136.818,410.471,129.015,447.476,121.23z"/>
			</g>
			<g enable-background="new    ">
				<defs>
					<path id="SVGID_54_" enable-background="new    " d="M322.729,197.472h-11.296c-8.9,0-17.798-0.003-26.699-0.007
						c-9.172-0.004-18.343-0.008-27.516-0.014c-9.482-0.004-18.966-0.01-28.448-0.014c-9.674-0.004-19.347-0.007-29.017-0.008
						h11.296c9.67,0.001,19.343,0.003,29.017,0.008c9.482,0.004,18.965,0.009,28.447,0.014c9.174,0.006,18.344,0.01,27.517,0.014
						C304.931,197.469,313.829,197.472,322.729,197.472z"/>
				</defs>
				<clipPath id="SVGID_147_">
					<use xlink:href="#SVGID_54_"  overflow="visible"/>
				</clipPath>
				<g clip-path="url(#SVGID_147_)" enable-background="new    ">
					<path d="M322.729,197.472h-11.296c-8.9,0-17.798-0.003-26.699-0.007c-9.172-0.004-18.343-0.008-27.516-0.014
						c-9.482-0.004-18.966-0.01-28.448-0.014c-9.674-0.004-19.347-0.007-29.017-0.008h11.296c9.67,0.001,19.343,0.003,29.017,0.008
						c9.482,0.004,18.965,0.009,28.447,0.014c9.174,0.006,18.344,0.01,27.517,0.014
						C304.931,197.469,313.829,197.472,322.729,197.472"/>
				</g>
			</g>
			<g enable-background="new    ">
				<defs>
					<path id="SVGID_53_" enable-background="new    " d="M228.081,196.917c-9.506-0.004-19.018-0.009-28.525-0.014h11.295
						c9.507,0.005,19.019,0.01,28.525,0.014c8.758,0.004,17.515,0.006,27.176,0.006c-0.395,0-0.92,0-1.313,0
						c-0.418,0-0.976,0-1.394,0c-0.434,0-1.012,0-1.445,0c-0.442,0-1.031,0-1.473,0s-1.03,0-1.473,0c-0.434,0-1.012,0-1.445,0
						c-0.418,0-0.976,0-1.393,0c-0.395,0-0.92,0-1.314,0c0.395,0,0.92,0,1.314,0c0.417,0,0.975,0,1.393,0c0.434,0,1.012,0,1.445,0
						c0.442,0,1.031,0,1.473,0s1.03,0,1.473,0c0.434,0,1.012,0,1.445,0c0.418,0,0.976,0,1.394,0c0.394,0,0.919,0,1.313,0
						c0.002,0,0.005,0,0.007,0c-0.396,0-0.923,0-1.319,0c-0.419,0-0.979,0-1.398,0c-0.436,0-1.016,0-1.451,0
						c-0.443,0-1.035,0-1.479,0s-1.034,0-1.478,0c-0.436,0-1.017,0-1.452,0c-0.42,0-0.979,0-1.398,0c-0.396,0-0.924,0-1.319,0
						C245.6,196.923,236.841,196.92,228.081,196.917z"/>
				</defs>
				<clipPath id="SVGID_148_">
					<use xlink:href="#SVGID_53_"  overflow="visible"/>
				</clipPath>
				<g clip-path="url(#SVGID_148_)" enable-background="new    ">
					<path fill="#333333" d="M267.254,196.923h-11.295c-9.94,0-18.909-0.002-27.879-0.006c-9.506-0.004-19.018-0.009-28.525-0.014
						h11.295c9.507,0.005,19.019,0.01,28.525,0.014C248.346,196.92,257.315,196.923,267.254,196.923"/>
				</g>
			</g>
			<g enable-background="new    ">
				<defs>
					<path id="SVGID_52_" enable-background="new    " d="M226.458,409.245c-9.374-0.004-18.749-0.01-28.124-0.015h11.295
						c9.375,0.005,18.75,0.011,28.124,0.015c8.919,0.004,17.848,0.006,27.71,0.006c-0.395,0-0.921,0-1.315,0
						c-0.418,0-0.977,0-1.395,0c-0.435,0-1.014,0-1.448,0c-0.441,0-1.031,0-1.474,0s-1.032,0-1.475,0c-0.434,0-1.013,0-1.447,0
						c-0.419,0-0.977,0-1.396,0c-0.395,0-0.921,0-1.315,0c0.395,0,0.921,0,1.315,0c0.419,0,0.977,0,1.396,0c0.435,0,1.014,0,1.447,0
						c0.442,0,1.032,0,1.475,0s1.032,0,1.474,0c0.435,0,1.014,0,1.448,0c0.418,0,0.977,0,1.395,0c0.395,0,0.921,0,1.315,0
						c0.003,0,0.005,0,0.008,0c-0.396,0-0.924,0-1.319,0c-0.42,0-0.979,0-1.398,0c-0.436,0-1.017,0-1.452,0
						c-0.443,0-1.034,0-1.478,0s-1.035,0-1.479,0c-0.436,0-1.016,0-1.451,0c-0.42,0-0.979,0-1.399,0c-0.396,0-0.923,0-1.319,0
						C244.31,409.25,235.379,409.249,226.458,409.245z"/>
				</defs>
				<clipPath id="SVGID_149_">
					<use xlink:href="#SVGID_52_"  overflow="visible"/>
				</clipPath>
				<g clip-path="url(#SVGID_149_)" enable-background="new    ">
					<path fill="#030303" d="M266.341,409.25h-11.295c-10.212,0-19.405-0.002-28.588-0.006c-9.374-0.004-18.749-0.01-28.124-0.015
						h11.295c9.375,0.005,18.75,0.011,28.124,0.015C246.937,409.249,256.129,409.25,266.341,409.25"/>
				</g>
			</g>
			<g>
				<polygon points="206.885,171.342 195.589,171.342 195.464,170.406 206.76,170.406 				"/>
			</g>
			<g>
				<polygon fill="#373737" points="204.336,119.799 193.041,119.799 433.917,119.52 445.211,119.52 				"/>
			</g>
			<g>
				<polygon points="204.273,118.593 192.978,118.593 438.461,118.575 449.757,118.575 				"/>
			</g>
			<g enable-background="new    ">
				<defs>
					<path id="SVGID_51_" enable-background="new    " d="M203.341,120.519h-11.295c0.041-1.314,0.353-1.746,0.932-1.926h11.295
						C203.694,118.773,203.382,119.205,203.341,120.519z"/>
				</defs>
				<clipPath id="SVGID_150_">
					<use xlink:href="#SVGID_51_"  overflow="visible"/>
				</clipPath>
				<g clip-path="url(#SVGID_150_)" enable-background="new    ">
					<path d="M203.341,120.519h-11.295c0.038-1.198,0.3-1.663,0.785-1.872h11.296C203.641,118.856,203.379,119.321,203.341,120.519"
						/>
					<path d="M204.126,118.647l-11.296,0c0.047-0.02,0.096-0.038,0.147-0.054h11.295
						C204.222,118.609,204.173,118.627,204.126,118.647"/>
				</g>
			</g>
			<g>
				<path fill="#595959" d="M201.047,145.954l0.414-4.321C201.323,143.08,201.185,144.522,201.047,145.954L201.047,145.954z"/>
			</g>
			<g enable-background="new    ">
				<defs>
					<path id="SVGID_50_" enable-background="new    " d="M199.755,170.532h-11.295c19.554-4.05,39.108-8.1,58.661-12.141h11.296
						C238.863,162.432,219.309,166.482,199.755,170.532z"/>
				</defs>
				<clipPath id="SVGID_151_">
					<use xlink:href="#SVGID_50_"  overflow="visible"/>
				</clipPath>
				<g clip-path="url(#SVGID_151_)" enable-background="new    ">
					<path d="M199.755,170.532h-11.295c19.554-4.05,39.108-8.1,58.661-12.141h11.296
						C238.863,162.432,219.309,166.482,199.755,170.532"/>
				</g>
			</g>
			<g enable-background="new    ">
				<defs>
					<path id="SVGID_49_" enable-background="new    " d="M190.678,146.043c0-0.003,0.001-0.007,0.001-0.01c0.396,0,0.924,0,1.321,0
						c0.42,0,0.979,0,1.399,0c0.436,0,1.016,0,1.452,0c0.444,0,1.035,0,1.479,0s1.034,0,1.478,0c0.436,0,1.016,0,1.451,0
						c0.419,0,0.979,0,1.398,0c0.396,0,0.923,0,1.319,0l0,0c0,0.003-0.001,0.007-0.001,0.01c-0.767,7.992-1.56,16.245-2.219,24.489
						h-11.295C189.119,162.288,189.912,154.035,190.678,146.043z"/>
				</defs>
				<clipPath id="SVGID_152_">
					<use xlink:href="#SVGID_49_"  overflow="visible"/>
				</clipPath>
				<g clip-path="url(#SVGID_152_)" enable-background="new    ">
					<path fill="#333333" d="M199.755,170.532h-11.295c0.66-8.244,1.453-16.497,2.219-24.489c0.82-8.532,1.667-17.37,2.362-26.244
						h11.295c-0.695,8.874-1.542,17.712-2.362,26.244C201.208,154.035,200.415,162.288,199.755,170.532"/>
				</g>
			</g>
			<g enable-background="new    ">
				<defs>
					<path id="SVGID_48_" enable-background="new    " d="M198.774,171.09h-11.295c0.489-6.19,1.054-12.389,1.633-18.481
						c0.098-1.027,0.196-2.051,0.294-3.072c0.022-0.232,0.044-0.463,0.066-0.694c0.093-0.966,0.187-1.93,0.279-2.89
						c0.796-8.291,1.618-16.863,2.294-25.434h11.295c-0.676,8.571-1.498,17.143-2.294,25.434c-0.093,0.959-0.186,1.923-0.279,2.89
						c-0.022,0.231-0.044,0.462-0.067,0.694c-0.098,1.021-0.196,2.044-0.294,3.072C199.829,158.701,199.264,164.9,198.774,171.09z"
						/>
				</defs>
				<clipPath id="SVGID_153_">
					<use xlink:href="#SVGID_48_"  overflow="visible"/>
				</clipPath>
				<g clip-path="url(#SVGID_153_)" enable-background="new    ">
					<path d="M198.774,171.09h-11.295c0.489-6.19,1.054-12.389,1.633-18.481c0.098-1.027,0.196-2.051,0.294-3.072
						c0.022-0.232,0.044-0.463,0.066-0.694c0.093-0.966,0.187-1.93,0.279-2.89c0.796-8.291,1.618-16.863,2.294-25.434h11.295
						c-0.676,8.571-1.498,17.143-2.294,25.434c-0.093,0.959-0.186,1.923-0.279,2.89c-0.022,0.231-0.044,0.462-0.067,0.694
						c-0.098,1.021-0.196,2.044-0.294,3.072C199.829,158.701,199.264,164.9,198.774,171.09"/>
				</g>
			</g>
			<g enable-background="new    ">
				<defs>
					<path id="SVGID_47_" enable-background="new    " d="M189.473,148.843c0.573-9.388,1.41-18.504,2.007-27.91h11.295
						c-0.597,9.405-1.435,18.522-2.007,27.91c-3.326,0-6.651,0-9.977,0h-1.305C189.483,148.843,189.477,148.843,189.473,148.843z"/>
				</defs>
				<clipPath id="SVGID_154_">
					<use xlink:href="#SVGID_47_"  overflow="visible"/>
				</clipPath>
				<g clip-path="url(#SVGID_154_)" enable-background="new    ">
					<path fill="#333333" d="M200.769,148.843h-11.295c0.573-9.388,1.41-18.504,2.007-27.91h11.295
						C202.179,130.338,201.341,139.455,200.769,148.843"/>
				</g>
			</g>
			<g>
				<path fill="#595959" d="M445.211,119.52c-62.182,13.086-125.505,26.19-186.795,38.871c-19.554,4.041-39.107,8.091-58.662,12.141
					c0.66-8.244,1.453-16.497,2.219-24.489c0.82-8.532,1.667-17.37,2.362-26.244L445.211,119.52z"/>
			</g>
			<g>
				<path d="M449.757,118.575l0.098,0.936c-63.607,13.401-128.499,26.82-191.252,39.807c-19.758,4.086-39.517,8.181-59.267,12.267
					l-0.562-0.495c0.489-6.19,1.054-12.389,1.633-18.481c0.098-1.027,0.196-2.051,0.294-3.072c0.022-0.232,0.044-0.463,0.067-0.694
					c0.093-0.966,0.186-1.93,0.279-2.89c0.796-8.291,1.618-16.863,2.294-25.434c0.041-1.314,0.353-1.746,0.932-1.926
					L449.757,118.575z M258.417,158.391c61.29-12.681,124.613-25.785,186.795-38.871H204.487
					c-0.847,9.153-1.693,17.991-2.514,26.523c-0.766,7.992-1.559,16.245-2.219,24.489
					C219.309,166.482,238.863,162.432,258.417,158.391"/>
			</g>
			<g>
				<path fill="#595959" d="M200.769,148.843c0.573-9.388,1.41-18.504,2.007-27.91c0-0.234,0.09-0.36,0.241-0.414
					c0.108,0,0.216,0,0.324,0c-0.559,7.092-1.218,14.181-1.88,21.114l-0.414,4.321C200.955,146.913,200.861,147.876,200.769,148.843
					z"/>
			</g>
			<g>
				<polygon points="199.336,171.585 188.041,171.585 187.479,171.09 198.774,171.09 				"/>
			</g>
			<g enable-background="new    ">
				<defs>
					<path id="SVGID_46_" enable-background="new    " d="M197.731,181.207h-11.295c1.364-19.674,3.19-39.546,4.322-59.022h11.296
						C200.922,141.66,199.095,161.533,197.731,181.207z"/>
				</defs>
				<clipPath id="SVGID_155_">
					<use xlink:href="#SVGID_46_"  overflow="visible"/>
				</clipPath>
				<g clip-path="url(#SVGID_155_)" enable-background="new    ">
					<path d="M197.731,181.207h-11.295c1.364-19.674,3.19-39.546,4.322-59.022h11.296
						C200.922,141.66,199.095,161.533,197.731,181.207"/>
				</g>
			</g>
			<g enable-background="new    ">
				<defs>
					<path id="SVGID_45_" enable-background="new    " d="M222.351,339.534c-13.125-0.005-26.256-0.011-39.382-0.018h11.296
						c13.125,0.007,26.257,0.013,39.381,0.018c12.698,0.004,25.398,0.007,39.12,0.007c-0.394,0-0.919,0-1.313,0
						c-0.417,0-0.974,0-1.392,0c-0.434,0-1.011,0-1.444,0c-0.441,0-1.029,0-1.471,0s-1.029,0-1.471,0c-0.434,0-1.011,0-1.444,0
						c-0.418,0-0.975,0-1.393,0c-0.395,0-0.92,0-1.314,0c0.395,0,0.92,0,1.314,0c0.418,0,0.975,0,1.393,0c0.434,0,1.011,0,1.444,0
						c0.441,0,1.029,0,1.471,0s1.029,0,1.471,0c0.434,0,1.011,0,1.444,0c0.418,0,0.975,0,1.392,0c0.394,0,0.919,0,1.313,0
						c0.005,0,0.009,0,0.014,0c-0.396,0-0.924,0-1.319,0c-0.42,0-0.979,0-1.398,0c-0.436,0-1.016,0-1.451,0
						c-0.443,0-1.035,0-1.479,0s-1.035,0-1.479,0c-0.436,0-1.016,0-1.451,0c-0.42,0-0.979,0-1.399,0c-0.396,0-0.923,0-1.319,0
						C247.757,339.541,235.053,339.538,222.351,339.534z"/>
				</defs>
				<clipPath id="SVGID_156_">
					<use xlink:href="#SVGID_45_"  overflow="visible"/>
				</clipPath>
				<g clip-path="url(#SVGID_156_)" enable-background="new    ">
					<path fill="#030303" d="M273.563,339.541h-11.296c-14.028,0-26.973-0.003-39.916-0.007
						c-13.125-0.005-26.256-0.011-39.382-0.018h11.296c13.125,0.007,26.257,0.013,39.381,0.018
						C246.589,339.538,259.535,339.541,273.563,339.541"/>
				</g>
			</g>
			<g enable-background="new    ">
				<defs>
					<path id="SVGID_44_" enable-background="new    " d="M188.479,127.758c1.293,0.821,3.457,2.195,5.486,2.931
						c2.005,0.728,3.033,0.784,4.335,0.632l0,0c-6.695,16.115-13.723,32.218-20.176,48.22c-0.166,0.41-0.528,0.878-0.524,1.382
						c0,0.093,0.014,0.188,0.043,0.283h-11.295c-0.029-0.096-0.042-0.19-0.043-0.283c-0.003-0.504,0.359-0.972,0.524-1.382
						C173.758,162.36,181.35,145.061,188.479,127.758z"/>
				</defs>
				<clipPath id="SVGID_157_">
					<use xlink:href="#SVGID_44_"  overflow="visible"/>
				</clipPath>
				<g clip-path="url(#SVGID_157_)" enable-background="new    ">
					<path fill="#333333" d="M177.643,181.206h-11.295c-0.029-0.096-0.042-0.19-0.043-0.283c-0.003-0.504,0.359-0.972,0.524-1.382
						c7.674-19.026,16.159-38.196,23.93-57.357h11.295c-7.771,19.161-16.256,38.331-23.93,57.357
						c-0.166,0.41-0.528,0.878-0.524,1.382C177.601,181.016,177.614,181.11,177.643,181.206"/>
				</g>
			</g>
			<g>
				<path fill="#595959" d="M202.054,122.184c-1.132,19.476-2.959,39.348-4.322,59.022c-6.702,0-13.396,0-20.089,0
					c-0.029-0.096-0.042-0.19-0.043-0.283c-0.003-0.504,0.359-0.972,0.524-1.382C185.798,160.515,194.283,141.345,202.054,122.184z"
					/>
			</g>
			<g enable-background="new    ">
				<defs>
					<path id="SVGID_43_" enable-background="new    " d="M176.68,181.207h-11.296c8.806-20.196,17.068-41.031,25.855-61.245h11.295
						C193.748,140.175,185.485,161.01,176.68,181.207z"/>
				</defs>
				<clipPath id="SVGID_158_">
					<use xlink:href="#SVGID_43_"  overflow="visible"/>
				</clipPath>
				<g clip-path="url(#SVGID_158_)" enable-background="new    ">
					<path d="M176.68,181.207h-11.296c8.806-20.196,17.068-41.031,25.855-61.245h11.295
						C193.748,140.175,185.485,161.01,176.68,181.207"/>
				</g>
			</g>
			<g enable-background="new    ">
				<defs>
					<path id="SVGID_42_" enable-background="new    " d="M209.63,409.23h-11.295c-9.299-0.005-18.595-0.01-27.891-0.014
						c-9.006-0.004-18.008-0.007-27.009-0.007h11.295c9.001,0,18.003,0.003,27.009,0.007
						C191.035,409.22,200.332,409.225,209.63,409.23z"/>
				</defs>
				<clipPath id="SVGID_159_">
					<use xlink:href="#SVGID_42_"  overflow="visible"/>
				</clipPath>
				<g clip-path="url(#SVGID_159_)" enable-background="new    ">
					<path fill="#030303" d="M209.63,409.23h-11.295c-9.299-0.005-18.595-0.01-27.891-0.014c-9.006-0.004-18.008-0.007-27.009-0.007
						h11.295c9.001,0,18.003,0.003,27.009,0.007C191.035,409.22,200.332,409.225,209.63,409.23"/>
				</g>
			</g>
			<g enable-background="new    ">
				<defs>
					<path id="SVGID_41_" enable-background="new    " d="M152.876,266.607h-11.295c58.349,0,116.249-0.004,174.181-0.004h11.295
						C269.125,266.603,211.225,266.607,152.876,266.607z"/>
				</defs>
				<clipPath id="SVGID_160_">
					<use xlink:href="#SVGID_41_"  overflow="visible"/>
				</clipPath>
				<g clip-path="url(#SVGID_160_)" enable-background="new    ">
					<path d="M152.876,266.607h-11.295c58.349,0,116.249-0.004,174.181-0.004h11.295
						C269.125,266.603,211.225,266.607,152.876,266.607"/>
				</g>
			</g>
			<g>
				<path fill="#CECECE" d="M365.597,197.586c15.837,21.987,31.506,44.739,47.254,67.078c0.449,0.636,1.224,1.205,1.207,1.878
					c-29.055,0.063-58.036,0.062-87.002,0.062c-57.932,0-115.832,0.004-174.18,0.004
					C223.685,243.495,294.681,220.599,365.597,197.586z"/>
			</g>
			<g enable-background="new    ">
				<defs>
					<path id="SVGID_40_" enable-background="new    " d="M141.456,340.209c21.058-0.05,42.099-0.081,63.128-0.102
						c0.396,0,0.924,0,1.32,0c0.419,0,0.979,0,1.398,0c0.436,0,1.016,0,1.452,0c0.443,0,1.035,0,1.479,0s1.035,0,1.478,0
						c0.436,0,1.016,0,1.452,0c0.419,0,0.979,0,1.398,0c0.396,0,0.923,0,1.319,0c-20.854,0.021-41.717,0.051-62.598,0.101
						c-0.395,0-0.92,0-1.315,0c-0.418,0-0.976,0-1.394,0c-0.434,0-1.013,0-1.447,0c-0.442,0-1.032,0-1.474,0s-1.031,0-1.473,0
						c-0.434,0-1.013,0-1.447,0c-0.418,0-0.976,0-1.394,0c-0.395,0-0.92,0-1.315,0c0.395,0,0.92,0,1.315,0c0.418,0,0.976,0,1.394,0
						c0.434,0,1.013,0,1.447,0c0.442,0,1.031,0,1.473,0s1.031,0,1.474,0c0.434,0,1.013,0,1.447,0c0.418,0,0.976,0,1.394,0
						c0.395,0,0.92,0,1.315,0l0,0c-0.177,0-0.354,0.001-0.53,0.001C149.362,340.209,144.844,340.209,141.456,340.209z"/>
				</defs>
				<clipPath id="SVGID_161_">
					<use xlink:href="#SVGID_40_"  overflow="visible"/>
				</clipPath>
				<g clip-path="url(#SVGID_161_)" enable-background="new    ">
					<path fill="#818181" d="M152.751,340.209h-11.295c57.405-0.136,114.676-0.136,171.964-0.136h11.296
						C267.427,340.074,210.156,340.074,152.751,340.209"/>
				</g>
			</g>
			<g enable-background="new    ">
				<defs>
					<path id="SVGID_39_" enable-background="new    " d="M210.851,196.902h-11.295c-10.205-0.006-20.408-0.012-30.609-0.016
						c-9.276-0.004-18.545-0.006-27.816-0.007h11.296c9.271,0,18.54,0.003,27.815,0.007
						C190.443,196.891,200.646,196.896,210.851,196.902z"/>
				</defs>
				<clipPath id="SVGID_162_">
					<use xlink:href="#SVGID_39_"  overflow="visible"/>
				</clipPath>
				<g clip-path="url(#SVGID_162_)" enable-background="new    ">
					<path fill="#333333" d="M210.851,196.902h-11.295c-10.205-0.006-20.408-0.012-30.609-0.016
						c-9.276-0.004-18.545-0.006-27.816-0.007h11.296c9.271,0,18.54,0.003,27.815,0.007
						C190.443,196.891,200.646,196.896,210.851,196.902"/>
				</g>
			</g>
			<g enable-background="new    ">
				<defs>
					<path id="SVGID_38_" enable-background="new    " d="M117.039,196.893h-11.296c5.741-0.004,11.483-0.008,17.227-0.01h11.295
						C128.521,196.885,122.779,196.889,117.039,196.893z"/>
				</defs>
				<clipPath id="SVGID_163_">
					<use xlink:href="#SVGID_38_"  overflow="visible"/>
				</clipPath>
				<g clip-path="url(#SVGID_163_)" enable-background="new    ">
					<path d="M117.039,196.893h-11.296c5.741-0.004,11.483-0.008,17.227-0.01h11.295
						C128.521,196.885,122.779,196.889,117.039,196.893"/>
				</g>
			</g>
			<g enable-background="new    ">
				<defs>
					<path id="SVGID_37_" enable-background="new    " d="M117.039,196.893h-11.295c51.559-3.582,103.874-7.776,155.726-11.25
						c17.461-1.161,35.134-2.808,52.308-3.744h11.295c-17.174,0.936-34.847,2.583-52.307,3.744
						C220.913,189.117,168.597,193.311,117.039,196.893z"/>
				</defs>
				<clipPath id="SVGID_164_">
					<use xlink:href="#SVGID_37_"  overflow="visible"/>
				</clipPath>
				<g clip-path="url(#SVGID_164_)" enable-background="new    ">
					<path fill="#373737" d="M117.039,196.893h-11.295c51.559-3.582,103.874-7.776,155.726-11.25
						c17.461-1.161,35.134-2.808,52.308-3.744h11.295c-17.174,0.936-34.847,2.583-52.307,3.744
						C220.913,189.117,168.597,193.311,117.039,196.893"/>
				</g>
			</g>
			<g enable-background="new    ">
				<defs>
					<path id="SVGID_36_" enable-background="new    " d="M316.417,182.035h-11.296c-55.647-0.136-111.154-0.136-166.67-0.136
						h11.296C205.263,181.899,260.769,181.899,316.417,182.035z"/>
				</defs>
				<clipPath id="SVGID_165_">
					<use xlink:href="#SVGID_36_"  overflow="visible"/>
				</clipPath>
				<g clip-path="url(#SVGID_165_)" enable-background="new    ">
					<path d="M316.417,182.035h-11.296c-55.647-0.136-111.154-0.136-166.67-0.136h11.296
						C205.263,181.899,260.769,181.899,316.417,182.035"/>
				</g>
			</g>
			<g enable-background="new    ">
				<defs>
					<path id="SVGID_35_" enable-background="new    " d="M242.56,267.186h-11.295c-7.174,0-14.349-0.003-21.525-0.006
						c-8.073-0.003-16.146-0.009-24.221-0.015c-8.197-0.006-16.394-0.011-24.589-0.015c-8.007-0.004-16.018-0.007-24.022-0.007
						h11.295c8.004,0,16.015,0.003,24.022,0.007c8.195,0.004,16.392,0.009,24.589,0.015c8.075,0.006,16.147,0.012,24.221,0.015
						C228.21,267.183,235.385,267.186,242.56,267.186z"/>
				</defs>
				<clipPath id="SVGID_166_">
					<use xlink:href="#SVGID_35_"  overflow="visible"/>
				</clipPath>
				<g clip-path="url(#SVGID_166_)" enable-background="new    ">
					<path d="M242.56,267.186h-11.295c-7.174,0-14.349-0.003-21.525-0.006c-8.073-0.003-16.146-0.009-24.221-0.015
						c-8.197-0.006-16.394-0.011-24.589-0.015c-8.007-0.004-16.018-0.007-24.022-0.007h11.295c8.004,0,16.015,0.003,24.022,0.007
						c8.195,0.004,16.392,0.009,24.589,0.015c8.075,0.006,16.147,0.012,24.221,0.015C228.21,267.183,235.385,267.186,242.56,267.186
						"/>
				</g>
			</g>
			<g enable-background="new    ">
				<defs>
					<path id="SVGID_34_" enable-background="new    " d="M147.145,266.835h-11.295c0.308,0,0.614-0.004,0.917-0.012
						s0.604-0.021,0.902-0.038c0.595-0.036,1.179-0.093,1.747-0.179c1.702-0.261,3.467-1.223,5.293-1.8
						c27.129-8.703,54.793-17.612,81.291-26.388h11.295c-26.497,8.775-54.161,17.685-81.291,26.388
						c-1.827,0.577-3.592,1.539-5.293,1.8c-0.568,0.086-1.152,0.143-1.747,0.179c-0.298,0.018-0.599,0.03-0.902,0.038
						S147.453,266.835,147.145,266.835z"/>
				</defs>
				<clipPath id="SVGID_167_">
					<use xlink:href="#SVGID_34_"  overflow="visible"/>
				</clipPath>
				<g clip-path="url(#SVGID_167_)" enable-background="new    ">
					<path d="M147.145,266.835h-11.295c0.308,0,0.614-0.004,0.917-0.012s0.604-0.021,0.902-0.038
						c0.595-0.036,1.179-0.093,1.747-0.179c0.04-0.006,0.08-0.013,0.12-0.02h11.295c-0.04,0.007-0.08,0.014-0.12,0.02
						c-0.568,0.086-1.152,0.143-1.747,0.179c-0.298,0.018-0.599,0.03-0.902,0.038S147.453,266.835,147.145,266.835"/>
					<path d="M150.83,266.587h-11.295c1.665-0.286,3.39-1.217,5.173-1.78c27.129-8.703,54.793-17.612,81.291-26.388h11.295
						c-26.497,8.775-54.161,17.685-81.291,26.388C154.22,265.371,152.495,266.301,150.83,266.587"/>
				</g>
			</g>
			<g enable-background="new    ">
				<defs>
					<path id="SVGID_33_" enable-background="new    " d="M237.168,368.118h-11.295c-26.772-8.541-54.375-17.586-81.29-26.379
						c-1.845-0.603-3.841-1.458-5.525-1.665c-0.795-0.101-1.611-0.155-2.44-0.179c-0.302-0.01-0.604-0.014-0.91-0.016h11.295
						c0.305,0.002,0.607,0.006,0.91,0.016c0.829,0.023,1.645,0.078,2.44,0.179c1.685,0.207,3.681,1.063,5.525,1.665
						C182.794,350.532,210.396,359.577,237.168,368.118z"/>
				</defs>
				<clipPath id="SVGID_168_">
					<use xlink:href="#SVGID_33_"  overflow="visible"/>
				</clipPath>
				<g clip-path="url(#SVGID_168_)" enable-background="new    ">
					<path d="M237.168,368.118h-11.295c-26.772-8.541-54.375-17.586-81.29-26.379c-1.845-0.603-3.841-1.458-5.525-1.665
						c-0.795-0.101-1.611-0.155-2.44-0.179c-0.302-0.01-0.604-0.014-0.91-0.016h11.295c0.305,0.002,0.607,0.006,0.91,0.016
						c0.829,0.023,1.645,0.078,2.44,0.179c1.685,0.207,3.681,1.063,5.525,1.665C182.794,350.532,210.396,359.577,237.168,368.118"/>
				</g>
			</g>
			<g enable-background="new    ">
				<defs>
					<path id="SVGID_32_" enable-background="new    " d="M146.316,339.88h-11.295c0.153-0.001,0.306-0.002,0.458-0.002h11.295
						C146.623,339.878,146.47,339.879,146.316,339.88z"/>
				</defs>
				<clipPath id="SVGID_169_">
					<use xlink:href="#SVGID_32_"  overflow="visible"/>
				</clipPath>
				<g clip-path="url(#SVGID_169_)" enable-background="new    ">
					<path fill="#818181" d="M146.316,339.88h-11.295c0.153-0.001,0.306-0.002,0.458-0.002h11.295
						C146.623,339.878,146.47,339.879,146.316,339.88"/>
				</g>
			</g>
			<g enable-background="new    ">
				<defs>
					<path id="SVGID_31_" enable-background="new    " d="M147.145,266.835H135.85c-0.308,0-0.617-0.004-0.928-0.01
						c-0.466-0.01-0.937-0.025-1.408-0.043c-1.728-0.067-3.477-0.176-5.16-0.176h11.295c1.683,0,3.432,0.108,5.16,0.176
						c0.472,0.018,0.941,0.033,1.408,0.043C146.528,266.832,146.837,266.835,147.145,266.835z"/>
				</defs>
				<clipPath id="SVGID_170_">
					<use xlink:href="#SVGID_31_"  overflow="visible"/>
				</clipPath>
				<g clip-path="url(#SVGID_170_)" enable-background="new    ">
					<path fill="#787878" d="M147.145,266.835H135.85c-0.308,0-0.617-0.004-0.928-0.01c-0.466-0.01-0.937-0.025-1.408-0.043
						c-1.728-0.067-3.477-0.176-5.16-0.176h11.295c1.683,0,3.432,0.108,5.16,0.176c0.472,0.018,0.941,0.033,1.408,0.043
						C146.528,266.832,146.837,266.835,147.145,266.835"/>
				</g>
			</g>
			<g enable-background="new    ">
				<defs>
					<path id="SVGID_30_" enable-background="new    " d="M139.409,340.074h-11.295c1.35,0,2.739-0.062,4.13-0.116
						c0.928-0.036,1.857-0.068,2.777-0.077h11.295c-0.919,0.009-1.849,0.041-2.776,0.077
						C142.148,340.012,140.759,340.074,139.409,340.074z"/>
				</defs>
				<clipPath id="SVGID_171_">
					<use xlink:href="#SVGID_30_"  overflow="visible"/>
				</clipPath>
				<g clip-path="url(#SVGID_171_)" enable-background="new    ">
					<path fill="#818181" d="M139.409,340.074h-11.295c1.35,0,2.739-0.062,4.13-0.116c0.928-0.036,1.857-0.068,2.777-0.077h11.295
						c-0.919,0.009-1.849,0.041-2.776,0.077C142.148,340.012,140.759,340.074,139.409,340.074"/>
				</g>
			</g>
			<g enable-background="new    ">
				<defs>
					<path id="SVGID_29_" enable-background="new    " d="M134.265,196.883H122.97c5.55-0.002,11.106-0.003,16.66-0.003h11.295
						C145.371,196.88,139.816,196.881,134.265,196.883z"/>
				</defs>
				<clipPath id="SVGID_172_">
					<use xlink:href="#SVGID_29_"  overflow="visible"/>
				</clipPath>
				<g clip-path="url(#SVGID_172_)" enable-background="new    ">
					<path d="M134.265,196.883H122.97c5.55-0.002,11.106-0.003,16.66-0.003h11.295C145.371,196.88,139.816,196.881,134.265,196.883"
						/>
				</g>
			</g>
			<g enable-background="new    ">
				<defs>
					<path id="SVGID_28_" enable-background="new    " d="M111.449,192.761c8.989-3.635,18.048-7.188,27.002-10.862h11.296
						c-8.828,3.622-17.758,7.126-26.621,10.708C116.296,192.728,114.673,192.757,111.449,192.761z"/>
				</defs>
				<clipPath id="SVGID_173_">
					<use xlink:href="#SVGID_28_"  overflow="visible"/>
				</clipPath>
				<g clip-path="url(#SVGID_173_)" enable-background="new    ">
					<path fill="#7C7C7C" d="M113.67,196.479h-11.295c11.934-4.968,24.099-9.666,36.077-14.58h11.296
						C137.769,186.813,125.604,191.511,113.67,196.479"/>
				</g>
			</g>
			<g>
				<path fill="#595959" d="M325.072,181.899c0.701-0.013,0.911-0.005,1.116,0.011c2.082,0.155,3.688,1.057,5.346,1.901
					c0.209,0.107,0.419,0.212,0.631,0.315c0.769,0.375,1.562,0.715,2.431,0.945c0.228,0.061,0.46,0.113,0.7,0.157
					c9.509,3.924,19.072,7.785,28.741,11.529c-6.21,0.025-12.427,0.047-18.644,0.065c-26.012,0.078-52.064,0.1-78.139,0.1
					c-9.939,0-18.908-0.002-27.878-0.006c-9.507-0.004-19.019-0.009-28.525-0.014c-10.205-0.006-20.408-0.012-30.609-0.016
					c-9.275-0.004-18.545-0.006-27.815-0.007c-0.309,0-0.618,0-0.927,0c-0.191,0-0.384,0-0.574,0c-5.555,0-11.107,0.001-16.66,0.003
					c-5.744,0.002-11.485,0.006-17.227,0.011c51.559-3.582,103.874-7.776,155.727-11.25
					C290.225,184.482,307.898,182.835,325.072,181.899z"/>
			</g>
			<g enable-background="new    ">
				<defs>
					<path id="SVGID_27_" enable-background="new    " d="M194.265,339.516h-11.296c-26.708-0.006-53.421-0.015-80.12-0.015h11.295
						C140.843,339.501,167.557,339.51,194.265,339.516z"/>
				</defs>
				<clipPath id="SVGID_174_">
					<use xlink:href="#SVGID_27_"  overflow="visible"/>
				</clipPath>
				<g clip-path="url(#SVGID_174_)" enable-background="new    ">
					<path fill="#030303" d="M194.265,339.516h-11.296c-26.708-0.006-53.421-0.015-80.12-0.015h11.295
						C140.843,339.501,167.557,339.51,194.265,339.516"/>
				</g>
			</g>
			<g enable-background="new    ">
				<defs>
					<path id="SVGID_26_" enable-background="new    " d="M139.409,340.074h-11.295c-8.583-0.003-17.137-0.004-25.676-0.004h11.295
						C122.271,340.07,130.827,340.071,139.409,340.074z"/>
				</defs>
				<clipPath id="SVGID_175_">
					<use xlink:href="#SVGID_26_"  overflow="visible"/>
				</clipPath>
				<g clip-path="url(#SVGID_175_)" enable-background="new    ">
					<path d="M139.409,340.074h-11.295c-8.583-0.003-17.137-0.004-25.676-0.004h11.295
						C122.271,340.07,130.827,340.071,139.409,340.074"/>
				</g>
			</g>
			<g enable-background="new    ">
				<defs>
					<path id="SVGID_25_" enable-background="new    " d="M113.669,196.479h-11.295c67.583-4.815,135.067-9.737,202.748-14.444
						h11.296C248.737,186.742,181.252,191.664,113.669,196.479z"/>
				</defs>
				<clipPath id="SVGID_176_">
					<use xlink:href="#SVGID_25_"  overflow="visible"/>
				</clipPath>
				<g clip-path="url(#SVGID_176_)" enable-background="new    ">
					<path d="M113.669,196.479h-11.295c67.583-4.815,135.067-9.737,202.748-14.444h11.296
						C248.737,186.742,181.252,191.664,113.669,196.479"/>
				</g>
			</g>
			<g>
				<path fill="#CECECE" d="M316.293,181.899c-67.556,4.842-135.041,9.765-202.624,14.58c11.934-4.968,24.099-9.666,36.078-14.58
					C205.263,181.899,260.77,181.899,316.293,181.899z"/>
			</g>
			<g enable-background="new    ">
				<defs>
					<path id="SVGID_24_" enable-background="new    " d="M141.591,409.209h11.295c-6.478,0-12.953,0.001-19.426,0.006
						c-6.798,0.002-13.594,0.008-20.388,0.016h-11.295c6.793-0.008,13.59-0.014,20.388-0.016
						C128.638,409.21,135.113,409.209,141.591,409.209z"/>
				</defs>
				<clipPath id="SVGID_177_">
					<use xlink:href="#SVGID_24_"  overflow="visible"/>
				</clipPath>
				<g clip-path="url(#SVGID_177_)" enable-background="new    ">
					<path d="M113.072,409.231h-11.295c6.793-0.008,13.59-0.014,20.388-0.016c6.474-0.005,12.949-0.006,19.426-0.006h11.296
						c-6.478,0-12.953,0.001-19.426,0.006C126.662,409.217,119.866,409.223,113.072,409.231"/>
				</g>
			</g>
			<g enable-background="new    ">
				<defs>
					<path id="SVGID_23_" enable-background="new    " d="M113.073,409.23h-11.295c41.647-13.662,83.527-27.036,125.184-40.688
						h11.295C196.6,382.194,154.721,395.568,113.073,409.23z"/>
				</defs>
				<clipPath id="SVGID_178_">
					<use xlink:href="#SVGID_23_"  overflow="visible"/>
				</clipPath>
				<g clip-path="url(#SVGID_178_)" enable-background="new    ">
					<path fill="#030303" d="M113.073,409.23h-11.295c41.647-13.662,83.527-27.036,125.184-40.688h11.295
						C196.6,382.194,154.721,395.568,113.073,409.23"/>
				</g>
			</g>
			<g>
				<path fill="#050505" d="M238.256,368.542c41.8,13.473,83.446,27.116,125.291,40.545c-6.233,0.025-12.472,0.047-18.71,0.065
					c-26.127,0.077-52.302,0.099-78.496,0.099c-10.212,0-19.404-0.002-28.588-0.006c-9.374-0.004-18.749-0.01-28.124-0.015
					c-9.298-0.005-18.595-0.01-27.891-0.014c-9.006-0.004-18.008-0.007-27.009-0.007c-0.291,0-0.581,0-0.871,0
					c-0.226,0-0.454,0-0.68,0c-6.577,0-13.146,0.001-19.719,0.005c-6.798,0.003-13.595,0.008-20.388,0.016
					C154.721,395.568,196.6,382.194,238.256,368.542z"/>
			</g>
			<g enable-background="new    ">
				<defs>
					<path id="SVGID_22_" enable-background="new    " d="M238.373,238.14h-11.295c-41.879-13.428-83.509-27.153-125.425-40.554
						h11.295C154.863,210.987,196.493,224.712,238.373,238.14z"/>
				</defs>
				<clipPath id="SVGID_179_">
					<use xlink:href="#SVGID_22_"  overflow="visible"/>
				</clipPath>
				<g clip-path="url(#SVGID_179_)" enable-background="new    ">
					<path fill="#858585" d="M238.373,238.14h-11.295c-41.879-13.428-83.509-27.153-125.425-40.554h11.295
						C154.863,210.987,196.493,224.712,238.373,238.14"/>
				</g>
			</g>
			<g enable-background="new    ">
				<defs>
					<path id="SVGID_21_" enable-background="new    " d="M112.948,197.586h-11.295c16.229-0.062,32.478-0.101,48.741-0.125
						c16.085-0.023,32.187-0.031,48.292-0.032h11.295c-16.105,0-32.207,0.008-48.292,0.032
						C145.426,197.485,129.177,197.524,112.948,197.586z"/>
				</defs>
				<clipPath id="SVGID_180_">
					<use xlink:href="#SVGID_21_"  overflow="visible"/>
				</clipPath>
				<g clip-path="url(#SVGID_180_)" enable-background="new    ">
					<path fill="#8F8F8F" d="M112.948,197.586h-11.295c16.229-0.062,32.478-0.101,48.741-0.125
						c16.085-0.023,32.187-0.031,48.292-0.032h11.295c-16.105,0-32.207,0.008-48.292,0.032
						C145.426,197.485,129.177,197.524,112.948,197.586"/>
				</g>
			</g>
			<g>
				<path fill="#E5E5E5" d="M209.981,197.43c10.738,0,20.412,0.003,30.086,0.007c9.481,0.004,18.965,0.009,28.447,0.014
					c9.173,0.005,18.344,0.01,27.516,0.014c8.901,0.004,17.8,0.006,26.699,0.006c0.269,0,0.54,0,0.809,0c0.224,0,0.448,0,0.671,0
					c6.265,0,12.525-0.001,18.788-0.004c6.931-0.003,13.864-0.008,20.791-0.016c-41.728,13.653-83.58,27.153-125.415,40.689
					c-41.879-13.428-83.509-27.153-125.425-40.554c16.229-0.062,32.479-0.101,48.741-0.125
					C177.774,197.438,193.875,197.43,209.981,197.43z"/>
			</g>
			<g enable-background="new    ">
				<defs>
					<path id="SVGID_20_" enable-background="new    " d="M112.906,339.501c0.412,0,0.824,0,1.236,0h-11.296
						c-0.412,0-0.824,0-1.236,0C104.999,339.501,109.517,339.501,112.906,339.501z"/>
				</defs>
				<clipPath id="SVGID_181_">
					<use xlink:href="#SVGID_20_"  overflow="visible"/>
				</clipPath>
				<g clip-path="url(#SVGID_181_)" enable-background="new    ">
					<path d="M112.906,339.501H101.61c0.412,0,0.824,0,1.236,0h11.296C113.73,339.501,113.318,339.501,112.906,339.501"/>
				</g>
			</g>
			<g enable-background="new    ">
				<defs>
					<path id="SVGID_19_" enable-background="new    " d="M111.263,409.086H99.968c41.959-13.662,84.16-27.055,125.905-40.969
						h11.295C195.423,382.032,153.223,395.424,111.263,409.086z"/>
				</defs>
				<clipPath id="SVGID_182_">
					<use xlink:href="#SVGID_19_"  overflow="visible"/>
				</clipPath>
				<g clip-path="url(#SVGID_182_)" enable-background="new    ">
					<path d="M111.263,409.086H99.968c41.959-13.662,84.16-27.055,125.905-40.969h11.295
						C195.423,382.032,153.223,395.424,111.263,409.086"/>
				</g>
			</g>
			<g enable-background="new    ">
				<defs>
					<path id="SVGID_18_" enable-background="new    " d="M237.294,238.419h-11.295c-42.183-13.509-84.107-27.306-126.263-40.833
						h11.295C153.187,211.113,195.111,224.911,237.294,238.419z"/>
				</defs>
				<clipPath id="SVGID_183_">
					<use xlink:href="#SVGID_18_"  overflow="visible"/>
				</clipPath>
				<g clip-path="url(#SVGID_183_)" enable-background="new    ">
					<path d="M237.294,238.419h-11.295c-42.183-13.509-84.107-27.306-126.263-40.833h11.295
						C153.187,211.113,195.111,224.911,237.294,238.419"/>
				</g>
			</g>
			<g enable-background="new    ">
				<defs>
					<path id="SVGID_17_" enable-background="new    " d="M412.378,338.958h-11.296C285.249,315.117,169.511,291.114,53.677,267.3
						h11.295C180.807,291.114,296.544,315.117,412.378,338.958z"/>
				</defs>
				<clipPath id="SVGID_184_">
					<use xlink:href="#SVGID_17_"  overflow="visible"/>
				</clipPath>
				<g clip-path="url(#SVGID_184_)" enable-background="new    ">
					<path fill="#333333" d="M412.378,338.958h-11.296C285.249,315.117,169.511,291.114,53.677,267.3h11.295
						C180.807,291.114,296.544,315.117,412.378,338.958"/>
				</g>
			</g>
			<g enable-background="new    ">
				<defs>
					<path id="SVGID_16_" enable-background="new    " d="M411.656,339.373h-11.295c-108.91-22.247-217.446-44.965-326.364-67.213
						h11.295C194.21,294.408,302.747,317.125,411.656,339.373z"/>
				</defs>
				<clipPath id="SVGID_185_">
					<use xlink:href="#SVGID_16_"  overflow="visible"/>
				</clipPath>
				<g clip-path="url(#SVGID_185_)" enable-background="new    ">
					<path d="M411.656,339.373h-11.295c-108.91-22.247-217.446-44.965-326.364-67.213h11.295
						C194.21,294.408,302.747,317.125,411.656,339.373"/>
				</g>
			</g>
			<g enable-background="new    ">
				<defs>
					<path id="SVGID_15_" enable-background="new    " d="M65.216,340.072c12.412,0,24.801-0.002,37.222-0.002h11.295
						c-12.421,0-24.81,0.002-37.222,0.002C73.123,340.072,68.604,340.072,65.216,340.072z"/>
				</defs>
				<clipPath id="SVGID_186_">
					<use xlink:href="#SVGID_15_"  overflow="visible"/>
				</clipPath>
				<g clip-path="url(#SVGID_186_)" enable-background="new    ">
					<path fill="#818181" d="M76.512,340.072H65.216c12.413,0,24.801-0.002,37.222-0.002h11.295
						C101.312,340.07,88.924,340.072,76.512,340.072"/>
				</g>
			</g>
			<g enable-background="new    ">
				<defs>
					<path id="SVGID_14_" enable-background="new    " d="M64.973,267.3H53.677c13.745-0.063,27.512-0.102,41.292-0.125
						c13.598-0.023,27.214-0.031,40.835-0.031H147.1c-13.621,0-27.237,0.008-40.835,0.031
						C92.484,267.199,78.717,267.238,64.973,267.3z"/>
				</defs>
				<clipPath id="SVGID_187_">
					<use xlink:href="#SVGID_14_"  overflow="visible"/>
				</clipPath>
				<g clip-path="url(#SVGID_187_)" enable-background="new    ">
					<path fill="#373737" d="M64.973,267.3H53.677c13.745-0.063,27.512-0.102,41.292-0.125c13.598-0.023,27.214-0.031,40.835-0.031
						H147.1c-13.621,0-27.237,0.008-40.835,0.031C92.484,267.199,78.717,267.238,64.973,267.3"/>
				</g>
			</g>
			<g>
				<path fill="#595959" d="M147.1,267.144c9.107,0,17.117,0.003,25.125,0.007c8.195,0.004,16.392,0.009,24.588,0.015
					c8.074,0.005,16.149,0.011,24.221,0.015c7.176,0.003,14.351,0.006,21.525,0.006c0.299,0,0.598,0,0.897,0
					c5.908,0,11.158-0.002,16.408-0.005c5.905-0.003,11.812-0.008,17.713-0.016c44.955,23.805,90.346,47.861,134.801,71.793
					C296.544,315.117,180.807,291.114,64.973,267.3c13.745-0.063,27.512-0.102,41.292-0.125
					C119.863,267.152,133.479,267.144,147.1,267.144z"/>
			</g>
			<g enable-background="new    ">
				<defs>
					<path id="SVGID_13_" enable-background="new    " d="M52.59,264.528c15.499-22.086,31.514-44.855,47.146-66.942h11.295
						c-15.632,22.086-31.648,44.856-47.146,66.942c0,0.001-0.001,0.001-0.001,0.002c-3.765,0-7.53,0-11.295,0l0,0
						C52.589,264.529,52.589,264.529,52.59,264.528z"/>
				</defs>
				<clipPath id="SVGID_188_">
					<use xlink:href="#SVGID_13_"  overflow="visible"/>
				</clipPath>
				<g clip-path="url(#SVGID_188_)" enable-background="new    ">
					<path fill="#787878" d="M62.691,266.607H51.396c0.012-0.733,0.702-1.379,1.194-2.079
						c15.499-22.086,31.514-44.855,47.146-66.942h11.295c-15.632,22.086-31.648,44.856-47.146,66.942
						C63.393,265.228,62.704,265.874,62.691,266.607"/>
				</g>
			</g>
			<g enable-background="new    ">
				<defs>
					<path id="SVGID_12_" enable-background="new    " d="M51.404,266.479c0.083-0.681,0.72-1.291,1.184-1.949
						c3.765,0,7.53,0,11.295,0l0,0c-0.464,0.658-1.101,1.269-1.184,1.949c-0.395,0-0.922,0-1.317,0c-0.419,0-0.979,0-1.397,0
						c-0.435,0-1.016,0-1.451,0c-0.443,0-1.034,0-1.478,0s-1.035,0-1.478,0c-0.436,0-1.017,0-1.452,0c-0.42,0-0.98,0-1.4,0
						C52.33,266.479,51.801,266.479,51.404,266.479z"/>
				</defs>
				<clipPath id="SVGID_189_">
					<use xlink:href="#SVGID_12_"  overflow="visible"/>
				</clipPath>
				<g clip-path="url(#SVGID_189_)" enable-background="new    ">
					<path fill="#787878" d="M62.691,266.607H51.396c0.012-0.733,0.702-1.379,1.194-2.079
						c15.499-22.086,31.514-44.855,47.146-66.942h11.295c-15.632,22.086-31.648,44.856-47.146,66.942
						C63.393,265.228,62.704,265.874,62.691,266.607"/>
				</g>
			</g>
			<g enable-background="new    ">
				<defs>
					<path id="SVGID_11_" enable-background="new    " d="M111.264,409.086H99.968c-1.337-0.963-2.157-2.646-3.12-4.023
						c-14.991-21.339-30.444-43.083-45.453-64.575h11.295c15.009,21.492,30.463,43.236,45.453,64.575
						C109.107,406.44,109.927,408.124,111.264,409.086z"/>
				</defs>
				<clipPath id="SVGID_190_">
					<use xlink:href="#SVGID_11_"  overflow="visible"/>
				</clipPath>
				<g clip-path="url(#SVGID_190_)" enable-background="new    ">
					<path fill="#787878" d="M111.264,409.086H99.968c-1.337-0.963-2.157-2.646-3.12-4.023
						c-14.991-21.339-30.444-43.083-45.453-64.575h11.295c15.009,21.492,30.463,43.236,45.453,64.575
						C109.107,406.44,109.927,408.124,111.264,409.086"/>
				</g>
			</g>
			<g>
				<path fill="#CECECE" d="M111.032,197.586c42.156,13.527,84.08,27.324,126.263,40.833c-26.497,8.775-54.161,17.685-81.291,26.388
					c-1.827,0.576-3.592,1.539-5.294,1.8c-0.567,0.086-1.151,0.143-1.747,0.179c-0.298,0.018-0.599,0.03-0.901,0.038
					c-0.303,0.008-0.609,0.012-0.917,0.012c-0.308,0-0.617-0.004-0.928-0.01c-0.467-0.01-0.937-0.025-1.408-0.043
					c-1.728-0.067-3.477-0.176-5.16-0.176c-25.498,0-51.353,0-76.958,0c0.013-0.733,0.702-1.379,1.194-2.079
					C79.384,242.442,95.4,219.672,111.032,197.586z"/>
			</g>
			<g enable-background="new    ">
				<defs>
					<path id="SVGID_10_" enable-background="new    " d="M68.106,289.242c1.961-5.66,3.904-12.149,5.892-17.082
						c3.325,0,6.651,0.001,9.977,0h1.319c-1.988,4.933-3.931,11.422-5.891,17.082c-5.553,16.021-11.159,32.373-16.479,48.33
						c-0.131,0.392-0.408,0.847-0.471,1.514c-0.395,0-0.921,0-1.316,0c-0.419,0-0.977,0-1.396,0c-0.435,0-1.014,0-1.448,0
						c-0.442,0-1.032,0-1.475,0s-1.032,0-1.475,0c-0.434,0-1.014,0-1.448,0c-0.418,0-0.977,0-1.396,0c-0.395,0-0.921,0-1.316,0
						c0.395,0,0.921,0,1.316,0c0.418,0,0.977,0,1.396,0c0.434,0,1.014,0,1.448,0c0.442,0,1.032,0,1.475,0s1.032,0,1.475,0
						c0.435,0,1.014,0,1.448,0c0.418,0,0.977,0,1.396,0c0.395,0,0.921,0,1.316,0l0,0c-0.013,0.135-0.017,0.277-0.01,0.431H51.146
						c-0.044-0.912,0.323-1.474,0.481-1.944C56.948,321.615,62.554,305.262,68.106,289.242z"/>
				</defs>
				<clipPath id="SVGID_191_">
					<use xlink:href="#SVGID_10_"  overflow="visible"/>
				</clipPath>
				<g clip-path="url(#SVGID_191_)" enable-background="new    ">
					<path fill="#030303" d="M62.441,339.516H51.146c-0.044-0.912,0.323-1.474,0.481-1.944c5.321-15.957,10.927-32.31,16.479-48.33
						c1.961-5.66,3.904-12.149,5.892-17.082h11.295c-1.988,4.933-3.931,11.422-5.891,17.082
						c-5.553,16.021-11.159,32.373-16.479,48.33C62.765,338.042,62.397,338.604,62.441,339.516"/>
				</g>
			</g>
			<g enable-background="new    ">
				<defs>
					<path id="SVGID_9_" enable-background="new    " d="M51.248,340.329c-0.076-0.119-0.116-0.258-0.008-0.258h11.295
						c-0.108,0-0.067,0.139,0.009,0.258c-0.249,0-0.58,0-0.828,0c-0.263,0-0.614,0-0.877,0c-0.273,0-0.638,0-0.911,0
						c-0.278,0-0.649,0-0.927,0c-0.278,0-0.649,0-0.928,0c-0.273,0-0.638,0-0.911,0c-0.263,0-0.614,0-0.878,0
						c-0.249,0-0.58,0-0.828,0c-0.147,0-0.344,0-0.491,0c-0.156,0-0.365,0-0.521,0c-0.162,0-0.378,0-0.541,0
						c-0.165,0-0.386,0-0.551,0s-0.385,0-0.55,0c-0.162,0-0.378,0-0.541,0c-0.156,0-0.364,0-0.521,0
						C51.592,340.329,51.395,340.329,51.248,340.329z"/>
				</defs>
				<clipPath id="SVGID_192_">
					<use xlink:href="#SVGID_9_"  overflow="visible"/>
				</clipPath>
				<g clip-path="url(#SVGID_192_)" enable-background="new    ">
					<path fill="#787878" d="M62.691,340.488H51.396c-0.113-0.061-0.297-0.363-0.19-0.411h11.295
						C62.394,340.125,62.578,340.427,62.691,340.488"/>
					<path fill="#7C7C7C" d="M62.501,340.077H51.206c0.005-0.002,0.011-0.004,0.017-0.005h11.296
						C62.512,340.073,62.506,340.075,62.501,340.077"/>
					<path fill="#818181" d="M62.518,340.072H51.222c0.005-0.001,0.011-0.001,0.017-0.001h11.295
						C62.529,340.071,62.523,340.071,62.518,340.072"/>
				</g>
			</g>
			<g>
				<path fill="#050505" d="M85.293,272.16c108.918,22.248,217.454,44.965,326.364,67.213c-23.077,0.065-46.167,0.107-69.277,0.134
					c-22.924,0.025-45.871,0.034-68.816,0.034c-14.028,0-26.974-0.003-39.917-0.007c-13.125-0.005-26.256-0.011-39.381-0.018
					c-26.708-0.006-53.422-0.015-80.121-0.015c-17.241,0-34.479,0.004-51.703,0.015c-0.044-0.912,0.323-1.474,0.481-1.944
					c5.321-15.957,10.927-32.31,16.479-48.33C81.362,283.582,83.305,277.092,85.293,272.16z"/>
			</g>
			<g>
				<path fill="#CECECE" d="M146.775,339.878c0.534,0.002,0.837,0.007,1.139,0.016c0.829,0.024,1.646,0.079,2.439,0.18
					c1.685,0.207,3.681,1.063,5.526,1.665c26.916,8.793,54.518,17.838,81.29,26.379c-41.746,13.914-83.946,27.307-125.905,40.969
					c-1.337-0.963-2.157-2.646-3.12-4.023c-14.99-21.339-30.444-43.083-45.453-64.575c-0.123-0.065-0.328-0.417-0.156-0.417
					c17.103,0.003,34.12-0.001,51.198-0.001c8.541,0,17.093,0.001,25.676,0.004c1.35,0,2.739-0.062,4.131-0.116
					c0.928-0.036,1.857-0.068,2.776-0.077C146.47,339.879,146.623,339.878,146.775,339.878z"/>
			</g>
			<g enable-background="new    ">
				<defs>
					<path id="SVGID_8_" enable-background="new    " d="M84.571,271.881H73.275c-7.523-1.449-14.919-3.042-22.361-4.581h11.295
						C69.652,268.839,77.048,270.432,84.571,271.881z"/>
				</defs>
				<clipPath id="SVGID_193_">
					<use xlink:href="#SVGID_8_"  overflow="visible"/>
				</clipPath>
				<g clip-path="url(#SVGID_193_)" enable-background="new    ">
					<path d="M84.571,271.881H73.275c-7.523-1.449-14.919-3.042-22.361-4.581h11.295C69.652,268.839,77.048,270.432,84.571,271.881"
						/>
				</g>
			</g>
			<g enable-background="new    ">
				<defs>
					<path id="SVGID_7_" enable-background="new    " d="M62.209,337.986H50.914c7.37-22.122,15.071-43.874,22.361-66.104h11.295
						C77.28,294.112,69.58,315.864,62.209,337.986z"/>
				</defs>
				<clipPath id="SVGID_194_">
					<use xlink:href="#SVGID_7_"  overflow="visible"/>
				</clipPath>
				<g clip-path="url(#SVGID_194_)" enable-background="new    ">
					<path d="M62.209,337.986H50.914c7.37-22.122,15.071-43.874,22.361-66.104h11.295C77.28,294.112,69.58,315.864,62.209,337.986"
						/>
				</g>
			</g>
			<g enable-background="new    ">
				<defs>
					<path id="SVGID_6_" enable-background="new    " d="M50.914,267.3c0.343-0.032,0.805,0,1.15,0c0.364,0,0.849,0,1.213,0
						c0.377,0,0.881,0,1.258,0c0.386,0,0.901,0,1.287,0c0.389,0,0.908,0,1.296,0c0.387,0,0.902,0,1.289,0c0.379,0,0.884,0,1.263,0
						c0.366,0,0.854,0,1.22,0c0.051,0,0.119,0,0.17,0c0.05,0,0.118,0,0.168,0s0.117,0,0.167,0s0.116,0,0.166,0
						c0.049,0,0.115,0,0.164,0c0.049,0,0.114,0,0.163,0c0.048,0,0.113,0,0.162,0c0.048,0,0.111,0,0.16,0h0
						c-0.106,0.021-0.128,0.137-0.125,0.423c0.013,3.652,0.017,7.313,0.017,10.979c0,10.266-0.036,20.573-0.037,30.843
						c-0.001,9.535,0.028,19.037,0.144,28.44c-4.249-0.01-7.459-0.013-11.295,0l0,0c-0.116-9.403-0.145-18.905-0.144-28.44
						c0.001-10.27,0.037-20.577,0.036-30.843c0-3.666-0.004-7.327-0.017-10.979C50.786,267.437,50.807,267.321,50.914,267.3z"/>
				</defs>
				<clipPath id="SVGID_195_">
					<use xlink:href="#SVGID_6_"  overflow="visible"/>
				</clipPath>
				<g clip-path="url(#SVGID_195_)" enable-background="new    ">
					<path fill="#030303" d="M62.209,337.986H50.914c-0.116-9.403-0.145-18.905-0.144-28.44c0.001-10.27,0.037-20.577,0.036-30.843
						c0-3.666-0.004-7.327-0.017-10.979c-0.003-0.259,0.014-0.379,0.097-0.414h11.295c-0.083,0.035-0.1,0.155-0.097,0.414
						c0.013,3.652,0.017,7.313,0.017,10.979c0,10.266-0.036,20.573-0.037,30.843C62.064,319.081,62.094,328.583,62.209,337.986"/>
					<path fill="#030303" d="M62.182,267.309H50.886c0.008-0.004,0.018-0.007,0.028-0.009h11.295
						C62.2,267.302,62.19,267.305,62.182,267.309"/>
				</g>
			</g>
			<g>
				<path fill="#050505" d="M62.209,267.3c7.442,1.539,14.839,3.132,22.361,4.581c-7.291,22.229-14.991,43.982-22.361,66.104
					c-0.116-9.403-0.145-18.905-0.144-28.44c0.001-10.27,0.037-20.577,0.037-30.843c0-3.666-0.004-7.327-0.017-10.979
					C62.081,267.437,62.103,267.321,62.209,267.3z"/>
			</g>
			<g enable-background="new    ">
				<defs>
					<path id="SVGID_5_" enable-background="new    " d="M102.375,196.479c3.012-1.254,6.04-2.491,9.075-3.718
						c3.224-0.004,4.847-0.033,11.677-0.154c-3.163,1.278-6.318,2.566-9.457,3.873C110.281,196.479,105.763,196.479,102.375,196.479
						z"/>
				</defs>
				<clipPath id="SVGID_196_">
					<use xlink:href="#SVGID_5_"  overflow="visible"/>
				</clipPath>
				<g clip-path="url(#SVGID_196_)" enable-background="new    ">
					<path fill="#7C7C7C" d="M113.67,196.479h-11.295c11.934-4.968,24.099-9.666,36.077-14.58h11.296
						C137.769,186.813,125.604,191.511,113.67,196.479"/>
				</g>
			</g>
			<g enable-background="new    ">
				<defs>
					<path id="SVGID_4_" enable-background="new    " d="M51.396,266.607c0-0.043,0.003-0.086,0.009-0.128c0.396,0,0.925,0,1.322,0
						c0.42,0,0.98,0,1.4,0c0.436,0,1.017,0,1.452,0c0.443,0,1.035,0,1.478,0s1.034,0,1.478,0c0.435,0,1.016,0,1.451,0
						c0.419,0,0.978,0,1.397,0c0.395,0,0.922,0,1.317,0c-0.005,0.042-0.008,0.085-0.009,0.128
						C59.302,266.607,54.784,266.607,51.396,266.607z"/>
				</defs>
				<clipPath id="SVGID_197_">
					<use xlink:href="#SVGID_4_"  overflow="visible"/>
				</clipPath>
				<g clip-path="url(#SVGID_197_)" enable-background="new    ">
					<path fill="#787878" d="M62.691,266.607H51.396c0.012-0.733,0.702-1.379,1.194-2.079
						c15.499-22.086,31.514-44.855,47.146-66.942h11.295c-15.632,22.086-31.648,44.856-47.146,66.942
						C63.393,265.228,62.704,265.874,62.691,266.607"/>
				</g>
			</g>
			<g enable-background="new    ">
				<defs>
					<path id="SVGID_3_" enable-background="new    " d="M61.603,266.742H50.308c15.142-21.573,30.891-43.748,46.3-65.682
						c1.007-1.431,2.29-4.031,3.36-4.437c11.069-4.221,22.513-8.865,33.796-13.473c1.63-0.675,3.609-1.944,5.168-1.944h11.295
						c-1.56,0-3.538,1.269-5.168,1.944c-11.284,4.608-22.727,9.252-33.796,13.473c-1.069,0.405-2.353,3.006-3.36,4.437
						C92.494,222.994,76.745,245.169,61.603,266.742z"/>
				</defs>
				<clipPath id="SVGID_198_">
					<use xlink:href="#SVGID_3_"  overflow="visible"/>
				</clipPath>
				<g clip-path="url(#SVGID_198_)" enable-background="new    ">
					<path d="M61.603,266.742H50.308c15.142-21.573,30.891-43.748,46.3-65.682c0.991-1.408,2.25-3.949,3.309-4.416h11.296
						c-1.06,0.466-2.318,3.007-3.309,4.416C92.494,222.994,76.745,245.169,61.603,266.742"/>
					<path d="M111.212,196.645H99.917c0.017-0.008,0.034-0.015,0.051-0.021c11.069-4.221,22.513-8.865,33.796-13.473
						c0.061-0.025,0.123-0.052,0.185-0.079h11.296c-0.063,0.027-0.124,0.053-0.185,0.079c-11.284,4.608-22.727,9.252-33.796,13.473
						C111.247,196.63,111.229,196.637,111.212,196.645"/>
					<path d="M145.245,183.072h-11.296c0.841-0.364,1.765-0.864,2.67-1.254h11.295C147.009,182.208,146.085,182.708,145.245,183.072
						"/>
					<path d="M147.915,181.818h-11.295c0.589-0.254,1.171-0.462,1.717-0.557h11.296
						C149.086,181.355,148.504,181.563,147.915,181.818"/>
					<path d="M149.632,181.261h-11.296c0.204-0.035,0.403-0.055,0.596-0.055h11.295
						C150.035,181.207,149.836,181.226,149.632,181.261"/>
				</g>
			</g>
			<g>
				<path d="M368.965,201.06c15.598,21.97,30.722,44.029,46.176,65.827c0,24.299,0,48.608,0,72.908
					c-15.339,21.798-30.944,44.163-46.416,65.961c-1.052,1.477-2.21,3.816-3.129,4.033c-0.719,0.161-1.538,0.215-2.416,0.215
					c-1.755,0-3.745-0.215-5.64-0.215c-26.48-0.004-52.965-0.006-79.453-0.006c-52.98,0-105.993,0.006-159.124,0.006
					c-1.866,0-3.866,0.227-5.594,0.227c-0.865,0-1.661-0.057-2.338-0.227c-0.944-0.244-2.005-2.584-3.128-4.167
					c-15.302-21.61-31.185-44.209-46.3-65.549c0-24.443,0-48.888,0-73.332c15.142-21.573,30.891-43.748,46.3-65.682
					c1.007-1.431,2.291-4.031,3.36-4.437c11.069-4.221,22.513-8.865,33.796-13.473c1.63-0.675,3.609-1.944,5.168-1.944
					c8.414,0,16.845,0,26.452,0c8.805-20.196,17.068-41.031,25.855-61.245c-0.357,10.377-1.194,19.494-1.8,28.89
					c-0.189,1.718-0.257,2.739-0.328,3.758c-0.579,6.093-1.144,12.292-1.633,18.482c-0.059,3.725-0.272,6.897-0.446,10.116
					c39.527,0,80.452,0,120.487,0c1.806,0,3.668-0.188,5.419-0.188c0.874,0,1.722,0.047,2.521,0.188
					c1.452,0.252,3.262,1.269,4.929,1.944c9.741,3.924,19.367,7.839,29.1,11.799c1.711,0.702,3.671,0.99,4.928,1.809
					C366.64,197.352,368.012,199.72,368.965,201.06z M277.578,267.166c-5.901,0.008-11.808,0.013-17.713,0.016
					c-5.25,0.003-10.5,0.005-15.752,0.005c-0.955,0-1.253,0-1.553,0c-7.174,0-14.349-0.003-21.525-0.006
					c-8.074-0.003-16.146-0.009-24.221-0.015c-8.197-0.006-16.394-0.011-24.589-0.015c-8.007-0.004-16.018-0.007-24.022-0.007
					c-14.726,0-28.336,0.008-41.938,0.031c-13.78,0.023-27.547,0.063-41.292,0.125c115.834,23.813,231.571,47.817,347.406,71.658
					C367.923,315.027,322.532,290.97,277.578,267.166 M62.398,339.189c17.267,0.316,34.505,0.313,51.744,0.313
					c26.701,0,53.406,0.01,80.123,0.015c13.125,0.007,26.257,0.013,39.382,0.018c12.943,0.004,25.888,0.007,38.828,0.007
					c24.037,0,46.977-0.009,69.905-0.033c23.109-0.027,46.2-0.069,69.276-0.135C302.747,317.125,194.21,294.408,85.292,272.16
					c-1.987,4.933-3.931,11.422-5.892,17.083c-5.552,16.02-11.158,32.372-16.479,48.33
					C62.765,338.042,62.396,338.605,62.398,339.189 M413.697,341.038c0.24-0.373,0.46-0.574,0.458-0.732
					c-0.511-0.381-1.036-0.431-1.667-0.431c-1.067,0-2.438,0.142-3.519,0.188c-7.541,0.009-14.46,0.008-21.346,0.008
					c-13.773,0-27.418,0.004-41.144,0.004c-2.164-0.003-4.361-0.05-6.563-0.097c-2.061-0.044-4.124-0.086-6.162-0.092
					c-1.645,0.002-2.67,0.014-3.684,0.04c-1.08,0.03-2.148,0.077-3.199,0.148c-0.396,0.026-0.829,0.192-1.248,0.233
					c-58.198-0.233-115.469-0.233-172.749-0.233c70.915,22.995,141.671,46.171,212.72,69.013
					c14.188-19.422,28.493-40.555,42.691-60.543C409.731,346.509,412.048,343.638,413.697,341.038 M412.851,264.665
					c-15.749-22.339-31.417-45.091-47.255-67.078c-70.915,23.013-141.912,45.909-212.72,69.021c58.349,0,116.249-0.004,174.18-0.004
					c28.972,0,57.942,0.002,86.998,0.004C414.074,265.869,413.299,265.299,412.851,264.665 M108.144,405.064
					c0.962,1.376,1.782,3.06,3.119,4.022c41.959-13.662,84.16-27.055,125.905-40.969c-26.772-8.541-54.375-17.586-81.29-26.379
					c-1.844-0.603-3.841-1.458-5.525-1.665c-0.795-0.101-1.611-0.155-2.44-0.179c-0.302-0.01-0.604-0.014-0.91-0.016
					c-0.381,0-0.534,0-0.688,0.002c-0.919,0.008-1.849,0.04-2.776,0.076c-1.392,0.055-2.781,0.116-4.131,0.116
					c-8.582-0.003-17.137-0.004-25.676-0.004c-17.079,0-34.096,0.004-51.167,0.004c-0.204-0.003,0.002,0.349,0.105,0.407
					C77.699,361.98,93.153,383.724,108.144,405.064 M63.885,264.528c-0.493,0.701-1.182,1.346-1.2,1.957
					c25.61,0.122,51.466,0.122,76.964,0.122c1.684,0,3.432,0.109,5.16,0.177c0.472,0.018,0.942,0.032,1.408,0.042
					c0.311,0.006,0.621,0.01,0.928,0.01c0.308,0,0.614-0.004,0.917-0.012s0.604-0.021,0.902-0.038
					c0.595-0.036,1.179-0.093,1.747-0.179c1.702-0.261,3.467-1.223,5.293-1.8c27.13-8.703,54.794-17.612,81.291-26.388
					c-42.183-13.509-84.107-27.306-126.263-40.833C95.399,219.672,79.383,242.442,63.885,264.528 M161.688,197.461
					c-16.262,0.023-32.512,0.063-48.74,0.125c41.915,13.401,83.545,27.125,125.424,40.554
					c41.834-13.536,83.688-27.036,125.415-40.689c-6.927,0.008-13.859,0.014-20.79,0.016c-6.263,0.003-12.523,0.005-18.788,0.005
					c-0.223,0-0.447,0-0.672,0c-0.268,0-0.539,0-0.808,0c-8.9,0-17.798-0.003-26.699-0.007c-9.173-0.004-18.343-0.008-27.517-0.014
					c-9.482-0.004-18.965-0.01-28.447-0.014c-9.674-0.004-19.347-0.007-29.017-0.008
					C193.872,197.431,177.777,197.438,161.688,197.461 M344.836,409.152c6.238-0.019,12.478-0.04,18.711-0.065
					c-41.845-13.428-83.492-27.072-125.291-40.545c-41.657,13.652-83.536,27.027-125.184,40.689
					c6.793-0.008,13.59-0.014,20.388-0.016c6.571-0.005,13.144-0.006,19.719-0.006c0.226,0,0.454,0,0.679,0c0.291,0,0.581,0,0.872,0
					c9.001,0,18.003,0.004,27.009,0.008c9.295,0.004,18.592,0.008,27.891,0.014c9.375,0.004,18.749,0.01,28.123,0.014
					c9.184,0.004,18.376,0.006,27.556,0.006C292.539,409.25,318.707,409.229,344.836,409.152 M414.659,339.237
					c0-23.976,0-47.96,0-71.937c-22.428-0.112-45.064-0.169-67.702-0.169s-45.275,0.057-67.703,0.169
					C324.43,291.231,369.384,315.415,414.659,339.237 M325.557,181.886c-17.659,0.949-35.332,2.596-52.792,3.757
					c-51.853,3.474-104.168,7.668-155.727,11.25c5.741-0.004,11.482-0.008,17.227-0.01c5.551-0.002,11.106-0.003,16.66-0.003
					c0.19,0,0.383,0,0.574,0c0.309,0,0.618,0,0.927,0c9.271,0,18.54,0.003,27.815,0.007c10.201,0.004,20.405,0.01,30.609,0.016
					c9.507,0.005,19.019,0.01,28.526,0.014c8.97,0.004,17.938,0.007,26.906,0.007c27.051,0,53.097-0.022,79.111-0.1
					c6.217-0.018,12.433-0.04,18.644-0.064c-9.67-3.745-19.232-7.605-28.742-11.53c-0.239-0.044-0.472-0.096-0.699-0.157
					c-0.869-0.23-1.662-0.571-2.431-0.945c-0.212-0.103-0.422-0.208-0.631-0.316c-1.657-0.845-3.264-1.746-5.346-1.901
					C325.983,181.895,325.773,181.886,325.557,181.886 M149.748,181.899c-11.979,4.914-24.144,9.612-36.078,14.58
					c67.583-4.815,135.067-9.737,202.748-14.444C260.769,181.899,205.263,181.899,149.748,181.899 M62.065,309.545
					c-0.001,9.535,0.028,19.037,0.144,28.44c7.37-22.122,15.071-43.874,22.361-66.104c-7.522-1.449-14.919-3.042-22.361-4.581
					c-0.107,0.021-0.129,0.138-0.129,0.278c0.017,3.797,0.022,7.458,0.022,11.124C62.102,288.968,62.066,299.277,62.065,309.545
					 M178.124,179.541c-0.166,0.411-0.527,0.878-0.524,1.382c0.001,0.093,0.014,0.188,0.043,0.283c6.694,0,13.387,0,20.089,0
					c1.364-19.674,3.19-39.546,4.323-59.022C194.283,141.346,185.797,160.515,178.124,179.541"/>
			</g>
			<g>
				<path fill="#CECECE" d="M412.488,339.875c0.631,0,1.156,0.05,1.45,0.199c0.22,0.39-0.001,0.591-0.24,0.964
					c-1.649,2.601-3.966,5.472-5.41,7.506c-14.197,19.988-28.502,41.121-42.69,60.543c-71.05-22.843-141.806-46.018-212.846-68.877
					c57.405-0.136,114.676-0.136,171.964-0.136c1.329,0.192,1.761,0.026,2.157,0c1.052-0.071,2.119-0.118,3.2-0.148
					c1.013-0.027,2.038-0.039,3.069-0.041c2.652,0.006,4.715,0.049,6.776,0.093c2.2,0.047,4.398,0.094,6.562,0.097
					c13.726,0,27.371-0.004,41.144-0.004c6.888,0,13.804,0.001,20.78,0.004C410.05,340.016,411.421,339.875,412.488,339.875z"/>
			</g>
			<g enable-background="new    ">
				<defs>
					<path id="SVGID_2_" enable-background="new    " d="M61.603,340.074H50.308c0-24.443,0-48.888,0-73.332h11.295
						C61.603,291.186,61.603,315.63,61.603,340.074z"/>
				</defs>
				<clipPath id="SVGID_199_">
					<use xlink:href="#SVGID_2_"  overflow="visible"/>
				</clipPath>
				<g clip-path="url(#SVGID_199_)" enable-background="new    ">
					<path d="M61.603,340.074H50.308c0-24.443,0-48.888,0-73.332h11.295C61.603,291.186,61.603,315.63,61.603,340.074"/>
				</g>
			</g>
			<g enable-background="new    ">
				<defs>
					<path id="SVGID_1_" enable-background="new    " d="M113.37,410.016h-11.295c-0.865,0-1.661-0.057-2.338-0.227
						c-0.944-0.244-2.005-2.584-3.128-4.167c-15.303-21.61-31.185-44.209-46.3-65.549h11.295
						c15.116,21.34,30.998,43.938,46.3,65.549c1.123,1.583,2.184,3.923,3.128,4.167C111.709,409.959,112.505,410.016,113.37,410.016
						z"/>
				</defs>
				<clipPath id="SVGID_200_">
					<use xlink:href="#SVGID_1_"  overflow="visible"/>
				</clipPath>
				<g clip-path="url(#SVGID_200_)" enable-background="new    ">
					<path d="M113.37,410.016h-11.295c-0.865,0-1.661-0.057-2.338-0.227c-0.944-0.244-2.005-2.584-3.128-4.167
						c-15.303-21.61-31.185-44.209-46.3-65.549h11.295c15.116,21.34,30.998,43.938,46.3,65.549c1.123,1.583,2.184,3.923,3.128,4.167
						C111.709,409.959,112.505,410.016,113.37,410.016"/>
				</g>
			</g>
		</g>
	</g>
</g>
</svg>
