<?xml version="1.0" encoding="UTF-8"?>
<!-- Generator: Adobe Illustrator 16.0.4, SVG Export Plug-In . SVG Version: 6.00 Build 0)  -->
<svg xmlns="http://www.w3.org/2000/svg" xmlns:xlink="http://www.w3.org/1999/xlink" version="1.1" id="Calque_1" x="0px" y="0px" width="55px" height="55px" viewBox="0 0 55 55" style="enable-background:new 0 0 55 55;" xml:space="preserve">
    <g id="list_1_">
        <path style="fill:#FFFFFF;" d="M44.188,23.995H10.813c-2.305,0-4.172,1.569-4.172,3.505s1.867,3.505,4.172,3.505h33.375   c2.305,0,4.172-1.569,4.172-3.505S46.492,23.995,44.188,23.995z M10.813,17.49h33.375c2.305,0,4.172-1.569,4.172-3.504   c0-1.937-1.867-3.505-4.172-3.505H10.813c-2.305,0-4.172,1.569-4.172,3.505C6.641,15.921,8.508,17.49,10.813,17.49z M44.188,37.51   H10.813c-2.305,0-4.172,1.569-4.172,3.505s1.867,3.505,4.172,3.505h33.375c2.305,0,4.172-1.569,4.172-3.505   S46.492,37.51,44.188,37.51z"/>
</g>
    <g>
</g>
    <g>
</g>
    <g>
</g>
    <g>
</g>
    <g>
</g>
    <g>
</g>
    <g>
</g>
    <g>
</g>
    <g>
</g>
    <g>
</g>
    <g>
</g>
    <g>
</g>
    <g>
</g>
    <g>
</g>
    <g>
</g>
</svg>