<?xml version="1.0" encoding="utf-8"?>
<!-- Generator: Adobe Illustrator 16.0.4, SVG Export Plug-In . SVG Version: 6.00 Build 0)  -->
<!DOCTYPE svg PUBLIC "-//W3C//DTD SVG 1.1//EN" "http://www.w3.org/Graphics/SVG/1.1/DTD/svg11.dtd">
<svg version="1.1" id="Calque_1" xmlns="http://www.w3.org/2000/svg" xmlns:xlink="http://www.w3.org/1999/xlink" x="0px" y="0px"
	 width="200px" height="150px" viewBox="0 0 200 150" enable-background="new 0 0 200 150" xml:space="preserve">
<path fill-rule="evenodd" clip-rule="evenodd" fill="#EB005E" d="M110.515,49.932c0-29.424-0.007-58.849,0.021-88.272
	c0.002-1.338,0.16-2.724,0.537-4.001c0.553-1.872,1.973-2.725,3.809-2.623c1.882,0.105,3.109,1.073,3.513,3.002
	c0.276,1.32,0.458,2.687,0.46,4.034c0.023,30.303,0.016,60.605,0.016,90.907c-0.001,26.945-0.005,53.891,0.011,80.836
	c0.001,1.434,0.099,2.877,0.281,4.299c0.204,1.582-0.042,3.068-0.888,4.369c-1.896,2.916-4.823,3.41-7.032,0.092
	c-0.607-0.912-0.767-2.262-0.771-3.412c-0.036-9.355,0.029-18.709,0.034-28.064c0.01-20.389,0.003-40.777,0.003-61.166
	C110.51,49.932,110.512,49.932,110.515,49.932z"/>
<path fill-rule="evenodd" clip-rule="evenodd" fill="#EB005E" d="M63.517-20.507c8.194-0.094,14.734,6.563,14.591,14.778
	C77.953,3.09,71.526,8.965,63.556,8.903C55.005,8.836,48.769,3.414,48.695-5.94C48.63-14.338,54.877-20.499,63.517-20.507z"/>
<path fill-rule="evenodd" clip-rule="evenodd" fill="#EB005E" d="M135.399,10.176c0,10.16,0.002,20.319-0.004,30.479
	c0,1.039,0.005,2.083-0.084,3.117c-0.188,2.196-1.384,3.562-3.45,4.037c-1.423,0.328-3.69-1.416-4.194-3.273
	c-0.145-0.533-0.202-1.107-0.202-1.662c-0.011-21.759-0.006-43.518-0.019-65.277c-0.001-1.618,0.493-3.02,1.737-4.032
	c2.193-1.784,5.556-0.507,6.024,2.304c0.209,1.252,0.184,2.551,0.186,3.829C135.406-10.143,135.4,0.016,135.399,10.176z"/>
<path fill-rule="evenodd" clip-rule="evenodd" fill="#EB005E" d="M99.163,10.005c0.02,3.842-2.811,7.75-7.771,7.732
	c-4.571-0.017-7.512-3.164-7.764-7.784c-0.222-4.078,3.629-7.76,7.812-7.762C95.644,2.19,99.157,5.745,99.163,10.005z"/>
</svg>
