<?xml version="1.0" encoding="utf-8"?>
<!-- Generator: Adobe Illustrator 16.0.4, SVG Export Plug-In . SVG Version: 6.00 Build 0)  -->
<!DOCTYPE svg PUBLIC "-//W3C//DTD SVG 1.1//EN" "http://www.w3.org/Graphics/SVG/1.1/DTD/svg11.dtd">
<svg version="1.1" id="Calque_1" xmlns="http://www.w3.org/2000/svg" xmlns:xlink="http://www.w3.org/1999/xlink" x="0px" y="0px"
	 width="200px" height="370px" viewBox="0 0 200 370" enable-background="new 0 0 200 370" xml:space="preserve">
<path fill-rule="evenodd" clip-rule="evenodd" fill="#EB005E" d="M93.462,158.114c0,65.436,0.004,130.869-0.028,196.305
	c-0.001,1.318-0.296,2.676-0.682,3.947c-0.523,1.725-2.016,2.178-3.624,2.119c-1.649-0.061-2.982-0.801-3.391-2.508
	c-0.332-1.385-0.602-2.826-0.604-4.242c-0.042-20.559-0.038-41.117-0.039-61.676c-0.003-41.035-0.004-82.072-0.002-123.107
	c0.002-43.197,0.01-86.393,0.012-129.589c0.001-25.518-0.013-51.035,0.02-76.553c0.002-1.659,0.208-3.351,0.583-4.967
	c0.4-1.726,2.098-3.111,3.619-2.969c1.554,0.145,2.976,0.853,3.47,2.5c0.36,1.198,0.638,2.475,0.643,3.717
	c0.047,12.399,0.03,24.798,0.03,37.197c0,53.276,0,106.551,0,159.827C93.466,158.114,93.464,158.114,93.462,158.114z"/>
<path fill-rule="evenodd" clip-rule="evenodd" fill="#EB005E" d="M67.657,17.466c0-15.828-0.002-31.655,0.004-47.483
	c0-1.038-0.02-2.087,0.117-3.112c0.265-1.99,1.819-3.476,3.592-3.565c1.952-0.099,3.494,1.006,3.953,3.095
	c0.289,1.312,0.351,2.694,0.353,4.045c0.022,22.942,0.02,45.884,0.022,68.826c0.001,8.314,0.019,16.627-0.009,24.941
	c-0.005,1.513-0.084,3.043-0.33,4.533c-0.312,1.893-2.162,3.38-3.85,3.311c-1.763-0.073-3.431-1.578-3.696-3.52
	c-0.172-1.26-0.158-2.551-0.159-3.828c-0.009-15.748-0.006-31.496-0.006-47.244C67.651,17.466,67.654,17.466,67.657,17.466z"/>
<path fill-rule="evenodd" clip-rule="evenodd" fill="#EB005E" d="M112.877,9.134c-0.045-7.557,6.209-13.893,13.748-13.89
	c8.059,0.003,13.998,6.786,13.779,13.867c-0.258,8.383-5.859,13.658-13.635,13.746C119.213,22.943,113.229,17.739,112.877,9.134z"/>
<path fill-rule="evenodd" clip-rule="evenodd" fill="#EB005E" d="M118.547,34.183c0.178,3.934-2.871,7.488-7.73,7.83
	c-3.887,0.273-8.1-3.781-7.877-7.765c0.214-3.833,2.867-7.665,7.828-7.751C114.975,26.425,118.768,30.178,118.547,34.183z"/>
</svg>
