<?xml version="1.0" encoding="UTF-8"?>
<!-- Generator: Adobe Illustrator 16.0.4, SVG Export Plug-In . SVG Version: 6.00 Build 0)  -->
<svg xmlns="http://www.w3.org/2000/svg" xmlns:sketch="http://www.bohemiancoding.com/sketch/ns" xmlns:xlink="http://www.w3.org/1999/xlink" version="1.1" id="Calque_1" x="0px" y="0px" width="50px" height="50px" viewBox="0 0 50 50" enable-background="new 0 0 50 50" xml:space="preserve">
    <title/>
    <circle fill="none" stroke="#EB005E" stroke-width="2" stroke-miterlimit="10" cx="25" cy="25" r="23"/>
    <path fill="none" stroke="#EB005E" stroke-width="2" stroke-miterlimit="10" d="M35.075,33.749c0.018-0.094,0.03-0.188,0.045-0.284  v-16.93c-0.015-0.093-0.027-0.186-0.043-0.279c-0.178-0.949-0.926-1.685-1.845-1.816c-0.039-0.005-0.075-0.014-0.113-0.021H16.881  c-0.099,0.019-0.197,0.032-0.293,0.055c-0.897,0.213-1.561,0.969-1.688,1.918c-0.006,0.04-0.014,0.078-0.02,0.118v16.977  c0.019,0.107,0.033,0.216,0.057,0.323c0.198,0.917,0.946,1.628,1.837,1.747c0.043,0.005,0.087,0.015,0.13,0.021h16.193  c0.106-0.019,0.211-0.034,0.315-0.059C34.237,35.339,34.913,34.619,35.075,33.749z"/>
    <path fill="#EB005E" d="M17.069,32.451c0,0.449,0.373,0.838,0.804,0.838c4.75,0,9.5,0,14.25,0c0.435,0,0.806-0.387,0.806-0.841  c0.001-3.127,0-6.255,0-9.382v-0.065h-1.933c0.273,0.912,0.357,1.839,0.249,2.784c-0.108,0.944-0.399,1.824-0.873,2.636  c-0.475,0.814-1.092,1.488-1.844,2.023c-1.953,1.391-4.525,1.515-6.599,0.298c-1.048-0.614-1.87-1.471-2.444-2.574  c-0.855-1.647-0.993-3.376-0.49-5.169c-0.642,0-1.28,0-1.927,0v0.057C17.069,26.188,17.069,29.319,17.069,32.451z"/>
    <path fill="#EB005E" d="M24.906,29.285c2.291,0.052,4.144-1.863,4.193-4.191c0.05-2.4-1.803-4.384-4.1-4.382  c-2.244-0.002-4.068,1.887-4.102,4.223C20.866,27.334,22.703,29.235,24.906,29.285z"/>
    <path fill="#EB005E" d="M32.928,19.002c0.001-0.668,0.001-1.336,0-2.004c0-0.479-0.363-0.861-0.819-0.861  c-0.638,0-1.275-0.001-1.912,0c-0.458,0-0.822,0.383-0.822,0.862c0,0.662-0.001,1.325,0.002,1.987  c0.001,0.098,0.02,0.202,0.05,0.295c0.115,0.353,0.424,0.568,0.802,0.571c0.307,0,0.616,0,0.923,0  c0.332-0.004,0.667,0.002,0.999-0.006C32.579,19.836,32.928,19.451,32.928,19.002z"/>
</svg>