<?xml version="1.0" encoding="iso-8859-1"?>
<!-- Generator: Adobe Illustrator 16.0.4, SVG Export Plug-In . SVG Version: 6.00 Build 0)  -->
<!DOCTYPE svg PUBLIC "-//W3C//DTD SVG 1.1//EN" "http://www.w3.org/Graphics/SVG/1.1/DTD/svg11.dtd">
<svg version="1.1" id="Calque_1" xmlns="http://www.w3.org/2000/svg" xmlns:xlink="http://www.w3.org/1999/xlink" x="0px" y="0px"
	 width="300px" height="230px" viewBox="0 0 300 230" style="enable-background:new 0 0 300 230;" xml:space="preserve">
<g>
	<path style="fill-rule:evenodd;clip-rule:evenodd;fill:#000001;" d="M281.113,206.695c-0.06-3.076-0.118-6.155-0.18-9.232
		c0.035-0.142,0.096-0.283,0.101-0.426c0.034-1.362,0.072-2.729,0.091-4.095c0.087-6.231,0.178-12.46,0.243-18.692
		c0.025-2.582-0.007-5.164-0.019-7.748c-0.02-5.529-0.028-11.059-0.063-16.587c-0.03-4.526-0.091-9.054-0.126-13.579
		c-0.012-1.608,0.883-2.872,2.383-3.451c0.215-0.082,0.425-0.178,0.638-0.267c0.598-0.012,1.197-0.022,1.794-0.035
		c0.215,0.08,0.43,0.161,0.646,0.236c1.256,0.432,2.075,1.283,2.434,2.565c0.078,0.282,0.133,0.569,0.198,0.855
		c0.014,0.727,0.028,1.454,0.041,2.18c-0.03,0.248-0.091,0.498-0.091,0.745c0.028,4.015,0.077,8.029,0.096,12.043
		c0.025,5.188,0.025,10.376,0.046,15.564c0.017,3.631,0.07,7.262,0.075,10.89c0.005,3.587-0.005,7.172-0.054,10.759
		c-0.052,3.799-0.154,7.597-0.238,11.395c-0.114,5.205,0.175,10.366,1.42,15.447c0.146,0.601,0.144,1.289,0.019,1.896
		c-0.388,1.814-2.208,3.138-4.179,3.137c-1.852-0.004-3.217-1.081-3.609-3.084c-0.523-2.675-0.927-5.376-1.364-8.068
		C281.284,208.332,281.212,207.511,281.113,206.695z"/>
	<path style="fill-rule:evenodd;clip-rule:evenodd;fill:#000001;" d="M271.841,145.225c0-0.728,0-1.454,0-2.182
		c0.338-0.905,0.816-1.702,1.731-2.142c0.316-0.152,0.643-0.283,0.961-0.422c0.644,0,1.281,0,1.925,0
		c0.088,0.047,0.17,0.111,0.265,0.139c1.818,0.539,2.965,1.717,3.146,3.619c0.168,1.739,0.238,3.495,0.234,5.244
		c-0.006,2.239-0.115,4.479-0.203,6.718c-0.186,4.746-0.163,9.47,0.975,14.132c0.313,1.268-0.027,2.521-1.081,3.367
		c-0.678,0.542-1.534,0.863-2.312,1.283c-0.555,0-1.11,0-1.667,0c-0.066-0.046-0.125-0.111-0.198-0.133
		c-1.386-0.396-2.261-1.325-2.534-2.704c-0.387-1.964-0.681-3.948-0.963-5.931c-0.149-1.044-0.189-2.105-0.278-3.16
		c0-1.627,0-3.25,0-4.875c0.035-0.096,0.101-0.192,0.104-0.288c0.047-3.344,0.109-6.685,0.12-10.027
		C272.068,146.983,271.921,146.104,271.841,145.225z"/>
	<path style="fill-rule:evenodd;clip-rule:evenodd;fill:#000001;" d="M114.142,9.704c0.853,0,1.705,0,2.559,0
		c0.481,0.146,0.969,0.278,1.446,0.439c3.495,1.178,5.723,3.552,6.726,7.102c3.388,11.987,7.961,23.488,14.006,34.393
		c4.754,8.578,10.094,16.73,16.96,23.806c1.861,1.92,2.754,4.315,2.718,6.971c-0.043,3.201-1.383,5.811-3.966,7.745
		c-0.128,0.094-0.291,0.137-0.437,0.205c0.056,0.071,0.111,0.144,0.168,0.214c0.249-0.039,0.499-0.064,0.744-0.118
		c0.969-0.213,1.938-0.423,2.904-0.657c1.461-0.353,2.926-0.413,4.395-0.115c0.796,0.161,1.576,0.41,2.38,0.623
		c0.153-0.166,0.306-0.335,0.459-0.501c1.012-1.099,2.17-2.002,3.521-2.648c3.712-1.765,7.596-2.26,11.622-1.462
		c5.056,1.001,9.438,3.352,13.261,6.778c0.399,0.356,0.786,0.728,1.133,1.052c0.106,0,0.137,0.01,0.158-0.002
		c0.2-0.109,0.395-0.23,0.593-0.338c2.009-1.094,4.133-1.54,6.41-1.134c2.138,0.383,3.931,1.438,5.542,2.836
		c4.083,3.543,7.929,7.326,11.667,11.224c0.211,0.217,0.438,0.415,0.712,0.668c0.031-0.181,0.07-0.264,0.053-0.334
		c-0.354-1.609-0.704-3.219-1.089-4.817c-0.061-0.25-0.262-0.506-0.467-0.679c-3.188-2.666-4.598-7.266-2.682-11.504
		c0.161-0.36,0.202-0.695,0.089-1.069c-0.107-0.353-0.18-0.715-0.269-1.072c-0.397-1.597-0.44-3.198-0.095-4.813
		c1.02-4.777,5.351-8.19,10.452-7.667c3.513,0.362,7.618,2.869,8.567,7.399c0.077,0.355,0.186,0.702,0.281,1.059
		c0.2,0,0.341,0.007,0.478,0c3.998-0.243,7.984-0.607,11.936-1.265c4.937-0.824,9.808-1.904,14.557-3.496
		c1.748-0.586,3.478-1.234,5.229-1.809c1.4-0.46,2.842-0.542,4.289-0.257c6.204,1.224,9.63,7.835,7.067,13.626
		c-0.11,0.247-0.205,0.5-0.348,0.852c0.511-0.046,0.912-0.038,1.292-0.124c1.162-0.266,2.327-0.527,3.469-0.86
		c1.651-0.482,3.3-0.545,4.957-0.079c4.878,1.375,8.505,5.895,7.104,11.923c-0.772,3.325-3.011,5.554-6.164,6.787
		c-1.208,0.473-2.507,0.716-3.767,1.053c-0.427,0.115-0.863,0.19-1.426,0.312c1.564,1.893,2.477,3.94,2.48,6.299
		c0.008,2.345-0.704,4.5-2.011,6.45c0.139,0.071,0.188,0.107,0.239,0.121c0.166,0.046,0.332,0.085,0.497,0.121
		c1.863,0.408,3.455,1.29,4.684,2.755c0.731,0.871,1.455,1.752,2.09,2.691c1.3,1.924,2.007,4.049,2.091,6.388
		c0.138,3.896-1.486,7.061-4.062,9.797c-1.716,1.827-3.961,2.83-6.304,3.596c-2.413,0.788-4.902,1.194-7.428,1.42
		c-3.153,0.283-6.3,0.244-9.422-0.321c-1.055-0.191-2.099-0.438-3.125-0.655c-0.365,0.476-0.678,0.916-1.022,1.327
		c-3.049,3.63-8.021,4.584-12.097,2.293c-2.385-1.344-3.93-3.394-4.814-5.964c-0.154-0.443-0.306-0.887-0.451-1.31
		c-0.133,0.022-0.165,0.019-0.184,0.032c-0.183,0.139-0.354,0.282-0.532,0.422c-2.928,2.302-6.122,2.819-9.603,1.452
		c-1.388-0.545-2.639-1.328-3.784-2.272c-1.929-1.591-3.828-3.214-5.744-4.821c-0.178-0.149-0.372-0.276-0.619-0.458
		c-0.058,0.616-0.069,1.102-0.158,1.57c-0.789,4.176-3.958,7.217-8.169,7.816c-0.861,0.124-1.738,0.139-2.646,0.204
		c0,0.155-0.011,0.293,0.003,0.43c0.286,2.575-0.416,4.893-1.865,7.001c-2.208,3.206-5.982,4.749-9.661,3.959
		c-2.803-0.603-4.937-2.218-6.629-4.473c-1.271-1.697-2.17-3.595-3.008-5.524c-0.099-0.234-0.229-0.456-0.43-0.847
		c-0.617,2.6-1.836,4.566-3.798,6.045c-1.965,1.475-4.202,2.058-6.73,1.915c0.106,0.385,0.176,0.685,0.271,0.975
		c0.473,1.43,0.946,2.855,1.427,4.28c0.404,1.199,0.616,2.414,0.456,3.687c-0.317,2.51-1.483,4.563-3.307,6.273
		c-3.559,3.338-8.959,3.467-12.663,0.302c-1.57-1.345-2.671-3.016-3.347-4.956c-0.553-1.58-1.055-3.181-1.576-4.771
		c-0.095-0.289-0.193-0.574-0.321-0.967c-0.239,0.294-0.395,0.49-0.556,0.678c-2.312,2.765-5.27,3.923-8.843,3.562
		c-1.855-0.189-3.505-0.902-5.041-1.924c-0.32-0.211-0.647-0.419-1.079-0.699c0.155,1.16,0.329,2.168,0.413,3.18
		c0.07,0.875,0.204,1.791,0.021,2.627c-1.307,6.004-7.175,9.264-12.571,7.555c-3.976-1.259-6.123-4.092-6.775-8.168
		c-0.658-4.119-1.373-8.229-2.084-12.342c-0.185-1.084-0.449-2.154-0.67-3.202c-0.949-0.152-3.441-0.042-4.051,0.178
		c0.442,1.344,0.875,2.69,1.331,4.032c0.483,1.429,0.607,2.876,0.343,4.365c-0.928,5.218-6.33,9.606-12.397,7.846
		c-0.24-0.07-0.482-0.137-0.734-0.207c-0.105,0.142-0.195,0.249-0.268,0.368c-1.291,2.077-2.952,3.814-4.883,5.299
		c-2.718,2.093-5.77,3.374-9.199,3.693c-2.476,0.231-4.865-0.252-7.219-0.938c-2.986-0.871-5.46-2.617-7.759-4.644
		c-0.207-0.182-0.422-0.354-0.687-0.574c-0.121,0.297-0.217,0.526-0.307,0.758c-1.315,3.409-3.64,5.631-7.34,6.232
		c-0.129,0.021-0.248,0.108-0.37,0.164c-1.422,0-2.842,0-4.264,0c-0.129-0.053-0.255-0.132-0.391-0.15
		c-1.845-0.259-3.587-0.853-5.264-1.643c-3.118-1.466-5.831-3.519-8.336-5.853c-0.429-0.398-0.755-0.433-1.27-0.24
		c-3.225,1.2-6.577,1.768-10.005,1.834c-3.254,0.063-6.459-0.349-9.597-1.234c-7.524-2.125-13.649-6.267-18.372-12.535
		c-4.969-6.598-7.86-13.954-8.527-22.188c-0.041-0.498-0.206-0.985-0.313-1.477c0-1.876,0-3.752,0-5.628
		c0.05-0.161,0.124-0.317,0.146-0.482c0.188-1.349,0.334-2.706,0.55-4.05c0.991-6.17,3.228-11.805,7.199-16.697
		c2.202-2.711,4.657-5.136,7.74-6.84c3.811-2.105,7.911-3.301,12.243-3.6c6.11-0.422,12.004,0.507,17.593,3.102
		c0.19,0.088,0.393,0.148,0.692,0.258c-0.116-0.18-0.152-0.258-0.208-0.323c-2.686-3.071-4.867-6.499-6.918-10.007
		c-3.173-5.429-5.754-11.148-8.233-16.914c-2.367-5.511-4.482-11.115-5.942-16.937c-0.936-3.73-0.048-7.033,2.72-9.764
		c3.719-3.67,10.422-3.458,13.796,0.358c4.8,5.429,9.862,10.613,15.065,15.656c0.585,0.566,1.187,1.119,1.9,1.79
		c0.051-0.488,0.112-0.817,0.118-1.146c0.042-1.902,0.116-3.805,0.094-5.708c-0.041-3.35-0.117-6.701-0.226-10.048
		c-0.119-3.661-0.344-7.318-0.431-10.977c-0.085-3.636-0.127-7.274-0.058-10.91c0.044-2.407,0.192-4.826,0.518-7.211
		c0.355-2.619,1.629-4.831,3.728-6.492c3.096-2.454,7.489-2.642,11.033-0.477c2.313,1.414,3.9,3.356,4.341,6.114
		c0.128,0.811,0.311,1.616,0.477,2.422c0.183,0.892,0.374,1.782,0.561,2.673c0.229-0.172,0.321-0.34,0.397-0.513
		c0.535-1.246,1.275-2.348,2.294-3.244c2.615-2.296,5.652-2.922,8.985-2.122c2.859,0.686,4.981,2.278,6.268,5.029
		c1.465,3.136,3.107,6.19,4.679,9.275c0.107,0.212,0.26,0.402,0.472,0.724c0-0.448,0.019-0.724-0.002-1
		c-0.147-1.896-0.307-3.79-0.456-5.688c-0.193-2.462-0.358-4.928-0.578-7.388c-0.153-1.724,0.139-3.347,0.998-4.841
		c1.442-2.507,3.593-4.127,6.368-4.923C113.328,9.938,113.736,9.821,114.142,9.704z M99.694,93.511
		c-0.701,0.63-1.292,1.25-1.968,1.753c-2.407,1.791-5.14,2.194-8.016,1.643c-3.104-0.596-5.392-2.263-6.6-5.287
		c-0.768-1.924-1.621-3.815-2.438-5.719c-0.11-0.252-0.237-0.5-0.399-0.843c-0.116,0.309-0.194,0.519-0.271,0.729
		c-0.379,1.039-0.682,2.113-1.151,3.11c-1.433,3.04-3.758,5.006-7.115,5.637c-0.493,0.094-1.001,0.124-1.569,0.192
		c0.886,3.085,0.56,6.007-1.061,8.727c-1.652,2.774-4.235,4.158-7.488,4.612c0.21,0.19,0.302,0.291,0.409,0.366
		c1.3,0.915,2.306,2.088,3.124,3.443c2.047,3.383,3.86,6.884,5.312,10.566c0.091,0.229,0.205,0.451,0.312,0.689
		c2.819,0.007,5.234,0.987,7.327,2.909c0.35-1.394,0.823-2.606,1.589-3.686c2.719-3.828,7.371-4.88,11.456-3.459
		c0.304,0.107,0.604,0.223,0.996,0.37c-0.019-0.425-0.02-0.706-0.045-0.984c-0.338-3.83-0.405-7.65,0.234-11.462
		c0.861-5.143,3.535-9.078,7.895-11.9c0.153-0.1,0.29-0.226,0.456-0.357C100.33,94.187,100.02,93.858,99.694,93.511z
		 M54.192,139.612c0.037-0.281,0.077-0.41,0.068-0.539c-0.084-1.213-0.088-2.442-0.284-3.64c-0.344-2.105-1.019-4.129-1.765-6.123
		c-0.161-0.428-0.403-0.692-0.85-0.862c-1.404-0.533-2.618-1.383-3.566-2.547c-0.569-0.7-1.024-1.497-1.501-2.265
		c-1.167-1.882-2.817-3.154-4.87-3.941c-2.557-0.977-5.214-1.062-7.89-0.836c-1.527,0.129-2.925,0.688-4.097,1.714
		c-1.576,1.383-2.583,3.148-3.314,5.083c-1.163,3.071-1.553,6.265-1.41,9.534c0.148,3.415,0.902,6.686,2.428,9.751
		c1.871,3.761,4.698,6.578,8.516,8.371c0.815,0.383,1.662,0.666,2.564,0.808c0-0.116,0.018-0.179-0.003-0.223
		c-0.176-0.389-0.359-0.772-0.538-1.159c-1.442-3.083-2.244-6.295-1.981-9.729c0.24-3.136,1.637-5.579,4.321-7.228
		c5.138-3.153,11.28-1.416,13.855,3.38C53.935,139.274,54.021,139.372,54.192,139.612z M113.999,94.548
		c3.66,1.475,6.9,3.516,9.723,6.133c3.911-2.746,5.351-3.562,8.538-4.789c2.866-1.103,5.817-1.928,8.804-2.621
		c1.928-0.448,3.868-0.841,5.91-1.284c-0.209-0.101-0.324-0.182-0.453-0.21c-2.168-0.474-3.839-1.701-5.332-3.305
		c-4.695-5.043-8.947-10.43-12.785-16.146c-0.148-0.221-0.313-0.431-0.522-0.718c-1.246,2.923-3.346,4.777-6.195,5.755
		c-2.869,0.986-5.674,0.785-8.488-0.871c0.157,0.451,0.224,0.72,0.339,0.968c0.79,1.696,1.571,3.398,2.391,5.082
		c1.826,3.754,1.462,8.323-1.522,11.503C114.276,94.187,114.163,94.343,113.999,94.548z M138.928,114.321
		c0.967,2.431,7.296,12.403,8.281,13.053c2.268-5.303,4.14-10.714,5.196-16.529C147.763,111.744,143.296,112.725,138.928,114.321z
		 M119.779,134.012c-2.004-6.307-4.316-12.265-8.12-17.547c0.458,5.992,1.858,11.785,3.298,17.547
		C116.582,134.012,118.105,134.012,119.779,134.012z M186.232,122.865c-0.025-0.222-0.029-0.334-0.053-0.441
		c-0.563-2.487-1.081-4.987-1.706-7.459c-0.596-2.343-1.44-4.6-2.806-6.631c-0.36-0.534-0.779-1.001-1.333-1.437
		c-0.229,2.127,2.548,14.715,3.569,16.312C184.644,123.1,185.396,122.988,186.232,122.865z M91.575,156.965
		c-1.414-5.625-4.396-10.5-7.396-15.364C85.904,147.074,88.247,152.254,91.575,156.965z M272.588,130.1
		c0.462-1.074,0.896-2.077,1.372-3.184c-1.505,0.334-2.934,0.649-4.388,0.972c0,0.752,0,1.445,0,2.212
		C270.633,130.1,271.614,130.1,272.588,130.1z M254.666,106.928c0.071,0.003,0.143,0.008,0.215,0.014
		c0.706-2.18,1.116-4.426,1.47-6.803c-0.8,0.171-1.5,0.321-2.282,0.489C254.271,102.787,254.471,104.857,254.666,106.928z
		 M67.666,159.131c1.005,0.603,1.722,1.538,3.101,1.474c-0.601-1.239-1.157-2.382-1.775-3.654
		C68.516,157.731,68.124,158.379,67.666,159.131z"/>
	<path style="fill-rule:evenodd;clip-rule:evenodd;fill:#FFFFFF;" d="M9.481,132.22c0.119-0.608,0.297-1.209,0.35-1.82
		c0.368-4.136,1.293-8.13,3.073-11.894c2.414-5.11,6.001-9.145,11.042-11.793c2.979-1.567,6.175-2.393,9.536-2.634
		c5.14-0.365,10.074,0.445,14.787,2.535c2.406,1.067,4.602,2.474,6.549,4.247c0.444,0.404,0.871,0.609,1.503,0.592
		c2.006-0.053,3.588,0.829,4.648,2.512c2.704,4.293,4.951,8.807,6.493,13.654c0.135,0.427,0.287,0.844,0.453,1.329
		c0.241-0.114,0.416-0.191,0.583-0.282c3.147-1.715,6.777-0.159,7.798,3.301c0.995,3.376,1.987,6.753,3.085,10.094
		c1.697,5.161,3.768,10.167,6.526,14.868c1.285,2.188,2.672,4.305,4.623,5.967c0.575,0.491,1.239,0.922,1.929,1.223
		c1.055,0.464,2.781-0.147,3.487-1.135c0.421-0.587,0.673-1.244,0.742-1.97c0.143-1.488-0.071-2.943-0.442-4.381
		c-0.602-2.345-1.422-4.607-2.437-6.805c-2.044-4.416-4.555-8.572-7.083-12.72c-1.225-2.013-2.425-4.043-3.562-6.106
		c-0.972-1.766-0.978-3.604,0.021-5.374c1.888-3.355,6.995-3.442,8.962-0.15c2.591,4.341,5.142,8.706,7.71,13.061
		c0.241,0.404,0.48,0.812,0.72,1.217c0.059-0.022,0.119-0.045,0.18-0.068c-0.081-0.343-0.162-0.687-0.243-1.028
		c-0.792-3.314-1.648-6.612-2.357-9.942c-0.977-4.587-1.592-9.227-1.704-13.93c-0.062-2.619-0.014-5.223,0.562-7.792
		c0.603-2.689,1.85-5.011,4.056-6.717c3.219-2.49,6.795-2.842,10.558-1.533c4.621,1.608,8.44,4.388,11.55,8.152
		c0.194,0.238,0.394,0.474,0.746,0.897c0.115-0.228,0.177-0.385,0.269-0.526c1.597-2.415,3.818-4.094,6.349-5.414
		c2.966-1.546,6.147-2.496,9.36-3.351c4.009-1.063,8.093-1.773,12.161-2.565c2.339-0.456,4.67-0.952,6.997-1.467
		c1.171-0.259,2.312-0.255,3.435,0.161c1.281,0.473,2.224,1.34,2.839,2.562c0.149,0.294,0.314,0.576,0.562,1.027
		c0.168-0.43,0.272-0.677,0.364-0.929c0.478-1.315,1.084-2.56,1.964-3.662c1.582-1.979,3.734-2.907,6.154-3.314
		c3.497-0.585,6.763,0.259,9.93,1.671c4.214,1.881,7.569,4.764,10.099,8.62c0.193,0.296,0.401,0.588,0.679,0.993
		c0.14-0.397,0.226-0.63,0.3-0.866c1.227-3.934,5.493-5.22,8.643-2.564c1.606,1.354,3.151,2.782,4.685,4.223
		c4.759,4.482,9.223,9.258,13.728,13.99c1.627,1.708,3.268,3.401,4.907,5.097c0.169,0.172,0.367,0.318,0.71,0.616
		c-0.072-0.47-0.098-0.737-0.156-1c-1.631-7.08-3.265-14.157-4.896-21.236c-0.052-0.222-0.115-0.44-0.154-0.665
		c-0.059-0.337-0.236-0.548-0.553-0.691c-2.771-1.241-3.576-5.15-1.995-7.725c0.33-0.539,0.382-1.006,0.23-1.595
		c-0.313-1.208-0.626-2.423-0.811-3.656c-0.388-2.554,1.301-5.298,4.152-5.868c2.639-0.527,5.397,1.109,6.089,3.702
		c0.356,1.343,0.658,2.703,0.99,4.051c0.065,0.27,0.148,0.535,0.228,0.815c0.791,0,1.529,0.051,2.258-0.009
		c3.735-0.315,7.481-0.54,11.197-1.021c7.42-0.963,14.711-2.532,21.703-5.284c1.179-0.464,2.369-0.76,3.65-0.674
		c2.216,0.145,4.105,1.826,4.453,4.025c0.149,0.933,0.137,1.867-0.117,2.788c-0.399,1.432-1.253,2.433-2.651,3.008
		c-5.713,2.358-11.613,4.087-17.672,5.299c-1.276,0.256-2.565,0.464-3.852,0.705c-0.189,0.035-0.368,0.116-0.628,0.199
		c0.063,9.897,2.085,19.433,4.95,28.981c0.141-0.199,0.231-0.271,0.244-0.353c0.478-4.287,1.747-8.379,3.064-12.461
		c1.062-3.296,2.104-6.599,2.688-10.023c0.021-0.14,0.055-0.28,0.066-0.42c0.149-1.764,1.146-2.898,2.67-3.675
		c0.364-0.187,0.72-0.45,0.991-0.752c0.8-0.88,1.764-1.438,2.936-1.59c2.305-0.301,4.614-0.625,6.929-0.834
		c3.37-0.304,6.722-0.618,9.993-1.565c2.692-0.78,5.593,1.004,6.265,3.704c0.032,0.125,0.133,0.233,0.203,0.35
		c0,0.682,0,1.363,0,2.046c-0.063,0.09-0.164,0.174-0.18,0.273c-0.207,1.184-0.891,2.071-1.777,2.823
		c-0.799,0.677-1.769,1.002-2.762,1.272c-3.111,0.846-6.301,1.158-9.505,1.401c-1.726,0.133-3.446,0.342-5.17,0.495
		c-0.481,0.042-0.673,0.275-0.78,0.729c-0.353,1.462-0.754,2.911-1.124,4.368c-0.059,0.229-0.073,0.47-0.122,0.794
		c1.364-0.278,2.606-0.556,3.857-0.78c1.394-0.25,2.781-0.565,4.222-0.26c1.938,0.412,3.345,1.467,3.9,3.39
		c0.628,2.165,0.105,4.101-1.493,5.713c-0.557,0.56-1.254,0.872-2.022,1.028c-2.975,0.61-5.948,1.222-8.924,1.826
		c-0.997,0.205-1.991,0.4-3.049,0.611c-0.154,0.909-0.345,1.768-0.44,2.638c-0.169,1.527-0.21,3.064,0.072,4.585
		c0.381,2.041,1.096,2.745,3.136,3.119c2.428,0.446,4.866,0.352,7.299,0.063c0.521-0.061,1.024-0.228,1.48-0.334
		c-0.051-0.777-0.159-1.432-0.121-2.078c0.125-2.18,1.269-3.697,3.275-4.457c2.008-0.757,3.957-0.569,5.522,1.028
		c0.784,0.803,1.441,1.756,2.047,2.712c0.774,1.229,1.104,2.626,1.005,4.073c-0.226,3.351-1.812,5.86-4.807,7.424
		c-0.729,0.382-1.487,0.729-2.269,0.969c-4.997,1.529-10.087,1.91-15.238,0.989c-2.299-0.41-4.534-1.079-6.467-2.481
		c-0.059-0.037-0.157-0.014-0.289-0.027c0.014,0.194,0.041,0.354,0.039,0.519c-0.017,0.675,0.065,1.372-0.077,2.019
		c-0.64,2.892-3.627,4.695-6.465,3.919c-1.939-0.529-3.16-1.865-3.78-3.728c-2.246-6.73-4.449-13.477-6.261-20.344
		c-1.236-4.696-2.298-9.429-3.053-14.229c-0.595-3.82-1.023-7.654-1.174-11.519c-0.024-0.739-0.088-0.789-0.788-0.74
		c-0.679,0.045-1.36,0.084-2.042,0.133c-0.839,0.063-1.679,0.135-2.58,0.208c0.063,0.366,0.102,0.644,0.162,0.917
		c0.423,1.883,0.852,3.764,1.281,5.646c1.916,8.384,3.855,16.761,6.08,25.068c0.59,2.193,1.248,4.369,1.759,6.579
		c0.493,2.139-0.235,3.947-1.943,5.286c-1.682,1.316-3.557,1.421-5.441,0.451c-0.801-0.414-1.544-0.962-2.252-1.521
		c-5.757-4.565-10.964-9.726-16.036-15.023c-2.73-2.852-5.446-5.718-8.175-8.577c-0.247-0.259-0.519-0.499-0.801-0.772
		c-0.065,0.145-0.114,0.201-0.103,0.242c0.039,0.193,0.087,0.388,0.151,0.57c2.423,6.571,5.476,12.784,10.095,18.136
		c1.16,1.35,1.589,2.952,1.216,4.696c-0.439,2.053-1.748,3.37-3.75,3.894c-2.053,0.535-3.868,0.074-5.327-1.57
		c-2.119-2.39-3.98-4.964-5.628-7.692c-0.153-0.254-0.334-0.491-0.518-0.768c-0.217,0.186-0.334,0.314-0.477,0.401
		c-0.54,0.335-0.642,0.764-0.462,1.376c0.25,0.843,0.375,1.721,0.582,2.574c0.836,3.438,1.924,6.771,4.04,9.685
		c0.798,1.099,0.878,2.369,0.558,3.673c-0.604,2.438-2.622,4.13-4.979,4.16c-1.846,0.021-3.31-0.797-4.411-2.198
		c-0.718-0.908-1.332-1.913-1.877-2.938c-1.719-3.228-2.849-6.677-3.677-10.229c-0.27-1.153-0.516-2.315-0.789-3.557
		c-2.956,0.407-5.86,0.792-8.802,1.387c0.125,0.376,0.202,0.646,0.304,0.908c0.839,2.142,1.687,4.277,2.52,6.422
		c0.163,0.42,0.33,0.853,0.401,1.296c0.332,2.103-0.978,4.367-3.114,5.375c-1.84,0.867-4.182,0.662-5.85-1.14
		c-0.748-0.809-1.258-1.752-1.641-2.772c-1.787-4.812-3.572-9.63-5.356-14.446c-0.137-0.365-0.272-0.73-0.408-1.098
		c-0.095,0.36-0.041,0.682,0.032,1.002c0.659,2.904,1.349,5.803,1.975,8.717c1.548,7.187,3.073,14.378,5.581,21.314
		c0.329,0.911,0.32,1.836,0.049,2.764c-1.027,3.524-5.165,5.042-8.078,2.96c-1.079-0.772-1.759-1.836-2.202-3.069
		c-1.474-4.091-2.634-8.276-3.6-12.513c-1.109-4.87-2.164-9.752-3.247-14.631c-0.072-0.315-0.165-0.63-0.291-1.096
		c-0.312,0.311-0.519,0.49-0.694,0.693c-0.985,1.141-1.945,2.301-2.948,3.423c-1.411,1.588-2.676,3.321-4.516,4.495
		c0.031,0.166,0.026,0.318,0.087,0.437c0.54,1.062,1.063,2.133,1.643,3.172c0.381,0.682,0.976,1.183,1.654,1.562
		c2.049,1.146,2.837,2.95,2.656,5.209c-0.205,2.608-2.392,4.588-5.018,4.647c-1.525,0.036-2.817-0.55-4.032-1.388
		c-2.383-1.639-4.104-3.858-5.3-6.441c-1.214-2.625-2.217-5.348-3.358-8.006c-0.404-0.933-0.945-1.806-1.435-2.698
		c-0.089-0.16-0.244-0.283-0.446-0.517c-0.049,0.282-0.073,0.438-0.103,0.592c-0.115,0.584-0.159,1.198-0.37,1.743
		c-0.199,0.514-0.178,0.981-0.068,1.487c0.334,1.523,0.671,3.048,0.983,4.578c1.017,4.979,1.83,9.996,2.5,15.033
		c0.114,0.864,0.254,1.776,0.103,2.614c-0.446,2.473-3.317,4.392-5.837,4.043c-2.336-0.325-3.685-1.754-4.339-3.912
		c-0.219-0.729-0.292-1.504-0.404-2.26c-0.795-5.335-1.772-10.641-2.912-15.912c-0.16-0.74-0.35-1.472-0.544-2.285
		c-1.575,0.054-3.075,0.101-4.574,0.154c-1.533,0.055-3.067,0.103-4.598,0.186c-1.486,0.079-2.982-0.003-4.57,0.148
		c0.136,0.497,0.225,0.878,0.345,1.246c0.903,2.782,1.798,5.566,2.728,8.336c0.241,0.719,0.33,1.436,0.284,2.18
		c-0.177,2.824-3.106,5.188-5.896,4.757c-2.208-0.341-3.611-1.647-4.418-3.675c-0.117-0.295-0.11-0.661-0.5-0.925
		c-0.046,0.233-0.089,0.385-0.104,0.542c-0.448,4.926-2.945,8.558-7.077,11.135c-1.532,0.954-3.214,1.554-5.03,1.729
		c-2.835,0.27-5.474-0.409-7.972-1.688c-2.945-1.506-5.252-3.759-7.251-6.352c-2.475-3.209-4.432-6.729-6.174-10.378
		c-1.677-3.516-3.071-7.144-4.312-10.832c-0.094-0.275-0.222-0.536-0.334-0.805c-1.339,5.627-3.691,10.676-7.245,15.122
		c0.076,0.139,0.101,0.228,0.158,0.283c1.673,1.67,3.411,3.261,5.466,4.461c0.843,0.49,1.72,0.75,2.735,0.756
		c2.727,0.018,4.874,2.118,5.04,4.805c0.149,2.426-1.33,5.131-4.314,5.574c-1.214,0.179-2.432,0.178-3.647-0.031
		c-2.373-0.408-4.509-1.399-6.415-2.822c-1.843-1.376-3.588-2.879-5.353-4.352c-0.65-0.544-1.235-1.165-1.863-1.764
		c-0.268,0.118-0.503,0.211-0.729,0.322c-3.412,1.699-7.033,2.56-10.833,2.648c-5.501,0.129-10.627-1.235-15.409-3.932
		c-6.175-3.483-10.396-8.71-13.356-15.04c-1.957-4.184-3.079-8.591-3.434-13.198c-0.038-0.494-0.222-0.979-0.337-1.465
		C9.481,134.834,9.481,133.526,9.481,132.22z M46.308,158.426c-0.005-0.104,0.012-0.173-0.014-0.213
		c-0.166-0.265-0.334-0.527-0.514-0.781c-1.781-2.54-3.421-5.156-4.623-8.03c-0.756-1.812-1.106-3.689-0.948-5.655
		c0.119-1.494,0.698-2.749,1.936-3.635c1.7-1.214,3.563-1.504,5.48-0.651c1.911,0.852,2.856,2.444,2.987,4.51
		c0.045,0.696,0.184,1.355,0.534,1.951c1.022,1.737,2.061,3.462,3.101,5.187c0.096,0.16,0.25,0.284,0.45,0.503
		c0.208-0.312,0.399-0.55,0.543-0.812c0.528-0.975,1.083-1.933,1.55-2.938c1.876-4.024,2.473-8.23,1.733-12.619
		c-0.546-3.243-1.654-6.304-2.983-9.297c-0.28-0.631-0.627-0.966-1.339-1.074c-1.578-0.242-2.767-1.113-3.558-2.512
		c-0.155-0.271-0.313-0.54-0.474-0.807c-1.625-2.716-3.981-4.575-6.89-5.708c-3.576-1.394-7.292-1.631-11.062-1.045
		c-3.359,0.524-5.932,2.334-7.893,5.042c-2.324,3.213-3.439,6.899-3.923,10.77c-0.481,3.866-0.184,7.698,0.815,11.483
		c0.993,3.772,2.667,7.17,5.244,10.106c2.404,2.739,5.29,4.805,8.728,6.046c2.652,0.959,5.384,1.393,8.202,0.943
		C44.39,159.031,45.397,158.876,46.308,158.426z M157.061,105.753c-0.272,0.012-0.415,0-0.55,0.025
		c-3.479,0.687-6.965,1.331-10.433,2.077c-3.023,0.65-6.021,1.434-8.883,2.633c-1.12,0.469-2.183,1.081-3.24,1.684
		c-0.631,0.36-0.663,0.515-0.447,1.191c0.217,0.676,0.432,1.361,0.747,1.992c0.83,1.644,1.662,3.293,2.585,4.888
		c3.207,5.537,6.99,10.693,10.628,15.941c0.101,0.146,0.261,0.251,0.392,0.376c0.085-0.089,0.137-0.125,0.16-0.172
		c0.466-0.908,0.937-1.814,1.387-2.731c2.833-5.774,5.156-11.739,6.706-17.99c0.723-2.932,1.203-5.896,1.066-8.932
		C157.164,106.43,157.107,106.128,157.061,105.753z M107.617,108.609c-0.115,0.338-0.213,0.599-0.29,0.867
		c-0.342,1.187-0.355,2.408-0.367,3.628c-0.032,3.562,0.416,7.076,1.047,10.573c0.893,4.946,2.069,9.821,3.381,14.669
		c0.126,0.469,0.319,0.637,0.818,0.619c4.197-0.144,8.396-0.258,12.594-0.383c0.303-0.01,0.605-0.037,0.989-0.061
		c-0.096-0.39-0.153-0.694-0.246-0.985c-0.71-2.274-1.392-4.558-2.149-6.815c-1.436-4.282-3.105-8.47-5.3-12.428
		c-1.326-2.387-2.73-4.724-4.75-6.611c-1.478-1.382-3.243-2.274-5.124-2.953C108.066,108.672,107.895,108.663,107.617,108.609z
		 M191.279,126.936c0-0.287,0.025-0.485-0.003-0.676c-0.57-3.871-1.167-7.739-2.207-11.521c-0.731-2.656-1.616-5.248-3-7.663
		c-1.615-2.823-4.005-4.663-6.981-5.813c-0.682-0.265-1.402-0.462-2.119-0.611c-0.628-0.133-0.764-0.041-0.918,0.567
		c-0.164,0.655-0.308,1.329-0.354,2.001c-0.213,3.194,0.165,6.345,0.762,9.476c0.973,5.104,2.364,10.102,3.885,15.065
		c0.08,0.264,0.186,0.522,0.29,0.813C184.199,128.024,187.699,127.486,191.279,126.936z M168.753,126.746
		c0.048-0.042,0.097-0.086,0.146-0.131c-0.74-2.959-1.479-5.917-2.221-8.877c-0.047,0.002-0.093,0.003-0.141,0.006
		c-0.626,2.181-1.252,4.361-1.901,6.62C166.414,124.537,167.784,125.292,168.753,126.746z"/>
	<path style="fill-rule:evenodd;clip-rule:evenodd;fill:#FFFFFF;" d="M115.893,13.87c0.172,0.083,0.335,0.194,0.517,0.248
		c2.013,0.611,3.259,1.939,3.867,3.954c0.994,3.286,1.971,6.579,3.08,9.826c4.425,12.936,10.375,25.13,17.938,36.525
		c3.225,4.862,6.813,9.444,10.869,13.651c1.472,1.529,2.043,3.335,1.459,5.4c-1.149,4.068-6.264,4.857-8.708,2.284
		c-1.702-1.792-3.355-3.631-4.95-5.521c-6.42-7.614-11.762-15.945-16.357-24.767c-0.125-0.239-0.269-0.467-0.55-0.661
		c0,0.547-0.024,1.097,0.004,1.644c0.198,3.827,0.429,7.655,0.6,11.486c0.106,2.362-1.661,4.487-4.131,5.061
		c-1.994,0.463-3.685-0.03-5.087-1.568c-3.759-4.121-7.246-8.458-10.483-12.998c-0.208-0.292-0.427-0.577-0.786-0.807
		c0.007,0.142-0.006,0.291,0.023,0.431c1.497,7.236,3.32,14.381,6.166,21.224c0.719,1.729,1.554,3.41,2.356,5.102
		c0.69,1.457,0.849,2.967,0.288,4.466c-0.756,2.024-2.275,3.17-4.438,3.315c-2.225,0.147-4.024-0.644-5.091-2.7
		c-2.466-4.752-4.407-9.716-5.999-14.825c-1.615-5.183-2.917-10.447-3.896-15.782c-1.207-6.587-2.299-13.197-3.454-19.795
		c-0.566-3.243-1.158-6.482-1.747-9.721c-0.184-1.029-0.131-2.037,0.188-3.03c1.292-4.03,6.229-4.523,8.73-1.988
		c0.407,0.413,0.698,0.967,0.951,1.499c3.083,6.5,6.451,12.841,10.267,18.939c1.282,2.046,2.643,4.042,3.972,6.056
		c0.15,0.227,0.332,0.431,0.654,0.603c0-0.547,0.032-1.095-0.005-1.639c-0.27-3.91-0.542-7.819-0.835-11.728
		c-0.245-3.285-0.519-6.568-0.777-9.852c-0.235-2.973-0.489-5.944-0.694-8.92c-0.15-2.21,1.334-4.235,3.606-5.029
		c0.314-0.109,0.615-0.255,0.922-0.383C114.871,13.87,115.382,13.87,115.893,13.87z"/>
	<path style="fill-rule:evenodd;clip-rule:evenodd;fill:#FFFFFF;" d="M78.358,67.436c-0.058,0.584-0.129,1.169-0.173,1.755
		c-0.432,5.715-1.439,11.317-3.302,16.748c-0.573,1.669-1.684,2.892-3.298,3.602c-1.631,0.715-3.192,0.578-4.67-0.488
		c-4.176-3.012-8.146-6.277-11.966-9.725c-0.375-0.339-0.758-0.668-1.255-0.919c0.071,0.2,0.122,0.408,0.215,0.594
		c1.911,3.816,4.007,7.52,6.497,10.992c1.062,1.483,2.258,2.86,3.683,4.004c1.367,1.098,1.884,2.5,1.799,4.196
		c-0.12,2.387-1.745,4.408-4.029,4.899c-1.52,0.328-2.981,0.029-4.214-0.883c-1.113-0.821-2.163-1.757-3.115-2.762
		c-2.536-2.676-4.535-5.759-6.354-8.943c-5.844-10.218-10.536-20.935-13.848-32.24c-0.328-1.121-0.625-2.236-0.442-3.434
		c0.468-3.052,3.838-5.286,6.726-4.429c0.928,0.276,1.648,0.846,2.306,1.541c4.101,4.332,8.137,8.73,12.349,12.95
		c3.41,3.415,7.039,6.61,10.573,9.901c0.22,0.203,0.465,0.381,0.84,0.687c0.117-0.621,0.222-1.079,0.292-1.54
		c0.573-3.827,0.838-7.684,0.851-11.546c0.014-4.572-0.074-9.146-0.188-13.719c-0.124-4.938-0.34-9.877-0.5-14.815
		C66.998,29.627,67.1,25.398,67.5,21.18c0.231-2.435,1.892-4.336,4.175-4.798c2.861-0.581,5.707,1.454,6.191,4.005
		c1.596,8.392,3.364,16.75,5.41,25.046c2.62,10.618,5.676,21.101,9.713,31.279c1.036,2.612,2.172,5.183,3.266,7.772
		c0.472,1.115,0.733,2.264,0.558,3.484c-0.392,2.708-2.65,4.54-5.395,4.376c-0.951-0.058-1.852-0.272-2.675-0.766
		c-0.839-0.503-1.399-1.235-1.766-2.125c-1.606-3.912-3.276-7.801-4.798-11.745c-1.226-3.174-2.273-6.418-3.402-9.63
		c-0.079-0.226-0.173-0.448-0.26-0.669C78.462,67.418,78.41,67.426,78.358,67.436z"/>
	<path style="fill-rule:evenodd;clip-rule:evenodd;fill:#FFFFFF;" d="M275.167,141.604c0.299,0,0.598,0,0.898,0
		c0.109,0.059,0.215,0.128,0.327,0.175c0.723,0.302,1.267,0.794,1.302,1.6c0.112,2.536,0.243,5.076,0.233,7.614
		c-0.012,3.653-0.203,7.305-0.195,10.956c0.007,2.54,0.342,5.062,0.952,7.539c0.319,1.312-0.238,2.333-1.39,2.604
		c-1.268,0.298-2.099-0.242-2.422-1.61c-0.591-2.499-0.904-5.036-0.98-7.602c-0.019-0.595-0.091-1.188-0.139-1.78
		c0-0.854,0-1.709,0-2.564c0.033-0.167,0.09-0.331,0.092-0.498c0.07-3.435,0.163-6.87,0.18-10.306
		c0.005-1.315-0.175-2.631-0.271-3.946c0-0.3,0-0.598,0-0.896C274.037,142.25,274.526,141.842,275.167,141.604z"/>
	<path style="fill-rule:evenodd;clip-rule:evenodd;fill:#FFFFFF;" d="M283.133,204.801c-0.036-1.752-0.068-3.506-0.102-5.259
		c0.026-0.228,0.076-0.459,0.08-0.689c0.042-1.9,0.063-3.799,0.114-5.698c0.115-3.904,0.327-7.806,0.349-11.709
		c0.032-5.85-0.073-11.699-0.104-17.551c-0.028-5.294-0.021-10.589-0.056-15.884c-0.021-3.587-0.057-7.175-0.159-10.762
		c-0.037-1.241,0.243-2.181,1.479-2.65c0.298-0.007,0.598-0.014,0.896-0.019c1.226,0.397,1.588,1.262,1.58,2.509
		c-0.019,3.95,0.067,7.902,0.094,11.854c0.028,4.505,0.029,9.011,0.05,13.517c0.021,4.399,0.057,8.8,0.08,13.197
		c0.017,3.482,0.073,6.964,0.026,10.444c-0.068,4.972-0.259,9.944-0.315,14.917c-0.054,5.005,0.26,9.981,1.521,14.86
		c0.289,1.115-0.435,2.141-1.58,2.393c-1.094,0.244-2.027-0.321-2.246-1.523c-0.5-2.746-0.943-5.5-1.357-8.259
		C283.3,207.27,283.244,206.03,283.133,204.801z"/>
</g>
<g>
</g>
<g>
</g>
<g>
</g>
<g>
</g>
<g>
</g>
<g>
</g>
<g>
</g>
<g>
</g>
<g>
</g>
<g>
</g>
<g>
</g>
<g>
</g>
<g>
</g>
<g>
</g>
<g>
</g>
</svg>
