<?xml version="1.0" encoding="utf-8"?>
<!-- Generator: Adobe Illustrator 16.0.4, SVG Export Plug-In . SVG Version: 6.00 Build 0)  -->
<!DOCTYPE svg PUBLIC "-//W3C//DTD SVG 1.1//EN" "http://www.w3.org/Graphics/SVG/1.1/DTD/svg11.dtd">
<svg version="1.1" id="Calque_1" xmlns:sketch="http://www.bohemiancoding.com/sketch/ns"
	 xmlns="http://www.w3.org/2000/svg" xmlns:xlink="http://www.w3.org/1999/xlink" x="0px" y="0px" width="50px" height="50px"
	 viewBox="0 0 50 50" enable-background="new 0 0 50 50" xml:space="preserve">
<title></title>
<path fill="#FFFFFF" d="M45.604,38.697c-2.045-1.361-4.33-11.293-5.369-17.636c0-0.003-0.002-0.005-0.002-0.008
	c-0.01-0.05-0.025-0.099-0.047-0.146c-0.004-0.01-0.01-0.019-0.014-0.028c-0.018-0.035-0.041-0.069-0.066-0.101
	c-0.008-0.011-0.018-0.022-0.027-0.033c-0.006-0.007-0.012-0.016-0.018-0.023c-0.027-0.026-0.057-0.049-0.088-0.069
	c-0.002-0.002-0.004-0.004-0.008-0.006c-0.043-0.028-0.09-0.049-0.137-0.065c-0.006-0.002-0.01-0.006-0.016-0.007
	c-4.895-1.534-12.562-6.308-14.137-7.305l0.055-2.514l1.744-0.631l2.27-0.821l-2.27-0.82l-1.68-0.607l0.008-0.371
	c0.008-0.338-0.26-0.618-0.599-0.625c-0.333-0.015-0.618,0.261-0.626,0.599l-0.124,5.715c-1.137,0.767-8.929,5.938-14.243,7.375
	c-0.002,0-0.003,0.001-0.005,0.002c-0.05,0.014-0.097,0.035-0.142,0.062c-0.012,0.006-0.021,0.014-0.033,0.021
	c-0.035,0.024-0.069,0.052-0.1,0.083c-0.006,0.007-0.014,0.013-0.02,0.019c-0.029,0.034-0.057,0.07-0.079,0.11
	c-0.003,0.005-0.004,0.011-0.007,0.017c-0.006,0.011-0.01,0.023-0.016,0.035c-0.016,0.04-0.029,0.08-0.037,0.121
	c-0.002,0.008-0.006,0.014-0.008,0.023c-1.038,6.343-3.324,16.275-5.368,17.636c-0.206,0.139-0.31,0.387-0.261,0.631
	c0.048,0.242,0.238,0.432,0.482,0.48l9.8,1.938c0.425,0.107,5.612,1.375,11.638,1.375c3.141,0,6.508-0.346,9.545-1.379l9.779-1.934
	c0.244-0.049,0.436-0.238,0.482-0.48C45.912,39.084,45.809,38.836,45.604,38.697z M38.381,21.379
	c-2.352,1.5-6.074,1.223-6.932,1.135c-1.852-1.659-3.789-5.093-4.9-7.256C29.238,16.904,34.363,19.895,38.381,21.379z
	 M30.043,22.856c-4.135,1.316-8.276,0.468-10.073-0.034c2.237-2.397,4.162-6.087,5.037-7.902
	C25.92,16.784,27.936,20.627,30.043,22.856z M18.533,22.525c-2.216,0.347-4.896-0.572-6.488-1.251
	c4.057-1.441,8.817-4.302,11.387-5.943C22.362,17.423,20.515,20.669,18.533,22.525z M10.836,22.079
	c1.404,0.664,4.503,1.931,7.294,1.726c-0.307,2.865-1.535,13.035-3.854,16.664L5.939,38.82
	C8.375,35.394,10.283,25.264,10.836,22.079z M15.539,40.742c2.345-4.193,3.515-13.977,3.812-16.817
	c1.099,0.333,3.287,0.874,5.916,0.874c1.672,0,3.524-0.223,5.383-0.853c0.303,2.883,1.484,12.716,3.85,16.861
	C27.34,42.942,18.294,41.326,15.539,40.742z M35.723,40.469c-2.324-3.639-3.553-13.854-3.855-16.687
	c1.527,0.105,4.975,0.13,7.336-1.477c0.6,3.414,2.477,13.166,4.857,16.515L35.723,40.469z"/>
</svg>
