<?xml version="1.0" encoding="utf-8"?>
<!-- Generator: Adobe Illustrator 16.0.4, SVG Export Plug-In . SVG Version: 6.00 Build 0)  -->
<!DOCTYPE svg PUBLIC "-//W3C//DTD SVG 1.1//EN" "http://www.w3.org/Graphics/SVG/1.1/DTD/svg11.dtd">
<svg version="1.1" id="Calque_1" xmlns:sketch="http://www.bohemiancoding.com/sketch/ns"
	 xmlns="http://www.w3.org/2000/svg" xmlns:xlink="http://www.w3.org/1999/xlink" x="0px" y="0px" width="50px" height="50px"
	 viewBox="0 0 50 50" enable-background="new 0 0 50 50" xml:space="preserve">
<title></title>
<g>
	<path fill="#FFFFFF" d="M30.602,30.824c-0.726-3.805-1.72-7.796-2.113-9.335c-0.578-2.262-0.875-3.344-1.035-3.873
		c-0.339,0.248-0.787,0.371-1.371,0.371c-0.828,0-1.69-0.249-1.786-0.277l-0.18-0.053c-0.72,3.171-4.131,18.433-3.47,20.084
		c0.682,1.703,4.972,8.132,5.154,8.412c0.062,0.095,0.169,0.002,0.282,0.002c0.004,0,0.006,0,0.008,0
		c0.116,0,0.224,0.086,0.283-0.014c0.041-0.07,4.205-7.005,4.729-7.803C31.418,37.857,31.709,36.637,30.602,30.824z"/>
	<path fill="#FFFFFF" d="M30.267,4.256c-0.06-0.094-0.163-0.151-0.274-0.154L18.958,3.805c-0.127-0.003-0.247,0.066-0.308,0.18
		c-0.06,0.113-0.05,0.251,0.025,0.355l5.034,6.979c-0.3,0.055-0.563,0.148-0.769,0.298c-0.612,0.445-0.048,3.361,1.595,5.282
		c0,0,0.13,0.039,0.331,0.084c0.305,0.07,0.775,0.158,1.215,0.158c0.301,0,0.586-0.042,0.794-0.158
		c0.046-0.025,0.088-0.052,0.125-0.084c0.628-0.545,2.558-4.997,1.063-5.185c-0.217-0.027-0.457-0.065-0.71-0.108l2.94-7.038
		C30.338,4.467,30.327,4.35,30.267,4.256z M28.591,5.813l-1.988,5.667c-0.704-0.116-1.457-0.224-2.125-0.224
		c-0.049,0-0.097,0.001-0.146,0.003l-3.371-5.567c-0.096-0.159-0.098-0.358-0.004-0.519c0.094-0.16,0.271-0.254,0.454-0.25
		l6.718,0.215c0.162,0.005,0.311,0.087,0.402,0.22C28.621,5.493,28.645,5.661,28.591,5.813z"/>
</g>
</svg>
