<?xml version="1.0" encoding="utf-8"?>
<!-- Generator: Adobe Illustrator 16.0.4, SVG Export Plug-In . SVG Version: 6.00 Build 0)  -->
<!DOCTYPE svg PUBLIC "-//W3C//DTD SVG 1.1//EN" "http://www.w3.org/Graphics/SVG/1.1/DTD/svg11.dtd">
<svg version="1.1" id="Calque_1" xmlns:sketch="http://www.bohemiancoding.com/sketch/ns"
	 xmlns="http://www.w3.org/2000/svg" xmlns:xlink="http://www.w3.org/1999/xlink" x="0px" y="0px" width="50px" height="50px"
	 viewBox="0 0 50 50" enable-background="new 0 0 50 50" xml:space="preserve">
<title></title>
<g>
	<path fill="#FFFFFF" d="M35.02,18.5H34.5v-3.015c0-0.022,0.104-0.044,0.13-0.071c0.275-0.285,0.291-0.738,0.007-1.012l-5.572-5.397
		c-0.283-0.275-0.73-0.561-1.006-0.277C28.038,8.748,28.027,8.5,28.01,8.5H14.5v10h0.48c-2.289,0-4.48,1.899-4.48,4.189v6.297
		c0,2.289,2.191,4.514,4.48,4.514H14.5v8h20v-8h0.52c2.289,0,4.48-2.225,4.48-4.514v-6.297C39.5,20.399,37.309,18.5,35.02,18.5z
		 M32.709,14.507l-3.699,0.067l-0.002-3.645L32.709,14.507z M16.5,10.5h11.077l0.172,5.521l5.751-0.09V17.5h-17V10.5z M33.5,40.5
		h-17v-7h17V40.5z M35.5,28.783c0,0.396-0.321,0.717-0.717,0.717H15.217c-0.396,0-0.717-0.32-0.717-0.717v-6.566
		c0-0.396,0.321-0.717,0.717-0.717h19.566c0.396,0,0.717,0.321,0.717,0.717V28.783z"/>
	<path fill="#FFFFFF" d="M19.418,36.5h10.593c0.396,0,0.715-0.104,0.715-0.5s-0.319-0.5-0.715-0.5H19.418
		c-0.396,0-0.717,0.104-0.717,0.5S19.022,36.5,19.418,36.5z"/>
</g>
</svg>
