<?xml version="1.0" encoding="utf-8"?>
<!-- Generator: Adobe Illustrator 16.0.4, SVG Export Plug-In . SVG Version: 6.00 Build 0)  -->
<!DOCTYPE svg PUBLIC "-//W3C//DTD SVG 1.1//EN" "http://www.w3.org/Graphics/SVG/1.1/DTD/svg11.dtd">
<svg version="1.1" id="Calque_1" xmlns:sketch="http://www.bohemiancoding.com/sketch/ns"
	 xmlns="http://www.w3.org/2000/svg" xmlns:xlink="http://www.w3.org/1999/xlink" x="0px" y="0px" width="50px" height="50px"
	 viewBox="0 0 50 50" enable-background="new 0 0 50 50" xml:space="preserve">
<title></title>
<g>
	<g>
		<path fill="#FFFFFF" d="M45.903,26.07l0.018-0.056c0,0-14.934-7.276-21.361-15.449c-0.108,3.364-0.918,7.827-2.31,12.561
			c-1.401,4.765-3.199,9.008-5.023,11.939c5.991-2.113,14.532-2.195,20.275-1.939l-2.457,8.355
			c-0.157,0.535,0.149,1.098,0.686,1.255l1.939,0.571c0.537,0.158,1.099-0.148,1.257-0.686l2.714-9.23
			c0.579,0.049,1.05,0.094,1.395,0.129c0.19,0.052,0.386,0.072,0.584,0.062c0.046,0.006,0.071,0.009,0.071,0.009l0.004-0.013
			c1.246-0.108,2.516-1.381,3.046-3.185C47.27,28.593,46.892,26.835,45.903,26.07z"/>
		<path fill="#FFFFFF" d="M23.096,8.492c-0.103-1.035-0.298-1.329-0.679-1.677l-0.213-0.126C20.138,6.091,16.466,12.405,14,20.791
			c-2.466,8.387-2.707,15.442-0.732,16.297c0.302,0.13,0.975-0.338,1.32-0.786c2.168-2.544,4.572-7.735,6.292-13.584
			C22.555,17.022,23.367,11.771,23.096,8.492z"/>
	</g>
	<g>
		<path fill="#FFFFFF" d="M8.033,28.91c-0.28,0-0.53-0.199-0.584-0.484c-0.355-1.875,0.242-5.665,1.522-9.656
			c1.248-3.887,2.872-7.183,4.241-8.602c0.229-0.236,0.605-0.243,0.842-0.015c0.237,0.228,0.243,0.604,0.015,0.841
			c-1.231,1.276-2.788,4.471-3.964,8.139c-1.205,3.757-1.802,7.402-1.485,9.072c0.061,0.321-0.151,0.634-0.474,0.694
			C8.107,28.907,8.07,28.91,8.033,28.91z"/>
	</g>
	<g>
		<path fill="#FFFFFF" d="M3.701,23.938c-0.268,0-0.511-0.184-0.577-0.454c-0.308-1.252,0.084-3.9,0.998-6.747
			c0.884-2.757,2.033-5.042,2.999-5.965c0.238-0.227,0.614-0.218,0.841,0.02c0.228,0.237,0.218,0.614-0.019,0.841
			c-0.67,0.64-1.761,2.579-2.688,5.467c-0.962,3-1.18,5.264-0.976,6.1c0.079,0.318-0.117,0.641-0.436,0.72
			C3.795,23.933,3.747,23.938,3.701,23.938z"/>
	</g>
</g>
</svg>
