<?xml version="1.0" encoding="utf-8"?>
<!-- Generator: Adobe Illustrator 16.0.4, SVG Export Plug-In . SVG Version: 6.00 Build 0)  -->
<!DOCTYPE svg PUBLIC "-//W3C//DTD SVG 1.1//EN" "http://www.w3.org/Graphics/SVG/1.1/DTD/svg11.dtd">
<svg version="1.1" xmlns="http://www.w3.org/2000/svg" xmlns:xlink="http://www.w3.org/1999/xlink" x="0px" y="0px" width="50px"
	 height="50px" viewBox="0 0 50 50" enable-background="new 0 0 50 50" xml:space="preserve">
<g id="Calque_1" xmlns:sketch="http://www.bohemiancoding.com/sketch/ns">
	<title></title>
	<polygon fill="#FFFFFF" points="26.66,29.709 24.995,29.685 23.329,29.659 24.184,28.229 25.039,26.797 25.851,28.254 	"/>
	<g>
		<path fill="#FFFFFF" d="M21.765,44.339c-0.265,0-0.517-0.043-0.755-0.13c-1.977-0.717-2.253-4.105-2.263-4.247
			c-0.05-2.922,0.601-4.811,1.933-5.635c1.664-1.026,3.72,0.024,3.805,0.069c1.861,1.05,3.298,1.317,4.279,0.804
			c1.127-0.592,1.272-2.071,1.273-2.084c0.497-3.479-4.63-5.009-4.682-5.022l0.151-0.521c0.229,0.069,5.63,1.677,5.068,5.604
			c-0.005,0.056-0.168,1.767-1.556,2.499c-1.153,0.607-2.766,0.336-4.791-0.807c-0.009-0.005-1.866-0.948-3.267-0.081
			c-1.157,0.717-1.72,2.448-1.676,5.148c0.001,0.015,0.261,3.167,1.909,3.765c1.075,0.387,2.547-0.368,4.376-2.25l0.387,0.377
			C24.335,43.498,22.929,44.339,21.765,44.339z"/>
	</g>
	<path fill="#FFFFFF" d="M25,5.661c-5.373,0-9.727,4.994-9.727,11.154c0,6.161,4.354,11.155,9.727,11.155
		c5.37,0,9.726-4.995,9.726-11.155C34.726,10.655,30.37,5.661,25,5.661z M29.199,26.083c5.345-9.798-0.191-19.124,0.569-18.298
		C39.249,18.083,29.199,26.083,29.199,26.083z"/>
</g>
<g id="Calque_2">
</g>
</svg>
