<?xml version="1.0" encoding="utf-8"?>
<!-- Generator: Adobe Illustrator 16.0.4, SVG Export Plug-In . SVG Version: 6.00 Build 0)  -->
<!DOCTYPE svg PUBLIC "-//W3C//DTD SVG 1.1//EN" "http://www.w3.org/Graphics/SVG/1.1/DTD/svg11.dtd">
<svg version="1.1" id="Calque_1" xmlns:sketch="http://www.bohemiancoding.com/sketch/ns"
	 xmlns="http://www.w3.org/2000/svg" xmlns:xlink="http://www.w3.org/1999/xlink" x="0px" y="0px" width="50px" height="50px"
	 viewBox="0 0 50 50" enable-background="new 0 0 50 50" xml:space="preserve">
<title></title>
<g>
	<path fill="#EB005E" d="M25,3.84c11.669,0,21.16,9.493,21.16,21.16c0,11.669-9.491,21.16-21.16,21.16
		C13.333,46.16,3.84,36.67,3.84,25C3.84,13.333,13.333,3.84,25,3.84 M25,2C12.297,2,2,12.298,2,25s10.297,23,23,23
		c12.702,0,23-10.297,23-23S37.702,2,25,2L25,2z"/>
</g>
<path fill="#EB005E" d="M24.708,20.91l0.044,0.756l-0.731-0.093c-2.662-0.354-4.986-1.558-6.96-3.58l-0.965-1.003l-0.249,0.741
	c-0.526,1.651-0.19,3.394,0.907,4.567c0.585,0.649,0.453,0.741-0.556,0.355c-0.351-0.124-0.658-0.216-0.688-0.169
	c-0.102,0.107,0.249,1.513,0.526,2.067c0.38,0.771,1.156,1.528,2.004,1.976l0.716,0.354l-0.848,0.018
	c-0.819,0-0.848,0.016-0.761,0.34c0.292,1.002,1.448,2.066,2.735,2.529l0.906,0.324l-0.789,0.494
	c-1.169,0.709-2.545,1.109-3.919,1.141c-0.659,0.016-1.2,0.076-1.2,0.123c0,0.154,1.784,1.018,2.823,1.359
	c3.115,1.002,6.815,0.57,9.594-1.143c1.975-1.219,3.948-3.641,4.869-5.986c0.498-1.25,0.994-3.534,0.994-4.63
	c0-0.709,0.044-0.802,0.863-1.65c0.481-0.494,0.937-1.034,1.022-1.188c0.146-0.293,0.134-0.293-0.613-0.031
	c-1.244,0.463-1.42,0.401-0.805-0.293c0.452-0.494,0.994-1.389,0.994-1.651c0-0.046-0.219,0.031-0.468,0.17
	c-0.264,0.154-0.85,0.386-1.287,0.525l-0.789,0.262l-0.716-0.509c-0.395-0.278-0.951-0.586-1.243-0.679
	c-0.747-0.217-1.887-0.186-2.56,0.062C25.731,17.161,24.576,18.95,24.708,20.91C24.708,20.91,24.576,18.95,24.708,20.91z"/>
</svg>
