<?xml version="1.0" encoding="utf-8"?>
<!-- Generator: Adobe Illustrator 15.0.0, SVG Export Plug-In . SVG Version: 6.00 Build 0)  -->
<!DOCTYPE svg PUBLIC "-//W3C//DTD SVG 1.1//EN" "http://www.w3.org/Graphics/SVG/1.1/DTD/svg11.dtd">
<svg version="1.1" id="Calque_1" xmlns="http://www.w3.org/2000/svg" xmlns:xlink="http://www.w3.org/1999/xlink" x="0px" y="0px"
	 width="578px" height="203px" viewBox="0 0 578 203" enable-background="new 0 0 578 203" xml:space="preserve">
<path fill-rule="evenodd" clip-rule="evenodd" fill="#106A9F" d="M442.699,138.929c-6.073,2.754-11.08,5.301-16.297,7.301
	c-4.159,1.595-8.522,2.809-12.901,3.613c-1.921,0.354-4.526-0.177-6.053-1.326c-1.461-1.1-2.548-3.481-2.679-5.375
	c-0.184-2.652,2.24-3.41,4.532-3.603c6.289-0.528,12.694-0.435,18.842-1.658c5.129-1.02,10.002-3.446,14.883-5.502
	c1.013-0.427,1.997-1.864,2.255-3.003c4.103-18.115,8.085-36.258,12.349-55.543c-3.313,1.758-5.462,2.869-7.585,4.029
	c-22.917,12.515-45.847,25.008-68.724,37.598c-2.751,1.515-5.306,3.446-7.764,5.417c-1.632,1.309-2.217,2.963,0.218,4.309
	c2.691,1.488,2.661,3.663,1.148,5.898c-1.474,2.178-4.861,2.538-7.156,0.968c-6.424-4.394-5.279-12.765,2.126-16.682
	c21.599-11.425,43.15-22.94,64.715-34.431c6.599-3.516,13.127-7.171,19.791-10.557c3.195-1.624,4.934-3.496,3.99-7.399
	c-0.485-2.009-0.332-4.362,0.197-6.385c0.881-3.37,3.968-4.9,6.945-3.925c2.661,0.873,3.872,3.603,3.017,6.936
	c-0.191,0.744-0.583,1.436-1.339,3.247c6.863-3.264,12.924-5.744,18.597-8.918c19.191-10.738,39.234-19.635,59.479-28.126
	c3.372-1.414,6.593-3.193,9.984-4.55c1.022-0.409,3.517-0.939,3.592,0.087s-0.273,3.223-1.13,3.849
	c-2.392,1.747-5.077,3.176-7.809,4.358c-27.337,11.824-54.481,24.045-80.828,37.99c-3.379,1.789-5.395,3.944-6.226,7.656
	c-2.906,12.98-5.993,25.919-8.997,38.877c-0.889,3.836-1.731,7.683-2.851,12.656c6.664-3.31,11.021-7.598,15.287-12.164
	c2.182-2.334,4.952-4.405,7.86-5.667c1.792-0.778,5.447-0.618,6.307,0.556c1.461,1.995,2.141,5.228,1.791,7.752
	c-0.886,6.375-2.694,12.615-3.811,18.967c-0.825,4.696,1.146,6.363,5.604,4.501c4.102-1.715,8.053-3.961,11.724-6.48
	c3.686-2.528,6.928-5.699,10.396-8.548c0.763-0.625,1.599-1.269,2.511-1.584c2.989-1.036,5.337,0.987,4.862,4.153
	c-0.172,1.143-0.697,2.235-0.842,3.379c-0.847,6.701,0.11,7.863,6.85,8.514c5.018,0.484,7.451,2.194,7.256,5.093
	c-0.198,2.925-3.603,4.401-8.558,3.71c-0.165-0.023-0.336-0.019-0.495-0.063c-3.516-0.974-7.179-1.602-10.508-3.017
	c-4.528-1.923-1.343-6.719-3.364-10.38c-3.722,2.694-7.372,5.41-11.104,8.011c-2.846,1.984-5.657,4.094-8.735,5.651
	c-3.791,1.919-7.815,1.83-11.338-0.794c-3.318-2.47-2.954-6.2-2.365-9.645c0.974-5.704,2.338-11.341,3.453-17.022
	c0.176-0.891-0.096-1.87-0.207-3.476c-1.564,0.751-2.784,1.128-3.76,1.839c-6.714,4.891-13.447,9.762-19.994,14.87
	c-1.277,0.996-2.19,2.909-2.552,4.558c-2.238,10.223-4.515,20.451-6.258,30.764c-0.738,4.366-0.229,8.945-0.255,13.428
	c-0.007,1.163,0.222,2.336,0.139,3.489c-0.243,3.372-2.083,5.651-4.171,5.03c-2.896-0.86-3.636-3.074-3.146-5.894
	c1.022-5.888,1.875-11.808,3.017-17.671C438.455,159.155,440.47,149.749,442.699,138.929"/>
<path fill-rule="evenodd" clip-rule="evenodd" fill="#0D6AA0" d="M10.919,145.778v-8.672c0,0,384.232,0.006,386.194,0.006v8.666
	H10.919z"/>
<path fill-rule="evenodd" clip-rule="evenodd" fill="#136DA2" d="M218.07,156.966c-62.794,0.001-193.617-0.083-193.617-0.083v-3.773
	l384.977-0.083v3.936C409.43,156.963,280.532,156.965,218.07,156.966"/>
</svg>
