<?xml version="1.0" encoding="utf-8"?>
<!-- Generator: Adobe Illustrator 16.0.3, SVG Export Plug-In . SVG Version: 6.00 Build 0)  -->
<!DOCTYPE svg PUBLIC "-//W3C//DTD SVG 1.1//EN" "http://www.w3.org/Graphics/SVG/1.1/DTD/svg11.dtd">
<svg version="1.1" id="Calque_1" xmlns="http://www.w3.org/2000/svg" xmlns:xlink="http://www.w3.org/1999/xlink" x="0px" y="0px"
	 width="212.6px" height="283.46px" viewBox="0 0 212.6 283.46" enable-background="new 0 0 212.6 283.46" xml:space="preserve">
<g>
	<path fill-rule="evenodd" clip-rule="evenodd" fill="none" d="M196.4,141.44c0,11.2,0,22.4,0,33.6c-60.721,0-121.44,0-182.16,0
		c0-21.28,0-42.56,0-63.84c60.72,0,121.439,0,182.16,0c0,8.4,0,16.8,0,25.2c-3.021,0-6.042,0-9.15,0c0-3.125,0-6.07,0-9.023
		c-1.7,0-3.307,0-5.018,0c0,3.041,0,5.982,0,9.017c-3.211,0-6.313,0-9.52,0c-5.037-2.732-9.341-1.922-14.542,2.814
		c-4.157-5.76-10.106-5.839-16.551-0.077c0-1.221,0-2.305,0-3.39c-2.462,0-4.766,0-7.227,0c0,1.932,0,3.804,0,5.95
		c-5.378-9.676-19.804-8.538-24.403,0.936c-0.79-4.571-3.454-6.984-7.867-7.587c-4.305-0.589-7.777,0.788-10.418,4.354
		c-1.756-3.402-4.631-4.387-8.048-4.45c-3.499-0.063-6.185,1.472-8.508,4.405c0-1.426,0-2.487,0-3.596c-2.444,0-4.775,0-7.235,0
		c0,2.157,0,4.239,0,6.583c-4.686-9.727-20.706-9.762-25.475-0.695c-2.032-4.066-5.474-6.039-9.81-6.557
		c-4.647-0.555-8.934,0.271-12.379,3.742c-2.842,2.863-3.786,6.476-4.042,10.364c-0.434,6.566,3.408,12.49,9.473,14.187
		c1.849,0.517,3.878,0.674,5.804,0.577c4.593-0.231,8.311-2.131,10.552-6.369c0.082-0.154,0.22-0.279,0.366-0.46
		c2.916,4.927,7.29,6.941,12.79,6.886c5.531-0.057,9.83-2.273,12.809-7.092c0,2.094,0,4.188,0,6.278c2.571,0,5.022,0,7.568,0
		c0-0.521,0-0.956,0-1.391c0-4.719-0.033-9.438,0.023-14.158c0.014-1.139,0.152-2.336,0.53-3.4c0.849-2.391,3.164-3.608,5.654-3.173
		c2.228,0.39,3.214,1.712,3.369,4.525c0.009,0.16,0.005,0.32,0.006,0.479c0.028,5.278,0.056,10.556,0.083,15.834
		c0.002,0.425,0,0.85,0,1.292c2.604,0,5.057,0,7.614,0c0-0.513,0-0.946,0-1.38c0-4.68-0.033-9.359,0.022-14.038
		c0.015-1.265,0.141-2.57,0.49-3.778c0.696-2.411,2.673-3.529,5.319-3.225c2.239,0.258,3.596,1.711,3.644,4.298
		c0.104,5.557,0.079,11.115,0.106,16.674c0.002,0.471,0,0.942,0,1.462c2.589,0,5.045,0,7.664,0c0-2.086,0-4.11,0-6.135
		c2.784,4.566,6.789,6.761,11.981,6.922c5.104,0.157,9.402-1.381,12.427-5.858c0,1.694,0,3.388,0,5.086c2.553,0,4.98,0,7.546,0
		c0-0.482,0-0.913,0-1.344c0-4.679-0.006-9.358,0.006-14.038c0.002-0.758,0.024-1.524,0.136-2.271
		c0.43-2.896,2.658-4.726,5.511-4.571c2.636,0.143,3.852,1.687,3.93,4.99c0.001,0.04,0,0.079,0,0.12
		c0.028,5.277,0.057,10.555,0.084,15.833c0.002,0.42,0,0.841,0,1.289c2.608,0,5.037,0,7.614,0c0-0.514,0-0.983,0-1.453
		c0-4.68-0.026-9.359,0.019-14.038c0.012-1.188,0.114-2.411,0.415-3.555c0.659-2.506,2.735-3.742,5.436-3.407
		c2.233,0.277,3.559,1.718,3.607,4.333c0.105,5.557,0.078,11.115,0.105,16.674c0.002,0.47,0,0.938,0,1.411c2.612,0,5.072,0,7.495,0
		c0-7.266,0-14.452,0-21.671c1.865,0,3.838,0,5.911,0c0,3.033,0,5.978,0,8.933c1.713,0,3.321,0,5.018,0c0-3.042,0-5.987,0-9.026
		C190.417,141.44,193.408,141.44,196.4,141.44z"/>
	<path fill-rule="evenodd" clip-rule="evenodd" d="M196.4,141.44c-2.992,0-5.983,0-9.065,0c0,3.039,0,5.984,0,9.026
		c-1.696,0-3.305,0-5.018,0c0-2.955,0-5.899,0-8.933c-2.073,0-4.046,0-5.911,0c0,7.219,0,14.405,0,21.671c-2.423,0-4.883,0-7.495,0
		c0-0.473,0.002-0.941,0-1.411c-0.027-5.559,0-11.117-0.105-16.674c-0.049-2.614-1.374-4.055-3.607-4.333
		c-2.7-0.335-4.776,0.901-5.436,3.407c-0.301,1.144-0.403,2.366-0.415,3.555c-0.045,4.679-0.019,9.358-0.019,14.038
		c0,0.47,0,0.939,0,1.453c-2.577,0-5.006,0-7.614,0c0-0.448,0.002-0.869,0-1.289c-0.027-5.278-0.056-10.556-0.084-15.833
		c0-0.041,0.001-0.08,0-0.12c-0.078-3.304-1.294-4.848-3.93-4.99c-2.853-0.155-5.081,1.676-5.511,4.571
		c-0.111,0.747-0.134,1.514-0.136,2.271c-0.012,4.68-0.006,9.359-0.006,14.038c0,0.431,0,0.861,0,1.344c-2.565,0-4.993,0-7.546,0
		c0-1.698,0-3.392,0-5.086c-3.024,4.478-7.322,6.016-12.427,5.858c-5.192-0.161-9.197-2.355-11.981-6.922c0,2.024,0,4.049,0,6.135
		c-2.618,0-5.075,0-7.664,0c0-0.52,0.002-0.991,0-1.462c-0.027-5.559-0.002-11.117-0.106-16.674
		c-0.048-2.587-1.405-4.041-3.644-4.298c-2.646-0.304-4.623,0.814-5.319,3.225c-0.349,1.208-0.475,2.514-0.49,3.778
		c-0.055,4.679-0.022,9.358-0.022,14.038c0,0.434,0,0.867,0,1.38c-2.558,0-5.01,0-7.614,0c0-0.442,0.002-0.867,0-1.292
		c-0.027-5.278-0.055-10.556-0.083-15.834c-0.001-0.159,0.003-0.319-0.006-0.479c-0.155-2.813-1.141-4.135-3.369-4.525
		c-2.49-0.435-4.805,0.783-5.654,3.173c-0.378,1.064-0.516,2.262-0.53,3.4c-0.057,4.72-0.023,9.439-0.023,14.158
		c0,0.435,0,0.869,0,1.391c-2.546,0-4.998,0-7.568,0c0-2.09,0-4.185,0-6.278c-2.979,4.818-7.278,7.035-12.809,7.092
		c-5.5,0.056-9.874-1.959-12.79-6.886c-0.146,0.181-0.284,0.306-0.366,0.46c-2.241,4.238-5.958,6.138-10.552,6.369
		c-1.926,0.097-3.955-0.061-5.804-0.577c-6.065-1.696-9.906-7.62-9.473-14.187c0.257-3.888,1.2-7.5,4.042-10.364
		c3.445-3.471,7.732-4.296,12.379-3.742c4.336,0.518,7.777,2.491,9.81,6.557c4.769-9.067,20.789-9.032,25.475,0.695
		c0-2.343,0-4.425,0-6.583c2.46,0,4.792,0,7.235,0c0,1.109,0,2.169,0,3.596c2.324-2.934,5.01-4.469,8.508-4.405
		c3.417,0.063,6.292,1.048,8.048,4.45c2.641-3.566,6.113-4.943,10.418-4.354c4.413,0.604,7.077,3.016,7.867,7.587
		c4.6-9.474,19.025-10.612,24.403-0.936c0-2.146,0-4.018,0-5.95c2.461,0,4.765,0,7.227,0c0,1.085,0,2.169,0,3.39
		c6.444-5.762,12.394-5.683,16.551,0.077c5.201-4.736,9.505-5.547,14.542-2.814c3.206,0,6.309,0,9.52,0c0-3.035,0-5.977,0-9.017
		c1.711,0,3.317,0,5.018,0c0,2.953,0,5.897,0,9.023c3.108,0,6.13,0,9.15,0C196.4,138.08,196.4,139.76,196.4,141.44z M35.938,145.565
		c-1.011-3.018-1.734-3.934-3.498-4.504c-3.095-1-6.047,0.171-7.421,3.146c-1.625,3.516-1.626,7.132-0.037,10.668
		c1.088,2.422,3.173,3.525,5.827,3.314c2.473-0.197,4.313-1.764,5.027-4.282c0.106-0.377,0.206-0.756,0.332-1.221
		c1.574,0,3.12,0,4.688,0c0-2.399,0-4.698,0-7.121c-0.689,0-1.52,0-2.35,0C37.668,145.565,36.833,145.565,35.938,145.565z
		 M61.002,145.191c-0.832-2.775-3.004-4.364-5.741-4.426c-2.976-0.067-5.159,1.267-6.135,4.026
		c-1.141,3.226-1.173,6.517,0.146,9.717c1.04,2.524,3.019,3.707,5.746,3.69c2.72-0.018,4.747-1.201,5.71-3.739
		C62.292,150.502,61.549,147.484,61.002,145.191z M134.375,151.382c-6.113,0-12.083,0-18.053,0c0.087,3.44,1.403,5.633,3.97,6.403
		c3.798,1.141,6.857,0.063,8.866-3.21c1.687,0,3.43,0,5.217,0C134.375,153.462,134.375,152.442,134.375,151.382z M116.337,146.437
		c4.08,0,8.064,0,12.052,0c-0.388-3.76-2.422-5.683-5.961-5.671C118.92,140.777,116.682,142.826,116.337,146.437z"/>
	<path fill-rule="evenodd" clip-rule="evenodd" fill="none" d="M35.938,145.565c0.895,0,1.731,0,2.567,0c0.831,0,1.661,0,2.35,0
		c0,2.423,0,4.722,0,7.121c-1.568,0-3.114,0-4.688,0c-0.126,0.465-0.225,0.844-0.332,1.221c-0.715,2.519-2.555,4.085-5.027,4.282
		c-2.653,0.211-4.738-0.893-5.827-3.314c-1.589-3.536-1.587-7.152,0.037-10.668c1.375-2.974,4.327-4.145,7.421-3.146
		C34.204,141.631,34.926,142.548,35.938,145.565z"/>
	<path fill-rule="evenodd" clip-rule="evenodd" fill="none" d="M61.827,149.73c-0.014,0.948-0.514,3.19-1.098,4.729
		c-0.963,2.538-2.99,3.722-5.71,3.739c-2.727,0.017-4.706-1.166-5.746-3.69c-1.319-3.2-1.288-6.491-0.146-9.717
		c0.976-2.759,3.16-4.093,6.135-4.026c2.737,0.062,4.909,1.651,5.741,4.426C61.421,146.59,61.841,148.782,61.827,149.73z"/>
	<path fill-rule="evenodd" clip-rule="evenodd" fill="none" d="M134.375,151.382c0,1.061,0,2.08,0,3.193c-1.787,0-3.53,0-5.217,0
		c-2.009,3.273-5.068,4.351-8.866,3.21c-2.566-0.771-3.883-2.963-3.97-6.403C122.292,151.382,128.262,151.382,134.375,151.382z"/>
	<path fill-rule="evenodd" clip-rule="evenodd" fill="none" d="M116.337,146.437c0.345-3.61,2.583-5.659,6.091-5.671
		c3.539-0.012,5.573,1.912,5.961,5.671C124.401,146.437,120.417,146.437,116.337,146.437z"/>
</g>
</svg>
