<?xml version="1.0" encoding="utf-8"?>
<!-- Generator: Adobe Illustrator 16.0.3, SVG Export Plug-In . SVG Version: 6.00 Build 0)  -->
<!DOCTYPE svg PUBLIC "-//W3C//DTD SVG 1.1//EN" "http://www.w3.org/Graphics/SVG/1.1/DTD/svg11.dtd">
<svg version="1.1" id="Calque_1" xmlns="http://www.w3.org/2000/svg" xmlns:xlink="http://www.w3.org/1999/xlink" x="0px" y="0px"
	 width="212.6px" height="283.46px" viewBox="0 0 212.6 283.46" enable-background="new 0 0 212.6 283.46" xml:space="preserve">
<g>
	<path fill-rule="evenodd" clip-rule="evenodd" fill="none" d="M-257.975,322.46c0-134.284,0-268.568,0-402.926
		c209.542,0,419.109,0,628.825,0c0,134.259,0,268.593,0,402.926C161.281,322.46-48.334,322.46-257.975,322.46z M215.699,79.389
		c-2.229,10.82-4.244,20.226-6.083,29.666c-1.142,5.863-1.994,11.783-3.017,17.671c-0.49,2.82,0.249,5.034,3.146,5.895
		c2.088,0.62,3.928-1.658,4.171-5.03c0.083-1.153-0.146-2.326-0.139-3.489c0.026-4.482-0.483-9.062,0.255-13.428
		c1.743-10.313,4.02-20.541,6.258-30.765c0.361-1.648,1.274-3.562,2.552-4.558c6.547-5.107,13.28-9.979,19.994-14.87
		c0.976-0.711,2.195-1.088,3.761-1.839c0.11,1.606,0.382,2.585,0.206,3.476c-1.115,5.682-2.479,11.318-3.453,17.022
		c-0.589,3.445-0.953,7.175,2.365,9.646c3.522,2.623,7.548,2.713,11.339,0.794c3.077-1.558,5.889-3.667,8.734-5.651
		c3.731-2.601,7.382-5.317,11.104-8.011c2.021,3.661-1.164,8.457,3.364,10.38c3.329,1.415,6.992,2.043,10.508,3.017
		c0.159,0.044,0.33,0.04,0.495,0.063c4.955,0.69,8.359-0.785,8.558-3.71c0.196-2.899-2.238-4.609-7.256-5.094
		c-6.739-0.65-7.696-1.813-6.85-8.514c0.145-1.144,0.67-2.236,0.842-3.379c0.475-3.166-1.873-5.189-4.862-4.153
		c-0.912,0.315-1.748,0.959-2.51,1.584c-3.469,2.85-6.711,6.021-10.396,8.549c-3.671,2.519-7.622,4.765-11.724,6.479
		c-4.457,1.862-6.429,0.195-5.604-4.501c1.116-6.352,2.925-12.592,3.811-18.967c0.35-2.524-0.33-5.757-1.791-7.752
		c-0.859-1.174-4.515-1.334-6.307-0.557c-2.907,1.263-5.679,3.333-7.86,5.667c-4.267,4.566-8.623,8.854-15.287,12.164
		c1.119-4.973,1.962-8.819,2.851-12.655c3.004-12.958,6.091-25.897,8.997-38.877c0.831-3.713,2.847-5.867,6.227-7.656
		c26.346-13.945,53.49-26.166,80.827-37.99c2.731-1.182,5.417-2.611,7.809-4.358c0.856-0.626,0.78-2.528,1.13-3.849
		c-1.207-0.053-2.569-0.496-3.592-0.087c-3.392,1.357-6.612,3.136-9.984,4.55c-20.245,8.491-40.288,17.388-59.479,28.126
		c-5.673,3.174-11.733,5.654-18.597,8.918c0.756-1.811,1.147-2.503,1.339-3.247c0.855-3.333-0.355-6.063-3.017-6.936
		c-2.978-0.976-6.064,0.555-6.945,3.925c-0.529,2.023-0.683,4.376-0.197,6.385c0.943,3.903-0.794,5.775-3.99,7.399
		c-6.664,3.386-13.192,7.041-19.791,10.557c-21.564,11.491-43.116,23.006-64.715,34.432c-7.405,3.917-8.55,12.288-2.126,16.682
		c2.295,1.57,5.683,1.21,7.156-0.968c1.513-2.235,1.543-4.41-1.148-5.898c-2.435-1.346-1.85-3-0.218-4.309
		c2.458-1.972,5.013-3.902,7.764-5.417c22.877-12.59,45.807-25.083,68.724-37.599c2.123-1.159,4.271-2.271,7.585-4.028
		c-4.264,19.285-8.246,37.428-12.349,55.543c-0.258,1.139-1.242,2.576-2.255,3.003c-4.881,2.056-9.754,4.481-14.883,5.502
		c-6.147,1.223-12.553,1.13-18.842,1.658c-2.292,0.192-4.716,0.95-4.532,3.603c0.131,1.895,1.218,4.275,2.679,5.375
		c1.526,1.149,4.132,1.68,6.053,1.326c4.379-0.804,8.742-2.019,12.901-3.613C204.619,84.689,209.626,82.143,215.699,79.389z
		 M-216.081,86.238c128.746,0,257.344,0,386.194,0c0-2.905,0-5.652,0-8.666c-1.962,0-3.616,0-5.271,0
		c-124.803-0.001-249.605,0-374.409-0.006c-7.326,0-7.329-0.025-6.963,7.22C-216.513,85.101-216.344,85.406-216.081,86.238z
		 M-8.93,97.425c62.462,0,124.923,0,187.384-0.002c1.333,0,2.716,0.19,3.976-0.115c0.677-0.165,1.583-1.2,1.581-1.84
		c-0.003-0.651-0.896-1.695-1.572-1.862c-1.259-0.311-2.644-0.119-3.976-0.119c-125.256,0.001-250.512-0.004-375.767,0.083
		c-1.811,0.002-5.132-1.626-5.308,1.639c-0.214,3.968,3.444,2.132,5.3,2.135C-134.519,97.443-71.724,97.427-8.93,97.425z"/>
	<path fill-rule="evenodd" clip-rule="evenodd" fill="#106A9F" d="M215.699,79.389c-6.073,2.754-11.08,5.301-16.297,7.301
		c-4.159,1.595-8.522,2.81-12.901,3.613c-1.921,0.354-4.526-0.177-6.053-1.326c-1.461-1.1-2.548-3.48-2.679-5.375
		c-0.184-2.652,2.24-3.41,4.532-3.603c6.289-0.528,12.694-0.436,18.842-1.658c5.129-1.021,10.002-3.446,14.883-5.502
		c1.013-0.427,1.997-1.864,2.255-3.003c4.103-18.115,8.085-36.258,12.349-55.543c-3.313,1.758-5.462,2.869-7.585,4.028
		c-22.917,12.516-45.847,25.009-68.724,37.599c-2.751,1.515-5.306,3.445-7.764,5.417c-1.632,1.309-2.217,2.963,0.218,4.309
		c2.691,1.488,2.661,3.663,1.148,5.898c-1.474,2.178-4.861,2.538-7.156,0.968c-6.424-4.394-5.279-12.765,2.126-16.682
		c21.599-11.426,43.15-22.94,64.715-34.432c6.599-3.516,13.127-7.171,19.791-10.557c3.196-1.624,4.934-3.496,3.99-7.399
		c-0.485-2.009-0.332-4.361,0.197-6.385c0.881-3.37,3.968-4.9,6.945-3.925c2.661,0.873,3.872,3.603,3.017,6.936
		c-0.191,0.744-0.583,1.437-1.339,3.247c6.863-3.264,12.924-5.744,18.597-8.918c19.191-10.738,39.234-19.635,59.479-28.126
		c3.372-1.414,6.593-3.192,9.984-4.55c1.022-0.409,3.517-0.939,3.592,0.087s-0.273,3.223-1.13,3.849
		c-2.392,1.747-5.077,3.177-7.809,4.358c-27.337,11.824-54.481,24.045-80.827,37.99c-3.38,1.789-5.396,3.943-6.227,7.656
		c-2.906,12.979-5.993,25.919-8.997,38.877c-0.889,3.836-1.731,7.683-2.851,12.655c6.664-3.31,11.021-7.598,15.287-12.164
		c2.182-2.334,4.953-4.404,7.86-5.667c1.792-0.777,5.447-0.617,6.307,0.557c1.461,1.995,2.141,5.228,1.791,7.752
		c-0.886,6.375-2.694,12.615-3.811,18.967c-0.825,4.696,1.146,6.363,5.604,4.501c4.102-1.715,8.053-3.961,11.724-6.479
		c3.686-2.528,6.928-5.699,10.396-8.549c0.762-0.625,1.598-1.269,2.51-1.584c2.989-1.036,5.337,0.987,4.862,4.153
		c-0.172,1.143-0.697,2.235-0.842,3.379c-0.847,6.701,0.11,7.863,6.85,8.514c5.018,0.484,7.452,2.194,7.256,5.094
		c-0.198,2.925-3.603,4.4-8.558,3.71c-0.165-0.023-0.336-0.02-0.495-0.063c-3.516-0.974-7.179-1.602-10.508-3.017
		c-4.528-1.923-1.343-6.719-3.364-10.38c-3.722,2.693-7.372,5.41-11.104,8.011c-2.846,1.984-5.657,4.094-8.734,5.651
		c-3.791,1.919-7.816,1.829-11.339-0.794c-3.318-2.471-2.954-6.2-2.365-9.646c0.974-5.704,2.338-11.341,3.453-17.022
		c0.176-0.891-0.096-1.869-0.206-3.476c-1.565,0.751-2.785,1.128-3.761,1.839c-6.714,4.892-13.447,9.763-19.994,14.87
		c-1.277,0.996-2.19,2.909-2.552,4.558c-2.238,10.224-4.515,20.451-6.258,30.765c-0.738,4.366-0.229,8.945-0.255,13.428
		c-0.007,1.163,0.222,2.336,0.139,3.489c-0.243,3.372-2.083,5.65-4.171,5.03c-2.896-0.86-3.636-3.074-3.146-5.895
		c1.022-5.888,1.875-11.808,3.017-17.671C211.455,99.614,213.471,90.209,215.699,79.389z"/>
	<path fill-rule="evenodd" clip-rule="evenodd" fill="#0D6AA0" d="M-216.081,86.238v-8.672c0,0,384.232,0.006,386.194,0.006
		c0,3.014,0,5.761,0,8.666C41.264,86.238-216.081,86.238-216.081,86.238z"/>
	<path fill-rule="evenodd" clip-rule="evenodd" fill="#136DA2" d="M-8.93,97.426c-62.794,0.001-193.617-0.083-193.617-0.083v-3.773
		l384.977-0.083v3.937C182.43,97.423,53.532,97.425-8.93,97.426z"/>
</g>
</svg>
