<?xml version="1.0" encoding="utf-8"?>
<!-- Generator: Adobe Illustrator 15.0.0, SVG Export Plug-In . SVG Version: 6.00 Build 0)  -->
<!DOCTYPE svg PUBLIC "-//W3C//DTD SVG 1.1//EN" "http://www.w3.org/Graphics/SVG/1.1/DTD/svg11.dtd">
<svg version="1.1" id="Hes" xmlns="http://www.w3.org/2000/svg" xmlns:xlink="http://www.w3.org/1999/xlink" x="0px" y="0px"
	 width="252.275px" height="177.794px" viewBox="0 0 252.275 177.794" enable-background="new 0 0 252.275 177.794"
	 xml:space="preserve">
<g>
	<path d="M109.035,80.016c-0.582,0-0.625,0-1.239,0.031l-0.065-0.072c0.032-1.157,0.065-2.407,0.054-3.471
		c-0.252,0-0.527-0.01-1.031-0.01c-0.855,0-1.799,0.01-2.555,0.021c-0.012,1.962,0.021,2.655,0.076,3.43l-0.054,0.072
		c-0.604,0-0.636,0-1.239,0.031l-0.066-0.072c0.043-1.013,0.054-1.54,0.054-4.669c0-1.394-0.032-1.891-0.065-2.511l0.065-0.072
		c0.561-0.011,0.691-0.011,1.218-0.031l0.055,0.072c-0.011,0.61-0.033,1.457-0.033,2.872c0.57,0.011,0.877,0.021,1.59,0.021
		c1.008,0,1.469-0.01,1.985-0.032c-0.022-1.962-0.022-2.189-0.078-2.831l0.056-0.072c0.592-0.011,0.68-0.011,1.217-0.031
		l0.055,0.072c-0.033,1.002-0.044,1.653-0.044,3.46c0,2.005,0.044,2.769,0.11,3.72L109.035,80.016z"/>
	<path d="M114.189,77.113v1.725c-0.121,0.103-0.516,0.454-1.196,0.454c-1.042,0-1.042-0.888-1.042-0.939
		c0-0.92,1.031-1.064,2.138-1.219L114.189,77.113z M115.318,76.865c0-0.434,0-1.002-0.076-1.292c-0.23-0.806-1.02-1.063-1.832-1.063
		c-0.647,0-1.283,0.134-1.898,0.34l-0.065,0.062c-0.011,0.217-0.011,0.279-0.033,0.754l0.087,0.051
		c0.461-0.186,0.955-0.392,1.667-0.392c0.548,0,0.8,0.196,0.91,0.382c0.099,0.166,0.099,0.361,0.099,0.64l-0.188,0.021
		c-1.974,0.217-3.202,0.661-3.202,2.045c0,1.022,0.768,1.725,1.864,1.725c0.833,0,1.327-0.372,1.536-0.526l-0.011,0.372l0.043,0.062
		c0.505-0.021,0.592-0.031,1.107-0.041l0.056-0.053c-0.056-0.672-0.066-0.785-0.066-2.065V76.865z"/>
	<path d="M122.184,74.676c-0.022,0.784-0.033,1.517-0.033,2.355c0,1.27,0.033,2.034,0.055,2.479c0,0.146,0.011,0.29,0.021,0.435
		l-0.044,0.063c-0.526,0.009-0.614,0.02-1.119,0.041L121,79.985l0.012-0.434c-0.242,0.165-0.824,0.588-1.723,0.588
		c-0.428,0-0.898-0.093-1.25-0.352c-0.701-0.537-0.701-1.415-0.713-2.22v-0.641c-0.022-1.477-0.022-1.643-0.055-2.2l0.055-0.073
		c0.516-0.01,0.614-0.01,1.129-0.051l0.066,0.073l-0.045,2.262c0,0.279-0.011,0.486,0,0.981c0.012,0.435,0.034,1.363,1.141,1.363
		c0.647,0,1.108-0.34,1.371-0.537C121,78.187,121,77.712,121,77.113c0-1.437-0.011-1.726-0.077-2.397l0.066-0.072
		c0.505-0.01,0.625-0.01,1.129-0.041L122.184,74.676z"/>
	<path d="M126.735,79.2c-0.033,0.341-0.033,0.414-0.043,0.713l-0.055,0.062c-0.23,0.052-0.417,0.093-0.823,0.093
		c-0.263,0-0.954,0-1.293-0.536c-0.198-0.301-0.198-0.548-0.198-1.767l0.022-2.273c-0.384,0-0.395,0.009-0.79,0.02l-0.043-0.062
		c0.021-0.331,0.021-0.413,0.021-0.744l0.065-0.062c0.242,0,0.384,0.01,0.747,0c-0.011-0.217-0.011-0.444-0.011-0.661
		c-0.011-0.197-0.022-0.393-0.033-0.589l0.054-0.072c0.494-0.114,0.615-0.145,1.119-0.289l0.076,0.051
		c-0.033,0.682-0.043,0.816-0.043,1.57c0.46-0.01,0.591-0.01,1.217-0.031l0.056,0.062c-0.023,0.269-0.034,0.382-0.034,0.734
		l-0.054,0.062c-0.548-0.011-0.615-0.021-1.195-0.021l-0.022,1.922c0.011,0.124,0.011,0.712,0.011,0.857
		c0,0.753,0.098,0.991,0.647,0.991c0.23,0,0.406-0.051,0.526-0.093L126.735,79.2z"/>
	<path d="M131.792,76.668c-1.009,0.011-1.426,0.021-2.752,0.011c0.11-1.033,0.833-1.426,1.447-1.426
		c0.493,0,0.976,0.238,1.195,0.806C131.769,76.297,131.781,76.524,131.792,76.668z M132.614,78.704
		c-0.143,0.113-0.384,0.3-0.79,0.454c-0.307,0.104-0.636,0.155-0.954,0.155c-0.341,0-0.966-0.052-1.415-0.558
		c-0.374-0.422-0.406-0.93-0.417-1.291c1.797-0.01,2.095-0.01,3.806,0l0.076-0.062c0.011-0.455,0.034-1.477-0.591-2.18
		c-0.33-0.372-0.932-0.712-1.799-0.712c-1.437,0-2.665,0.939-2.665,2.861c0,1.798,1.129,2.769,2.928,2.769
		c0.976,0,1.568-0.299,1.756-0.392l0.065-0.073c0.022-0.403,0.033-0.506,0.087-0.92L132.614,78.704z"/>
	<path d="M143.077,79.169c-0.034,0.352-0.034,0.423-0.056,0.775l-0.077,0.072c-2.137,0-2.477,0.011-4.561,0.031l-0.056-0.072
		c0.034-0.816,0.067-1.374,0.067-3.265c0-1.735,0-2.727-0.078-3.916l0.067-0.072c2.16-0.011,2.588-0.011,4.606-0.031l0.066,0.072
		c-0.034,0.311-0.056,0.434-0.077,0.806l-0.065,0.072c-1.415-0.041-1.887-0.041-3.279-0.051c-0.034,0.951-0.034,1.25-0.034,2.2
		c1.35,0.011,1.767,0,3.104-0.02l0.054,0.071c-0.043,0.362-0.043,0.466-0.054,0.796l-0.066,0.072
		c-1.271-0.031-1.547-0.031-3.038-0.031c-0.021,1.198-0.011,1.488,0,2.469c1.657,0,1.996,0,3.411-0.052L143.077,79.169z"/>
	<path d="M148.846,78.786c-0.045,0.444-0.056,0.496-0.088,0.92l-0.077,0.073c-0.317,0.144-0.745,0.352-1.513,0.352
		c-1.657,0-2.731-1.126-2.731-2.739c0-1.642,1.053-2.881,2.752-2.881c0.712,0,1.217,0.217,1.502,0.331l0.043,0.072
		c-0.043,0.372-0.054,0.506-0.076,0.816l-0.088,0.042c-0.361-0.248-0.777-0.403-1.217-0.403c-0.91,0-1.71,0.661-1.71,1.983
		c0,1.405,0.845,1.911,1.7,1.911c0.747,0,1.206-0.361,1.415-0.517L148.846,78.786z"/>
	<path d="M154.186,77.289c0.011,0.217,0,0.909-0.252,1.374c-0.317,0.568-0.845,0.692-1.251,0.692c-0.218,0-0.449-0.041-0.646-0.134
		c-0.867-0.414-0.878-1.456-0.878-1.87c0-0.435,0.034-1.034,0.328-1.457c0.384-0.579,0.999-0.599,1.208-0.599
		c0.613,0,0.964,0.269,1.173,0.588C154.142,76.339,154.186,77.031,154.186,77.289z M155.381,77.248
		c-0.021-0.723-0.166-1.446-0.669-1.994c-0.481-0.517-1.218-0.743-1.963-0.743c-1.096,0-1.732,0.422-2.039,0.723
		c-0.735,0.692-0.757,1.704-0.757,2.097c0,0.341,0.011,1.395,0.757,2.107c0.35,0.341,0.975,0.693,1.963,0.693
		c0.767,0,1.415-0.177,1.897-0.631c0.362-0.341,0.593-0.744,0.712-1.25C155.359,77.939,155.381,77.599,155.381,77.248z"/>
	<path d="M158.309,80.006c-0.526,0.009-0.635,0.02-1.152,0.041l-0.054-0.072c0.023-0.733,0.054-1.664,0.054-3.647
		c0-1.426,0-2.954-0.108-4.276l0.054-0.063c0.537-0.082,0.649-0.103,1.197-0.217l0.065,0.072c-0.077,1.354-0.077,2.717-0.077,4.071
		c0,2.263,0.032,3.047,0.088,4.029L158.309,80.006z"/>
	<path d="M164,76.668c-1.008,0.011-1.424,0.021-2.751,0.011c0.108-1.033,0.833-1.426,1.447-1.426c0.493,0,0.976,0.238,1.195,0.806
		C163.98,76.297,163.991,76.524,164,76.668z M164.824,78.704c-0.143,0.113-0.384,0.3-0.79,0.454
		c-0.307,0.104-0.636,0.155-0.954,0.155c-0.341,0-0.965-0.052-1.416-0.558c-0.373-0.422-0.405-0.93-0.416-1.291
		c1.797-0.01,2.095-0.01,3.805,0l0.076-0.062c0.012-0.455,0.032-1.477-0.591-2.18c-0.33-0.372-0.932-0.712-1.799-0.712
		c-1.437,0-2.665,0.939-2.665,2.861c0,1.798,1.129,2.769,2.928,2.769c0.977,0,1.568-0.299,1.754-0.392l0.066-0.073
		c0.021-0.403,0.034-0.506,0.086-0.92L164.824,78.704z"/>
	<path d="M173.367,75.883c0.8,0.332,1.864,0.765,1.864,2.087c0,1.157-0.911,2.2-2.819,2.2c-1.163,0-1.908-0.33-2.171-0.454
		l-0.044-0.072c0.044-0.362,0.055-0.558,0.087-0.951l0.11-0.041c0.275,0.176,0.91,0.609,1.931,0.609c1.13,0,1.603-0.547,1.603-1.167
		c0-0.723-0.639-1.001-1.351-1.26l-0.548-0.228c-0.78-0.341-1.82-0.785-1.82-2.045c0-0.382,0.109-0.775,0.339-1.085
		c0.505-0.682,1.415-0.909,2.304-0.909c0.867,0,1.392,0.156,1.974,0.332l0.056,0.082c-0.045,0.393-0.056,0.537-0.088,0.91
		l-0.088,0.041c-0.471-0.228-0.986-0.476-1.809-0.476c-0.91,0-1.481,0.403-1.481,1.013c0,0.464,0.329,0.681,0.559,0.816
		c0.143,0.083,0.186,0.104,0.846,0.373L173.367,75.883z"/>
	<path d="M178.126,79.221c-0.011-0.599-0.021-1.208-0.021-1.818c0-0.526,0.011-1.054,0.021-1.591
		c0.253-0.165,0.669-0.435,1.262-0.435c0.878,0,1.48,0.662,1.48,1.736c0,1.271-0.834,2.138-2.28,2.138
		C178.4,79.251,178.269,79.23,178.126,79.221z M178.126,74.634l-0.077-0.062c-0.492,0.093-0.613,0.124-1.15,0.206l-0.056,0.063
		c0.133,1.177,0.133,1.9,0.143,3.501c0,0.61,0.011,1.22,0.011,1.829c0,1.055-0.021,1.705-0.043,2.335l0.056,0.062
		c0.382-0.01,0.768-0.021,1.15-0.031l0.066-0.062c-0.056-0.971-0.077-1.239-0.087-2.479c0.153,0.011,0.285,0.02,0.492,0.02
		c2.313,0,3.443-1.373,3.443-2.974c0-1.457-0.976-2.531-2.369-2.531c-0.854,0-1.381,0.392-1.601,0.557L178.126,74.634z"/>
	<path d="M187.459,76.668c-1.008,0.011-1.424,0.021-2.753,0.011c0.11-1.033,0.835-1.426,1.449-1.426
		c0.492,0,0.976,0.238,1.194,0.806C187.438,76.297,187.448,76.524,187.459,76.668z M187.405,72.35
		c-0.209,0.011-0.417,0.011-0.626,0.011s-0.405,0-0.646-0.011l-0.067,0.053c-0.239,0.671-0.559,1.332-0.669,1.58l0.045,0.072
		c0.385,0,0.505,0,0.801,0.011l0.076-0.042c0.494-0.754,0.593-0.898,1.13-1.59L187.405,72.35z M188.283,78.704
		c-0.145,0.113-0.385,0.3-0.791,0.454c-0.307,0.104-0.635,0.155-0.954,0.155c-0.339,0-0.965-0.052-1.414-0.558
		c-0.374-0.422-0.405-0.93-0.418-1.291c1.8-0.01,2.095-0.01,3.806,0l0.078-0.062c0.009-0.455,0.032-1.477-0.594-2.18
		c-0.328-0.372-0.93-0.712-1.797-0.712c-1.438,0-2.666,0.939-2.666,2.861c0,1.798,1.13,2.769,2.929,2.769
		c0.976,0,1.568-0.299,1.754-0.392l0.067-0.073c0.021-0.403,0.032-0.506,0.086-0.92L188.283,78.704z"/>
	<path d="M194.38,78.786c-0.045,0.444-0.054,0.496-0.088,0.92l-0.076,0.073c-0.319,0.144-0.746,0.352-1.515,0.352
		c-1.656,0-2.73-1.126-2.73-2.739c0-1.642,1.054-2.881,2.753-2.881c0.714,0,1.217,0.217,1.501,0.331l0.045,0.072
		c-0.045,0.372-0.054,0.506-0.075,0.816l-0.089,0.042c-0.362-0.248-0.778-0.403-1.217-0.403c-0.91,0-1.711,0.661-1.711,1.983
		c0,1.405,0.844,1.911,1.7,1.911c0.745,0,1.205-0.361,1.414-0.517L194.38,78.786z"/>
	<path d="M196.978,80.006c-0.569,0.009-0.656,0.009-1.193,0.041l-0.056-0.072c0.032-0.547,0.066-1.022,0.066-2.169
		c0-1.973-0.034-2.346-0.109-2.955l0.054-0.073c0.471-0.072,0.637-0.093,1.185-0.206l0.109,0.062
		c-0.032,0.538-0.066,1.095-0.066,2.428c0,1.921,0.023,2.18,0.066,2.882L196.978,80.006z M196.99,73.135
		c-0.561,0.021-0.682,0.031-1.217,0.083l-0.066-0.062c0.011-0.134,0.011-0.279,0.011-0.413c0-0.186-0.011-0.352-0.021-0.559
		l0.077-0.061c0.569-0.041,0.669-0.052,1.217-0.103l0.065,0.062c-0.011,0.423-0.011,0.526,0,0.981L196.99,73.135z"/>
	<path d="M202.068,77.113v1.725c-0.122,0.103-0.517,0.454-1.196,0.454c-1.042,0-1.042-0.888-1.042-0.939
		c0-0.92,1.031-1.064,2.14-1.219L202.068,77.113z M203.197,76.865c0-0.434,0-1.002-0.077-1.292
		c-0.229-0.806-1.021-1.063-1.832-1.063c-0.647,0-1.282,0.134-1.896,0.34l-0.066,0.062c-0.011,0.217-0.011,0.279-0.031,0.754
		l0.087,0.051c0.461-0.186,0.953-0.392,1.667-0.392c0.549,0,0.801,0.196,0.909,0.382c0.099,0.166,0.099,0.361,0.099,0.64
		l-0.186,0.021c-1.974,0.217-3.201,0.661-3.201,2.045c0,1.022,0.768,1.725,1.863,1.725c0.833,0,1.327-0.372,1.536-0.526
		l-0.013,0.372l0.044,0.062c0.505-0.021,0.595-0.031,1.108-0.041l0.054-0.053c-0.054-0.672-0.064-0.785-0.064-2.065V76.865z"/>
	<path d="M206.4,80.006c-0.526,0.009-0.638,0.02-1.151,0.041l-0.056-0.072c0.021-0.733,0.056-1.664,0.056-3.647
		c0-1.426,0-2.954-0.112-4.276l0.057-0.063c0.538-0.082,0.646-0.103,1.194-0.217l0.065,0.072c-0.076,1.354-0.076,2.717-0.076,4.071
		c0,2.263,0.033,3.047,0.089,4.029L206.4,80.006z"/>
	<path d="M209.656,80.006c-0.569,0.009-0.658,0.009-1.195,0.041l-0.054-0.072c0.032-0.547,0.064-1.022,0.064-2.169
		c0-1.973-0.032-2.346-0.108-2.955l0.055-0.073c0.471-0.072,0.637-0.093,1.185-0.206l0.108,0.062
		c-0.031,0.538-0.065,1.095-0.065,2.428c0,1.921,0.021,2.18,0.065,2.882L209.656,80.006z M209.667,73.135
		c-0.559,0.021-0.678,0.031-1.217,0.083l-0.066-0.062c0.011-0.134,0.011-0.279,0.011-0.413c0-0.186-0.011-0.352-0.02-0.559
		l0.075-0.061c0.57-0.041,0.669-0.052,1.217-0.103l0.067,0.062c-0.012,0.423-0.012,0.526,0,0.981L209.667,73.135z"/>
	<path d="M213.999,76.876c0.44,0.134,1.438,0.454,1.438,1.549c0,0.414-0.164,0.879-0.613,1.219
		c-0.582,0.464-1.361,0.496-1.756,0.496c-0.592,0-1.085-0.103-1.502-0.259c-0.056-0.02-0.11-0.04-0.164-0.061l-0.056-0.093
		c0.043-0.403,0.043-0.455,0.066-0.868l0.11-0.031c0.196,0.144,0.678,0.496,1.523,0.496c0.867,0,1.185-0.455,1.185-0.774
		c0-0.475-0.471-0.631-1.142-0.837l-0.35-0.113c-0.451-0.134-1.437-0.433-1.437-1.499c0-1.063,0.985-1.59,2.214-1.59
		c0.811,0,1.382,0.217,1.579,0.29l0.056,0.072c-0.044,0.382-0.056,0.423-0.087,0.816l-0.099,0.041
		c-0.276-0.165-0.703-0.413-1.415-0.413c-0.153,0-0.307,0.011-0.473,0.052c-0.33,0.082-0.603,0.299-0.603,0.62
		c0,0.444,0.449,0.579,1.131,0.775L213.999,76.876z"/>
	<path d="M220.612,76.668c-1.009,0.011-1.425,0.021-2.752,0.011c0.11-1.033,0.833-1.426,1.446-1.426
		c0.494,0,0.977,0.238,1.197,0.806C220.592,76.297,220.603,76.524,220.612,76.668z M220.558,72.35
		c-0.207,0.011-0.416,0.011-0.625,0.011c-0.208,0-0.406,0-0.646-0.011l-0.067,0.053c-0.241,0.671-0.559,1.332-0.669,1.58
		l0.044,0.072c0.384,0,0.505,0,0.8,0.011l0.078-0.042c0.494-0.754,0.591-0.898,1.13-1.59L220.558,72.35z M221.436,78.704
		c-0.143,0.113-0.384,0.3-0.789,0.454c-0.307,0.104-0.637,0.155-0.954,0.155c-0.341,0-0.965-0.052-1.417-0.558
		c-0.371-0.422-0.405-0.93-0.415-1.291c1.798-0.01,2.094-0.01,3.806,0l0.076-0.062c0.011-0.455,0.034-1.477-0.592-2.18
		c-0.329-0.372-0.934-0.712-1.799-0.712c-1.436,0-2.664,0.939-2.664,2.861c0,1.798,1.13,2.769,2.928,2.769
		c0.977,0,1.568-0.299,1.756-0.392l0.064-0.073c0.021-0.403,0.032-0.506,0.088-0.92L221.436,78.704z"/>
	<path d="M227.051,76.668c-1.009,0.011-1.426,0.021-2.752,0.011c0.109-1.033,0.832-1.426,1.445-1.426
		c0.496,0,0.978,0.238,1.197,0.806C227.029,76.297,227.04,76.524,227.051,76.668z M227.873,78.704
		c-0.143,0.113-0.384,0.3-0.789,0.454c-0.309,0.104-0.637,0.155-0.954,0.155c-0.341,0-0.965-0.052-1.415-0.558
		c-0.373-0.422-0.405-0.93-0.416-1.291c1.797-0.01,2.095-0.01,3.805,0l0.076-0.062c0.011-0.455,0.034-1.477-0.592-2.18
		c-0.329-0.372-0.934-0.712-1.799-0.712c-1.437,0-2.664,0.939-2.664,2.861c0,1.798,1.13,2.769,2.928,2.769
		c0.977,0,1.568-0.299,1.756-0.392l0.064-0.073c0.021-0.403,0.033-0.506,0.089-0.92L227.873,78.704z"/>
	<path d="M118.06,91.084c-0.153,0.124-0.559,0.456-1.228,0.456c-0.571,0-0.932-0.249-1.13-0.465
		c-0.23-0.258-0.406-0.682-0.406-1.271c0-0.919,0.395-1.406,0.637-1.623c0.526-0.464,1.25-0.484,1.59-0.484
		c0.231,0,0.362,0.02,0.548,0.03C118.082,89.421,118.082,89.731,118.06,91.084z M118.006,84.39c0.054,0.599,0.11,1.219,0.099,2.5
		c-0.297-0.021-0.406-0.021-0.636-0.021c-0.57,0-1.612,0.031-2.414,0.712c-0.46,0.382-0.965,1.095-0.965,2.222
		c0,1.57,1.009,2.655,2.468,2.655c0.8,0,1.249-0.331,1.513-0.517l-0.022,0.382l0.078,0.062c0.504-0.021,0.635-0.031,1.118-0.031
		l0.056-0.073c-0.045-0.712-0.088-1.477-0.088-3.078c0-1.033,0.011-3.595,0.088-5.031l-0.077-0.063
		c-0.494,0.104-0.603,0.124-1.163,0.217L118.006,84.39z"/>
	<path d="M124.915,89.008c-1.009,0.01-1.426,0.021-2.753,0.01c0.109-1.033,0.834-1.425,1.448-1.425c0.493,0,0.976,0.238,1.195,0.805
		C124.893,88.636,124.904,88.864,124.915,89.008z M125.738,91.043c-0.144,0.114-0.384,0.3-0.79,0.455
		c-0.308,0.104-0.636,0.156-0.955,0.156c-0.339,0-0.964-0.052-1.414-0.558c-0.373-0.424-0.406-0.931-0.417-1.292
		c1.798-0.011,2.095-0.011,3.806,0l0.077-0.062c0.011-0.454,0.033-1.477-0.592-2.18c-0.329-0.372-0.932-0.712-1.798-0.712
		c-1.437,0-2.666,0.94-2.666,2.861c0,1.797,1.129,2.768,2.929,2.768c0.975,0,1.568-0.299,1.754-0.392l0.067-0.072
		c0.021-0.403,0.032-0.506,0.086-0.919L125.738,91.043z"/>
	<path d="M134.281,88.223c0.8,0.331,1.864,0.765,1.864,2.087c0,1.157-0.911,2.2-2.819,2.2c-1.161,0-1.908-0.33-2.171-0.456
		l-0.043-0.072c0.043-0.361,0.054-0.557,0.087-0.95l0.11-0.042c0.274,0.176,0.911,0.61,1.931,0.61c1.129,0,1.601-0.547,1.601-1.167
		c0-0.723-0.636-1.002-1.35-1.26l-0.548-0.228c-0.777-0.341-1.821-0.785-1.821-2.045c0-0.382,0.112-0.776,0.341-1.085
		c0.505-0.681,1.415-0.909,2.304-0.909c0.866,0,1.392,0.155,1.974,0.331l0.054,0.083c-0.043,0.393-0.054,0.538-0.087,0.909
		l-0.088,0.042c-0.472-0.228-0.988-0.475-1.81-0.475c-0.91,0-1.48,0.402-1.48,1.012c0,0.465,0.328,0.682,0.559,0.816
		c0.143,0.083,0.188,0.103,0.844,0.372L134.281,88.223z"/>
	<path d="M142.693,87.015c-0.021,0.784-0.034,1.518-0.034,2.355c0,1.27,0.034,2.035,0.056,2.479c0,0.145,0.011,0.29,0.021,0.434
		l-0.043,0.063c-0.526,0.01-0.615,0.02-1.119,0.041l-0.065-0.062l0.011-0.434c-0.242,0.164-0.824,0.588-1.722,0.588
		c-0.427,0-0.899-0.093-1.251-0.351c-0.702-0.538-0.702-1.416-0.712-2.221v-0.641c-0.021-1.477-0.021-1.643-0.056-2.2l0.056-0.073
		c0.514-0.011,0.613-0.011,1.129-0.051l0.066,0.072l-0.043,2.262c0,0.28-0.012,0.485,0,0.981c0.009,0.435,0.033,1.364,1.14,1.364
		c0.647,0,1.108-0.341,1.372-0.538c0.011-0.557,0.011-1.033,0.011-1.632c0-1.437-0.011-1.726-0.078-2.396l0.066-0.073
		c0.505-0.009,0.625-0.009,1.129-0.041L142.693,87.015z"/>
	<path d="M145.938,92.345c-0.57,0.01-0.658,0.01-1.195,0.041l-0.054-0.073c0.033-0.547,0.065-1.022,0.065-2.169
		c0-1.973-0.033-2.346-0.11-2.954l0.056-0.073c0.472-0.072,0.636-0.093,1.184-0.207l0.11,0.063
		c-0.034,0.536-0.065,1.095-0.065,2.427c0,1.922,0.022,2.181,0.065,2.882L145.938,92.345z M145.951,85.475
		c-0.561,0.021-0.682,0.031-1.219,0.084l-0.066-0.063c0.012-0.135,0.012-0.279,0.012-0.413c0-0.187-0.012-0.352-0.021-0.559
		l0.076-0.062c0.571-0.041,0.67-0.051,1.219-0.102l0.065,0.061c-0.011,0.423-0.011,0.527,0,0.981L145.951,85.475z"/>
	<path d="M150.283,89.215c0.438,0.133,1.437,0.454,1.437,1.548c0,0.414-0.166,0.879-0.615,1.219
		c-0.582,0.465-1.361,0.496-1.755,0.496c-0.592,0-1.085-0.104-1.502-0.258c-0.054-0.021-0.11-0.041-0.164-0.062l-0.056-0.093
		c0.045-0.403,0.045-0.455,0.066-0.867l0.11-0.032c0.197,0.145,0.68,0.496,1.525,0.496c0.866,0,1.183-0.455,1.183-0.775
		c0-0.475-0.471-0.631-1.14-0.837l-0.352-0.113c-0.449-0.135-1.437-0.435-1.437-1.499s0.988-1.59,2.215-1.59
		c0.812,0,1.381,0.217,1.58,0.289l0.054,0.072c-0.043,0.382-0.054,0.424-0.086,0.816l-0.099,0.042
		c-0.274-0.166-0.701-0.414-1.415-0.414c-0.153,0-0.307,0.011-0.472,0.052c-0.328,0.083-0.603,0.3-0.603,0.62
		c0,0.444,0.449,0.579,1.13,0.774L150.283,89.215z"/>
	<path d="M155.568,89.215c0.438,0.133,1.435,0.454,1.435,1.548c0,0.414-0.163,0.879-0.615,1.219
		c-0.579,0.465-1.359,0.496-1.752,0.496c-0.593,0-1.087-0.104-1.502-0.258c-0.056-0.021-0.111-0.041-0.166-0.062l-0.054-0.093
		c0.043-0.403,0.043-0.455,0.065-0.867l0.11-0.032c0.198,0.145,0.68,0.496,1.523,0.496c0.866,0,1.185-0.455,1.185-0.775
		c0-0.475-0.471-0.631-1.14-0.837l-0.35-0.113c-0.452-0.135-1.438-0.435-1.438-1.499s0.986-1.59,2.215-1.59
		c0.812,0,1.381,0.217,1.58,0.289l0.054,0.072c-0.043,0.382-0.054,0.424-0.087,0.816l-0.099,0.042
		c-0.274-0.166-0.703-0.414-1.414-0.414c-0.155,0-0.308,0.011-0.472,0.052c-0.33,0.083-0.604,0.3-0.604,0.62
		c0,0.444,0.451,0.579,1.129,0.774L155.568,89.215z"/>
	<path d="M162.181,89.008c-1.009,0.01-1.426,0.021-2.752,0.01c0.11-1.033,0.833-1.425,1.447-1.425c0.493,0,0.976,0.238,1.195,0.805
		C162.159,88.636,162.17,88.864,162.181,89.008z M163.003,91.043c-0.143,0.114-0.384,0.3-0.79,0.455
		c-0.307,0.104-0.636,0.156-0.954,0.156c-0.341,0-0.965-0.052-1.415-0.558c-0.372-0.424-0.406-0.931-0.417-1.292
		c1.797-0.011,2.095-0.011,3.805,0l0.076-0.062c0.012-0.454,0.034-1.477-0.591-2.18c-0.33-0.372-0.932-0.712-1.799-0.712
		c-1.435,0-2.665,0.94-2.665,2.861c0,1.797,1.129,2.768,2.928,2.768c0.977,0,1.568-0.299,1.754-0.392l0.066-0.072
		c0.021-0.403,0.034-0.506,0.087-0.919L163.003,91.043z"/>
	<path d="M172.622,89.628c0.01,0.217,0,0.91-0.254,1.374c-0.317,0.568-0.844,0.692-1.249,0.692c-0.22,0-0.449-0.041-0.647-0.135
		c-0.867-0.414-0.878-1.456-0.878-1.87c0-0.434,0.034-1.033,0.33-1.456c0.384-0.579,0.997-0.599,1.206-0.599
		c0.614,0,0.965,0.268,1.174,0.588C172.577,88.677,172.622,89.37,172.622,89.628z M173.816,89.587
		c-0.022-0.723-0.164-1.446-0.669-1.994c-0.481-0.517-1.218-0.743-1.964-0.743c-1.096,0-1.732,0.423-2.039,0.723
		c-0.735,0.692-0.757,1.704-0.757,2.096c0,0.341,0.013,1.395,0.757,2.108c0.352,0.341,0.978,0.691,1.962,0.691
		c0.768,0,1.415-0.175,1.898-0.63c0.362-0.341,0.591-0.743,0.714-1.25C173.794,90.279,173.816,89.938,173.816,89.587z"/>
	<path d="M179.684,91.126c-0.043,0.444-0.056,0.496-0.086,0.92l-0.078,0.072c-0.318,0.145-0.746,0.351-1.514,0.351
		c-1.655,0-2.731-1.125-2.731-2.737c0-1.642,1.053-2.881,2.753-2.881c0.714,0,1.219,0.217,1.503,0.33l0.044,0.073
		c-0.044,0.372-0.055,0.506-0.076,0.816l-0.088,0.041c-0.361-0.248-0.779-0.403-1.217-0.403c-0.911,0-1.711,0.661-1.711,1.983
		c0,1.406,0.844,1.912,1.699,1.912c0.745,0,1.206-0.362,1.416-0.517L179.684,91.126z"/>
	<path d="M185.202,91.126c-0.047,0.444-0.056,0.496-0.09,0.92l-0.076,0.072c-0.317,0.145-0.746,0.351-1.513,0.351
		c-1.656,0-2.732-1.125-2.732-2.737c0-1.642,1.055-2.881,2.754-2.881c0.713,0,1.217,0.217,1.502,0.33l0.043,0.073
		c-0.043,0.372-0.054,0.506-0.077,0.816l-0.087,0.041c-0.361-0.248-0.778-0.403-1.217-0.403c-0.91,0-1.711,0.661-1.711,1.983
		c0,1.406,0.844,1.912,1.699,1.912c0.746,0,1.207-0.362,1.415-0.517L185.202,91.126z"/>
	<path d="M187.8,92.345c-0.569,0.01-0.658,0.01-1.195,0.041l-0.056-0.073c0.034-0.547,0.066-1.022,0.066-2.169
		c0-1.973-0.032-2.346-0.109-2.954l0.056-0.073c0.471-0.072,0.635-0.093,1.183-0.207l0.109,0.063
		c-0.032,0.536-0.066,1.095-0.066,2.427c0,1.922,0.023,2.181,0.066,2.882L187.8,92.345z M187.811,85.475
		c-0.559,0.021-0.68,0.031-1.217,0.084l-0.066-0.063c0.011-0.135,0.011-0.279,0.011-0.413c0-0.187-0.011-0.352-0.021-0.559
		l0.076-0.062c0.569-0.041,0.669-0.051,1.217-0.102l0.066,0.061c-0.012,0.423-0.012,0.527,0,0.981L187.811,85.475z"/>
	<path d="M193.504,91.084c-0.155,0.124-0.561,0.456-1.229,0.456c-0.57,0-0.933-0.249-1.13-0.465
		c-0.229-0.258-0.406-0.682-0.406-1.271c0-0.919,0.396-1.406,0.637-1.623c0.526-0.464,1.249-0.484,1.59-0.484
		c0.23,0,0.362,0.02,0.55,0.03C193.523,89.421,193.523,89.731,193.504,91.084z M193.448,84.39c0.056,0.599,0.109,1.219,0.099,2.5
		c-0.297-0.021-0.405-0.021-0.637-0.021c-0.571,0-1.613,0.031-2.413,0.712c-0.46,0.382-0.965,1.095-0.965,2.222
		c0,1.57,1.008,2.655,2.468,2.655c0.801,0,1.25-0.331,1.515-0.517l-0.023,0.382l0.077,0.062c0.505-0.021,0.635-0.031,1.119-0.031
		l0.055-0.073c-0.045-0.712-0.088-1.477-0.088-3.078c0-1.033,0.011-3.595,0.088-5.031l-0.077-0.063
		c-0.492,0.104-0.603,0.124-1.161,0.217L193.448,84.39z"/>
	<path d="M200.357,89.008c-1.009,0.01-1.426,0.021-2.754,0.01c0.111-1.033,0.834-1.425,1.449-1.425c0.492,0,0.976,0.238,1.195,0.805
		C200.334,88.636,200.347,88.864,200.357,89.008z M201.18,91.043c-0.143,0.114-0.384,0.3-0.789,0.455
		c-0.309,0.104-0.637,0.156-0.954,0.156c-0.341,0-0.966-0.052-1.415-0.558c-0.373-0.424-0.406-0.931-0.418-1.292
		c1.799-0.011,2.096-0.011,3.806,0l0.077-0.062c0.011-0.454,0.034-1.477-0.592-2.18c-0.329-0.372-0.932-0.712-1.799-0.712
		c-1.437,0-2.666,0.94-2.666,2.861c0,1.797,1.13,2.768,2.93,2.768c0.975,0,1.568-0.299,1.754-0.392l0.066-0.072
		c0.021-0.403,0.032-0.506,0.087-0.919L201.18,91.043z"/>
	<path d="M208.013,92.345c-0.528,0.01-0.594,0.01-1.099,0.041l-0.075-0.073c0-0.113,0.011-0.227,0.011-0.341
		c0.011-0.506,0.011-1.012,0.011-1.519c0-1.59-0.011-1.694-0.066-1.911c-0.208-0.785-0.833-0.785-0.986-0.785
		c-0.658,0-1.163,0.36-1.459,0.578c-0.011,1.797,0.012,2.737,0.087,3.946l-0.064,0.063c-0.537,0.01-0.626,0.01-1.152,0.041
		l-0.054-0.073c0.011-0.578,0.032-1.136,0.032-1.9c0-1.653-0.077-2.531-0.132-3.223l0.065-0.073
		c0.548-0.093,0.646-0.114,1.162-0.207l0.078,0.072l-0.011,0.537c0.284-0.186,0.966-0.64,1.931-0.64c0.273,0,0.614,0.042,0.91,0.196
		c0.283,0.156,0.516,0.393,0.635,0.672c0.144,0.31,0.153,0.62,0.165,1.26v1.209c0.031,1.208,0.044,1.673,0.078,2.065L208.013,92.345
		z"/>
	<path d="M212.552,91.54c-0.032,0.34-0.032,0.413-0.043,0.712l-0.056,0.062c-0.229,0.052-0.415,0.094-0.821,0.094
		c-0.265,0-0.955,0-1.296-0.537c-0.196-0.3-0.196-0.547-0.196-1.767l0.021-2.273c-0.384,0-0.395,0.01-0.789,0.021l-0.044-0.062
		c0.021-0.332,0.021-0.414,0.021-0.744l0.066-0.063c0.241,0,0.386,0.011,0.746,0c-0.011-0.217-0.011-0.444-0.011-0.661
		c-0.011-0.197-0.021-0.392-0.034-0.589l0.056-0.073c0.494-0.113,0.615-0.144,1.118-0.289l0.077,0.052
		c-0.032,0.681-0.043,0.816-0.043,1.57c0.46-0.011,0.591-0.011,1.217-0.031l0.056,0.062c-0.021,0.269-0.034,0.383-0.034,0.734
		l-0.054,0.062c-0.549-0.011-0.615-0.021-1.195-0.021l-0.023,1.922c0.013,0.124,0.013,0.713,0.013,0.858
		c0,0.753,0.099,0.992,0.646,0.992c0.23,0,0.406-0.052,0.526-0.093L212.552,91.54z"/>
	<path d="M217.026,89.452v1.726c-0.121,0.103-0.516,0.455-1.194,0.455c-1.043,0-1.043-0.889-1.043-0.94
		c0-0.919,1.031-1.064,2.14-1.219L217.026,89.452z M218.156,89.205c0-0.434,0-1.002-0.077-1.292
		c-0.229-0.807-1.021-1.063-1.832-1.063c-0.646,0-1.281,0.133-1.896,0.341l-0.066,0.062c-0.011,0.216-0.011,0.278-0.032,0.754
		l0.088,0.051c0.462-0.186,0.954-0.392,1.666-0.392c0.548,0,0.801,0.196,0.91,0.382c0.1,0.165,0.1,0.361,0.1,0.641l-0.187,0.02
		c-1.974,0.217-3.203,0.661-3.203,2.046c0,1.022,0.769,1.725,1.866,1.725c0.833,0,1.325-0.372,1.534-0.526l-0.011,0.372l0.043,0.062
		c0.507-0.021,0.593-0.031,1.108-0.041l0.056-0.052c-0.056-0.672-0.066-0.785-0.066-2.066V89.205z"/>
	<path d="M221.359,92.345c-0.527,0.01-0.638,0.02-1.153,0.041l-0.054-0.073c0.021-0.732,0.054-1.663,0.054-3.646
		c0-1.426,0-2.955-0.108-4.277l0.055-0.062c0.537-0.083,0.646-0.103,1.195-0.217l0.066,0.073c-0.077,1.353-0.077,2.717-0.077,4.07
		c0,2.262,0.032,3.048,0.088,4.029L221.359,92.345z"/>
	<path d="M227.051,89.008c-1.009,0.01-1.426,0.021-2.752,0.01c0.109-1.033,0.832-1.425,1.445-1.425c0.496,0,0.978,0.238,1.197,0.805
		C227.029,88.636,227.04,88.864,227.051,89.008z M227.873,91.043c-0.143,0.114-0.384,0.3-0.789,0.455
		c-0.309,0.104-0.637,0.156-0.954,0.156c-0.341,0-0.965-0.052-1.415-0.558c-0.373-0.424-0.405-0.931-0.416-1.292
		c1.797-0.011,2.095-0.011,3.805,0l0.076-0.062c0.011-0.454,0.034-1.477-0.592-2.18c-0.329-0.372-0.934-0.712-1.799-0.712
		c-1.437,0-2.664,0.94-2.664,2.861c0,1.797,1.13,2.768,2.928,2.768c0.977,0,1.568-0.299,1.756-0.392l0.064-0.072
		c0.021-0.403,0.033-0.506,0.089-0.919L227.873,91.043z"/>
</g>
<g>
	<path d="M78.19,107.252c-1.086-0.03-1.305-0.03-2.61-0.042c-0.021,0.445-0.021,2.026,0.066,3.151l-0.054,0.073
		c-0.604,0-0.691,0.009-1.273,0.03l-0.055-0.071c0.044-0.786,0.065-1.384,0.065-4.433c0-1.466-0.032-2.117-0.065-2.747l0.055-0.073
		c0.757,0.009,3.663-0.011,4.42-0.031l0.054,0.072c-0.043,0.372-0.043,0.423-0.066,0.826l-0.066,0.063
		c-1.359-0.032-1.732-0.042-3.07-0.042c-0.012,0.423-0.033,1.466-0.033,2.076v0.237c1.25-0.009,1.623-0.02,2.719-0.051l0.055,0.062
		c-0.044,0.475-0.044,0.526-0.077,0.827L78.19,107.252z"/>
	<path d="M82.82,107.531v1.725c-0.12,0.103-0.515,0.455-1.195,0.455c-1.042,0-1.042-0.889-1.042-0.94
		c0-0.919,1.031-1.064,2.139-1.219L82.82,107.531z M83.951,107.284c0-0.435,0-1.002-0.078-1.292
		c-0.229-0.806-1.02-1.064-1.832-1.064c-0.647,0-1.283,0.134-1.896,0.342l-0.066,0.061c-0.011,0.217-0.011,0.279-0.033,0.754
		l0.088,0.051c0.46-0.186,0.954-0.393,1.667-0.393c0.549,0,0.801,0.196,0.911,0.382c0.098,0.165,0.098,0.361,0.098,0.641
		l-0.186,0.02c-1.974,0.217-3.203,0.661-3.203,2.045c0,1.023,0.767,1.725,1.864,1.725c0.834,0,1.327-0.371,1.535-0.527l-0.011,0.372
		l0.044,0.062c0.505-0.021,0.592-0.03,1.108-0.041l0.055-0.053c-0.055-0.671-0.066-0.784-0.066-2.065V107.284z"/>
	<path d="M90.093,109.204c-0.045,0.443-0.056,0.496-0.088,0.919l-0.077,0.073c-0.318,0.146-0.746,0.352-1.514,0.352
		c-1.656,0-2.731-1.125-2.731-2.737c0-1.643,1.053-2.882,2.753-2.882c0.713,0,1.217,0.216,1.502,0.331l0.044,0.072
		c-0.044,0.372-0.055,0.507-0.077,0.816l-0.087,0.041c-0.362-0.248-0.778-0.402-1.218-0.402c-0.911,0-1.711,0.66-1.711,1.982
		c0,1.404,0.845,1.912,1.7,1.912c0.746,0,1.206-0.362,1.415-0.517L90.093,109.204z"/>
	<path d="M96.343,110.423c-0.526,0.011-0.591,0.011-1.096,0.041l-0.077-0.071l0.011-0.341c0.011-0.537,0.011-1.085,0.011-1.623
		l-0.011-1.104c0-0.238,0-0.476-0.055-0.703c-0.121-0.475-0.427-0.784-0.987-0.784c-0.625,0-1.108,0.33-1.47,0.578
		c-0.011,1.797,0.012,2.737,0.077,3.946l-0.055,0.062c-0.504,0.011-0.636,0.011-1.174,0.041l-0.055-0.071
		c0.021-0.733,0.055-1.664,0.055-3.646c0-0.868-0.011-1.736-0.022-2.604c-0.021-0.909-0.054-1.208-0.086-1.673l0.054-0.062
		c0.526-0.083,0.701-0.114,1.195-0.217l0.066,0.073c-0.066,1.105-0.066,2.22-0.066,3.336c0.351-0.217,1.042-0.641,1.963-0.641
		c0.252,0,0.505,0.031,0.735,0.125c0.493,0.187,0.79,0.557,0.899,0.981c0.055,0.208,0.055,0.331,0.077,1.023v1.208l0.011,0.485
		c0.022,0.867,0.022,1.013,0.067,1.581L96.343,110.423z"/>
	<path d="M103.231,110.423c-0.527,0.011-0.593,0.011-1.098,0.041l-0.076-0.071l0.011-0.341c0.011-0.537,0.011-1.085,0.011-1.623
		l-0.011-1.104c0-0.238,0-0.476-0.055-0.703c-0.121-0.475-0.428-0.784-0.987-0.784c-0.625,0-1.108,0.33-1.47,0.578
		c-0.011,1.797,0.012,2.737,0.077,3.946l-0.054,0.062c-0.504,0.011-0.636,0.011-1.173,0.041l-0.055-0.071
		c0.022-0.733,0.055-1.664,0.055-3.646c0-0.868-0.011-1.736-0.022-2.604c-0.021-0.909-0.056-1.208-0.088-1.673l0.055-0.062
		c0.526-0.083,0.702-0.114,1.195-0.217l0.066,0.073c-0.066,1.105-0.066,2.22-0.066,3.336c0.351-0.217,1.042-0.641,1.963-0.641
		c0.252,0,0.504,0.031,0.734,0.125c0.494,0.187,0.79,0.557,0.899,0.981c0.055,0.208,0.055,0.331,0.077,1.023v1.208l0.012,0.485
		c0.022,0.867,0.022,1.013,0.065,1.581L103.231,110.423z"/>
	<path d="M109.208,107.706c0.011,0.217,0,0.91-0.252,1.374c-0.317,0.568-0.844,0.693-1.25,0.693c-0.22,0-0.451-0.042-0.647-0.134
		c-0.867-0.414-0.878-1.457-0.878-1.871c0-0.434,0.033-1.033,0.329-1.455c0.384-0.581,0.998-0.601,1.207-0.601
		c0.614,0,0.964,0.27,1.174,0.589C109.164,106.756,109.208,107.448,109.208,107.706z M110.402,107.665
		c-0.021-0.723-0.164-1.446-0.668-1.994c-0.482-0.516-1.217-0.743-1.963-0.743c-1.096,0-1.732,0.423-2.039,0.723
		c-0.735,0.691-0.757,1.704-0.757,2.097c0,0.341,0.011,1.395,0.757,2.107c0.35,0.34,0.976,0.692,1.963,0.692
		c0.767,0,1.414-0.177,1.896-0.63c0.362-0.34,0.593-0.745,0.713-1.25C110.381,108.356,110.402,108.016,110.402,107.665z"/>
	<path d="M116.271,109.204c-0.044,0.443-0.055,0.496-0.088,0.919l-0.076,0.073c-0.319,0.146-0.747,0.352-1.514,0.352
		c-1.656,0-2.731-1.125-2.731-2.737c0-1.643,1.053-2.882,2.753-2.882c0.714,0,1.218,0.216,1.503,0.331l0.043,0.072
		c-0.043,0.372-0.054,0.507-0.077,0.816l-0.087,0.041c-0.362-0.248-0.779-0.402-1.218-0.402c-0.911,0-1.711,0.66-1.711,1.982
		c0,1.404,0.845,1.912,1.7,1.912c0.745,0,1.207-0.362,1.414-0.517L116.271,109.204z"/>
	<path d="M122.521,110.423c-0.526,0.011-0.592,0.011-1.097,0.041l-0.077-0.071l0.011-0.341c0.012-0.537,0.012-1.085,0.012-1.623
		l-0.012-1.104c0-0.238,0-0.476-0.055-0.703c-0.121-0.475-0.427-0.784-0.986-0.784c-0.625,0-1.108,0.33-1.47,0.578
		c-0.011,1.797,0.011,2.737,0.077,3.946l-0.054,0.062c-0.505,0.011-0.637,0.011-1.174,0.041l-0.056-0.071
		c0.022-0.733,0.056-1.664,0.056-3.646c0-0.868-0.011-1.736-0.022-2.604c-0.021-0.909-0.055-1.208-0.087-1.673l0.054-0.062
		c0.526-0.083,0.703-0.114,1.196-0.217l0.065,0.073c-0.065,1.105-0.065,2.22-0.065,3.336c0.351-0.217,1.041-0.641,1.963-0.641
		c0.252,0,0.504,0.031,0.735,0.125c0.494,0.187,0.79,0.557,0.899,0.981c0.054,0.208,0.054,0.331,0.077,1.023v1.208l0.011,0.485
		c0.022,0.867,0.022,1.013,0.066,1.581L122.521,110.423z"/>
	<path d="M126.864,107.293c0.439,0.135,1.437,0.455,1.437,1.55c0,0.413-0.165,0.878-0.614,1.219
		c-0.583,0.465-1.36,0.495-1.755,0.495c-0.592,0-1.086-0.103-1.502-0.257c-0.054-0.021-0.11-0.042-0.164-0.062l-0.056-0.093
		c0.045-0.403,0.045-0.455,0.066-0.867l0.11-0.032c0.197,0.145,0.68,0.495,1.523,0.495c0.867,0,1.185-0.454,1.185-0.775
		c0-0.475-0.471-0.63-1.14-0.836l-0.351-0.115c-0.45-0.134-1.437-0.433-1.437-1.497c0-1.063,0.987-1.591,2.216-1.591
		c0.811,0,1.381,0.216,1.579,0.289l0.055,0.073c-0.044,0.381-0.055,0.422-0.088,0.816l-0.099,0.041
		c-0.274-0.165-0.701-0.414-1.415-0.414c-0.153,0-0.307,0.011-0.471,0.053c-0.329,0.081-0.603,0.299-0.603,0.619
		c0,0.445,0.449,0.579,1.129,0.775L126.864,107.293z"/>
	<path d="M133.961,109.204c-0.045,0.443-0.056,0.496-0.088,0.919l-0.078,0.073c-0.317,0.146-0.745,0.352-1.512,0.352
		c-1.657,0-2.731-1.125-2.731-2.737c0-1.643,1.053-2.882,2.753-2.882c0.712,0,1.217,0.216,1.502,0.331l0.045,0.072
		c-0.045,0.372-0.056,0.507-0.078,0.816l-0.088,0.041c-0.361-0.248-0.777-0.402-1.217-0.402c-0.91,0-1.711,0.66-1.711,1.982
		c0,1.404,0.846,1.912,1.7,1.912c0.746,0,1.206-0.362,1.415-0.517L133.961,109.204z"/>
	<path d="M140.211,110.423c-0.526,0.011-0.591,0.011-1.096,0.041l-0.077-0.071l0.011-0.341c0.012-0.537,0.012-1.085,0.012-1.623
		l-0.012-1.104c0-0.238,0-0.476-0.054-0.703c-0.121-0.475-0.427-0.784-0.986-0.784c-0.625,0-1.108,0.33-1.471,0.578
		c-0.011,1.797,0.011,2.737,0.077,3.946l-0.056,0.062c-0.504,0.011-0.635,0.011-1.173,0.041l-0.054-0.071
		c0.021-0.733,0.054-1.664,0.054-3.646c0-0.868-0.011-1.736-0.022-2.604c-0.021-0.909-0.054-1.208-0.086-1.673l0.054-0.062
		c0.526-0.083,0.701-0.114,1.195-0.217l0.066,0.073c-0.066,1.105-0.066,2.22-0.066,3.336c0.352-0.217,1.042-0.641,1.963-0.641
		c0.252,0,0.505,0.031,0.736,0.125c0.492,0.187,0.79,0.557,0.898,0.981c0.056,0.208,0.056,0.331,0.077,1.023v1.208l0.011,0.485
		c0.023,0.867,0.023,1.013,0.067,1.581L140.211,110.423z"/>
	<path d="M147.087,105.093c-0.021,0.785-0.033,1.519-0.033,2.355c0,1.271,0.033,2.036,0.056,2.479c0,0.145,0.011,0.289,0.021,0.434
		l-0.045,0.062c-0.526,0.011-0.613,0.02-1.118,0.041l-0.065-0.062l0.011-0.434c-0.242,0.166-0.824,0.589-1.722,0.589
		c-0.429,0-0.9-0.093-1.251-0.351c-0.702-0.537-0.702-1.416-0.714-2.221v-0.641c-0.021-1.478-0.021-1.642-0.054-2.201l0.054-0.071
		c0.517-0.011,0.615-0.011,1.13-0.051l0.066,0.071l-0.045,2.262c0,0.278-0.011,0.486,0,0.981c0.011,0.434,0.034,1.363,1.141,1.363
		c0.647,0,1.107-0.341,1.37-0.537c0.013-0.557,0.013-1.033,0.013-1.632c0-1.437-0.013-1.726-0.078-2.396l0.065-0.073
		c0.505-0.011,0.625-0.011,1.13-0.041L147.087,105.093z"/>
	<path d="M150.312,110.423c-0.526,0.011-0.636,0.02-1.15,0.041l-0.056-0.071c0.021-0.733,0.056-1.664,0.056-3.646
		c0-1.426,0-2.955-0.11-4.277l0.054-0.062c0.537-0.083,0.647-0.103,1.195-0.217l0.065,0.073c-0.076,1.353-0.076,2.717-0.076,4.07
		c0,2.262,0.033,3.047,0.088,4.028L150.312,110.423z"/>
	<path d="M156.005,107.087c-1.009,0.01-1.426,0.02-2.753,0.01c0.108-1.034,0.833-1.426,1.446-1.426c0.494,0,0.975,0.238,1.195,0.806
		C155.981,106.714,155.993,106.942,156.005,107.087z M156.827,109.121c-0.144,0.115-0.386,0.301-0.792,0.456
		c-0.306,0.103-0.635,0.155-0.954,0.155c-0.339,0-0.964-0.052-1.414-0.559c-0.373-0.422-0.406-0.929-0.417-1.291
		c1.798-0.009,2.093-0.009,3.804,0l0.076-0.062c0.013-0.454,0.034-1.478-0.591-2.181c-0.328-0.37-0.932-0.711-1.797-0.711
		c-1.437,0-2.665,0.939-2.665,2.86c0,1.798,1.128,2.769,2.926,2.769c0.977,0,1.568-0.299,1.755-0.392l0.067-0.071
		c0.02-0.404,0.032-0.507,0.086-0.921L156.827,109.121z"/>
	<path d="M169.482,110.434c-0.746,0-0.856,0-1.579,0.03l-0.076-0.071c-0.177-1.034-0.243-1.333-0.396-2.087l-0.899-4.453
		l-0.91,4.215c-0.054,0.279-0.11,0.568-0.175,0.848c-0.088,0.443-0.251,1.198-0.297,1.446l-0.065,0.073
		c-0.79,0-0.833,0.009-1.59,0.03l-0.076-0.071c-0.198-0.931-1.108-4.845-1.7-7.179l0.054-0.073c0.615,0,0.714-0.011,1.25-0.031
		l0.066,0.072c0.067,0.362,0.132,0.692,0.231,1.208c0.088,0.465,0.175,0.921,0.263,1.375l0.799,3.946l0.923-4.576
		c0.153-0.755,0.176-0.878,0.373-1.921l0.066-0.073c0.833-0.011,0.976-0.011,1.742-0.031l0.066,0.072
		c0.011,0.083,0.021,0.166,0.032,0.258c0.045,0.269,0.298,1.591,0.362,1.943l0.866,4.359l0.855-4.08
		c0.406-1.994,0.417-2.036,0.473-2.448l0.064-0.073c0.505,0,0.615-0.011,1.076-0.031l0.055,0.072
		c-0.253,0.806-0.317,1.084-0.922,3.595c-0.273,1.126-0.569,2.242-0.811,3.368c-0.011,0.071-0.034,0.145-0.044,0.217
		L169.482,110.434z"/>
	<path d="M176.01,107.087c-1.008,0.01-1.426,0.02-2.753,0.01c0.11-1.034,0.833-1.426,1.448-1.426c0.493,0,0.975,0.238,1.195,0.806
		C175.988,106.714,175.999,106.942,176.01,107.087z M176.832,109.121c-0.143,0.115-0.384,0.301-0.79,0.456
		c-0.307,0.103-0.635,0.155-0.953,0.155c-0.339,0-0.965-0.052-1.415-0.559c-0.372-0.422-0.406-0.929-0.417-1.291
		c1.798-0.009,2.095-0.009,3.806,0l0.076-0.062c0.012-0.454,0.034-1.478-0.592-2.181c-0.328-0.37-0.932-0.711-1.797-0.711
		c-1.438,0-2.666,0.939-2.666,2.86c0,1.798,1.13,2.769,2.928,2.769c0.977,0,1.568-0.299,1.755-0.392l0.065-0.071
		c0.021-0.404,0.034-0.507,0.088-0.921L176.832,109.121z"/>
	<path d="M181.121,107.293c0.438,0.135,1.437,0.455,1.437,1.55c0,0.413-0.164,0.878-0.613,1.219
		c-0.582,0.465-1.362,0.495-1.756,0.495c-0.591,0-1.085-0.103-1.502-0.257c-0.056-0.021-0.111-0.042-0.165-0.062l-0.055-0.093
		c0.043-0.403,0.043-0.455,0.065-0.867l0.109-0.032c0.198,0.145,0.68,0.495,1.525,0.495c0.867,0,1.183-0.454,1.183-0.775
		c0-0.475-0.471-0.63-1.14-0.836l-0.35-0.115c-0.45-0.134-1.437-0.433-1.437-1.497c0-1.063,0.986-1.591,2.214-1.591
		c0.812,0,1.383,0.216,1.579,0.289l0.056,0.073c-0.043,0.381-0.056,0.422-0.088,0.816l-0.098,0.041
		c-0.275-0.165-0.703-0.414-1.415-0.414c-0.155,0-0.307,0.011-0.473,0.053c-0.328,0.081-0.602,0.299-0.602,0.619
		c0,0.445,0.448,0.579,1.128,0.775L181.121,107.293z"/>
	<path d="M186.604,109.618c-0.034,0.341-0.034,0.412-0.043,0.712l-0.056,0.062c-0.231,0.051-0.417,0.093-0.822,0.093
		c-0.264,0-0.954,0-1.296-0.537c-0.197-0.301-0.197-0.548-0.197-1.767l0.023-2.273c-0.386,0-0.395,0.01-0.791,0.021l-0.043-0.063
		c0.022-0.33,0.022-0.412,0.022-0.743l0.065-0.062c0.241,0,0.384,0.011,0.746,0c-0.013-0.217-0.013-0.445-0.013-0.661
		c-0.011-0.197-0.021-0.394-0.032-0.589l0.056-0.072c0.494-0.115,0.615-0.144,1.119-0.29l0.076,0.052
		c-0.032,0.682-0.045,0.817-0.045,1.571c0.462-0.011,0.593-0.011,1.219-0.031l0.054,0.062c-0.021,0.269-0.032,0.381-0.032,0.734
		l-0.054,0.061c-0.55-0.01-0.615-0.021-1.197-0.021l-0.021,1.922c0.01,0.123,0.01,0.713,0.01,0.857c0,0.754,0.1,0.991,0.647,0.991
		c0.23,0,0.405-0.051,0.526-0.093L186.604,109.618z"/>
	<path d="M190.333,107.293c0.439,0.135,1.437,0.455,1.437,1.55c0,0.413-0.164,0.878-0.614,1.219
		c-0.581,0.465-1.359,0.495-1.755,0.495c-0.593,0-1.085-0.103-1.502-0.257c-0.056-0.021-0.111-0.042-0.165-0.062l-0.055-0.093
		c0.044-0.403,0.044-0.455,0.065-0.867l0.109-0.032c0.197,0.145,0.682,0.495,1.525,0.495c0.867,0,1.185-0.454,1.185-0.775
		c0-0.475-0.473-0.63-1.142-0.836l-0.35-0.115c-0.45-0.134-1.438-0.433-1.438-1.497c0-1.063,0.988-1.591,2.216-1.591
		c0.813,0,1.383,0.216,1.581,0.289l0.054,0.073c-0.045,0.381-0.054,0.422-0.088,0.816l-0.1,0.041
		c-0.272-0.165-0.701-0.414-1.413-0.414c-0.155,0-0.309,0.011-0.473,0.053c-0.328,0.081-0.604,0.299-0.604,0.619
		c0,0.445,0.45,0.579,1.13,0.775L190.333,107.293z"/>
	<path d="M197.429,109.204c-0.045,0.443-0.056,0.496-0.089,0.919l-0.075,0.073c-0.317,0.146-0.747,0.352-1.515,0.352
		c-1.655,0-2.731-1.125-2.731-2.737c0-1.643,1.055-2.882,2.755-2.882c0.712,0,1.217,0.216,1.502,0.331l0.043,0.072
		c-0.043,0.372-0.054,0.507-0.076,0.816l-0.088,0.041c-0.362-0.248-0.778-0.402-1.217-0.402c-0.91,0-1.711,0.66-1.711,1.982
		c0,1.404,0.844,1.912,1.7,1.912c0.744,0,1.206-0.362,1.413-0.517L197.429,109.204z"/>
	<path d="M203.679,110.423c-0.524,0.011-0.592,0.011-1.097,0.041l-0.077-0.071l0.013-0.341c0.011-0.537,0.011-1.085,0.011-1.623
		l-0.011-1.104c0-0.238,0-0.476-0.056-0.703c-0.119-0.475-0.428-0.784-0.986-0.784c-0.626,0-1.108,0.33-1.47,0.578
		c-0.011,1.797,0.01,2.737,0.076,3.946l-0.054,0.062c-0.505,0.011-0.637,0.011-1.174,0.041l-0.056-0.071
		c0.023-0.733,0.056-1.664,0.056-3.646c0-0.868-0.013-1.736-0.021-2.604c-0.022-0.909-0.056-1.208-0.089-1.673l0.055-0.062
		c0.526-0.083,0.703-0.114,1.196-0.217l0.065,0.073c-0.065,1.105-0.065,2.22-0.065,3.336c0.352-0.217,1.042-0.641,1.962-0.641
		c0.254,0,0.505,0.031,0.737,0.125c0.492,0.187,0.788,0.557,0.897,0.981c0.056,0.208,0.056,0.331,0.076,1.023v1.208l0.011,0.485
		c0.023,0.867,0.023,1.013,0.066,1.581L203.679,110.423z"/>
	<path d="M211.982,110.423c-0.736,0.011-0.822,0.011-1.491,0.041l-0.077-0.071c-0.132-0.63-0.341-1.468-0.527-2.2l-0.636-2.48
		l-0.647,2.542c-0.328,1.25-0.438,1.653-0.537,2.107l-0.065,0.062c-0.768,0.011-0.823,0.011-1.514,0.041l-0.065-0.071
		c-0.482-1.85-1.305-4.555-1.535-5.238l0.043-0.072c0.526-0.032,0.669-0.032,1.195-0.083l0.066,0.062
		c0.065,0.341,0.143,0.661,0.615,2.571l0.526,2.129l0.712-2.779c0.33-1.374,0.35-1.508,0.416-1.839l0.076-0.071
		c0.648,0,0.835,0,1.559-0.031l0.065,0.071c0.153,0.713,0.417,1.705,0.614,2.491l0.581,2.189l0.614-2.408
		c0.087-0.361,0.176-0.723,0.264-1.084c0.186-0.702,0.207-0.784,0.274-1.178l0.077-0.062c0.175,0,0.36,0.011,0.537,0.011
		c0.164,0,0.328-0.011,0.492-0.011l0.066,0.062c-0.209,0.588-1.173,3.471-1.624,5.238L211.982,110.423z"/>
	<path d="M218.529,107.087c-1.009,0.01-1.426,0.02-2.753,0.01c0.11-1.034,0.833-1.426,1.448-1.426c0.492,0,0.976,0.238,1.195,0.806
		C218.508,106.714,218.519,106.942,218.529,107.087z M219.352,109.121c-0.143,0.115-0.384,0.301-0.789,0.456
		c-0.307,0.103-0.637,0.155-0.954,0.155c-0.341,0-0.965-0.052-1.417-0.559c-0.371-0.422-0.405-0.929-0.415-1.291
		c1.798-0.009,2.094-0.009,3.806,0l0.076-0.062c0.011-0.454,0.034-1.478-0.592-2.181c-0.329-0.37-0.934-0.711-1.799-0.711
		c-1.436,0-2.664,0.939-2.664,2.86c0,1.798,1.13,2.769,2.928,2.769c0.977,0,1.568-0.299,1.756-0.392l0.064-0.071
		c0.021-0.404,0.032-0.507,0.088-0.921L219.352,109.121z"/>
	<path d="M222.533,110.423c-0.571,0.011-0.659,0.011-1.196,0.041l-0.055-0.071c0.032-0.548,0.065-1.023,0.065-2.169
		c0-1.974-0.033-2.345-0.11-2.954l0.056-0.074c0.473-0.072,0.635-0.093,1.185-0.207l0.108,0.062
		c-0.032,0.538-0.065,1.096-0.065,2.428c0,1.921,0.022,2.181,0.065,2.883L222.533,110.423z M222.543,103.554
		c-0.56,0.02-0.68,0.03-1.217,0.083l-0.065-0.063c0.009-0.134,0.009-0.278,0.009-0.413c0-0.187-0.009-0.352-0.021-0.558l0.078-0.062
		c0.569-0.042,0.668-0.051,1.217-0.103l0.066,0.061c-0.011,0.424-0.011,0.528,0,0.981L222.543,103.554z"/>
	<path d="M228.223,110.434c-0.306,0-1.808,0.009-2.146,0.009c-1.285,0-1.428,0-2.097,0.021l-0.044-0.093
		c0.833-1.3,2.16-3.511,2.719-4.504c-1.445,0.011-1.709,0.011-2.412,0.042l-0.054-0.062c0.043-0.34,0.054-0.423,0.076-0.712
		l0.066-0.062c1.842,0,2.051,0,3.959-0.031l0.056,0.082c-0.978,1.508-2.369,3.968-2.666,4.495c0.944-0.012,1.886-0.032,2.632-0.063
		l0.056,0.063c-0.045,0.319-0.056,0.454-0.077,0.764L228.223,110.434z"/>
</g>
<g>
	<path d="M196.089,47.925c1.904,0.583,6.236,1.973,6.236,6.727c0,1.794-0.714,3.811-2.666,5.292
		c-2.523,2.018-5.903,2.152-7.617,2.152c-2.57,0-4.713-0.448-6.521-1.121c-0.238-0.089-0.477-0.179-0.715-0.269l-0.237-0.404
		c0.19-1.75,0.19-1.974,0.285-3.767l0.477-0.134c0.856,0.627,2.951,2.152,6.617,2.152c3.761,0,5.142-1.973,5.142-3.363
		c0-2.063-2.046-2.735-4.951-3.633l-1.523-0.493c-1.952-0.583-6.236-1.883-6.236-6.501c0-4.62,4.284-6.907,9.616-6.907
		c3.524,0,5.998,0.942,6.855,1.256l0.239,0.314c-0.19,1.658-0.239,1.837-0.383,3.542l-0.428,0.179
		c-1.19-0.718-3.047-1.794-6.142-1.794c-0.666,0-1.333,0.045-2.047,0.225c-1.428,0.358-2.618,1.3-2.618,2.69
		c0,1.929,1.951,2.512,4.905,3.364L196.089,47.925z"/>
	<path d="M224.701,49.718c0.048,0.941,0,3.947-1.097,5.965c-1.379,2.466-3.664,3.004-5.425,3.004c-0.954,0-1.954-0.18-2.811-0.583
		c-3.761-1.793-3.809-6.324-3.809-8.117c0-1.883,0.145-4.484,1.43-6.323c1.666-2.511,4.332-2.601,5.236-2.601
		c2.666,0,4.189,1.166,5.094,2.556C224.511,45.593,224.701,48.597,224.701,49.718z M229.891,49.538
		c-0.096-3.138-0.714-6.278-2.904-8.654c-2.095-2.242-5.284-3.229-8.521-3.229c-4.762,0-7.521,1.839-8.856,3.139
		c-3.188,3.004-3.284,7.399-3.284,9.103c0,1.48,0.049,6.054,3.284,9.148c1.523,1.481,4.237,3.006,8.521,3.006
		c3.334,0,6.143-0.763,8.237-2.737c1.571-1.479,2.569-3.228,3.093-5.425C229.795,52.544,229.891,51.063,229.891,49.538z"/>
	<circle cx="176.114" cy="49.908" r="2.833"/>
</g>
<g>
	<path d="M113.722,30.198c-0.047,3.454-0.095,5.561-0.095,8.7c0,7.534,0.143,15.023,0.524,22.557l-0.238,0.269
		c-4.046-0.045-4.998,0-8.57,0.135l-0.237-0.27c0.237-6.322,0.237-7.802,0.143-13.855c-1.904-0.045-3.809-0.09-5.713-0.09
		c-1.856,0-3.618,0.045-5.712,0.135c0.047,6.501,0.094,8.117,0.38,13.677l-0.238,0.269c-4.188-0.045-5.046,0-8.521,0.135
		l-0.238-0.27c0.095-3.765,0.191-5.962,0.191-10c0-11.12-0.286-16.637-0.524-21.257l0.286-0.269c4.142,0,4.855,0,8.521-0.134
		l0.237,0.269l-0.094,11.839c1.666,0,3.379,0.045,5.045,0.045c2.144,0,4.237-0.045,6.332-0.09c-0.046-5.292-0.046-6.592-0.381-11.66
		l0.239-0.269c3.999,0,4.617,0,8.426-0.134L113.722,30.198z"/>
	<path d="M126.901,47.06c0.142-1.39,0.475-3.273,2.285-4.349c0.571-0.359,1.239-0.494,1.904-0.494c1.571,0,2.522,0.762,3.047,1.57
		c0.666,0.986,0.714,2.062,0.714,3.093L126.901,47.06z M141.326,55.087c-1.81,0.896-3.953,1.928-7.427,1.928
		c-2.856,0-4.809-0.853-5.952-2.467c-0.714-0.941-0.856-1.838-1.046-2.736l15.377-0.269l0.285-0.313
		c-0.046-2.197-0.095-4.44-0.76-6.682c-1.667-5.292-5.334-6.368-6.952-6.727c-1.19-0.313-2.285-0.403-3.38-0.403
		c-7.475,0-12.426,4.619-12.426,12.377c0,2.107,0.382,4.304,1.143,5.875c2.762,6.053,9.237,6.592,12.665,6.592
		c3.951,0,5.666-0.673,8.188-1.615l0.286-0.358l0.333-5.066L141.326,55.087z"/>
	<path d="M161.415,47.06c2.62,0.943,6.286,2.243,6.286,7.175c0,0.314,0,0.627-0.05,0.988c-0.855,6.411-7.996,7.04-11.615,7.04
		c-3.474,0-5.475-0.717-7.808-1.525l-0.237-0.403c0.19-2.242,0.237-2.735,0.333-5.067l0.427-0.179
		c0.713,0.539,1.096,0.852,1.906,1.255c1.76,0.852,3.713,1.256,5.046,1.256c2.665,0,3.761-1.211,3.761-2.332
		c0-1.615-2.097-2.288-3.38-2.69l-1.81-0.629c-2.237-0.807-6.188-2.242-6.188-7.04c0-1.794,0.666-3.139,1.285-3.946
		c2.476-3.363,7.142-3.542,9.474-3.542c3.095,0,5.047,0.538,7.283,1.121l0.239,0.269l-0.476,4.889l-0.429,0.135
		c-1.189-0.718-3.047-1.883-5.95-1.883c-2.953,0-3.333,1.479-3.333,2.017c0,1.256,1.285,1.749,2.905,2.287L161.415,47.06z"/>
</g>
<g>
	<g>
		<path d="M190.008,126.39c0,1.277,0.011,1.391,0.066,2.061l-0.056,0.052c-0.515,0.01-0.601,0.02-1.104,0.041l-0.043-0.062
			l0.011-0.371c-0.207,0.154-0.699,0.525-1.531,0.525c-1.093,0-1.859-0.701-1.859-1.721c0-1.381,1.225-1.825,3.194-2.041
			l0.186-0.021c0-0.278,0-0.474-0.099-0.639c-0.108-0.186-0.361-0.382-0.907-0.382c-0.711,0-1.203,0.206-1.662,0.392l-0.088-0.052
			c0.021-0.474,0.021-0.536,0.032-0.751l0.067-0.062c0.611-0.206,1.246-0.341,1.89-0.341c0.81,0,1.598,0.258,1.827,1.063
			c0.076,0.288,0.076,0.855,0.076,1.288V126.39z M188.783,125.637c-1.104,0.155-2.132,0.299-2.132,1.216
			c0,0.051,0,0.938,1.038,0.938c0.679,0,1.072-0.35,1.192-0.454v-1.721L188.783,125.637z"/>
		<path d="M196.693,128.502c-0.523,0.01-0.589,0.01-1.094,0.041l-0.077-0.072c0-0.114,0.013-0.227,0.013-0.34
			c0.012-0.505,0.012-1.01,0.012-1.515c0-1.587-0.012-1.69-0.067-1.906c-0.208-0.783-0.83-0.783-0.981-0.783
			c-0.657,0-1.162,0.36-1.456,0.577c-0.013,1.793,0.01,2.731,0.087,3.937l-0.065,0.062c-0.535,0.01-0.622,0.01-1.148,0.041
			l-0.056-0.072c0.013-0.577,0.034-1.134,0.034-1.896c0-1.649-0.077-2.524-0.13-3.215l0.064-0.072
			c0.545-0.093,0.645-0.114,1.158-0.207l0.077,0.073l-0.012,0.536c0.284-0.186,0.963-0.639,1.926-0.639
			c0.272,0,0.613,0.042,0.907,0.196c0.285,0.155,0.514,0.392,0.635,0.67c0.143,0.309,0.151,0.618,0.164,1.257v1.205
			c0.031,1.206,0.043,1.67,0.074,2.062L196.693,128.502z"/>
		<path d="M202.079,120.505c0.56-0.093,0.668-0.113,1.16-0.216l0.075,0.061c-0.075,1.433-0.086,3.988-0.086,5.02
			c0,1.597,0.043,2.359,0.086,3.071l-0.054,0.072c-0.481,0-0.611,0.01-1.115,0.031l-0.077-0.062l0.021-0.381
			c-0.262,0.185-0.71,0.515-1.508,0.515c-1.455,0-2.46-1.082-2.46-2.648c0-1.124,0.503-1.835,0.962-2.216
			c0.799-0.68,1.837-0.711,2.405-0.711c0.229,0,0.339,0,0.635,0.021c0.011-1.278-0.045-1.896-0.099-2.494L202.079,120.505z
			 M202.09,123.896c-0.186-0.01-0.315-0.031-0.546-0.031c-0.339,0-1.061,0.021-1.586,0.484c-0.239,0.216-0.633,0.701-0.633,1.618
			c0,0.587,0.175,1.009,0.404,1.267c0.196,0.217,0.557,0.464,1.125,0.464c0.667,0,1.071-0.33,1.225-0.453
			C202.101,125.895,202.101,125.585,202.09,123.896z"/>
	</g>
	<g>
		<path d="M212.073,121.453c0.362,1.133,0.777,2.412,1.105,3.391c0.338,0.989,0.886,2.576,1.214,3.566l-0.043,0.082
			c-0.57,0.011-0.812,0.021-1.27,0.042l-0.078-0.073c-0.272-0.968-0.359-1.246-0.644-2.174c-0.437,0-0.864-0.01-1.301-0.01
			c-0.483,0-0.984,0.01-1.421,0.01c-0.319,0.969-0.385,1.216-0.647,2.133l-0.074,0.072c-0.471,0-0.582,0-1.127,0.031l-0.044-0.072
			c0.031-0.113,0.074-0.216,0.121-0.32c0.415-1.112,0.817-2.226,1.214-3.339c0.653-1.824,0.895-2.494,1.211-3.483l0.09-0.073
			c0.765-0.01,0.863-0.01,1.563-0.041l0.074,0.072L212.073,121.453z M209.909,125.462c0.35,0,0.699,0.01,1.05,0.01
			c0.371,0,0.765-0.01,1.148-0.01l-1.05-3.483L209.909,125.462z"/>
		<path d="M218.158,124.226c-0.111-0.042-0.254-0.093-0.439-0.093c-0.208,0-0.359,0.072-0.459,0.134
			c-0.449,0.299-0.449,0.752-0.449,1.824c0,1.165,0.034,1.772,0.078,2.35l-0.056,0.072c-0.515,0-0.632,0.01-1.158,0.031
			l-0.056-0.062c0.012-0.783,0.024-1.494,0.024-2.452c0-1.649-0.034-2.072-0.099-2.669l0.064-0.072
			c0.415-0.073,0.679-0.124,1.137-0.207l0.064,0.062l-0.052,0.876c0.13-0.33,0.402-0.989,1.334-0.989c0.14,0,0.217,0.01,0.304,0.031
			l0.046,0.062c-0.111,0.495-0.133,0.598-0.21,1.05L218.158,124.226z"/>
		<path d="M222.636,127.698c-0.034,0.34-0.034,0.413-0.047,0.711l-0.053,0.062c-0.229,0.051-0.415,0.093-0.82,0.093
			c-0.263,0-0.95,0-1.291-0.537c-0.195-0.299-0.195-0.546-0.195-1.762l0.021-2.268c-0.384,0-0.393,0.01-0.786,0.021l-0.047-0.062
			c0.021-0.33,0.021-0.413,0.021-0.743l0.068-0.061c0.238,0,0.381,0.01,0.743,0c-0.012-0.217-0.012-0.443-0.012-0.66
			c-0.01-0.196-0.022-0.392-0.031-0.587l0.053-0.072c0.492-0.114,0.613-0.145,1.114-0.289l0.078,0.051
			c-0.031,0.68-0.044,0.814-0.044,1.567c0.458-0.01,0.592-0.01,1.214-0.031l0.056,0.062c-0.021,0.268-0.034,0.381-0.034,0.732
			l-0.056,0.062c-0.545-0.011-0.609-0.021-1.188-0.021l-0.025,1.917c0.013,0.124,0.013,0.711,0.013,0.855
			c0,0.752,0.099,0.989,0.644,0.989c0.232,0,0.406-0.051,0.527-0.093L222.636,127.698z"/>
		<path d="M226.513,125.379c0.437,0.134,1.431,0.454,1.431,1.546c0,0.412-0.164,0.875-0.613,1.216
			c-0.579,0.464-1.356,0.495-1.75,0.495c-0.588,0-1.08-0.103-1.495-0.258c-0.056-0.021-0.111-0.041-0.164-0.062l-0.056-0.093
			c0.043-0.402,0.043-0.453,0.064-0.865l0.108-0.031c0.198,0.144,0.679,0.495,1.521,0.495c0.864,0,1.183-0.454,1.183-0.772
			c0-0.475-0.471-0.628-1.14-0.835l-0.35-0.113c-0.445-0.134-1.431-0.433-1.431-1.494c0-1.062,0.985-1.588,2.208-1.588
			c0.809,0,1.378,0.217,1.576,0.289l0.053,0.072c-0.044,0.382-0.053,0.423-0.087,0.814l-0.099,0.041
			c-0.272-0.165-0.7-0.412-1.409-0.412c-0.155,0-0.307,0.01-0.471,0.051c-0.328,0.083-0.601,0.299-0.601,0.619
			c0,0.443,0.445,0.578,1.124,0.773L226.513,125.379z"/>
	</g>
	<g>
		<path d="M27.203,121.278c-0.022,0.938-0.033,1.185-0.033,1.999c0,0.444,0,0.773,0.011,1.546l0.012,0.928
			c0,0.619,0,1.505-0.635,2.154c-0.525,0.536-1.366,0.762-2.252,0.762c-1.41,0-2.11-0.536-2.395-0.835
			c-0.59-0.639-0.59-1.257-0.59-2.462v-1.051c0-1.494,0-1.67-0.033-3.009l0.077-0.073c0.601-0.01,0.678-0.01,1.225-0.031
			l0.055,0.073c-0.044,1.071-0.044,2.937-0.044,3.937c0,1.03,0.021,1.659,0.405,2.082c0.186,0.217,0.612,0.504,1.366,0.504
			c0.274,0,1.137-0.02,1.553-0.782c0.241-0.433,0.241-1.021,0.241-1.825c0-1.195-0.011-2.71-0.087-3.885l0.054-0.073
			c0.503-0.01,0.569-0.01,1.007-0.031L27.203,121.278z"/>
		<path d="M34.136,128.502c-0.525,0.01-0.59,0.01-1.093,0.041l-0.077-0.072c0-0.114,0.011-0.227,0.011-0.34
			c0.011-0.505,0.011-1.01,0.011-1.515c0-1.587-0.011-1.69-0.066-1.906c-0.208-0.783-0.831-0.783-0.984-0.783
			c-0.656,0-1.159,0.36-1.455,0.577c-0.011,1.793,0.012,2.731,0.087,3.937l-0.065,0.062c-0.536,0.01-0.624,0.01-1.149,0.041
			l-0.054-0.072c0.011-0.577,0.032-1.134,0.032-1.896c0-1.649-0.077-2.524-0.131-3.215l0.066-0.072
			c0.546-0.093,0.645-0.114,1.159-0.207l0.077,0.073l-0.011,0.536c0.284-0.186,0.961-0.639,1.924-0.639
			c0.273,0,0.612,0.042,0.907,0.196c0.284,0.155,0.514,0.392,0.634,0.67c0.143,0.309,0.153,0.618,0.164,1.257v1.205
			c0.033,1.206,0.044,1.67,0.077,2.062L34.136,128.502z"/>
		<path d="M37.377,128.502c-0.569,0.01-0.656,0.01-1.192,0.041l-0.055-0.072c0.033-0.546,0.066-1.02,0.066-2.164
			c0-1.969-0.033-2.339-0.109-2.947l0.055-0.072c0.47-0.073,0.635-0.093,1.181-0.207l0.109,0.062
			c-0.032,0.536-0.065,1.092-0.065,2.422c0,1.917,0.022,2.174,0.065,2.875L37.377,128.502z M37.389,121.649
			c-0.559,0.02-0.678,0.031-1.214,0.082l-0.066-0.062c0.011-0.134,0.011-0.278,0.011-0.412c0-0.186-0.011-0.351-0.021-0.557
			l0.077-0.062c0.568-0.041,0.667-0.051,1.214-0.103l0.065,0.062c-0.011,0.423-0.011,0.526,0,0.979L37.389,121.649z"/>
		<path d="M41.818,128.502c-0.612,0.01-0.765,0.01-1.399,0.041l-0.065-0.072c-0.537-1.751-1.105-3.494-1.75-5.214l0.043-0.083
			c0.536-0.031,0.657-0.041,1.192-0.093l0.087,0.052c0.404,1.525,0.853,3.05,1.301,4.565c0.109-0.371,0.656-2.164,0.776-2.565
			c0.361-1.186,0.46-1.608,0.547-1.959l0.077-0.051c0.513,0.02,0.601,0.01,1.027,0l0.055,0.072
			c-0.667,1.731-1.257,3.483-1.826,5.246L41.818,128.502z"/>
		<path d="M49.47,127.255c-0.055,0.412-0.066,0.516-0.088,0.917l-0.065,0.072c-0.186,0.093-0.777,0.392-1.75,0.392
			c-1.794,0-2.919-0.969-2.919-2.762c0-1.917,1.225-2.855,2.657-2.855c0.864,0,1.465,0.341,1.793,0.711
			c0.624,0.701,0.602,1.721,0.591,2.175l-0.077,0.062c-1.706-0.011-2.001-0.011-3.794,0c0.011,0.36,0.043,0.865,0.416,1.288
			c0.448,0.504,1.071,0.557,1.411,0.557c0.316,0,0.645-0.052,0.951-0.155c0.404-0.155,0.645-0.34,0.787-0.454L49.47,127.255z
			 M48.452,124.565c-0.219-0.567-0.7-0.804-1.192-0.804c-0.612,0-1.334,0.392-1.443,1.422c1.323,0.01,1.738,0,2.744-0.01
			C48.551,125.029,48.54,124.803,48.452,124.565z"/>
		<path d="M53.914,124.226c-0.109-0.042-0.251-0.093-0.437-0.093c-0.208,0-0.361,0.072-0.459,0.134
			c-0.449,0.299-0.449,0.752-0.449,1.824c0,1.165,0.033,1.772,0.077,2.35l-0.054,0.072c-0.514,0-0.634,0.01-1.159,0.031
			l-0.055-0.062c0.011-0.783,0.021-1.494,0.021-2.452c0-1.649-0.032-2.072-0.098-2.669l0.066-0.072
			c0.416-0.073,0.677-0.124,1.137-0.207l0.065,0.062l-0.054,0.876c0.131-0.33,0.404-0.989,1.334-0.989
			c0.142,0,0.219,0.01,0.306,0.031l0.043,0.062c-0.109,0.495-0.131,0.598-0.208,1.05L53.914,124.226z"/>
		<path d="M57.82,125.379c0.438,0.134,1.433,0.454,1.433,1.546c0,0.412-0.164,0.875-0.613,1.216
			c-0.579,0.464-1.355,0.495-1.75,0.495c-0.59,0-1.082-0.103-1.498-0.258c-0.055-0.021-0.109-0.041-0.164-0.062l-0.055-0.093
			c0.043-0.402,0.043-0.453,0.066-0.865l0.109-0.031c0.196,0.144,0.678,0.495,1.52,0.495c0.864,0,1.181-0.454,1.181-0.772
			c0-0.475-0.471-0.628-1.137-0.835l-0.35-0.113c-0.448-0.134-1.433-0.433-1.433-1.494c0-1.062,0.985-1.588,2.209-1.588
			c0.809,0,1.377,0.217,1.575,0.289l0.054,0.072c-0.043,0.382-0.054,0.423-0.087,0.814l-0.098,0.041
			c-0.273-0.165-0.7-0.412-1.411-0.412c-0.153,0-0.306,0.01-0.47,0.051c-0.328,0.083-0.602,0.299-0.602,0.619
			c0,0.443,0.448,0.578,1.126,0.773L57.82,125.379z"/>
		<path d="M61.998,128.502c-0.569,0.01-0.657,0.01-1.192,0.041l-0.055-0.072c0.033-0.546,0.065-1.02,0.065-2.164
			c0-1.969-0.032-2.339-0.109-2.947l0.054-0.072c0.471-0.073,0.635-0.093,1.181-0.207l0.109,0.062
			c-0.033,0.536-0.066,1.092-0.066,2.422c0,1.917,0.022,2.174,0.066,2.875L61.998,128.502z M62.009,121.649
			c-0.558,0.02-0.678,0.031-1.214,0.082l-0.066-0.062c0.011-0.134,0.011-0.278,0.011-0.412c0-0.186-0.011-0.351-0.022-0.557
			l0.077-0.062c0.568-0.041,0.667-0.051,1.214-0.103l0.065,0.062c-0.011,0.423-0.011,0.526,0,0.979L62.009,121.649z"/>
		<path d="M66.536,127.698c-0.033,0.34-0.033,0.413-0.043,0.711l-0.055,0.062c-0.229,0.051-0.416,0.093-0.82,0.093
			c-0.262,0-0.951,0-1.291-0.537c-0.196-0.299-0.196-0.546-0.196-1.762l0.021-2.268c-0.382,0-0.393,0.01-0.787,0.021l-0.043-0.062
			c0.021-0.33,0.021-0.413,0.021-0.743l0.066-0.061c0.24,0,0.382,0.01,0.743,0c-0.011-0.217-0.011-0.443-0.011-0.66
			c-0.011-0.196-0.022-0.392-0.033-0.587l0.054-0.072c0.493-0.114,0.612-0.145,1.116-0.289l0.077,0.051
			c-0.033,0.68-0.044,0.814-0.044,1.567c0.46-0.01,0.591-0.01,1.214-0.031l0.055,0.062c-0.021,0.268-0.033,0.381-0.033,0.732
			l-0.054,0.062c-0.547-0.011-0.612-0.021-1.192-0.021l-0.021,1.917c0.011,0.124,0.011,0.711,0.011,0.855
			c0,0.752,0.098,0.989,0.646,0.989c0.229,0,0.404-0.051,0.525-0.093L66.536,127.698z"/>
		<path d="M72.252,123.215c-0.623,1.453-1.673,4.174-1.946,4.896c-0.339,0.938-0.667,1.875-0.896,2.834l-0.099,0.082
			c-0.547,0.011-0.645,0.011-1.159,0.031l-0.043-0.072l0.043-0.072c0.198-0.381,0.361-0.783,0.547-1.185
			c0.153-0.34,0.338-0.669,0.459-1.03c0.011-0.021,0.022-0.052,0.033-0.083c0-0.124-1.629-4.277-2.1-5.327l0.044-0.093
			c0.546-0.041,0.655-0.041,1.214-0.103l0.065,0.062c0.295,0.928,0.438,1.36,0.678,2.03l0.689,1.969l0.623-1.814
			c0.23-0.711,0.503-1.556,0.678-2.144l0.077-0.062c0.273,0,0.568,0,1.061-0.01L72.252,123.215z"/>
	</g>
	<g>
		<path d="M82.205,126.75c-0.12,0.505-0.35,0.907-0.711,1.247c-0.48,0.454-1.126,0.628-1.892,0.628c-0.984,0-1.607-0.35-1.957-0.69
			c-0.743-0.711-0.754-1.762-0.754-2.102c0-0.392,0.021-1.402,0.754-2.092c0.307-0.299,0.94-0.722,2.034-0.722
			c0.744,0,1.476,0.227,1.958,0.743c0.503,0.546,0.645,1.267,0.667,1.989C82.303,126.101,82.282,126.441,82.205,126.75z
			 M80.794,124.39c-0.208-0.32-0.557-0.587-1.169-0.587c-0.208,0-0.821,0.021-1.203,0.598c-0.295,0.422-0.328,1.02-0.328,1.453
			c0,0.413,0.011,1.453,0.875,1.865c0.198,0.093,0.427,0.134,0.646,0.134c0.404,0,0.929-0.124,1.247-0.691
			c0.251-0.463,0.262-1.154,0.251-1.37C81.112,125.534,81.068,124.844,80.794,124.39z"/>
		<path d="M85.359,128.513c-0.503,0-0.602,0-1.181,0.031l-0.055-0.072c0.055-1.082,0.055-2.195,0.055-3.288
			c0-0.546,0-0.731-0.011-1.185c-0.273,0.01-0.546,0.01-0.766,0.01l-0.065-0.062c0.021-0.289,0.032-0.392,0.043-0.742l0.066-0.062
			c0.328,0.011,0.547,0.021,0.7,0.021l-0.011-0.681c0-0.515,0-0.639,0.033-0.824c0.251-1.195,1.607-1.195,1.914-1.195
			c0.164,0,0.273,0.01,0.416,0.021l0.054,0.072c-0.043,0.289-0.054,0.423-0.077,0.742l-0.077,0.052
			c-0.098-0.021-0.175-0.041-0.295-0.041c-0.229,0-0.48,0.041-0.655,0.309c-0.175,0.258-0.175,0.546-0.165,1.236v0.31
			c0.022,0,0.973-0.021,1.083-0.021l0.055,0.062c-0.022,0.33-0.033,0.413-0.044,0.731l-0.065,0.062
			c-0.471-0.01-0.569-0.01-1.006-0.01c0,1.37,0.011,2.751,0.087,4.123c0,0.103,0.011,0.216,0.021,0.33L85.359,128.513z"/>
		<path d="M95.008,121.453c0.361,1.133,0.776,2.412,1.104,3.391c0.339,0.989,0.886,2.576,1.214,3.566l-0.044,0.082
			c-0.568,0.011-0.809,0.021-1.268,0.042l-0.077-0.073c-0.273-0.968-0.361-1.246-0.645-2.174c-0.437,0-0.864-0.01-1.301-0.01
			c-0.481,0-0.984,0.01-1.421,0.01c-0.317,0.969-0.383,1.216-0.646,2.133l-0.077,0.072c-0.47,0-0.579,0-1.126,0.031l-0.043-0.072
			c0.032-0.113,0.077-0.216,0.12-0.32c0.416-1.112,0.82-2.226,1.213-3.339c0.657-1.824,0.896-2.494,1.214-3.483l0.087-0.073
			c0.766-0.01,0.864-0.01,1.564-0.041l0.077,0.072L95.008,121.453z M92.844,125.462c0.35,0,0.7,0.01,1.05,0.01
			c0.372,0,0.765-0.01,1.148-0.01l-1.05-3.483L92.844,125.462z"/>
		<path d="M99.744,123.576c0.219-0.165,0.744-0.557,1.596-0.557c1.389,0,2.362,1.072,2.362,2.525c0,1.597-1.126,2.968-3.433,2.968
			c-0.208,0-0.339-0.01-0.492-0.021c0.011,1.237,0.033,1.505,0.088,2.473l-0.065,0.062c-0.383,0.011-0.766,0.021-1.148,0.031
			l-0.055-0.062c0.021-0.629,0.044-1.277,0.044-2.329c0-0.608-0.012-1.216-0.012-1.824c-0.011-1.597-0.011-2.319-0.142-3.494
			l0.054-0.061c0.536-0.083,0.657-0.114,1.149-0.207l0.076,0.062L99.744,123.576z M100.225,127.75c1.443,0,2.274-0.866,2.274-2.134
			c0-1.071-0.602-1.73-1.476-1.73c-0.591,0-1.006,0.268-1.258,0.433c-0.011,0.536-0.021,1.061-0.021,1.587
			c0,0.607,0.011,1.216,0.021,1.813C99.908,127.729,100.04,127.75,100.225,127.75z"/>
		<path d="M106.635,123.576c0.219-0.165,0.744-0.557,1.596-0.557c1.389,0,2.362,1.072,2.362,2.525c0,1.597-1.126,2.968-3.433,2.968
			c-0.208,0-0.339-0.01-0.492-0.021c0.012,1.237,0.033,1.505,0.088,2.473l-0.066,0.062c-0.383,0.011-0.766,0.021-1.148,0.031
			l-0.055-0.062c0.022-0.629,0.044-1.277,0.044-2.329c0-0.608-0.012-1.216-0.012-1.824c-0.011-1.597-0.011-2.319-0.142-3.494
			l0.054-0.061c0.536-0.083,0.656-0.114,1.148-0.207l0.076,0.062L106.635,123.576z M107.116,127.75c1.443,0,2.274-0.866,2.274-2.134
			c0-1.071-0.602-1.73-1.476-1.73c-0.591,0-1.006,0.268-1.258,0.433c-0.011,0.536-0.022,1.061-0.022,1.587
			c0,0.607,0.011,1.216,0.022,1.813C106.799,127.729,106.931,127.75,107.116,127.75z"/>
		<path d="M113.522,128.502c-0.525,0.01-0.634,0.02-1.148,0.041l-0.054-0.072c0.021-0.731,0.054-1.66,0.054-3.638
			c0-1.422,0-2.947-0.109-4.266l0.055-0.062c0.536-0.082,0.645-0.103,1.191-0.216l0.065,0.072c-0.077,1.35-0.077,2.71-0.077,4.06
			c0,2.257,0.033,3.04,0.087,4.02L113.522,128.502z"/>
		<path d="M116.779,128.502c-0.568,0.01-0.656,0.01-1.191,0.041l-0.055-0.072c0.033-0.546,0.066-1.02,0.066-2.164
			c0-1.969-0.033-2.339-0.109-2.947l0.054-0.072c0.471-0.073,0.635-0.093,1.182-0.207l0.109,0.062
			c-0.032,0.536-0.066,1.092-0.066,2.422c0,1.917,0.022,2.174,0.066,2.875L116.779,128.502z M116.791,121.649
			c-0.558,0.02-0.678,0.031-1.214,0.082l-0.065-0.062c0.011-0.134,0.011-0.278,0.011-0.412c0-0.186-0.011-0.351-0.022-0.557
			l0.077-0.062c0.568-0.041,0.667-0.051,1.214-0.103l0.065,0.062c-0.011,0.423-0.011,0.526,0,0.979L116.791,121.649z"/>
		<path d="M123.354,127.255c-0.054,0.412-0.065,0.516-0.086,0.917l-0.067,0.072c-0.186,0.093-0.775,0.392-1.749,0.392
			c-1.793,0-2.919-0.969-2.919-2.762c0-1.917,1.225-2.855,2.657-2.855c0.864,0,1.464,0.341,1.792,0.711
			c0.624,0.701,0.603,1.721,0.592,2.175l-0.078,0.062c-1.706-0.011-2-0.011-3.794,0c0.011,0.36,0.043,0.865,0.416,1.288
			c0.448,0.504,1.072,0.557,1.411,0.557c0.317,0,0.646-0.052,0.951-0.155c0.406-0.155,0.646-0.34,0.788-0.454L123.354,127.255z
			 M122.336,124.565c-0.218-0.567-0.7-0.804-1.191-0.804c-0.612,0-1.333,0.392-1.443,1.422c1.323,0.01,1.738,0,2.744-0.01
			C122.436,125.029,122.425,124.803,122.336,124.565z"/>
		<path d="M128.918,120.505c0.559-0.093,0.667-0.113,1.16-0.216l0.076,0.061c-0.076,1.433-0.087,3.988-0.087,5.02
			c0,1.597,0.043,2.359,0.087,3.071l-0.054,0.072c-0.481,0-0.612,0.01-1.115,0.031l-0.078-0.062l0.022-0.381
			c-0.262,0.185-0.711,0.515-1.508,0.515c-1.455,0-2.46-1.082-2.46-2.648c0-1.124,0.503-1.835,0.961-2.216
			c0.799-0.68,1.838-0.711,2.406-0.711c0.229,0,0.339,0,0.635,0.021c0.011-1.278-0.045-1.896-0.099-2.494L128.918,120.505z
			 M128.929,123.896c-0.186-0.01-0.316-0.031-0.547-0.031c-0.339,0-1.061,0.021-1.585,0.484c-0.24,0.216-0.633,0.701-0.633,1.618
			c0,0.587,0.175,1.009,0.404,1.267c0.197,0.217,0.558,0.464,1.125,0.464c0.667,0,1.071-0.33,1.225-0.453
			C128.94,125.895,128.94,125.585,128.929,123.896z"/>
	</g>
	<g>
		<path d="M138.705,124.39c0.796,0.33,1.858,0.763,1.858,2.082c0,1.154-0.907,2.195-2.812,2.195c-1.158,0-1.901-0.33-2.165-0.453
			l-0.043-0.072c0.043-0.361,0.056-0.557,0.087-0.948l0.111-0.041c0.272,0.175,0.907,0.607,1.923,0.607
			c1.127,0,1.598-0.545,1.598-1.164c0-0.722-0.635-1-1.347-1.257l-0.545-0.227c-0.777-0.34-1.814-0.784-1.814-2.041
			c0-0.382,0.108-0.773,0.337-1.083c0.505-0.68,1.412-0.906,2.297-0.906c0.864,0,1.388,0.154,1.966,0.33l0.056,0.082
			c-0.043,0.392-0.056,0.536-0.087,0.907l-0.09,0.041c-0.468-0.227-0.981-0.474-1.802-0.474c-0.907,0-1.477,0.402-1.477,1.009
			c0,0.464,0.328,0.681,0.558,0.814c0.142,0.082,0.186,0.103,0.842,0.371L138.705,124.39z"/>
		<path d="M146.387,127.286c-0.043,0.443-0.054,0.495-0.088,0.917l-0.076,0.072c-0.317,0.144-0.743,0.35-1.51,0.35
			c-1.65,0-2.722-1.124-2.722-2.73c0-1.639,1.05-2.876,2.744-2.876c0.71,0,1.213,0.217,1.499,0.33l0.043,0.073
			c-0.043,0.371-0.054,0.505-0.076,0.813l-0.088,0.042c-0.361-0.248-0.776-0.403-1.214-0.403c-0.907,0-1.705,0.66-1.705,1.979
			c0,1.402,0.841,1.906,1.694,1.906c0.745,0,1.203-0.36,1.411-0.515L146.387,127.286z"/>
		<path d="M148.988,128.502c-0.567,0.01-0.657,0.01-1.192,0.041l-0.053-0.072c0.031-0.546,0.065-1.02,0.065-2.164
			c0-1.969-0.034-2.339-0.108-2.947l0.052-0.072c0.471-0.073,0.635-0.093,1.183-0.207l0.108,0.062
			c-0.034,0.536-0.065,1.092-0.065,2.422c0,1.917,0.021,2.174,0.065,2.875L148.988,128.502z M149,121.649
			c-0.557,0.02-0.678,0.031-1.214,0.082l-0.065-0.062c0.009-0.134,0.009-0.278,0.009-0.412c0-0.186-0.009-0.351-0.021-0.557
			l0.077-0.062c0.57-0.041,0.666-0.051,1.214-0.103l0.065,0.062c-0.009,0.423-0.009,0.526,0,0.979L149,121.649z"/>
		<path d="M155.565,127.255c-0.052,0.412-0.065,0.516-0.086,0.917l-0.065,0.072c-0.186,0.093-0.777,0.392-1.75,0.392
			c-1.793,0-2.92-0.969-2.92-2.762c0-1.917,1.226-2.855,2.657-2.855c0.864,0,1.464,0.341,1.792,0.711
			c0.625,0.701,0.604,1.721,0.592,2.175l-0.078,0.062c-1.706-0.011-2-0.011-3.793,0c0.012,0.36,0.043,0.865,0.415,1.288
			c0.449,0.504,1.072,0.557,1.412,0.557c0.316,0,0.644-0.052,0.951-0.155c0.406-0.155,0.644-0.34,0.787-0.454L155.565,127.255z
			 M154.549,124.565c-0.22-0.567-0.7-0.804-1.192-0.804c-0.613,0-1.334,0.392-1.443,1.422c1.322,0.01,1.737,0,2.743-0.01
			C154.648,125.029,154.636,124.803,154.549,124.565z"/>
		<path d="M162.311,128.502c-0.525,0.01-0.59,0.01-1.093,0.041l-0.077-0.072c0-0.114,0.011-0.227,0.011-0.34
			c0.011-0.505,0.011-1.01,0.011-1.515c0-1.587-0.011-1.69-0.065-1.906c-0.208-0.783-0.832-0.783-0.985-0.783
			c-0.655,0-1.158,0.36-1.454,0.577c-0.011,1.793,0.011,2.731,0.088,3.937l-0.066,0.062c-0.536,0.01-0.623,0.01-1.147,0.041
			l-0.056-0.072c0.013-0.577,0.034-1.134,0.034-1.896c0-1.649-0.077-2.524-0.131-3.215l0.065-0.072
			c0.546-0.093,0.646-0.114,1.16-0.207l0.076,0.073l-0.011,0.536c0.285-0.186,0.963-0.639,1.924-0.639
			c0.274,0,0.613,0.042,0.907,0.196c0.285,0.155,0.514,0.392,0.635,0.67c0.143,0.309,0.153,0.618,0.164,1.257v1.205
			c0.033,1.206,0.043,1.67,0.076,2.062L162.311,128.502z"/>
		<path d="M168.462,127.286c-0.043,0.443-0.053,0.495-0.087,0.917l-0.077,0.072c-0.315,0.144-0.743,0.35-1.508,0.35
			c-1.65,0-2.722-1.124-2.722-2.73c0-1.639,1.049-2.876,2.743-2.876c0.709,0,1.214,0.217,1.499,0.33l0.043,0.073
			c-0.043,0.371-0.056,0.505-0.077,0.813l-0.087,0.042c-0.362-0.248-0.777-0.403-1.214-0.403c-0.907,0-1.706,0.66-1.706,1.979
			c0,1.402,0.843,1.906,1.693,1.906c0.747,0,1.205-0.36,1.412-0.515L168.462,127.286z"/>
		<path d="M174.407,127.255c-0.056,0.412-0.064,0.516-0.087,0.917l-0.067,0.072c-0.187,0.093-0.774,0.392-1.75,0.392
			c-1.793,0-2.917-0.969-2.917-2.762c0-1.917,1.224-2.855,2.657-2.855c0.863,0,1.465,0.341,1.793,0.711
			c0.622,0.701,0.601,1.721,0.591,2.175l-0.077,0.062c-1.706-0.011-2-0.011-3.796,0c0.012,0.36,0.046,0.865,0.418,1.288
			c0.445,0.504,1.071,0.557,1.408,0.557c0.319,0,0.647-0.052,0.951-0.155c0.405-0.155,0.647-0.34,0.789-0.454L174.407,127.255z
			 M173.389,124.565c-0.217-0.567-0.7-0.804-1.189-0.804c-0.612,0-1.334,0.392-1.445,1.422c1.325,0.01,1.74,0,2.746-0.01
			C173.487,125.029,173.479,124.803,173.389,124.565z"/>
		<path d="M178.614,125.379c0.437,0.134,1.432,0.454,1.432,1.546c0,0.412-0.164,0.875-0.613,1.216
			c-0.579,0.464-1.354,0.495-1.749,0.495c-0.59,0-1.082-0.103-1.497-0.258c-0.056-0.021-0.11-0.041-0.164-0.062l-0.056-0.093
			c0.045-0.402,0.045-0.453,0.066-0.865l0.108-0.031c0.198,0.144,0.678,0.495,1.521,0.495c0.863,0,1.181-0.454,1.181-0.772
			c0-0.475-0.471-0.628-1.138-0.835l-0.35-0.113c-0.447-0.134-1.433-0.433-1.433-1.494c0-1.062,0.985-1.588,2.21-1.588
			c0.808,0,1.378,0.217,1.574,0.289l0.055,0.072c-0.044,0.382-0.055,0.423-0.087,0.814l-0.1,0.041
			c-0.273-0.165-0.699-0.412-1.41-0.412c-0.153,0-0.307,0.01-0.471,0.051c-0.328,0.083-0.601,0.299-0.601,0.619
			c0,0.443,0.447,0.578,1.125,0.773L178.614,125.379z"/>
	</g>
	<g>
		<path d="M128.333,140.811c-0.743,0-0.853,0-1.575,0.031l-0.076-0.072c-0.175-1.03-0.242-1.329-0.395-2.081l-0.896-4.442
			l-0.907,4.204c-0.054,0.279-0.108,0.568-0.175,0.845c-0.087,0.443-0.251,1.195-0.294,1.443l-0.066,0.071
			c-0.787,0-0.832,0.011-1.585,0.031l-0.076-0.072c-0.198-0.927-1.105-4.833-1.695-7.162l0.054-0.073
			c0.613,0,0.711-0.01,1.246-0.031l0.067,0.073c0.065,0.361,0.13,0.69,0.229,1.206c0.088,0.463,0.175,0.917,0.263,1.371l0.797,3.937
			l0.918-4.565c0.153-0.752,0.175-0.876,0.372-1.917l0.066-0.073c0.832-0.01,0.973-0.01,1.739-0.031l0.065,0.073
			c0.011,0.082,0.022,0.165,0.033,0.257c0.045,0.269,0.296,1.587,0.361,1.938l0.864,4.349l0.853-4.07
			c0.406-1.99,0.417-2.031,0.471-2.442l0.065-0.073c0.503,0,0.613-0.01,1.072-0.031l0.056,0.073
			c-0.252,0.804-0.317,1.082-0.918,3.586c-0.274,1.123-0.569,2.237-0.81,3.36c-0.011,0.072-0.033,0.145-0.043,0.217L128.333,140.811
			z"/>
		<path d="M135.788,139.554c-0.056,0.412-0.065,0.516-0.086,0.917l-0.068,0.072c-0.186,0.093-0.774,0.392-1.75,0.392
			c-1.793,0-2.917-0.969-2.917-2.762c0-1.917,1.223-2.855,2.657-2.855c0.864,0,1.465,0.34,1.793,0.711
			c0.623,0.701,0.601,1.721,0.592,2.174l-0.078,0.062c-1.706-0.011-2-0.011-3.796,0c0.013,0.36,0.046,0.865,0.418,1.288
			c0.446,0.505,1.071,0.557,1.409,0.557c0.319,0,0.647-0.052,0.951-0.154c0.405-0.155,0.647-0.34,0.79-0.454L135.788,139.554z
			 M134.769,136.864c-0.217-0.567-0.7-0.804-1.189-0.804c-0.613,0-1.335,0.392-1.446,1.422c1.325,0.01,1.74,0,2.747-0.01
			C134.868,137.327,134.859,137.102,134.769,136.864z"/>
		<path d="M139.993,137.678c0.437,0.134,1.434,0.454,1.434,1.545c0,0.412-0.164,0.876-0.613,1.217
			c-0.579,0.464-1.356,0.494-1.75,0.494c-0.591,0-1.084-0.103-1.499-0.258c-0.056-0.021-0.108-0.041-0.164-0.062l-0.056-0.093
			c0.046-0.402,0.046-0.453,0.068-0.865l0.108-0.031c0.198,0.144,0.678,0.494,1.52,0.494c0.864,0,1.18-0.453,1.18-0.772
			c0-0.475-0.471-0.628-1.137-0.835l-0.35-0.113c-0.449-0.134-1.434-0.433-1.434-1.494c0-1.062,0.985-1.587,2.211-1.587
			c0.809,0,1.378,0.217,1.573,0.289l0.056,0.072c-0.043,0.381-0.056,0.422-0.087,0.814l-0.099,0.041
			c-0.273-0.165-0.7-0.412-1.412-0.412c-0.152,0-0.307,0.01-0.471,0.051c-0.328,0.083-0.601,0.299-0.601,0.619
			c0,0.443,0.449,0.577,1.127,0.773L139.993,137.678z"/>
		<path d="M145.475,139.997c-0.034,0.34-0.034,0.412-0.045,0.711l-0.054,0.062c-0.229,0.052-0.415,0.094-0.82,0.094
			c-0.262,0-0.951,0-1.29-0.537c-0.196-0.299-0.196-0.546-0.196-1.762l0.021-2.268c-0.382,0-0.393,0.01-0.787,0.021l-0.045-0.062
			c0.022-0.33,0.022-0.413,0.022-0.742l0.066-0.061c0.24,0,0.382,0.01,0.743,0c-0.011-0.217-0.011-0.444-0.011-0.66
			c-0.011-0.196-0.021-0.392-0.033-0.587l0.054-0.072c0.493-0.114,0.613-0.145,1.116-0.289l0.076,0.051
			c-0.033,0.681-0.043,0.814-0.043,1.567c0.458-0.01,0.59-0.01,1.214-0.031l0.054,0.062c-0.021,0.268-0.033,0.381-0.033,0.731
			l-0.056,0.062c-0.546-0.011-0.611-0.021-1.19-0.021l-0.022,1.917c0.011,0.124,0.011,0.712,0.011,0.855
			c0,0.753,0.097,0.989,0.644,0.989c0.23,0,0.405-0.051,0.525-0.093L145.475,139.997z"/>
		<path d="M151.438,139.554c-0.056,0.412-0.065,0.516-0.087,0.917l-0.068,0.072c-0.186,0.093-0.774,0.392-1.75,0.392
			c-1.793,0-2.917-0.969-2.917-2.762c0-1.917,1.223-2.855,2.657-2.855c0.864,0,1.465,0.34,1.793,0.711
			c0.623,0.701,0.601,1.721,0.591,2.174l-0.077,0.062c-1.707-0.011-2-0.011-3.796,0c0.012,0.36,0.046,0.865,0.418,1.288
			c0.446,0.505,1.071,0.557,1.409,0.557c0.319,0,0.647-0.052,0.951-0.154c0.406-0.155,0.647-0.34,0.79-0.454L151.438,139.554z
			 M150.422,136.864c-0.22-0.567-0.7-0.804-1.192-0.804c-0.613,0-1.334,0.392-1.446,1.422c1.325,0.01,1.74,0,2.747-0.01
			C150.518,137.327,150.509,137.102,150.422,136.864z"/>
		<path d="M155.884,136.524c-0.112-0.041-0.254-0.093-0.44-0.093c-0.208,0-0.359,0.072-0.458,0.134
			c-0.449,0.299-0.449,0.752-0.449,1.825c0,1.164,0.034,1.771,0.077,2.35l-0.056,0.071c-0.514,0-0.631,0.011-1.158,0.031
			l-0.056-0.062c0.013-0.783,0.025-1.494,0.025-2.453c0-1.649-0.034-2.072-0.099-2.669l0.065-0.072
			c0.415-0.073,0.678-0.124,1.137-0.207l0.065,0.062l-0.053,0.876c0.13-0.33,0.403-0.989,1.334-0.989c0.14,0,0.217,0.01,0.304,0.031
			l0.046,0.062c-0.111,0.495-0.133,0.598-0.21,1.051L155.884,136.524z"/>
		<path d="M162.328,140.801c-0.523,0.01-0.588,0.01-1.093,0.041l-0.078-0.072c0-0.113,0.013-0.227,0.013-0.34
			c0.009-0.505,0.009-1.01,0.009-1.516c0-1.587-0.009-1.689-0.065-1.906c-0.208-0.783-0.83-0.783-0.985-0.783
			c-0.653,0-1.158,0.361-1.452,0.577c-0.013,1.794,0.009,2.731,0.086,3.938l-0.065,0.062c-0.536,0.01-0.623,0.01-1.149,0.041
			l-0.056-0.072c0.013-0.577,0.034-1.134,0.034-1.896c0-1.648-0.077-2.524-0.13-3.215l0.065-0.072
			c0.545-0.093,0.644-0.114,1.158-0.207l0.077,0.073l-0.012,0.536c0.285-0.186,0.963-0.64,1.926-0.64
			c0.272,0,0.613,0.042,0.907,0.196c0.285,0.155,0.514,0.392,0.635,0.67c0.143,0.309,0.152,0.618,0.165,1.257v1.206
			c0.031,1.206,0.043,1.67,0.074,2.062L162.328,140.801z"/>
		<path d="M170.934,136.689c0.795,0.33,1.857,0.762,1.857,2.082c0,1.154-0.907,2.195-2.812,2.195c-1.158,0-1.901-0.33-2.165-0.453
			l-0.043-0.072c0.043-0.361,0.056-0.557,0.087-0.948l0.111-0.041c0.272,0.175,0.907,0.607,1.923,0.607
			c1.127,0,1.598-0.546,1.598-1.164c0-0.722-0.635-1-1.347-1.257l-0.545-0.227c-0.777-0.34-1.814-0.783-1.814-2.041
			c0-0.382,0.108-0.772,0.337-1.082c0.505-0.68,1.412-0.907,2.298-0.907c0.864,0,1.388,0.154,1.967,0.33l0.056,0.082
			c-0.044,0.392-0.056,0.536-0.087,0.907l-0.09,0.041c-0.468-0.227-0.981-0.474-1.802-0.474c-0.908,0-1.478,0.402-1.478,1.01
			c0,0.463,0.328,0.68,0.558,0.814c0.143,0.082,0.186,0.103,0.842,0.371L170.934,136.689z"/>
		<path d="M180.762,140.801c-0.731,0.01-0.821,0.01-1.486,0.041l-0.078-0.072c-0.13-0.628-0.337-1.464-0.522-2.195l-0.635-2.474
			l-0.645,2.536c-0.328,1.247-0.439,1.648-0.536,2.103l-0.067,0.062c-0.765,0.01-0.817,0.01-1.509,0.041l-0.064-0.072
			c-0.48-1.845-1.301-4.544-1.529-5.225l0.043-0.072c0.523-0.031,0.666-0.031,1.192-0.082l0.064,0.062
			c0.065,0.34,0.143,0.66,0.613,2.565l0.523,2.124l0.712-2.772c0.328-1.371,0.351-1.505,0.415-1.834l0.074-0.072
			c0.647,0,0.833,0,1.555-0.031l0.065,0.072c0.154,0.711,0.414,1.701,0.612,2.483l0.579,2.186l0.613-2.402
			c0.087-0.361,0.174-0.722,0.264-1.082c0.186-0.701,0.207-0.784,0.272-1.175l0.077-0.061c0.174,0,0.359,0.01,0.536,0.01
			c0.164,0,0.325-0.01,0.489-0.01l0.067,0.061c-0.207,0.587-1.17,3.463-1.619,5.226L180.762,140.801z"/>
		<path d="M184.881,140.801c-0.567,0.01-0.656,0.01-1.191,0.041l-0.055-0.072c0.033-0.546,0.066-1.02,0.066-2.164
			c0-1.969-0.033-2.339-0.109-2.947l0.054-0.072c0.471-0.073,0.635-0.093,1.182-0.207l0.11,0.062
			c-0.034,0.536-0.067,1.093-0.067,2.422c0,1.917,0.022,2.174,0.067,2.875L184.881,140.801z M184.893,133.948
			c-0.558,0.02-0.679,0.031-1.214,0.082l-0.065-0.062c0.011-0.134,0.011-0.278,0.011-0.412c0-0.186-0.011-0.351-0.021-0.557
			l0.076-0.062c0.569-0.041,0.667-0.051,1.214-0.103l0.066,0.062c-0.011,0.422-0.011,0.525,0,0.979L184.893,133.948z"/>
		<path d="M189.419,139.997c-0.03,0.34-0.03,0.412-0.043,0.711l-0.056,0.062c-0.229,0.052-0.415,0.094-0.82,0.094
			c-0.261,0-0.951,0-1.288-0.537c-0.198-0.299-0.198-0.546-0.198-1.762l0.021-2.268c-0.381,0-0.394,0.01-0.787,0.021l-0.043-0.062
			c0.021-0.33,0.021-0.413,0.021-0.742l0.065-0.061c0.241,0,0.384,0.01,0.743,0c-0.01-0.217-0.01-0.444-0.01-0.66
			c-0.012-0.196-0.021-0.392-0.034-0.587l0.056-0.072c0.493-0.114,0.613-0.145,1.115-0.289l0.077,0.051
			c-0.034,0.681-0.043,0.814-0.043,1.567c0.458-0.01,0.588-0.01,1.214-0.031l0.053,0.062c-0.021,0.268-0.031,0.381-0.031,0.731
			l-0.056,0.062c-0.548-0.011-0.613-0.021-1.192-0.021l-0.021,1.917c0.013,0.124,0.013,0.712,0.013,0.855
			c0,0.753,0.096,0.989,0.644,0.989c0.229,0,0.406-0.051,0.523-0.093L189.419,139.997z"/>
		<path d="M194.494,140.811c-0.303,0-1.802,0.011-2.143,0.011c-1.278,0-1.421,0-2.087,0.021l-0.043-0.093
			c0.829-1.298,2.151-3.504,2.709-4.493c-1.443,0.01-1.703,0.01-2.403,0.041l-0.056-0.062c0.044-0.34,0.056-0.423,0.078-0.711
			l0.064-0.062c1.837,0,2.044,0,3.948-0.031l0.053,0.082c-0.973,1.505-2.362,3.957-2.657,4.483c0.941-0.011,1.883-0.031,2.626-0.063
			l0.053,0.063c-0.043,0.319-0.053,0.453-0.074,0.762L194.494,140.811z"/>
		<path d="M200.669,139.554c-0.055,0.412-0.065,0.516-0.087,0.917l-0.066,0.072c-0.186,0.093-0.775,0.392-1.75,0.392
			c-1.792,0-2.918-0.969-2.918-2.762c0-1.917,1.225-2.855,2.656-2.855c0.864,0,1.465,0.34,1.793,0.711
			c0.624,0.701,0.603,1.721,0.592,2.174l-0.077,0.062c-1.706-0.011-2.001-0.011-3.795,0c0.013,0.36,0.045,0.865,0.416,1.288
			c0.448,0.505,1.071,0.557,1.411,0.557c0.317,0,0.646-0.052,0.95-0.154c0.406-0.155,0.646-0.34,0.788-0.454L200.669,139.554z
			 M199.651,136.864c-0.218-0.567-0.699-0.804-1.19-0.804c-0.613,0-1.334,0.392-1.444,1.422c1.323,0.01,1.738,0,2.745-0.01
			C199.751,137.327,199.74,137.102,199.651,136.864z"/>
		<path d="M205.115,136.524c-0.111-0.041-0.251-0.093-0.439-0.093c-0.207,0-0.359,0.072-0.458,0.134
			c-0.449,0.299-0.449,0.752-0.449,1.825c0,1.164,0.034,1.771,0.077,2.35l-0.056,0.071c-0.514,0-0.632,0.011-1.158,0.031
			l-0.056-0.062c0.013-0.783,0.025-1.494,0.025-2.453c0-1.649-0.034-2.072-0.1-2.669l0.065-0.072
			c0.415-0.073,0.678-0.124,1.136-0.207l0.065,0.062l-0.053,0.876c0.13-0.33,0.402-0.989,1.335-0.989
			c0.139,0,0.217,0.01,0.303,0.031l0.047,0.062c-0.111,0.495-0.133,0.598-0.211,1.051L205.115,136.524z"/>
		<path d="M207.89,140.801c-0.523,0.01-0.632,0.021-1.146,0.041l-0.056-0.072c0.021-0.731,0.056-1.659,0.056-3.638
			c0-1.422,0-2.947-0.111-4.267l0.056-0.062c0.536-0.082,0.645-0.103,1.192-0.216l0.064,0.072c-0.077,1.351-0.077,2.71-0.077,4.061
			c0,2.257,0.034,3.04,0.09,4.02L207.89,140.801z"/>
		<path d="M214.126,138.688c0,1.277,0.011,1.391,0.067,2.061l-0.057,0.052c-0.514,0.01-0.601,0.021-1.104,0.041l-0.043-0.062
			l0.011-0.371c-0.208,0.154-0.7,0.525-1.531,0.525c-1.094,0-1.859-0.701-1.859-1.721c0-1.381,1.225-1.825,3.193-2.041l0.187-0.021
			c0-0.278,0-0.474-0.1-0.639c-0.108-0.186-0.36-0.381-0.907-0.381c-0.711,0-1.203,0.206-1.661,0.392l-0.088-0.052
			c0.021-0.474,0.021-0.536,0.032-0.752l0.066-0.062c0.611-0.206,1.246-0.34,1.891-0.34c0.81,0,1.598,0.258,1.827,1.062
			c0.075,0.288,0.075,0.855,0.075,1.288V138.688z M212.901,137.936c-1.104,0.155-2.132,0.299-2.132,1.216
			c0,0.051,0,0.938,1.039,0.938c0.678,0,1.071-0.351,1.192-0.454v-1.721L212.901,137.936z"/>
		<path d="M221.004,140.801c-0.525,0.01-0.59,0.01-1.094,0.041l-0.077-0.072c0-0.113,0.011-0.227,0.011-0.34
			c0.013-0.505,0.013-1.01,0.013-1.516c0-1.587-0.013-1.689-0.066-1.906c-0.208-0.783-0.832-0.783-0.983-0.783
			c-0.656,0-1.159,0.361-1.455,0.577c-0.011,1.794,0.011,2.731,0.088,3.938l-0.066,0.062c-0.536,0.01-0.622,0.01-1.147,0.041
			l-0.056-0.072c0.011-0.577,0.034-1.134,0.034-1.896c0-1.648-0.077-2.524-0.132-3.215l0.065-0.072
			c0.546-0.093,0.646-0.114,1.159-0.207l0.076,0.073l-0.011,0.536c0.285-0.186,0.963-0.64,1.925-0.64
			c0.273,0,0.612,0.042,0.907,0.196c0.284,0.155,0.514,0.392,0.635,0.67c0.142,0.309,0.153,0.618,0.164,1.257v1.206
			c0.032,1.206,0.043,1.67,0.075,2.062L221.004,140.801z"/>
		<path d="M226.707,132.803c0.561-0.093,0.669-0.113,1.161-0.216l0.075,0.061c-0.075,1.433-0.087,3.988-0.087,5.02
			c0,1.597,0.043,2.359,0.087,3.071l-0.053,0.071c-0.483,0-0.613,0.011-1.115,0.031l-0.077-0.062l0.021-0.381
			c-0.263,0.185-0.712,0.515-1.508,0.515c-1.455,0-2.462-1.082-2.462-2.648c0-1.123,0.505-1.834,0.963-2.215
			c0.799-0.681,1.836-0.711,2.406-0.711c0.229,0,0.338,0,0.635,0.021c0.01-1.278-0.047-1.896-0.1-2.494L226.707,132.803z
			 M226.72,136.194c-0.186-0.01-0.315-0.031-0.548-0.031c-0.338,0-1.06,0.021-1.586,0.484c-0.238,0.216-0.631,0.701-0.631,1.618
			c0,0.588,0.173,1.01,0.402,1.268c0.198,0.217,0.557,0.464,1.127,0.464c0.666,0,1.071-0.33,1.223-0.453
			C226.729,138.194,226.729,137.884,226.72,136.194z"/>
	</g>
</g>
</svg>
