<?xml version="1.0" encoding="utf-8"?>
<!-- Generator: Adobe Illustrator 16.0.3, SVG Export Plug-In . SVG Version: 6.00 Build 0)  -->
<!DOCTYPE svg PUBLIC "-//W3C//DTD SVG 1.1//EN" "http://www.w3.org/Graphics/SVG/1.1/DTD/svg11.dtd">
<svg version="1.1" id="Calque_1" xmlns="http://www.w3.org/2000/svg" xmlns:xlink="http://www.w3.org/1999/xlink" x="0px" y="0px"
	 width="305px" height="55px" viewBox="0 0 305 55" enable-background="new 0 0 305 55" xml:space="preserve">
<polygon fill="#FF2B05" points="6.644,46.204 4.429,43.015 6.54,43.015 7.724,44.773 8.897,43.015 10.941,43.015 8.726,46.166 
	11.213,49.745 9.104,49.745 7.698,47.624 6.29,49.745 4.222,49.745 "/>
<path d="M19.979,45.762h-6.577v-1.395h6.577V45.762z M19.979,48.548h-6.577v-1.393h6.577V48.548z"/>
<path d="M25.017,41.97h-1.848v-1.521h1.848V41.97z M23.169,43.015h1.848v6.73h-1.848V43.015z"/>
<g>
	<defs>
		<rect id="SVGID_1_" width="305" height="55"/>
	</defs>
	<clipPath id="SVGID_2_">
		<use xlink:href="#SVGID_1_"  overflow="visible"/>
	</clipPath>
	<path clip-path="url(#SVGID_2_)" d="M26.217,43.015h1.758v0.937h0.04c0.469-0.757,1.275-1.12,2.056-1.12
		c1.967,0,2.463,1.107,2.463,2.773v4.14h-1.852v-3.8c0-1.108-0.322-1.654-1.186-1.654c-1.001,0-1.43,0.562-1.43,1.927v3.527h-1.849
		V43.015z"/>
	<path clip-path="url(#SVGID_2_)" d="M38.484,48.888h-0.027c-0.43,0.729-1.185,1.042-2.044,1.042c-2.031,0-3.021-1.744-3.021-3.608
		c0-1.81,1-3.49,2.983-3.49c0.795,0,1.574,0.34,2.005,1.003h-0.014h0.025v-3.385h1.85v9.3h-1.757V48.888z M36.87,44.224
		c-1.213,0-1.631,1.045-1.631,2.149c0,1.056,0.485,2.162,1.631,2.162c1.225,0,1.587-1.066,1.587-2.174
		C38.457,45.269,38.067,44.224,36.87,44.224"/>
	<path clip-path="url(#SVGID_2_)" d="M42.898,46.829c0.051,1.173,0.624,1.707,1.653,1.707c0.745,0,1.341-0.456,1.46-0.872h1.628
		c-0.522,1.59-1.628,2.267-3.154,2.267c-2.122,0-3.435-1.461-3.435-3.542c0-2.021,1.392-3.558,3.435-3.558
		c2.294,0,3.401,1.928,3.271,3.998H42.898z M45.908,45.659c-0.171-0.939-0.574-1.436-1.474-1.436c-1.171,0-1.509,0.912-1.536,1.436
		H45.908z"/>
	<path clip-path="url(#SVGID_2_)" d="M48.59,43.015h1.759v0.858h0.023c0.446-0.714,1.174-1.042,2.009-1.042
		c2.109,0,3.061,1.709,3.061,3.623c0,1.798-0.991,3.476-2.96,3.476c-0.806,0-1.574-0.353-2.019-1.016H50.44v3.205h-1.85V43.015z
		 M53.589,46.399c0-1.067-0.429-2.176-1.613-2.176c-1.213,0-1.604,1.084-1.604,2.176c0,1.096,0.417,2.137,1.615,2.137
		C53.199,48.536,53.589,47.495,53.589,46.399"/>
	<path clip-path="url(#SVGID_2_)" d="M57.808,46.829c0.054,1.173,0.627,1.707,1.655,1.707c0.744,0,1.34-0.456,1.461-0.872h1.625
		c-0.52,1.59-1.625,2.267-3.149,2.267c-2.125,0-3.439-1.461-3.439-3.542c0-2.021,1.391-3.558,3.439-3.558
		c2.292,0,3.397,1.928,3.267,3.998H57.808z M60.818,45.659c-0.171-0.939-0.572-1.436-1.474-1.436c-1.17,0-1.508,0.912-1.537,1.436
		H60.818z"/>
	<path clip-path="url(#SVGID_2_)" d="M63.501,43.015h1.759v0.937h0.037c0.47-0.757,1.277-1.12,2.06-1.12
		c1.965,0,2.46,1.107,2.46,2.773v4.14h-1.85v-3.8c0-1.108-0.325-1.654-1.183-1.654c-1.007,0-1.435,0.562-1.435,1.927v3.527h-1.848
		V43.015z"/>
	<path clip-path="url(#SVGID_2_)" d="M75.767,48.888H75.74c-0.429,0.729-1.186,1.042-2.043,1.042c-2.032,0-3.023-1.744-3.023-3.608
		c0-1.81,1.004-3.49,2.984-3.49c0.794,0,1.576,0.34,2.004,1.003H75.65h0.027v-3.385h1.848v9.3h-1.758V48.888z M74.153,44.224
		c-1.213,0-1.629,1.045-1.629,2.149c0,1.056,0.483,2.162,1.629,2.162c1.224,0,1.587-1.066,1.587-2.174
		C75.74,45.269,75.35,44.224,74.153,44.224"/>
	<path clip-path="url(#SVGID_2_)" d="M80.182,46.829c0.054,1.173,0.627,1.707,1.654,1.707c0.744,0,1.341-0.456,1.461-0.872h1.625
		c-0.521,1.59-1.625,2.267-3.15,2.267c-2.123,0-3.437-1.461-3.437-3.542c0-2.021,1.39-3.558,3.437-3.558
		c2.293,0,3.398,1.928,3.269,3.998H80.182z M83.191,45.659c-0.172-0.939-0.573-1.436-1.475-1.436c-1.168,0-1.507,0.912-1.535,1.436
		H83.191z"/>
	<path clip-path="url(#SVGID_2_)" d="M85.875,43.015h1.758v0.937h0.039c0.468-0.757,1.274-1.12,2.058-1.12
		c1.964,0,2.46,1.107,2.46,2.773v4.14h-1.85v-3.8c0-1.108-0.324-1.654-1.184-1.654c-1.004,0-1.434,0.562-1.434,1.927v3.527h-1.847
		V43.015z"/>
	<path clip-path="url(#SVGID_2_)" d="M95.682,43.015h1.352v1.237h-1.352v3.333c0,0.624,0.154,0.78,0.779,0.78
		c0.195,0,0.377-0.013,0.573-0.051v1.446c-0.312,0.052-0.717,0.065-1.08,0.065c-1.134,0-2.125-0.261-2.125-1.602v-3.973h-1.119
		v-1.237h1.119v-2.021h1.853V43.015z"/>
	<rect x="97.711" y="40.449" clip-path="url(#SVGID_2_)" width="1.849" height="9.298"/>
	<path clip-path="url(#SVGID_2_)" d="M104.079,50.595c-0.405,1.08-1.04,1.524-2.319,1.524c-0.376,0-0.754-0.026-1.131-0.066v-1.523
		c0.35,0.027,0.718,0.077,1.079,0.065c0.639-0.065,0.847-0.729,0.639-1.263l-2.37-6.317h1.981l1.521,4.609h0.027l1.469-4.609h1.916
		L104.079,50.595z"/>
	<path clip-path="url(#SVGID_2_)" d="M113.886,42.831c2.121,0,3.489,1.408,3.489,3.557c0,2.137-1.368,3.542-3.489,3.542
		c-2.11,0-3.478-1.405-3.478-3.542C110.408,44.239,111.776,42.831,113.886,42.831 M113.886,48.536c1.263,0,1.642-1.08,1.642-2.148
		c0-1.082-0.379-2.164-1.642-2.164c-1.251,0-1.627,1.082-1.627,2.164C112.259,47.456,112.635,48.536,113.886,48.536"/>
	<path clip-path="url(#SVGID_2_)" d="M118.054,43.015h1.759v1.248h0.023c0.339-0.846,1.25-1.432,2.149-1.432
		c0.131,0,0.288,0.028,0.404,0.063v1.72c-0.17-0.037-0.443-0.063-0.662-0.063c-1.357,0-1.824,0.975-1.824,2.16v3.032h-1.849V43.015z
		"/>
	<path clip-path="url(#SVGID_2_)" d="M129.33,49.317c0,1.106-0.389,2.981-3.49,2.981c-1.33,0-2.878-0.624-2.971-2.16h1.837
		c0.171,0.689,0.728,0.925,1.38,0.925c1.029,0,1.5-0.706,1.485-1.67V48.51h-0.026c-0.403,0.704-1.209,1.041-2.017,1.041
		c-2.019,0-2.878-1.536-2.878-3.385c0-1.747,1.002-3.335,2.891-3.335c0.884,0,1.562,0.302,2.004,1.081h0.026v-0.897h1.759V49.317z
		 M127.571,46.298c0-1.095-0.378-2.074-1.574-2.074c-1.042,0-1.498,0.912-1.498,1.915c0,0.967,0.365,2.02,1.498,2.02
		C127.052,48.158,127.571,47.261,127.571,46.298"/>
	<path clip-path="url(#SVGID_2_)" d="M130.216,45.085c0.103-1.734,1.652-2.254,3.165-2.254c1.341,0,2.955,0.302,2.955,1.916v3.501
		c0,0.612,0.067,1.228,0.234,1.501h-1.875c-0.065-0.21-0.118-0.433-0.129-0.651c-0.586,0.612-1.446,0.833-2.268,0.833
		c-1.275,0-2.29-0.638-2.29-2.02c0-1.522,1.145-1.89,2.29-2.045c1.133-0.169,2.189-0.13,2.189-0.887
		c0-0.794-0.548-0.911-1.199-0.911c-0.702,0-1.159,0.288-1.225,1.017H130.216z M134.487,46.451
		c-0.312,0.275-0.965,0.287-1.538,0.393c-0.573,0.116-1.092,0.312-1.092,0.987c0,0.693,0.533,0.861,1.134,0.861
		c1.443,0,1.496-1.146,1.496-1.548V46.451z"/>
	<path clip-path="url(#SVGID_2_)" d="M137.506,43.015h1.759v0.937h0.04c0.472-0.757,1.277-1.12,2.056-1.12
		c1.969,0,2.465,1.107,2.465,2.773v4.14h-1.851v-3.8c0-1.108-0.325-1.654-1.187-1.654c-1,0-1.43,0.562-1.43,1.927v3.527h-1.852
		V43.015z"/>
	<path clip-path="url(#SVGID_2_)" d="M146.611,41.97h-1.85v-1.521h1.85V41.97z M144.762,43.015h1.85v6.73h-1.85V43.015z"/>
	<polygon clip-path="url(#SVGID_2_)" points="147.391,48.353 150.897,44.407 147.652,44.407 147.652,43.015 153.332,43.015 
		153.332,44.407 149.828,48.353 153.577,48.353 153.577,49.748 147.391,49.748 	"/>
	<path clip-path="url(#SVGID_2_)" d="M155.832,46.829c0.051,1.173,0.625,1.707,1.653,1.707c0.741,0,1.343-0.456,1.458-0.872h1.629
		c-0.521,1.59-1.629,2.267-3.152,2.267c-2.123,0-3.439-1.461-3.439-3.542c0-2.021,1.396-3.558,3.439-3.558
		c2.292,0,3.399,1.928,3.27,3.998H155.832z M158.839,45.659c-0.168-0.939-0.573-1.436-1.471-1.436c-1.173,0-1.508,0.912-1.536,1.436
		H158.839z"/>
	<path clip-path="url(#SVGID_2_)" d="M166.328,48.888h-0.026c-0.43,0.729-1.186,1.042-2.044,1.042c-2.03,0-3.021-1.744-3.021-3.608
		c0-1.81,1.002-3.49,2.983-3.49c0.791,0,1.575,0.34,2.004,1.003h-0.013h0.024v-3.385h1.852v9.3h-1.759V48.888z M164.714,44.224
		c-1.212,0-1.629,1.045-1.629,2.149c0,1.056,0.483,2.162,1.629,2.162c1.225,0,1.588-1.066,1.588-2.174
		C166.302,45.269,165.911,44.224,164.714,44.224"/>
	<polygon clip-path="url(#SVGID_2_)" points="174.833,42.169 172.045,42.169 172.045,40.449 179.664,40.449 179.664,42.169 
		176.875,42.169 176.875,49.745 174.833,49.745 	"/>
	<polygon clip-path="url(#SVGID_2_)" points="180.47,40.449 187.427,40.449 187.427,42.169 182.514,42.169 182.514,44.162 
		187.021,44.162 187.021,45.748 182.514,45.748 182.514,48.029 187.528,48.029 187.528,49.745 180.47,49.745 	"/>
	<path clip-path="url(#SVGID_2_)" d="M188.39,40.449h4.008c2.409,0,4.222,1.51,4.222,4.597c0,2.695-1.379,4.699-4.222,4.699h-4.008
		V40.449z M190.433,48.029h1.825c1.186,0,2.316-0.729,2.316-2.788c0-1.875-0.651-3.072-2.683-3.072h-1.459V48.029z"/>
	<path clip-path="url(#SVGID_2_)" d="M202.467,46.829c0.053,1.173,0.626,1.707,1.651,1.707c0.745,0,1.343-0.456,1.46-0.872h1.628
		c-0.521,1.59-1.628,2.267-3.15,2.267c-2.123,0-3.439-1.461-3.439-3.542c0-2.021,1.395-3.558,3.439-3.558
		c2.29,0,3.397,1.928,3.267,3.998H202.467z M205.476,45.659c-0.172-0.939-0.573-1.436-1.475-1.436c-1.17,0-1.509,0.912-1.534,1.436
		H205.476z"/>
	<polygon clip-path="url(#SVGID_2_)" points="211.621,49.749 209.562,49.749 207.258,43.015 209.198,43.015 210.618,47.612 
		210.645,47.612 212.064,43.015 213.9,43.015 	"/>
	<path clip-path="url(#SVGID_2_)" d="M215.673,46.829c0.05,1.173,0.622,1.707,1.65,1.707c0.742,0,1.344-0.456,1.46-0.872h1.629
		c-0.521,1.59-1.629,2.267-3.152,2.267c-2.122,0-3.438-1.461-3.438-3.542c0-2.021,1.393-3.558,3.438-3.558
		c2.292,0,3.398,1.928,3.269,3.998H215.673z M218.678,45.659c-0.168-0.939-0.573-1.436-1.471-1.436
		c-1.174,0-1.509,0.912-1.534,1.436H218.678z"/>
	<path clip-path="url(#SVGID_2_)" d="M221.36,43.015h1.759v0.937h0.039c0.471-0.757,1.278-1.12,2.059-1.12
		c1.969,0,2.459,1.107,2.459,2.773v4.14h-1.847v-3.8c0-1.108-0.328-1.654-1.186-1.654c-1.002,0-1.43,0.562-1.43,1.927v3.527h-1.854
		V43.015z"/>
	<path clip-path="url(#SVGID_2_)" d="M231.167,43.015h1.357v1.237h-1.357v3.333c0,0.624,0.156,0.78,0.784,0.78
		c0.195,0,0.378-0.013,0.573-0.051v1.446c-0.313,0.052-0.719,0.065-1.084,0.065c-1.131,0-2.12-0.261-2.12-1.602v-3.973h-1.121
		v-1.237h1.121v-2.021h1.847V43.015z"/>
	<polygon clip-path="url(#SVGID_2_)" fill="#FF2B05" points="12.216,9.684 3.541,9.684 3.541,1.747 30.424,1.747 30.424,9.684 
		21.749,9.684 21.749,32.711 12.216,32.711 	"/>
	<polygon clip-path="url(#SVGID_2_)" fill="#FF2B05" points="31.906,1.747 58.003,1.747 58.003,9.684 41.445,9.684 41.445,13.542 
		58.003,13.542 58.003,20.914 41.445,20.914 41.445,24.774 58.01,24.774 58.01,32.711 31.906,32.711 	"/>
	<path clip-path="url(#SVGID_2_)" fill="#FF2B05" d="M59.609,1.747h15.654c10.319,0,13.965,7.634,13.965,15.436
		c0,9.499-5.028,15.528-15.829,15.528h-13.79V1.747z M69.148,24.774h3.73c5.944,0,6.811-4.813,6.811-7.724
		c0-1.949-0.608-7.367-7.506-7.367h-3.035V24.774z"/>
	<polygon clip-path="url(#SVGID_2_)" fill="#FF2B05" points="102.937,20.78 100.028,15.95 97.19,20.78 90.202,20.78 96.836,11.021 
		90.446,1.689 97.439,1.689 100.028,6.301 102.69,1.689 109.678,1.689 103.292,11.021 109.929,20.78 	"/>
	<path clip-path="url(#SVGID_2_)" d="M135.292,32.728v-3.296h-15.043V2.958h-4.034v29.769H135.292z M148.317,32.812
		c0.825-0.225,1.56-0.546,2.208-0.96c0.648-0.416,1.215-0.92,1.702-1.511c0.486-0.593,0.934-1.254,1.341-1.986h0.127
		c0.042,0.761,0.148,1.426,0.317,1.996c0.168,0.57,0.415,1.049,0.739,1.437c0.323,0.388,0.742,0.677,1.258,0.866
		c0.514,0.19,1.129,0.285,1.848,0.285c0.535,0,1.038-0.028,1.51-0.084c0.472-0.057,0.947-0.141,1.427-0.253v-2.367
		c-0.198,0.042-0.4,0.078-0.612,0.106c-0.211,0.027-0.423,0.041-0.634,0.041c-0.832,0-1.395-0.286-1.69-0.855
		c-0.297-0.57-0.443-1.419-0.443-2.546v-9.846c0-2.492-0.725-4.398-2.177-5.714c-1.451-1.317-3.612-1.976-6.485-1.976
		c-1.55,0-2.871,0.152-3.961,0.454c-1.093,0.304-2,0.73-2.726,1.279c-0.726,0.549-1.287,1.201-1.68,1.954
		c-0.394,0.754-0.661,1.581-0.803,2.483l3.974,0.359c0.083-0.719,0.259-1.313,0.526-1.785c0.268-0.473,0.62-0.845,1.056-1.121
		c0.438-0.274,0.952-0.464,1.544-0.57c0.591-0.105,1.254-0.158,1.985-0.158c0.832,0,1.553,0.095,2.166,0.285
		c0.611,0.19,1.124,0.49,1.531,0.898c0.409,0.409,0.712,0.943,0.909,1.606c0.197,0.662,0.295,1.464,0.295,2.409v1.245l-5.134,0.085
		c-1.225,0.029-2.428,0.148-3.612,0.36c-1.183,0.21-2.237,0.591-3.159,1.141c-0.923,0.548-1.67,1.306-2.239,2.27
		c-0.57,0.966-0.856,2.201-0.856,3.709c0,2.111,0.578,3.774,1.732,4.986c1.155,1.211,2.882,1.816,5.178,1.816
		C146.546,33.15,147.493,33.037,148.317,32.812 M143.48,29.283c-0.67-0.675-1.004-1.634-1.004-2.873
		c0-1.029,0.186-1.859,0.559-2.494c0.373-0.632,0.877-1.126,1.511-1.478c0.635-0.354,1.371-0.588,2.209-0.708
		c0.837-0.119,1.721-0.186,2.65-0.2l4.163-0.084v1.879c0,0.746-0.147,1.529-0.443,2.345c-0.296,0.818-0.743,1.572-1.342,2.261
		c-0.598,0.691-1.352,1.257-2.26,1.702c-0.909,0.442-1.969,0.664-3.18,0.664C145.102,30.298,144.148,29.96,143.48,29.283
		 M163.603,9.868V25.1c0,1.425,0.138,2.641,0.413,3.656c0.274,1.015,0.708,1.846,1.299,2.492c0.592,0.649,1.346,1.128,2.26,1.438
		c0.916,0.309,2.009,0.465,3.275,0.465c0.986,0,1.853-0.103,2.599-0.307c0.747-0.205,1.409-0.494,1.987-0.866
		c0.576-0.374,1.083-0.827,1.521-1.362s0.839-1.135,1.204-1.797h0.063c0,0.283,0.009,0.631,0.022,1.046
		c0.013,0.415,0.031,0.824,0.052,1.226c0.021,0.402,0.04,0.758,0.054,1.066c0.014,0.312,0.028,0.501,0.042,0.571h3.592
		c-0.015-0.099-0.028-0.317-0.042-0.655c-0.015-0.338-0.028-0.742-0.042-1.215c-0.015-0.472-0.025-0.973-0.032-1.499
		c-0.008-0.529-0.011-1.032-0.011-1.511V9.868h-3.802v13.247c0,1.14-0.142,2.151-0.423,3.032c-0.283,0.88-0.68,1.621-1.194,2.219
		c-0.514,0.598-1.133,1.056-1.859,1.373c-0.726,0.317-1.538,0.476-2.44,0.476c-0.887,0-1.63-0.096-2.229-0.285
		c-0.599-0.19-1.081-0.515-1.447-0.973c-0.367-0.458-0.631-1.06-0.792-1.807c-0.162-0.747-0.243-1.676-0.243-2.788V9.868H163.603z
		 M204.58,24.254c-0.232-0.619-0.546-1.161-0.939-1.626c-0.395-0.464-0.856-0.863-1.385-1.194s-1.092-0.62-1.689-0.865
		c-0.6-0.247-1.215-0.458-1.85-0.634c-0.635-0.177-1.254-0.342-1.859-0.498c-0.916-0.225-1.752-0.439-2.513-0.644
		c-0.763-0.205-1.413-0.443-1.954-0.717c-0.544-0.276-0.966-0.615-1.271-1.015c-0.303-0.401-0.453-0.912-0.453-1.532
		c0-1.056,0.409-1.845,1.227-2.366c0.816-0.521,2.084-0.782,3.803-0.782c0.648,0,1.271,0.053,1.869,0.158
		c0.599,0.106,1.137,0.283,1.616,0.528c0.479,0.247,0.888,0.571,1.225,0.972c0.338,0.402,0.571,0.899,0.697,1.49l3.423-0.422
		c-0.396-1.959-1.335-3.381-2.819-4.268c-1.486-0.888-3.488-1.331-6.011-1.331c-2.845,0-5.011,0.546-6.498,1.637
		c-1.485,1.092-2.229,2.68-2.229,4.765c0,1.084,0.227,1.985,0.678,2.704c0.449,0.717,1.038,1.321,1.763,1.806
		c0.727,0.486,1.54,0.876,2.44,1.172c0.9,0.296,1.81,0.564,2.726,0.804c0.984,0.268,1.891,0.51,2.715,0.728
		c0.825,0.219,1.524,0.475,2.101,0.772c0.579,0.296,1.029,0.665,1.353,1.108c0.324,0.444,0.487,1.011,0.487,1.702
		c0,0.675-0.137,1.243-0.412,1.7c-0.275,0.458-0.659,0.824-1.151,1.1c-0.493,0.274-1.081,0.468-1.765,0.58
		c-0.683,0.114-1.433,0.169-2.25,0.169c-1.803,0-3.212-0.285-4.225-0.854c-1.015-0.571-1.683-1.469-2.009-2.694l-3.356,0.654
		c0.252,1.071,0.65,1.976,1.192,2.716c0.542,0.739,1.215,1.334,2.018,1.785c0.802,0.451,1.735,0.777,2.798,0.982
		c1.065,0.204,2.257,0.307,3.582,0.307c1.479,0,2.794-0.152,3.939-0.454c1.148-0.304,2.118-0.74,2.907-1.311
		c0.786-0.57,1.39-1.273,1.807-2.112c0.413-0.838,0.622-1.793,0.622-2.863C204.929,25.593,204.813,24.875,204.58,24.254
		 M218.08,32.812c0.824-0.225,1.562-0.546,2.209-0.96c0.647-0.416,1.216-0.92,1.701-1.511c0.485-0.593,0.932-1.254,1.341-1.986
		h0.127c0.041,0.761,0.147,1.426,0.316,1.996c0.17,0.57,0.415,1.049,0.739,1.437c0.325,0.388,0.744,0.677,1.259,0.866
		c0.512,0.19,1.13,0.285,1.847,0.285c0.535,0,1.04-0.028,1.511-0.084c0.473-0.057,0.947-0.141,1.428-0.253v-2.367
		c-0.197,0.042-0.402,0.078-0.615,0.106c-0.21,0.027-0.421,0.041-0.632,0.041c-0.832,0-1.394-0.286-1.691-0.855
		c-0.295-0.57-0.443-1.419-0.443-2.546v-9.846c0-2.492-0.726-4.398-2.175-5.714c-1.452-1.317-3.614-1.976-6.487-1.976
		c-1.55,0-2.869,0.152-3.962,0.454c-1.092,0.304-2,0.73-2.726,1.279c-0.725,0.549-1.286,1.201-1.679,1.954
		c-0.395,0.754-0.662,1.581-0.804,2.483l3.973,0.359c0.084-0.719,0.261-1.313,0.526-1.785c0.269-0.473,0.62-0.845,1.06-1.121
		c0.435-0.274,0.949-0.464,1.54-0.57c0.592-0.105,1.254-0.158,1.987-0.158c0.83,0,1.553,0.095,2.164,0.285
		c0.615,0.19,1.124,0.49,1.533,0.898c0.408,0.409,0.71,0.943,0.909,1.606c0.195,0.662,0.295,1.464,0.295,2.409v1.245l-5.133,0.085
		c-1.227,0.029-2.431,0.148-3.614,0.36c-1.184,0.21-2.236,0.591-3.158,1.141c-0.923,0.548-1.669,1.306-2.24,2.27
		c-0.569,0.966-0.855,2.201-0.855,3.709c0,2.111,0.576,3.774,1.731,4.986c1.156,1.211,2.881,1.816,5.177,1.816
		C216.31,33.15,217.256,33.037,218.08,32.812 M213.242,29.283c-0.668-0.675-1.003-1.634-1.003-2.873c0-1.029,0.186-1.859,0.56-2.494
		c0.372-0.632,0.877-1.126,1.509-1.478c0.635-0.354,1.372-0.588,2.21-0.708c0.838-0.119,1.721-0.186,2.651-0.2l4.162-0.084v1.879
		c0,0.746-0.148,1.529-0.444,2.345c-0.296,0.818-0.742,1.572-1.342,2.261c-0.599,0.691-1.351,1.257-2.259,1.702
		c-0.909,0.442-1.969,0.664-3.181,0.664C214.866,30.298,213.91,29.96,213.242,29.283 M251.811,32.728V17.496
		c0-1.409-0.137-2.624-0.412-3.646c-0.274-1.021-0.708-1.855-1.3-2.503c-0.591-0.648-1.345-1.127-2.261-1.437
		c-0.915-0.309-2.005-0.465-3.274-0.465c-0.984,0-1.852,0.103-2.598,0.307s-1.409,0.493-1.985,0.865
		c-0.579,0.374-1.084,0.829-1.522,1.363c-0.437,0.536-0.837,1.135-1.204,1.796h-0.063c0-0.281-0.007-0.63-0.021-1.046
		c-0.014-0.415-0.03-0.823-0.053-1.225c-0.021-0.401-0.039-0.757-0.052-1.067c-0.015-0.309-0.029-0.5-0.042-0.57h-3.593
		c0.013,0.099,0.028,0.317,0.042,0.654c0.015,0.339,0.029,0.744,0.042,1.216c0.015,0.471,0.024,0.972,0.031,1.5
		c0.009,0.528,0.012,1.031,0.012,1.511v17.979h3.804V19.48c0-1.141,0.139-2.15,0.422-3.03c0.281-0.882,0.68-1.622,1.193-2.221
		c0.514-0.598,1.133-1.056,1.86-1.373c0.725-0.317,1.537-0.475,2.44-0.475c0.887,0,1.629,0.095,2.229,0.285
		c0.598,0.19,1.079,0.515,1.446,0.972c0.366,0.458,0.63,1.06,0.792,1.806c0.162,0.747,0.244,1.677,0.244,2.79v14.493H251.811z
		 M275.876,32.728V17.496c0-1.409-0.139-2.624-0.412-3.646c-0.274-1.021-0.709-1.855-1.3-2.503
		c-0.593-0.648-1.345-1.127-2.262-1.437c-0.913-0.309-2.005-0.465-3.272-0.465c-0.987,0-1.854,0.103-2.601,0.307
		s-1.408,0.493-1.985,0.865c-0.578,0.374-1.084,0.829-1.521,1.363c-0.438,0.536-0.838,1.135-1.205,1.796h-0.063
		c0-0.281-0.008-0.63-0.021-1.046c-0.015-0.415-0.031-0.823-0.054-1.225c-0.021-0.401-0.04-0.757-0.053-1.067
		c-0.015-0.309-0.027-0.5-0.042-0.57h-3.592c0.014,0.099,0.028,0.317,0.043,0.654c0.013,0.339,0.027,0.744,0.041,1.216
		c0.015,0.471,0.027,0.972,0.033,1.5c0.006,0.528,0.01,1.031,0.01,1.511v17.979h3.803V19.48c0-1.141,0.142-2.15,0.423-3.03
		c0.281-0.882,0.679-1.622,1.194-2.221c0.514-0.598,1.133-1.056,1.859-1.373c0.724-0.317,1.537-0.475,2.439-0.475
		c0.887,0,1.63,0.095,2.229,0.285c0.599,0.19,1.08,0.515,1.445,0.972c0.366,0.458,0.632,1.06,0.794,1.806
		c0.16,0.747,0.242,1.677,0.242,2.79v14.493H275.876z"/>
	<path clip-path="url(#SVGID_2_)" d="M300.957,22.102v-0.509c0-1.718-0.166-3.316-0.496-4.796c-0.332-1.478-0.889-2.763-1.67-3.855
		c-0.781-1.091-1.815-1.947-3.105-2.567c-1.288-0.62-2.891-0.93-4.807-0.93c-1.408,0-2.731,0.208-3.971,0.624
		c-1.242,0.415-2.324,1.088-3.255,2.017c-0.931,0.93-1.661,2.138-2.197,3.623c-0.534,1.488-0.803,3.3-0.803,5.441
		c0,3.973,0.885,6.965,2.651,8.979c1.769,2.015,4.343,3.021,7.721,3.021c1.523,0,2.821-0.166,3.899-0.497
		c1.077-0.331,1.976-0.752,2.693-1.268c0.719-0.513,1.292-1.092,1.723-1.731c0.429-0.641,0.765-1.28,1.004-1.914l-3.338-0.951
		c-0.354,1.014-1.025,1.854-2.02,2.515c-0.991,0.662-2.313,0.993-3.962,0.993c-1.126,0-2.091-0.202-2.893-0.603
		c-0.803-0.4-1.461-0.965-1.975-1.69c-0.516-0.725-0.896-1.59-1.143-2.597c-0.246-1.008-0.368-2.111-0.368-3.306H300.957z
		 M284.688,19.186c0.057-1.382,0.289-2.519,0.698-3.414c0.407-0.893,0.908-1.602,1.499-2.123c0.593-0.52,1.236-0.883,1.935-1.088
		c0.697-0.203,1.361-0.306,1.996-0.306c1.901,0,3.359,0.553,4.373,1.659c1.014,1.105,1.627,2.863,1.839,5.272H284.688z"/>
</g>
</svg>
