<?xml version="1.0" encoding="utf-8"?>
<!-- Generator: Adobe Illustrator 15.0.0, SVG Export Plug-In . SVG Version: 6.00 Build 0)  -->
<!DOCTYPE svg PUBLIC "-//W3C//DTD SVG 1.1//EN" "http://www.w3.org/Graphics/SVG/1.1/DTD/svg11.dtd">
<svg version="1.1" id="Calque_1" xmlns="http://www.w3.org/2000/svg" xmlns:xlink="http://www.w3.org/1999/xlink" x="0px" y="0px"
	 width="212.6px" height="63.667px" viewBox="0 114.897 212.6 63.667" enable-background="new 0 114.897 212.6 63.667"
	 xml:space="preserve">
<g>
	<path fill="none" d="M196.4,141.44c0,11.2,0,22.399,0,33.601c-60.721,0-121.439,0-182.159,0c0-21.28,0-42.561,0-63.84
		c60.72,0,121.438,0,182.159,0c0,8.4,0,16.8,0,25.2c-3.021,0-6.042,0-9.149,0c0-3.125,0-6.07,0-9.023c-1.7,0-3.308,0-5.019,0
		c0,3.041,0,5.982,0,9.017c-3.211,0-6.313,0-9.52,0c-5.037-2.732-9.341-1.922-14.542,2.814c-4.157-5.76-10.106-5.839-16.551-0.077
		c0-1.221,0-2.305,0-3.39c-2.462,0-4.767,0-7.228,0c0,1.932,0,3.804,0,5.95c-5.378-9.676-19.804-8.538-24.403,0.936
		c-0.789-4.57-3.453-6.983-7.866-7.586c-4.306-0.589-7.777,0.788-10.418,4.354c-1.757-3.402-4.632-4.387-8.049-4.45
		c-3.498-0.063-6.185,1.472-8.508,4.405c0-1.426,0-2.487,0-3.596c-2.443,0-4.774,0-7.234,0c0,2.157,0,4.239,0,6.583
		c-4.687-9.727-20.706-9.761-25.476-0.694c-2.032-4.066-5.474-6.039-9.81-6.557c-4.647-0.555-8.935,0.271-12.379,3.742
		c-2.842,2.863-3.786,6.476-4.042,10.364c-0.435,6.565,3.407,12.49,9.473,14.187c1.849,0.518,3.878,0.675,5.804,0.578
		c4.594-0.231,8.312-2.132,10.553-6.369c0.082-0.154,0.22-0.279,0.365-0.461c2.916,4.928,7.29,6.941,12.79,6.887
		c5.531-0.057,9.83-2.273,12.81-7.092c0,2.094,0,4.188,0,6.277c2.57,0,5.021,0,7.567,0c0-0.521,0-0.955,0-1.391
		c0-4.719-0.032-9.438,0.023-14.158c0.014-1.139,0.152-2.336,0.53-3.4c0.849-2.391,3.164-3.607,5.653-3.172
		c2.229,0.39,3.215,1.711,3.369,4.525c0.009,0.16,0.005,0.319,0.006,0.479c0.028,5.277,0.057,10.556,0.083,15.834
		c0.002,0.424,0,0.85,0,1.291c2.604,0,5.058,0,7.614,0c0-0.513,0-0.945,0-1.379c0-4.681-0.033-9.359,0.022-14.039
		c0.015-1.265,0.141-2.57,0.489-3.777c0.696-2.411,2.674-3.529,5.319-3.225c2.239,0.258,3.596,1.711,3.644,4.297
		c0.104,5.558,0.079,11.115,0.106,16.674c0.002,0.472,0,0.942,0,1.463c2.589,0,5.045,0,7.664,0c0-2.086,0-4.11,0-6.135
		c2.784,4.565,6.789,6.761,11.981,6.922c5.104,0.156,9.401-1.381,12.427-5.858c0,1.694,0,3.388,0,5.086c2.553,0,4.979,0,7.546,0
		c0-0.481,0-0.913,0-1.344c0-4.679-0.006-9.358,0.006-14.038c0.002-0.758,0.024-1.523,0.136-2.271
		c0.431-2.896,2.658-4.726,5.512-4.57c2.636,0.143,3.852,1.687,3.93,4.99c0.001,0.039,0,0.078,0,0.119
		c0.028,5.277,0.057,10.555,0.084,15.834c0.002,0.42,0,0.84,0,1.289c2.607,0,5.037,0,7.614,0c0-0.515,0-0.983,0-1.453
		c0-4.681-0.026-9.359,0.019-14.039c0.012-1.188,0.114-2.41,0.415-3.555c0.659-2.506,2.735-3.742,5.436-3.407
		c2.233,0.277,3.56,1.717,3.607,4.333c0.105,5.558,0.078,11.115,0.105,16.674c0.002,0.471,0,0.938,0,1.412c2.611,0,5.071,0,7.494,0
		c0-7.267,0-14.453,0-21.671c1.865,0,3.839,0,5.911,0c0,3.033,0,5.978,0,8.933c1.713,0,3.321,0,5.019,0c0-3.042,0-5.987,0-9.026
		C190.417,141.44,193.408,141.44,196.4,141.44z"/>
	<path d="M196.4,141.44c-2.991,0-5.982,0-9.064,0c0,3.039,0,5.983,0,9.026c-1.696,0-3.306,0-5.019,0c0-2.955,0-5.899,0-8.933
		c-2.072,0-4.046,0-5.911,0c0,7.218,0,14.405,0,21.671c-2.423,0-4.883,0-7.494,0c0-0.474,0.002-0.941,0-1.412
		c-0.027-5.559,0-11.116-0.105-16.674c-0.049-2.613-1.374-4.055-3.606-4.333c-2.7-0.335-4.776,0.901-5.437,3.407
		c-0.301,1.145-0.403,2.366-0.415,3.555c-0.045,4.68-0.019,9.358-0.019,14.039c0,0.469,0,0.938,0,1.452c-2.577,0-5.006,0-7.614,0
		c0-0.448,0.002-0.868,0-1.288c-0.027-5.279-0.056-10.557-0.084-15.834c0-0.041,0.001-0.08,0-0.119
		c-0.078-3.305-1.294-4.849-3.93-4.991c-2.854-0.155-5.081,1.676-5.512,4.571c-0.11,0.748-0.134,1.515-0.136,2.271
		c-0.012,4.68-0.006,9.359-0.006,14.038c0,0.431,0,0.86,0,1.344c-2.565,0-4.993,0-7.546,0c0-1.698,0-3.392,0-5.086
		c-3.024,4.478-7.322,6.017-12.427,5.858c-5.192-0.162-9.197-2.355-11.981-6.922c0,2.023,0,4.049,0,6.135c-2.618,0-5.075,0-7.664,0
		c0-0.521,0.002-0.991,0-1.463c-0.027-5.559-0.002-11.116-0.105-16.674c-0.049-2.586-1.405-4.041-3.645-4.298
		c-2.646-0.304-4.623,0.814-5.319,3.226c-0.349,1.207-0.475,2.514-0.489,3.777c-0.056,4.68-0.022,9.358-0.022,14.038
		c0,0.435,0,0.867,0,1.38c-2.558,0-5.01,0-7.614,0c0-0.441,0.002-0.867,0-1.291c-0.026-5.279-0.055-10.557-0.083-15.834
		c-0.001-0.16,0.003-0.32-0.006-0.479c-0.154-2.813-1.141-4.135-3.369-4.525c-2.489-0.435-4.805,0.783-5.653,3.173
		c-0.378,1.064-0.517,2.262-0.53,3.4c-0.057,4.72-0.023,9.439-0.023,14.158c0,0.435,0,0.869,0,1.391c-2.546,0-4.998,0-7.567,0
		c0-2.09,0-4.185,0-6.277c-2.979,4.817-7.278,7.035-12.81,7.092c-5.5,0.056-9.874-1.959-12.79-6.887
		c-0.146,0.182-0.283,0.307-0.365,0.461c-2.241,4.237-5.958,6.138-10.553,6.369c-1.926,0.096-3.955-0.062-5.804-0.578
		c-6.064-1.695-9.906-7.619-9.473-14.187c0.257-3.888,1.2-7.5,4.042-10.364c3.444-3.471,7.731-4.296,12.379-3.742
		c4.336,0.518,7.777,2.491,9.81,6.557c4.77-9.067,20.789-9.032,25.476,0.694c0-2.342,0-4.424,0-6.583c2.46,0,4.792,0,7.234,0
		c0,1.109,0,2.169,0,3.596c2.324-2.934,5.011-4.469,8.509-4.405c3.417,0.063,6.292,1.048,8.048,4.45
		c2.641-3.566,6.112-4.943,10.418-4.354c4.413,0.604,7.077,3.016,7.867,7.586c4.6-9.474,19.024-10.611,24.402-0.936
		c0-2.146,0-4.018,0-5.95c2.461,0,4.766,0,7.228,0c0,1.085,0,2.169,0,3.39c6.443-5.762,12.394-5.683,16.551,0.077
		c5.201-4.736,9.505-5.547,14.542-2.814c3.206,0,6.309,0,9.52,0c0-3.035,0-5.977,0-9.017c1.711,0,3.317,0,5.019,0
		c0,2.953,0,5.897,0,9.023c3.107,0,6.13,0,9.149,0C196.4,138.08,196.4,139.76,196.4,141.44z M35.938,145.565
		c-1.011-3.019-1.733-3.934-3.498-4.504c-3.095-1-6.047,0.171-7.421,3.146c-1.625,3.517-1.626,7.133-0.037,10.668
		c1.088,2.422,3.173,3.525,5.827,3.314c2.474-0.197,4.313-1.764,5.027-4.282c0.105-0.377,0.206-0.756,0.332-1.221
		c1.574,0,3.12,0,4.688,0c0-2.399,0-4.698,0-7.121c-0.688,0-1.52,0-2.35,0C37.668,145.565,36.833,145.565,35.938,145.565z
		 M61.002,145.191c-0.832-2.775-3.004-4.364-5.741-4.426c-2.976-0.067-5.159,1.267-6.135,4.025
		c-1.142,3.227-1.173,6.518,0.146,9.717c1.04,2.524,3.02,3.707,5.746,3.69c2.72-0.018,4.747-1.2,5.71-3.739
		C62.292,150.501,61.549,147.484,61.002,145.191z M134.375,151.382c-6.113,0-12.083,0-18.054,0c0.088,3.439,1.403,5.633,3.971,6.402
		c3.798,1.142,6.856,0.063,8.866-3.209c1.687,0,3.43,0,5.217,0C134.375,153.462,134.375,152.442,134.375,151.382z M116.337,146.437
		c4.08,0,8.063,0,12.052,0c-0.388-3.76-2.422-5.683-5.961-5.671C118.92,140.777,116.682,142.826,116.337,146.437z"/>
	<path fill="none" d="M35.938,145.565c0.896,0,1.731,0,2.567,0c0.831,0,1.661,0,2.35,0c0,2.423,0,4.722,0,7.121
		c-1.567,0-3.113,0-4.688,0c-0.126,0.465-0.226,0.844-0.332,1.221c-0.715,2.52-2.556,4.085-5.027,4.282
		c-2.653,0.211-4.738-0.893-5.827-3.314c-1.589-3.535-1.587-7.151,0.037-10.668c1.375-2.974,4.327-4.145,7.421-3.146
		C34.204,141.631,34.926,142.548,35.938,145.565z"/>
	<path fill="none" d="M61.827,149.73c-0.015,0.948-0.515,3.189-1.099,4.729c-0.963,2.539-2.99,3.723-5.71,3.739
		c-2.727,0.017-4.706-1.166-5.746-3.69c-1.318-3.199-1.288-6.49-0.146-9.717c0.976-2.759,3.16-4.093,6.135-4.025
		c2.737,0.062,4.909,1.65,5.741,4.426C61.421,146.589,61.841,148.782,61.827,149.73z"/>
	<path fill="none" d="M134.375,151.382c0,1.061,0,2.08,0,3.193c-1.787,0-3.53,0-5.217,0c-2.01,3.272-5.068,4.351-8.866,3.209
		c-2.566-0.771-3.883-2.963-3.971-6.402C122.292,151.382,128.262,151.382,134.375,151.382z"/>
	<path fill="none" d="M116.337,146.437c0.345-3.609,2.583-5.659,6.091-5.671c3.539-0.012,5.573,1.912,5.961,5.671
		C124.401,146.437,120.417,146.437,116.337,146.437z"/>
</g>
</svg>
